/* XPM */
static char *pokeball17233813731723381731[] = {
/* columns rows colors chars-per-pixel */
"64 64 95 2 ",
"   c None",
".  c #010101",
"X  c #0E0202",
"o  c #0E0E0E",
"O  c #130304",
"+  c #1C0203",
"@  c #110F0F",
"#  c #1E0D0E",
"$  c gray7",
"%  c #1B1C1C",
"&  c #250406",
"*  c #2B0406",
"=  c #300305",
"-  c #360608",
";  c #3B0709",
":  c #340B0D",
">  c #3D191A",
",  c #252525",
"<  c #2A2A2A",
"1  c #2C3030",
"2  c #333333",
"3  c #373838",
"4  c #3D3D3D",
"5  c #42080A",
"6  c #4C090C",
"7  c #550A0D",
"8  c #5E0B0E",
"9  c #630B0F",
"0  c #670C10",
"q  c #6D0D11",
"w  c #730E11",
"e  c #7C0F13",
"r  c #6B2B2D",
"t  c #712326",
"y  c #6D2E30",
"u  c #763235",
"i  c #444444",
"p  c gray30",
"a  c #535353",
"s  c #5B5B5B",
"d  c #745F60",
"f  c #626262",
"g  c #6B6B6B",
"h  c #756162",
"j  c #727272",
"k  c #7A7B7B",
"l  c #810F13",
"z  c #8F0E13",
"x  c #841014",
"c  c #8D1116",
"v  c #941116",
"b  c #9A1217",
"n  c #A51117",
"m  c #A91117",
"M  c #AC141A",
"N  c #B3151B",
"B  c #BC161D",
"V  c #8B292D",
"C  c #C2171D",
"Z  c #C8161D",
"A  c #CA181F",
"S  c #D1131B",
"D  c #D0181F",
"F  c #D51921",
"G  c #DA1A21",
"H  c #E41B22",
"J  c #ED1C24",
"K  c #F11D25",
"L  c #886465",
"P  c #8B7C7D",
"I  c #838383",
"U  c #878A8A",
"Y  c #8A8A8A",
"T  c #939393",
"R  c #9D9797",
"E  c #979999",
"W  c #9B9B9B",
"Q  c #A3A3A3",
"!  c #ACACAC",
"~  c #AEB1B0",
"^  c #B1B3B3",
"/  c #BABABA",
"(  c #C5C5C5",
")  c #CACBCB",
"_  c LightGray",
"`  c gainsboro",
"'  c #DEE2E2",
"]  c #E3E5E5",
"[  c #E5E9E9",
"{  c #EBECEC",
"}  c #EBF0EF",
"|  c #ECF0F0",
" . c #F4F5F5",
".. c #F6F8F8",
"X. c #FFFFFF",
/* pixels */
"                                                                                                                                ",
"                                                                                                                                ",
"                                                                                                                                ",
"                                                                                                                                ",
"                                                        O O O O O O O                                                           ",
"                                                5 6 6 x C B B C B C C m 7 6 6                                                   ",
"                                          + q c A J J J K K J K K J J J J J H v x * +                                           ",
"                                      6 b D H K J J J J J J J J J J J J J J J K J D B 8                                         ",
"                                  5 b G K J J J J J J J J J J J J J J J J J J J J J J J N 0                                     ",
"                              7 v G K J J J J J J J J J J J J J J J J J J J J J J J J J K H N 0                                 ",
"                            9 F K J J J J J J J J J J J J J J J J J J J J J J J J J J J J J J J v                               ",
"                        ; e F K J J J J J J J J J J J J J J J J J J J J J J J J J J J J J J J J J b 7                           ",
"                      - N K J J J J J J J J J J J J J J J J J J J J J J J J J J J J J J J J J J J K F 9                         ",
"                      N J J J J J J J J J J J J J J J J J J J J J J J J J J J J J J J J J J J J J J K F 9                       ",
"                  ; N K J J J J J J J J J J J J J J J J J J J J J J J J J J J J J J J J J J J J J J J K F 0                     ",
"                  w K J J J J J J J J J J J J J J J J J J J J J J J J J J J J J J J J J J J J J J J J J K N                     ",
"                9 F J J J J J J J J J J J J J J J J J J J J J J J J J J J J J J J J J J J J J J J J J J J H c                   ",
"                m K J J J J J J J J J J J J J J J J J J J J J J J J J J J J J J J J J J J J J J J J J J J K G 5                 ",
"              v J J J J J J J J J J J J J J J J J J J J J J J J J J J J J J J J J J J J J J J J J J J J J J J B :               ",
"            ; F J J J J J J J J J J J J J J J J J J J J J J J J J J J J J J J J J J J J J J J J J J J J J J J J e               ",
"            v K J J J J J J J J J J J J J J J J J J J J J J J J J J J J J J J J J J J J J J J J J J J J J J J J A &             ",
"          5 G J J J J J J J J J J J J J J J J J J J J J J J J J J J J J J J J J J J J J J J J J J J J J J J J J J x             ",
"          7 J J J J J J J J J J J J J J J J J J J J J J J J J J J J J J J J J J J J J J J J J J J J J J J J J J K v             ",
"          N J J J J J J J J J J J J J J J J J J J J J J J J J J J J J J J J J J J J J J J J J J J J J J J J J J J G 6           ",
"        & Z J J J J J J J J J J J J J J J J J J J J J J J J J J J J J J J J J J J J J J J J J J J J J J J J J J J J 8           ",
"        e J J J J J J J J J J J J J J J J J J J J J J J J J J J J J J J J J J J J J J J J J J J J J J J J J J J J J B           ",
"        e K J J J J J J J J J J J J J J J J J J J J J J J J J J J J J J J J J J J J J J J J J J J J J J J J J J J K B X         ",
"        N K J J J J J J J J J J J J J J J J J J J J J J J J K K K K J J J J J J J J J J J J J J J J J J J J J J J K G 7         ",
"      5 H J J J J J J J J J J J J J J J J J J J J J J J K A N N N B K J J J J J J J J J J J J J J J J J J J J J J K K e         ",
"      5 H K K J J J J J J J J J J J J J J J J J J J J J l : @ @ @ # 9 A J J J J J J J J J J J J J J J J J J J J J K K x         ",
"      * b n m H J J J K J K J J J J J J J J J J J J H 9 @ E ` ` ` ( 1 = A J J J J J J J J J J J J K J J J K J K H m n 7         ",
"      < W Q R u t t t t B S S S A J K K K K K J J J w o W X.X.X.X.X._ 1 * G J J J J K K K K J S S S S B t t t t u R Q s         ",
"      i ..X.X.[ ' ] ] ' P d h h d V v v v v Z J J Z + g X.X.X.X.X.X.X._ 2 v J J J Z v v v v V d h h d P ' ] ] ' [ X.X.Y         ",
"      i ..X.X.X.X.X.X.X.X.X.X.X.X.) ~ ^ ^ ^ L r y > % _ X.X.X.X.X.X.X.X.k O r r r L ^ ^ ^ ~ ) X.X.X.X.X.X.X.X.X.X.X.X.Y         ",
"      i ..X.X.X.X.X.X.X.X.X.X.X.X.X.X.X.X.X...}  .U , ..X.X.X.X.X.X.X.X.k 3 } | } ..X.X.X.X.X.X.X.X.X.X.X.X.X.X.X.X.X.Y         ",
"      4 ` X.X.X.X.X.X.X.X.X.X.X.X.X.X.X.X.X.X.X.X.! @ W X.X.X.X.X.X.X...f s X.X.X.X.X.X.X.X.X.X.X.X.X.X.X.X.X.X.X.X...k         ",
"        Y X.X.X.X.X.X.X.X.X.X.X.X.X.X.X.X.X.X.X.X...i 3 ' X.X.X.X.X.X.I o _ X.X.X.X.X.X.X.X.X.X.X.X.X.X.X.X.X.X.X.X._ %         ",
"        Y X.X.X.X.X.X.X.X.X.X.X.X.X.X.X.X.X.X.X.X.X.( , % k _ X.X.../ 2 Y ..X.X.X.X.X.X.X.X.X.X.X.X.X.X.X.X.X.X.X.X.) $         ",
"        a ] X.X.X.X.X.X.X.X.X.X.X.X.X.X.X.X.X.X.X.X.X.) < . % f f s % Y X.X.X.X.X.X.X.X.X.X.X.X.X.X.X.X.X.X.X.X.X.X.Y           ",
"        $ ) X.X.X.X.X.X.X.X.X.X.X.X.X.X.X.X.X.X.X.X.X.X.[ T a p p f ` ..X.X.X.X.X.X.X.X.X.X.X.X.X.X.X.X.X.X.X.X.X...p           ",
"          I X.X.X.X.X.X.X.X.X.X.X.X.X.X.X.X.X.X.X.X.X.X.X.X.X.X.X.X.X.X.X.X.X.X.X.X.X.X.X.X.X.X.X.X.X.X.X.X.X.X.X./             ",
"          a ..X.X.X.X.X.X.X.X.X.X.X.X.X.X.X.X.X.X.X.X.X.X.X.X.X.X.X.X.X.X.X.X.X.X.X.X.X.X.X.X.X.X.X.X.X.X.X.X.X.X.E             ",
"            ^ X.X.X.X.X.X.X.X.X.X.X.X.X.X.X.X.X.X.X.X.X.X.X.X.X.X.X.X.X.X.X.X.X.X.X.X.X.X.X.X.X.X.X.X.X.X.X.X.X.[ p             ",
"            g  .X.X.X.X.X.X.X.X.X.X.X.X.X.X.X.X.X.X.X.X.X.X.X.X.X.X.X.X.X.X.X.X.X.X.X.X.X.X.X.X.X.X.X.X.X.X.X.X.Q               ",
"              ( X.X.X.X.X.X.X.X.X.X.X.X.X.X.X.X.X.X.X.X.X.X.X.X.X.X.X.X.X.X.X.X.X.X.X.X.X.X.X.X.X.X.X.X.X.X.X.{ a               ",
"              i _ X.X.X.X.X.X.X.X.X.X.X.X.X.X.X.X.X.X.X.X.X.X.X.X.X.X.X.X.X.X.X.X.X.X.X.X.X.X.X.X.X.X.X.X.X...j                 ",
"                Y X.X.X.X.X.X.X.X.X.X.X.X.X.X.X.X.X.X.X.X.X.X.X.X.X.X.X.X.X.X.X.X.X.X.X.X.X.X.X.X.X.X.X.X.X.(                   ",
"                  W X.X.X.X.X.X.X.X.X.X.X.X.X.X.X.X.X.X.X.X.X.X.X.X.X.X.X.X.X.X.X.X.X.X.X.X.X.X.X.X.X.X.X._ i                   ",
"                  a [ X.X.X.X.X.X.X.X.X.X.X.X.X.X.X.X.X.X.X.X.X.X.X.X.X.X.X.X.X.X.X.X.X.X.X.X.X.X.X.X.X.X.T                     ",
"                    g ] X.X.X.X.X.X.X.X.X.X.X.X.X.X.X.X.X.X.X.X.X.X.X.X.X.X.X.X.X.X.X.X.X.X.X.X.X.X.X...W                       ",
"                      g ] X.X.X.X.X.X.X.X.X.X.X.X.X.X.X.X.X.X.X.X.X.X.X.X.X.X.X.X.X.X.X.X.X.X.X.X.X.X.W                         ",
"                        g ) ..X.X.X.X.X.X.X.X.X.X.X.X.X.X.X.X.X.X.X.X.X.X.X.X.X.X.X.X.X.X.X.X.X.X.` E                           ",
"                          $ W X.X.X.X.X.X.X.X.X.X.X.X.X.X.X.X.X.X.X.X.X.X.X.X.X.X.X.X.X.X.X.X.X.) 4                             ",
"                              T _ X.X.X.X.X.X.X.X.X.X.X.X.X.X.X.X.X.X.X.X.X.X.X.X.X.X.X.X.X.{ ! i                               ",
"                                4 I ' X.X.X.X.X.X.X.X.X.X.X.X.X.X.X.X.X.X.X.X.X.X.X.X.X.| ! s                                   ",
"                                    1 E _ X.X.X.X.X.X.X.X.X.X.X.X.X.X.X.X.X.X.X.X.X.{ ! a                                       ",
"                                        i f ^ ` ..X.X.X.X.X.X.X.X.X.X.X.X.X.X.' ) g s                                           ",
"                                              % k W E ) X.X.....X...X.] W E T 3 %                                               ",
"                                                      3 a p a a a a a p                                                         ",
"                                                                                                                                ",
"                                                                                                                                ",
"                                                                                                                                ",
"                                                                                                                                ",
"                                                                                                                                "
};
