/* XPM */
static char *xpm_[] = {
/* columns rows colors chars-per-pixel */
"64 64 155 2 ",
"   c #090A0A",
".  c #17130B",
"X  c #19130C",
"o  c #020014",
"O  c #080117",
"+  c #040018",
"@  c #0D021B",
"#  c #1D0B1B",
"$  c #1D1311",
"%  c #261A0D",
"&  c #281C0C",
"*  c #230F1B",
"=  c #271810",
"-  c #24101B",
";  c #39260C",
":  c #210922",
">  c #290A29",
",  c #3F142E",
"<  c #3D0F32",
"1  c #3D1033",
"2  c #51330E",
"3  c #5B3A0D",
"4  c #422911",
"5  c #593710",
"6  c #593810",
"7  c #6A3A14",
"8  c #43132E",
"9  c #521435",
"0  c #5E1736",
"q  c #541A37",
"w  c #5E1836",
"e  c #53163D",
"r  c #541A39",
"t  c #7E4C11",
"y  c #561244",
"u  c #581446",
"i  c #5A0F51",
"p  c #601444",
"a  c #610F56",
"s  c #641055",
"d  c #6D1452",
"f  c #691059",
"g  c #711553",
"h  c #7C1557",
"j  c #7B1559",
"k  c #5E0A64",
"l  c #60076C",
"z  c #61096B",
"x  c #7B1360",
"c  c #630770",
"v  c #9C273D",
"b  c #9D283D",
"n  c #AA312E",
"m  c #B53724",
"M  c #B63825",
"N  c #BC3924",
"B  c #B5332C",
"V  c #AB2D35",
"C  c #A0273D",
"Z  c #A0283D",
"A  c #AA2A39",
"S  c #BE2A35",
"D  c #B5223E",
"F  c #B8243C",
"G  c #B52F3B",
"H  c #AB3035",
"J  c #AF303D",
"K  c #B53230",
"L  c #B33D34",
"P  c #BB3E33",
"I  c #B2313D",
"U  c #B83438",
"Y  c #C73E1F",
"T  c #CB3E1F",
"R  c #C53D20",
"E  c #CD3D22",
"W  c #C7322D",
"Q  c #CA352A",
"!  c #C12D33",
"~  c #8A570E",
"^  c #95590F",
"/  c #834A13",
"(  c #864519",
")  c #945610",
"_  c #975911",
"`  c #9B5A13",
"'  c #A1650D",
"]  c #BC7807",
"[  c #BF780B",
"{  c #BF4E2C",
"}  c #BC4033",
"|  c #CB401C",
" . c #DB4715",
".. c #DD4812",
"X. c #D6411D",
"o. c #DA4419",
"O. c #DB4818",
"+. c #ED5206",
"@. c #E04A10",
"#. c #C0780B",
"$. c #CD7E0A",
"%. c #DD7617",
"&. c #DB7219",
"*. c #E07717",
"=. c #E07817",
"-. c #E07718",
";. c #CE4020",
":. c #C2442C",
">. c #C34D2C",
",. c #C75E22",
"<. c #C95E23",
"1. c #C3522A",
"2. c #D36422",
"3. c #8D1F47",
"4. c #8F1F4B",
"5. c #901F4B",
"6. c #9F0C56",
"7. c #99035C",
"8. c #9E0958",
"9. c #861A54",
"0. c #821758",
"q. c #831859",
"w. c #AC1A46",
"e. c #AB1A49",
"r. c #A10F55",
"t. c #A41253",
"y. c #8D2047",
"u. c #8D2048",
"i. c #972541",
"p. c #982541",
"a. c #90204B",
"s. c #AF2743",
"d. c #B12643",
"f. c #DA9200",
"g. c #DA9100",
"h. c #EC8E0A",
"j. c #EC8E0B",
"k. c #EF9407",
"l. c #EA9D00",
"z. c #ED9109",
"x. c #EE9109",
"c. c #F09605",
"v. c #FA9E03",
"b. c #FA9E03",
"n. c #F2910A",
"m. c #F2910B",
"M. c #E98411",
"N. c #ECA300",
"B. c #ECA300",
"V. c #F2A600",
"C. c #F2A600",
"Z. c #F7AA00",
"A. c #FAAC00",
"S. c #F9AC00",
"D. c #FFB300",
/* pixels */
"Y d y % / x.P w.E N s r = ) j.G S x._ % r s N R w.P x./ = u d | | d u = / z.} w.E N a e % ` z.G U j.) % r s M E w.P n./ % y d Y ",
"d @ 4 N.<.t.E @.9.a + 5 V.{ t.X.T r.>.V.5 + s 9...E t.<.N.4 @ d d @ 4 N.,.t.E ..9.s + 5 V.{ t.X.X.t.{ V.5 + s q.@.E t.<.l.4 @ d ",
"u 4 7 %.>.d.K B p e 2 ( -.:.D B B d.:.%./ 2 y p m K d.>.%.7 4 u u 4 7 %.>.d.B m u e 2 / %.:.D B B d.:.%./ 2 e u B K d.>.%.7 4 y ",
"% N.%.7.! +.4.k @ % A.&.7.Q +.j j +.Q 7.&.S.% @ z 5.+.! 7.&.C.$ $ N.%.7.! +.5.z @ & S.&.7.Q +.j h +.Q 7.&.A.& @ z 5.+.! 7.*.N.% ",
"/ ,.>.! A C 0 1 t ) 1.:.Q A b 9 9 i.V W >.1.^ / 8 0 p.A ! >.<.t / <.>.! A C 0 8 t ) 1.:.W A p.9 9 v V W :.1.) t 1 w b V ! >.<./ ",
"z.t.d.+.Z c >   f.k.6.F +.p.k # # k i.+.D 6.n.f.  > c v +.D r.c.c.r.d.+.C z >   f.n.6.F +.p.z # # l p.+.F 6.n.f.  > c Z +.D t.z.",
"P E S u.w > ` ] L U X.K 9.9 : ' ` : 9 9.B X.U L #._ > 0 5.K E W P E K u.0 > ` ] L U X.B 9.9 : ` ' : 9 9.B X.U L [ ` > w a.K E } ",
"w...m k 8   ] b.s.e...n k 1 $ $.g.. 8 z n  .w.s.v.]   8 z M @.e.w.@.B z <   ] b.s.w. .n k 8 . g.$.X 8 k n  .w.s.V.]   1 z B @.w.",
"R q.p @ t f.L s.O.;.j y o ~ l.I I l.~ + y j E o.d.L g.t @ u q.E E 0.u @ t f.L s. .;.x y o ~ l.s.I l.~ o y j E o.d.L f.t @ p 9.R ",
"N s e % ^ n.U w.Y m i q ; ` M.G G M.` ; r i M R w.U m.) & e a N R a e % ^ n.U w.R m i q ; ` M.U G M.` ; r i M R w.U n.) % e f N ",
"a + 2 S.1.6.X...x i o 3 D.>.8.o.X.8.>.D.3 o i j ..X.r.1.A.2 o f f o 2 A.1.6.X...j i o 3 D.>.8.X. .8.>.D.3 o i x  .X.6.1.S.2 + s ",
"e 3 / &.:.F B n u q 3 ( 2.:.S V V S :.2.( 3 q y n K F :.&./ 3 e e 3 ( &.:.F B n y q 3 ( 2.:.S V V S :.2.( 3 r y V B F :.&./ 6 e ",
"% V.%.7.W +.9.z o ; D.2.7.Q +.j j +.Q 7.2.D.; o k 9.+.W 7.%.S.$ X S.*.7.W +.9.z o ; D.2.7.W +.j j +.W 7.2.D.; o z 9.+.W 7.-.C.% ",
"_ >.:.Q V p.9 1 ~ ` >.:.Q v 4.8 8 u.v Q :.>.` ~ , 9 p.V Q :.{ _ ^ :.:.Q V i.q 1 ~ ` >.:.Q C u.8 8 3.v Q :.>.` ~ 8 9 p.V Q :.{ _ ",
"j.e.d.+.v l : . l.M.8.S +.3.l * - z u.+.S 8.M.N.X : l v +.D r.k.c.t.d.+.v l : X l.M.8.S +.u.z - - l 3.+.S 8.M.l.. * l p.+.d.t.x.",
"G T K h r # ' $.I G o.V j 8 - #.#.- 8 j H X.U s.$.' # 9 j B X.G I X.K 0.9 # ' $.s.U o.H j 8 - #.[ - 8 j V X.U I $.' * 9 j K X.G ",
"G E B h 9 # ' $.J G o.V h 8 - #.#.* 8 h V o.G A $.' # 9 h B X.G G X.B j 9 # ` g.J U o.V j 8 - #.[ * 8 j A X.U J $.' # 9 j B E S ",
"j.e.d.+.v l : X l.M.8.S +.y.z * - l 4.+.S 8.M.l.X # k v +.D r.k.z.t.D +.i.l : . l.M.8.S +.3.l - - l 3.+.S 8.M.l.. : k v +.d.t.z.",
"` :.:.Q V i.9 , ~ ` >.:.Q v 3.8 8 y.v Q :.>.` ~ 8 9 p.V Q :.{ ^ ^ >.{ W A p.9 , ~ ` :.:.Q C u.8 8 4.v Q R >.` ~ 1 9 v V Q :.{ ` ",
"= V.=.7.W +.9.k o ; D.2.7.Q +.j h +.Q 7.2.D.; + z 9.+.W 7.%.Z.$ $ Z.%.7.W +.9.k o ; D.2.7.Q +.j j +.Q 7.2.D.; + k 9.+.W 7.%.V.% ",
"e 5 / &.:.F B n y q 3 ( 2.:.S V H S :.2.( 3 q y n B D :.&./ 2 y e 6 / &.:.F K n y q 3 ( 2.:.S V V S :.2.( 3 r y n K F :.&./ 5 e ",
"s + 2 S.>.r.X. .x i o 3 D.{ 8.o.o.8.:.D.3 o i j @.E r.>.S.2 + f f o 2 S.1.8.X...x i o 3 D.>.8.X.o.8.>.D.3 o i x  .X.r.1.S.2 + s ",
"N s e & ) n.U w.E M i r ; ` M.U U M.` ; r i M R w.U m.) & e a R N a e & ` m.U w.E M i q ; ` M.G G M.` ; q i m R w.K m._ & e s N ",
"R q.p @ t f.L d.o.E j y o ~ l.J A l.~ + y j E o.d.L g.t @ p 0.E ;.q.p @ t f.L d.O.R j y + ~ l.V I l.~ + y j Y  .d.L f.t @ u q.E ",
"w.@.B z 1   ] V.d.w. .n k 1 X $.$.X 8 k n @.w.d.v.]   < z M @.w.e.@.B z 8   ] b.s.w. .n k 1 . $.$.X , k n O.w.d.b.[   < z m  .w.",
"P E K a.w > ` ] L U E K 9.r : ' ' : 9 9.K E U L ] ` > 0 5.K E P } E K 5.0 > ` ] L U X.B 9.9 : ' ' : 9 9.B X.U L [ _ > w 5.K E P ",
"n.t.D +.b c >   g.n.r.F +.p.k # # z p.+.G r.n.f.  > c b +.D r.c.c.t.d.+.b z >   f.n.6.F +.p.z # # k v +.D 6.n.f.  > z b +.D t.x.",
"/ <.>.! A Z w < / _ 1.:.W V p.9 9 b A W :.1._ t 1 0 b A ! >.<.t / <.>.! A b w 1 t ) 1.:.W V v 9 9 p.V W :.1.^ / 1 w b A ! >.<./ ",
"% N.%.7.! +.a.z @ & S.&.7.Q +.j j +.Q 7.&.S.& @ z a.+.! 8.%.V.$ $ Z.%.7.! +.a.z @ & D.&.7.Q +.j j +.W 7.&.S.% @ z 5.+.! 7.%.N.= ",
"y 4 7 %.1.D K B p e 2 / %.:.F B B D :.%./ 2 y p m K D >.%.7 4 u i ; 7 %.>.D K M u y 2 / %.:.d.B B D :.-./ 2 e u m K D >.*.7 4 y ",
"d @ 4 V.<.r.E @.q.a o 3 Z.{ t.o.X.t.{ Z.6 o a q.@.E r.<.V.4 @ d g @ 4 Z.<.t.E @.q.s o 3 S.{ t.X.X.t.>.S.6 o s q.@.E t.<.V.4 @ d ",
"| g u $ t c.} e.T R f y $ _ k.s.G k._ $ e f N ;.e.P n.t $ u d | ;.d u $ t c.! e.E N f e $ _ z.G G k._ $ y f R E e.P c.t $ u g Y ",
"Y d y $ t n.P e.E N f e $ _ c.s.G k.^ $ e f N | w.P c./ X y g T ;.d u $ t c.} e.E R s e $ ^ z.G G z.^ X e s N E e.P n./ X y g T ",
"d @ 4 V.<.r.E @.q.a o 6 Z.1.t.X.X.t.{ S.6 o s 9.@.E r.<.V.4 O d d + ; N.<.r.E ..9.a + 5 Z.{ t.X.X.t.>.S.6 + a q.@.E t.<.V.4 @ d ",
"y 4 7 %.>.D K M p e 2 / %.:.d.K B D :.%./ 2 y u B B D >.%.7 4 y u 4 t &.>.d.K m u e 2 / %.:.D B B d.:.%./ 2 e p m K d.>.%.7 4 y ",
"= N.*.7.! +.5.z @ & S.&.7.Q +.j j +.Q 7.&.S.& @ z 5.+.! 7.%.N.= $ C.&.7.! +.a.z @ & S.&.7.Q +.j h +.Q 7.&.S.& @ z 5.+.! 7.%.N.% ",
"/ ,.>.! A b w 1 t ) 1.:.W V v 9 9 p.A W :.1._ t < 0 Z A ! >.<./ / <.1.! V C 0 8 t ) 1.:.W A v 9 9 v V W :.1.) t 1 w Z V ! >.<./ ",
"z.t.F +.b c >   f.n.6.F +.v k # # k p.+.F 6.n.f.  > z b +.d.t.n.c.r.D +.C c >   f.n.8.F +.p.k # # l i.+.F 8.n.f.  > c p.+.d.t.x.",
"P E B 5.w > _ ] L U X.B 9.9 : ` ' * 9 9.B X.U L [ ` > w 5.K E P P E K u.0 > ` ] L U X.B q.9 : ' ' : 9 9.B X.U L [ ` > w u.K E W ",
"w...m z 1   ] b.s.e...n k 1 . g.$.X 8 z n O.w.s.b.]   1 z B @.w.e.@.B z <   ] v.s.w...H k 8 X $.$.X 8 k n  .w.s.b.]   1 z B ..s.",
"E q.u @ / f.L d.O.R x y o ~ l.s.A l.~ + y x R O.s.L f.t @ u q.T T 0.p @ t f.L d. .R x y + ~ l.I A l.~ o y j E O.s.L f.t @ u 9.R ",
"N a e % ) n.U w.;.m i q ; ` M.U U M.` ; q i m E e.K n.) % e a N R i y = ) n.U w.R N i r ; ` M.G U M.` ; r i m R w.U n.) & e f N ",
"a @ 2 S.1.r.X. .j i o 3 D.:.8.o.X.8.:.D.3 o i x ..X.r.1.A.2 + f f o 2 S.1.8.X...j i o 3 D.>.r.X.o.8.>.D.3 o i x ..X.6.1.A.2 + s ",
"e 5 / &.:.D B n y q 3 ( 2.:.S H V ! :.2.( 3 q y H K F :.&./ 3 e e 3 / &.>.F B H y q 3 ( 2.:.S H V ! :.2.( 3 r y n K F :.&./ 5 r ",
"= V.=.7.Q +.9.k + ; D.2.7.Q +.j j +.Q 7.2.D.; o k 9.+.W 7.%.S.X $ Z.-.7.W +.9.k + ; D.2.7.Q +.j j +.Q 7.2.D.; + z 9.+.W 7.-.V.= ",
"` >.:.Q V p.9 , ~ ` :.:.Q Z a.8 8 u.v Q :.>.` ~ 8 9 p.V Q :.>.^ _ { :.Q A p.9 8 ~ ` { Q Q p.u.8 8 4.C W :.>.` ~ 8 9 p.V Q :.{ ` ",
"j.t.d.+.p.z : X l.M.8.S +.u.z : - k u.+.S 8.M.l.X : z b +.d.r.n.k.t.d.+.v l : X l.M.8.S +.u.z - * k 4.+.S 8.M.l.. * l p.+.d.t.j.",
"U X.B j 9 # ' $.J U o.V j 8 * #.#.- 8 j A o.U I $.' # 9 j B o.G G X.B h 9 # ' $.I U o.V j 8 - #.[ * 8 h H o.G J $.' * 9 j B X.I ",
"G X.B h 9 # ' $.J G o.V h 8 * ] [ * 8 j V X.G A g.` # 9 h B E G G X.B j 9 # ` g.A U o.V j 8 - #.[ * 8 j H o.U A g.` # 9 j K T G ",
"j.t.D +.p.k : X l.M.8.S +.3.l * * k 4.+.S 8.M.l.. : k p.+.d.t.n.k.t.D +.p.l : . l.M.8.S +.y.l - * l 4.+.S 8.M.l.. : k v +.d.t.j.",
"_ { :.Q V p.9 , ~ ` >.:.Q v u.8 8 4.C W :.>.` ~ 8 9 p.A Q :.>.) _ { :.Q A p.q 1 ~ ` :.:.Q v u.8 8 4.v W :.:.` ~ 1 9 p.V Q :.>._ ",
"= V.%.7.W +.9.k + ; D.2.7.Q +.j j +.Q 7.2.D.; o k 9.+.W 7.%.Z.X $ Z.%.7.W +.9.k @ ; D.2.7.Q +.j j +.Q 7.2.D.; + k 9.+.W 7.*.V.= ",
"r 2 / &.:.F B n y q 3 ( 2.W U V V S :.2.( 3 q y H B F :.&./ 5 e e 6 / &.:.F K n y q 3 ( 2.:.S V V S :.2.( 3 r y n K F :.&.( 5 r ",
"s + 2 A.1.r.X.O.j i o 3 D.>.8.o.o.7.>.D.3 o i x ..E 6.1.S.2 + s f o 2 S.1.r.X...x i o 3 D.>.7.o.o.8.>.D.3 o i j ..E r.1.A.2 + a ",
"N s y & ) n.U w.R M i r ; ` M.G U M.` ; q i m ;.w.U n.) & e a R N s e & ) n.U w.R N i q ; ` M.U G M.` ; q i M E w.U x.) % e a N ",
"E q.u @ t f.L d. .E j y + ~ l.I G l.~ o y j R  .d.L f.t @ p q.T ;.q.p @ / f.L d.O.R j y + ~ l.A G l.~ o y j R o.d.L g.t @ p 9.T ",
"e.@.m z 1   ] b.d.w...n k 8 . $.$.. 1 z n ..w.s.b.]   1 z B ..e.e.@.M z 8   ] b.d.w...n k , X $.g.. , k H ..w.s.v.#.  < z M @.w.",
"W E K 5.w > ` [ L U X.K 9.9 : ' ' : 9 9.B X.U L ] ` > w 4.K E } } E K 5.0 > ` ] L U X.K 9.9 : ' ` : 9 9.B X.U L ] _ > 0 5.K E P ",
"x.t.D +.p.c >   g.m.r.D +.i.k # # k p.+.F 6.n.f.  > c v +.D r.c.n.t.d.+.v c >   f.n.r.F +.p.k # # k p.+.F 6.n.f.  > z v +.D r.x.",
"t <.>.! A Z 0 8 t ) 1.:.W V v r 9 b V W :.1._ t 1 0 C V ! >.<.t t <.>.! A v 0 < t ) 1.:.W V p.9 9 p.V W :.1.^ / , 0 C A ! >.<./ ",
"= N.%.7.! +.a.z @ & S.&.7.Q +.j h +.Q 7.&.S.% @ z 5.+.! 7.&.N.$ $ C.%.7.! +.5.z @ & A.&.7.Q +.j j +.W 7.&.S.% @ z a.+.! 7.*.N.= ",
"u 4 7 %.>.d.K M u e 2 / %.:.d.B B D :.=./ 2 y p M B D >.&.t ; u u 4 7 %.>.d.S N p e 2 / -.:.d.m B d.:.*./ 2 y u N K D >.*.7 4 y ",
"d @ 4 N.<.t.E ..9.s + 6 C.:.r.o.X.t.{ V.6 + a 9.@.E t.<.N.; @ d g @ 4 N.,.t.E @.q.s + 6 V.>.t.X.X.t.:.C.6 + s q...E t.<.N.4 @ d ",
";.d u = / m.} w.E N f r = _ j.G I j.` = r s N E w.P z./ = u d | ;.d u = / z.} w.R N s e = ` j.I I j.` & r s N E w.P z./ = y d Y "
};
