/* XPM */
static char *patron217233812971723381731[] = {
/* columns rows colors chars-per-pixel */
"64 64 37 1 ",
"  c #22B14C",
". c #20B24D",
"X c #775437",
"o c #F8AB11",
"O c #FFC30E",
"+ c #FFC20E",
"@ c #FFC20B",
"# c #58BBA1",
"$ c #1EB34D",
"% c #765537",
"& c #F9AC10",
"* c #FFC40D",
"= c #FFC30D",
"- c #FFC30B",
"; c #58BCA1",
": c #912832",
"> c #C34E2B",
", c #C6592B",
"< c #C6582B",
"1 c #C7582A",
"2 c #7A5668",
"3 c #D3836E",
"4 c #DC9674",
"5 c #DB9574",
"6 c #DE9572",
"7 c #589DB5",
"8 c #E6AC7B",
"9 c #E5AB7A",
"0 c #E8AB79",
"q c #4FB3C7",
"w c #E5AA7A",
"e c #E8AA79",
"r c #4FB2C6",
"t c #EAAA77",
"y c #50B2C6",
"u c #1CB5E1",
"i c white",
/* pixels */
"              .XoO++++++++++++@##@++++++++++++OoX.              ",
"              .XoO++++++++++++@##@++++++++++++OoX.              ",
"              .XoO++++++++++++@##@++++++++++++OoX.              ",
"              .XoO++++++++++++@##@++++++++++++OoX.              ",
"              .XoO++++++++++++@##@++++++++++++OoX.              ",
"              .XoO++++++++++++@##@++++++++++++OoX.              ",
"              .XoO++++++++++++@##@++++++++++++OoX.              ",
"              .XoO++++++++++++@##@++++++++++++OoX.              ",
"              .XoO++++++++++++@##@++++++++++++OoX.              ",
"              .XoO++++++++++++@##@++++++++++++OoX.              ",
"              .XoO++++++++++++@##@++++++++++++OoX.              ",
"              .XoO++++++++++++@##@++++++++++++OoX.              ",
"              .XoO++++++++++++@##@++++++++++++OoX.              ",
"              .XoO++++++++++++@##@++++++++++++OoX.              ",
"..............$%&*============-;;-============*&%$..............",
"XXXXXXXXXXXXXX%:>,<<<<<<<<<<<<1221<<<<<<<<<<<<,>:%XXXXXXXXXXXXXX",
"oooooooooooooo&>34555555555555677655555555555543>&oooooooooooooo",
"OOOOOOOOOOOOOO*,489999999999990qq099999999999984,*OOOOOOOOOOOOOO",
"++++++++++++++=<59wwwwwwwwwwwwerrewwwwwwwwwwww95<=++++++++++++++",
"++++++++++++++=<59wwwwwwwwwwwwerrewwwwwwwwwwww95<=++++++++++++++",
"++++++++++++++=<59wwwwwwwwwwwwerrewwwwwwwwwwww95<=++++++++++++++",
"++++++++++++++=<59wwwwwwwwwwwwerrewwwwwwwwwwww95<=++++++++++++++",
"++++++++++++++=<59wwwwwwwwwwwwerrewwwwwwwwwwww95<=++++++++++++++",
"++++++++++++++=<59wwwwwwwwwwwwerrewwwwwwwwwwww95<=++++++++++++++",
"++++++++++++++=<59wwwwwwwwwwwwerrewwwwwwwwwwww95<=++++++++++++++",
"++++++++++++++=<59wwwwwwwwwwwwerrewwwwwwwwwwww95<=++++++++++++++",
"++++++++++++++=<59wwwwwwwwwwwwerrewwwwwwwwwwww95<=++++++++++++++",
"++++++++++++++=<59wwwwwwwwwwwwerrewwwwwwwwwwww95<=++++++++++++++",
"++++++++++++++=<59wwwwwwwwwwwwerrewwwwwwwwwwww95<=++++++++++++++",
"++++++++++++++=<59wwwwwwwwwwwwerrewwwwwwwwwwww95<=++++++++++++++",
"@@@@@@@@@@@@@@-160eeeeeeeeeeeetyyteeeeeeeeeeee061-@@@@@@@@@@@@@@",
"##############;27qrrrrrrrrrrrryuuyrrrrrrrrrrrrq72;##############",
"##############;27qrrrrrrrrrrrryuuyrrrrrrrrrrrrq72;##############",
"@@@@@@@@@@@@@@-160eeeeeeeeeeeetyyteeeeeeeeeeee061-@@@@@@@@@@@@@@",
"++++++++++++++=<59wwwwwwwwwwwwerrewwwwwwwwwwww95<=++++++++++++++",
"++++++++++++++=<59wwwwwwwwwwwwerrewwwwwwwwwwww95<=++++++++++++++",
"++++++++++++++=<59wwwwwwwwwwwwerrewwwwwwwwwwww95<=++++++++++++++",
"++++++++++++++=<59wwwwwwwwwwwwerrewwwwwwwwwwww95<=++++++++++++++",
"++++++++++++++=<59wwwwwwwwwwwwerrewwwwwwwwwwww95<=++++++++++++++",
"++++++++++++++=<59wwwwwwwwwwwwerrewwwwwwwwwwww95<=++++++++++++++",
"++++++++++++++=<59wwwwwwwwwwwwerrewwwwwwwwwwww95<=++++++++++++++",
"++++++++++++++=<59wwwwwwwwwwwwerrewwwwwwwwwwww95<=++++++++++++++",
"++++++++++++++=<59wwwwwwwwwwwwerrewwwwwwwwwwww95<=++++++++++++++",
"++++++++++++++=<59wwwwwwwwwwwwerrewwwwwwwwwwww95<=++++++++++++++",
"++++++++++++++=<59wwwwwwwwwwwwerrewwwwwwwwwwww95<=++++++++++++++",
"++++++++++++++=<59wwwwwwwwwwwwerrewwwwwwwwwwww95<=++++++++++++++",
"OOOOOOOOOOOOOO*,489999999999990qq099999999999984,*OOOOOOOOOOOOOO",
"oooooooooooooo&>34555555555555677655555555555543>&oooooooooooooo",
"XXXXXXXXXXXXXX%:>,<<<<<<<<<<<<1221<<<<<<<<<<<<,>:%XXXXXXXXXXXXXX",
"..............$%&*============-;;-============*&%$..............",
"              .XoO++++++++++++@##@++++++++++++OoX.              ",
"              .XoO++++++++++++@##@++++++++++++OoX.              ",
"              .XoO++++++++++++@##@++++++++++++OoX.              ",
"              .XoO++++++++++++@##@++++++++++++OoX.              ",
"              .XoO++++++++++++@##@++++++++++++OoX.              ",
"              .XoO++++++++++++@##@++++++++++++OoX.              ",
"              .XoO++++++++++++@##@++++++++++++OoX.              ",
"              .XoO++++++++++++@##@++++++++++++OoX.              ",
"              .XoO++++++++++++@##@++++++++++++OoX.              ",
"              .XoO++++++++++++@##@++++++++++++OoX.              ",
"              .XoO++++++++++++@##@++++++++++++OoX.              ",
"              .XoO++++++++++++@##@++++++++++++OoX.              ",
"              .XoO++++++++++++@##@++++++++++++OoX.              ",
"              .XoO++++++++++++@##@++++++++++++OoX.              "
};
