/* XPM */
static char *xpm_[] = {
/* columns rows colors chars-per-pixel */
"64 64 160 2 ",
"   c #CCA47F",
".  c #DBAD7F",
"X  c #DEB27F",
"o  c #E3B47F",
"O  c #AE8C86",
"+  c #B59284",
"@  c #BC9684",
"#  c #BE9984",
"$  c #BB9788",
"%  c #BE9B88",
"&  c #C09784",
"*  c #C49D84",
"=  c #C99F83",
"-  c #C29D89",
";  c #C6A084",
":  c #CCA384",
">  c #CEA885",
",  c #C6A188",
"<  c #CBA588",
"1  c #CFA888",
"2  c #D4A781",
"3  c #D4A681",
"4  c #D4A682",
"5  c #D4A783",
"6  c #D5A783",
"7  c #D0A784",
"8  c #D1A784",
"9  c #D2A784",
"0  c #D3A785",
"q  c #D2A786",
"w  c #D1A683",
"e  c #D2A881",
"r  c #D3A981",
"t  c #D1A883",
"y  c #D1A983",
"u  c #D3A882",
"i  c #D3A883",
"p  c #D3A983",
"a  c #D2AA83",
"s  c #D3AB83",
"d  c #D4A981",
"f  c #D5AA81",
"g  c #D6AA81",
"h  c #D6AB81",
"j  c #D4A983",
"k  c #D7A982",
"l  c #D5AB83",
"z  c #D7AA82",
"x  c #D6AB82",
"c  c #D7AB82",
"v  c #D6AA83",
"b  c #D6AB83",
"n  c #D6AC80",
"m  c #D5AC83",
"M  c #D6AC82",
"N  c #D7AC82",
"B  c #D6AD82",
"V  c #D6AC83",
"C  c #D7AC83",
"Z  c #D7AD83",
"A  c #D0A884",
"S  c #D0A984",
"D  c #D3A984",
"F  c #D2A885",
"G  c #D2A985",
"H  c #D3A985",
"J  c #D1AA85",
"K  c #D2AA84",
"L  c #D3AB84",
"P  c #D2AB85",
"I  c #D3AB85",
"U  c #D0A986",
"Y  c #D2A886",
"T  c #D1AA86",
"R  c #D1AA87",
"E  c #D0AB87",
"W  c #D3AB86",
"Q  c #D4A884",
"!  c #D5A884",
"~  c #D4A984",
"^  c #D4A885",
"/  c #D4AA84",
"(  c #D5AB84",
")  c #D6AA84",
"_  c #D7AA84",
"`  c #D6AB84",
"'  c #D7AB84",
"]  c #D3AC84",
"[  c #D5AC84",
"{  c #D5AD84",
"}  c #D4AC85",
"|  c #D5AC85",
" . c #D7AD84",
".. c #D7AC85",
"X. c #D7AE84",
"o. c #D7AE85",
"O. c #D4AC86",
"+. c #D5AD86",
"@. c #D4AB84",
"#. c #D8AB81",
"$. c #D8AA83",
"%. c #D9AD80",
"&. c #D9AC81",
"*. c #DBAD81",
"=. c #DBAF80",
"-. c #D9AD82",
";. c #D8AC83",
":. c #D9AD83",
">. c #DBAD82",
",. c #D8AE82",
"<. c #DAAE82",
"1. c #DAAF82",
"2. c #DEAF83",
"3. c #D8AD84",
"4. c #D9AD84",
"5. c #DAAD84",
"6. c #D8AE84",
"7. c #D8AE85",
"8. c #D9AE85",
"9. c #D8AF85",
"0. c #DBAE85",
"q. c #DBAF85",
"w. c #D8AD86",
"e. c #D8AE87",
"r. c #DCAF84",
"t. c #D9AE83",
"y. c #D2AC88",
"u. c #D8AF88",
"i. c #D7B183",
"p. c #D6B086",
"a. c #DBB080",
"s. c #DAB081",
"d. c #DCB081",
"f. c #DEB381",
"g. c #DDB182",
"h. c #DCB083",
"j. c #DDB183",
"k. c #DFB182",
"l. c #DEB183",
"z. c #DDB283",
"x. c #DFB282",
"c. c #DFB383",
"v. c #DEB483",
"b. c #D9B084",
"n. c #DAB084",
"m. c #DBB085",
"M. c #DBB185",
"N. c #DBB385",
"B. c #DBB087",
"V. c #DCB084",
"C. c #DDB184",
"Z. c #DCB385",
"A. c #DDB186",
"S. c #DEB486",
"D. c #DCB283",
"F. c #E0AE80",
"G. c #E0B683",
"H. c #E1B583",
"J. c #E4B882",
"K. c #E9B984",
/* pixels */
"4 j j . >.0.4 4 4 >.h.2 y h.X . ..: > = = = : :   * @   * ,.H.. 4 = = $ = = - @ ; ; y . j y @ @ O % # > J h.h.; = @ $ & = = J 4 ",
"j ..,.h.8.A.,.8.8.S.B.2 j h.h.,.a.j J 2 : : > 1 ; > * * ; A.H.$.$.: : * > : : & : : y m ....* - + - - > s B.G.J > # ; * > > ..4 ",
"= : > > w 8.h.h.h.J > : 2 $.j j 8.j ,.8.* @ $ * m m 4 2 ; j y > J : : = ....J * * @ ; ; > : = ; $ @ + ; : 2 m ,...* > ; i...> = ",
"  : : : ; 8.h.h.h.J : 8 m ,.,.y 8.,.$.8.* % * : m a.8.p.y J 2 2 ( 8 8 q J R 1 : > ; > y J y s > % ; ; > J 8 j 0.8.> > : m s : * ",
"@ * = = * y . y 2 ; = y ( m B.y 2 J ....: & & : j A.S.f...> * ; > y 0 = ; @ - * y $.$.$...f.G.A.> > > . y > y j j y > * ; ; * @ ",
"  = - ; = > > > < = * s ..P ..y ( 2 ..R = * : J j ,...a.p.> : > J h.A.( J : : ; y . j m ( m B.8.: : > p.,.j ..J m j y > > ; = * ",
"@ * @ # @ = * * @ * ; s y = ; : 8 2 : = = = y y > > = y 2 > ; > y G.o m ,.; : ; > : : : : = = ; # * = ... ,.m * > j s y ; @ @ @ ",
"& = * * ; ; * : > ;   m y = > j 8.8.8 * * ; B.8.> : = 2 y J y a.>.H.G.m j = : : 8.8.,...J >   :   > : s $.J R % < j B.A.> * > ; ",
"; * * : = = * > : : > 2 > = ; j a.,.J = = ; 0.8.= = * >   y P h.>.>.A.2 y : : = 0.,.. ,.j y ; = 4     4 8 : = + % 8 a.A.P : > : ",
"2 J ....8 y ; ( 2 . m j 2 * >   m m J : J y 8.8.; > > s m B.f.a.A.,.( : ; = : ; ( m h.A.m m > = = = 4   8 * % $ - * : > P y 8.( ",
": y ,.,.2 y : y > 4 j 4 > ; : ; s m . > m $.,.8.> > : s P A.f.p.( y J ; * = : : 8 J a.B.. m ; : = : = w > * $ & * * = ; > 2 8.$.",
"  2 . j $.J * = = >   : : @ @ @ ; ; s 0.J.J.J.H.f.a.: : ; ..i.: ; > J $.( : 2 > ; * * ; ; ; = - $ : : : > * = > 1 * ; ; y . y > ",
"= 4 $.$.j J * * * J 2 2 > @ @ $ - = ..,.G.G.h.f.N.a.> : * y.P : = ; > ( j 2 8 > 8 = = = = * : : - R 8 8 2 * : : > y s y ,.j j > ",
"= 4 2 . 8 > @ * * 8.0.,.P * @ @ * = > > > ; > > ; ; : : * - * * * = = = > 2 2 2 J ( > : * ; > > ; j j j j ; * : P A.f.f.h.,.2 = ",
"> j ( ( y : @ # - p.,.,.m ; : ; : w w w : > J J 8 y : > : : - P ( > : : J 8.8.2 ( J 8 8 > J $.a.m h.8.$.j : ; ; ..N.h.A.h.$.8 : ",
"  y 8...= - + + @ : : : >   > > 8 w w w : : j 2 j j w > : : ; N.H.2 : * J 8.m > : : 8 8 j . $.X f.h.,.$.> @   * > m J 2 2 = w w ",
"  j ,.,.2 : * - $ = < : : : j ,.0.h.m y > : $.$.. j 2   2 = * a.G.  y = B.J.B.: : , > J j . $.h.h.f.8.m . * # * : ( ,.$.m : 2 w ",
"  > ,.m > > ; : @ @ * < 4 = y j h.H...2 w : $.. j m ; > = * = j $.> y = B.K...= @ + * : ..$.$.,.j j 2 > ; * # * : = j j y : w = ",
": y a.f.,.m m ( > : 1 a.$.= j . a.m P > > 2 y y : : - = * & * > y 2 2 > p.f.P ; ; - > y j m m m 8 2 > ; ; ; ; ; 8 2 j $.A.8.J : ",
"> . h.h.,.,.m j > 2 y h.>.w $.$.m 2 > * > 2   ; * - # * * * = :   y > 2 m m > : ; ; > 2 y m . m = : = : > ; ;   8 2 m ( A.A.J = ",
"..a.h.B.y 1 = > j ,.B.m m m m X i.; : : 0.G.J 8 * * * : ; y y h.A.X a.2 j . B.B.P ..y j A.f.y   > j ,.j 4 2 > = * * : : y s S.h.",
",.,.8.8.j > - P ,.,.m 2 y ..p...P ; : : H.h.8 q = * * :   y m h.A.h.B.J y y B.a.m j j m G.h.y > 2 j j m j > > = # @ - * J j H.X ",
"> 2 > ..G.S.J S.J.X ,.2 y > : - - @ ; : h.G.4 8 = = & : : j s > : : ; = = + > m . ( > y a.,.  : ; j j a.,.j y ; ; @ * * 8.h.>.X ",
"; : : m S.S.s v.G.h.,.y 2   * @ # # * * A.S.( 8 : 8 : J j >.m 2 : * = & - # R ( j ..J y $.,.: > ; m m h.h.m > ; : # - * 8.H.H.H.",
"* = ;   4 8 ; J j ,.8.j ( = : @ @ @ * * > >   : : j ,.m ,.X >.y : * @ @ ; = : = >   ,.,.. ,.; : : m ,.X 8.8 : > : ; ; = j $.h.>.",
"* = : 4 0 2 = J ( ,.>.,.( : : ; ; * : = 2 : * * : . >.,.,.H.h.i.P ; * * y 2 8 ; y m ,.>.a...= : : 8.,.h.h.( 2 j ..s j y 8.j h.>.",
"* : :   ; : =   : m $.j j 2 > ; < * * = * @ $ * : ..>.>.>.,.. . B.:   = : : w = ( j ,.,.> : ; = = $...m ,.4 4 $.a.,.a.j ( 8 a.,.",
": 8 2 $.B...2 > ; m m j y ; : : > > P ( 8 : : > > ( ( ,.8.J J y J ; = = : > 2 ; P s ..s : : * : : > : P m h.G.G.G.h.G.H.8.8 R : ",
"w 8 2 8.G.A.y y : 2 > : = @ - = : : m m y : : w ; : * : w = * & * * = * = = - * 2 > ; = @ % ; : * # @ ; : A.G.H.J.h.G.G.8.> * + ",
"A.H.m a.m a.j m 8 2 2 : ; = > j ,.8.p.> w   w 8   ; * : : : * * * * * & : J : * ; : ; : * : J ....J ; : > G.H...B...h.h...: * - ",
"H.H.$.,.> m j m 2 j j 2 2 ; > j h.,.P : w : 2 > * : * = = * * * * * @ * > s : @ = ; > : - ; y a.a...: :   G.h.> > 2 a.B.J * * * ",
"o H.$.J % > y N.,.h.S.m j ..a.B.0.y : # = = = : : $.8.J * * $ * # @ - ; : = * @ > y j y * = : J ..p...B.h.h.A.; ; : ..,...J : & ",
"J.G.8 1 # > j h.h.o f.,.m X A.m ..= - @ * * * = > j ,.y = ; ; @ * * : : ; * - ; ..8.$.( * ; * 8 : j $.G.o >.A.; ; = y $.,..., @ ",
",.8.: > : y . >.,.G.h.h.X G.S.> : = : < = * * = 2 y 2 > * ; ; = ; > ( ; : * J y H.H.,.j ; ; : 8 w j $.J.J.o h.> > = y j a.a.: @ ",
"$.8.: y m a.0.8.,.h.h.a.N.X a.; ; : : 8 : : = > y y > ; #   ; > J ,.,.2 J J B.a.J.H.,.8 2 > > 8 ( a.,.J.J.G.f.j 2 > J $.p.p.: @ ",
": 8 > ..H.f.,.8.$.$.j y   > > = = = ( 0 8 w : : : > & * & @ * y j ,.,.8 8.h.G.G.G.H.j 2 2 > 2 8 :   4 ,.,.h.h.m j 2 2 > > : * @ ",
"j ,.,.A.A.B.P J J y J > y m ..; 2 : > < : : : w . y ; ; #   # m h.o G.B.A.h.G.A.h.A.h.a.h.a.j y : 2 > J J ..( ( j > : > > w = @ ",
",.>.h.A.J 1 * * # * = = y m m > : * $ + * * = 8 2 J ; = + %   s o o G.h.h.j j 2 j ( a.h.G.h.> > * * $ # # * = = ; @ $ $ * ; * @ ",
"m m y P : 1 > J > ; * * : B.( : : * ; * J ( $.8.,.8.2 : - P ..G.f.f.f.a.,.j y : j j G.G.h.8.> P ..P : * * : > w > @ * ; R ( 8 : ",
"2 > = - @ = > ( ( ; # # - 8 J = = * * : 8.,.$.,.,.8.: > = 8.,.H.S.a.j   2 > : * J ( G.h.2 > * s B.8.8 ; * > : : ; * , * ( $.y 2 ",
": > # - @ : >   2 y > : > : 8 2 8 8 > : 0.h.a.B.j 4 : 2 = 8 J J P y j 2 J : 8 ; 8.,.,.,.; ; = > 8 q w : : > : - ; * : : y j h.,.",
"= ; # * * : > 2 > y 2 > ; * : : w w > > A.A.B...w : = = * : ; : : > 2 > > - > > ,.8.( J ; * @ ; = w = = = ; = @ * * ;     w A.F.",
"j B.> > * ; @ > > ,.,.j 8 * : : w w 0 ( m m > ; = = = = * - * # # ; ; 2 : # y.a.m   : : > > * : = 8 8 : : = * $ * : > : : : ( j ",
". >.j m : ; * 1 8 m m y ( ; : 2 w : ( $.m m ; * = = = ; : = - # % - : > < * y.,.s > ; ; m ..* : > 2 : : > = * * ; : > : 8 > q > ",
">.>.8.a.( J : : = ; ; = > > 2   2 ; a.>.. ..* # - : > y > 2 > > ; ; = = * & ..h.> = * ; H.B.: 8 > 2 : : > J ( : : * ; ; J ( : $ ",
"A.0.,.A.,...: : ; 2 > 2 y y 2 > : > B.h.h.A., ; ; : : y 2 y > : =   : : : : a.h.P : > J S.h.8 ( 8 8 w w 2 ,.$.> > = ; = ( ( 1 * ",
"2 8 y ,.h.>.y 2 ; j j 8.,.j j   ; : m $.f.B.: ; + % @ : 2 : ; @ @ = : 8 m 8.>.h.B.j j j m m y y = : = 8 > . a.: ; @ - * ( ,.8 : ",
": 8 s a.o G.N.s y m m X h.j j : : 2 m ,.N.u.: ; + , : J 8 < , < > > 8 < ( ( A.h.m j . j j B.m ,.: : = 8 > B.p.> : @ * : ..$.j 8 ",
"& : 2 ,.H.F.H.8.2 > 2 ,.h.> > @ : : ( m y : * * + - 8 2 J ; # J 8 2 > & ; ; 2 . . J 2 > ; P ....; * & * * 0 J = * @ = = 4 2 2 2 ",
"* = J a.J.G.0.8.8 m ,.>.B.; : ; J 4 ( ( 2 2 * & $ : 8 m a.> < J ( 2 8 : y...p.y 2 4 2 y > > ..8.$.> $ * * 8 8 > *     ; $.$.j y ",
"# * 8 ,.G.>.2 ; : m ,.,.J @ * ; > 8 j 8 > >   @ $ * : ,.a.s   y 8 = >   a.S.i.> J 2 j ..; 2 8 $.j : @ @ + *   ; = $ ; : m $.j 2 ",
"* 1 B.G.J.h.; = * m ..,.( * > j . j J > : ; @ & * : 2 h.G.f.a.y < : J f.S.,.> ; > 8 B.a.j y 2 ( > - @ @ * * *   = @ ; : j j $.y ",
"* > 0.J.K.e.* * - > j ,.( * : y . y y : : * # * * ; 8 A.G.G.B.> = = ( H.N.s >   ; : >.A.m j y 8 = ; # * - * ; * * * * = J 4 j 4 ",
"* : ,.>.>.R @ * @ : 2 j y > y y B.8.m ..: * * - ; j ,.8.,...> ; = ( ..$.s * > m 2 ; y j m m : : # > ( p...> ; @ @ @ - - > > ( 4 ",
"= : O.8.0.q # $ + * ; ,.  > y y 8.8...J < : : : > ( ( $.j ( 8 : : J m ,...; P ,.m 8 y y ..P : : * P ..m ..: ; - ; # , : J J ..j ",
"@ - * J $.> $ @ + ; > h.G.. j m ( > : @ $ * ( (   2 : J $.H.S.y : 2 ,.H.H.m h.X h.m j j : : > 8 ; : ; ; ; =   = > s 8.$.0.,.G.G.",
"- = * > J 1 ; ; - ; ; >.h.y ( ,.,.( 1 * * < j ,.2 > = : s S.f.> : > m G.G.,.G.G.f.a.j j > > J 8 = = * : = : 2 :   ,.. j . X H.o ",
"; > = = * > > 2 : : = w > = J ,.,.$.> = 8 8 0 8 ; ; *   * J y   * * > m X ,.J.K.o h.m j w 8 = = * = * 8 w : 2 :   : j . X X H.. ",
"j m > > ; ( m m s s > w 8 * J ,.0.$.J 8 y.,.j 8 > : * ; - > > ; * - : ....( 0.A.h.,.,.j j ,.2 > > : = 8 w 8 2 > > ; m $.h.o H.o ",
". j : > : ( . j m s > : 8 * > j ( = w 8 8.8.2 : : : - ; @ * - @ + + # ; ; * > 2 : w $.$.$.,.2 2 : w = : w = ; ; = @ > : 8.F.>.>.",
"; >   j B.B.s P 1 > > ..,.( ..> : , < > ,.m . y : : - > > : - @ # - = * : = > : 2 w 4 j J J y m 0...8 > > j m s y * : w ,.h.a.m ",
"@ = 2 m h.B.y ; $ ; : ..$.j y @ % @ ; * 8 y j y = * * > 2 : * # % : : : ; & = = J 4 : : = > 2 B.H.,.w : ; j j . J & : ; j $.y 2 ",
"@ ; j ,.8...: = @ # # < > > > @ : > m m m ..> > j j y j y > : ; > ..8.j :   J ..,.8.;   = : m f.G.G.,.8.y y . : ; * = : j j y : ",
"@ = 2 . 2 2 * $ + + O * * = = * : 2 ,.j j J = ; j j j . 2 2 = = > ,.$.4 > @ J j . j = @ & ; j f.o X >.$.2 2 : * * @ * = y 4 : = "
};
