/* XPM */
static char *xpm_[] = {
/* columns rows colors chars-per-pixel */
"47 64 243 2 ",
"   c #050101",
".  c #0A0101",
"X  c #02020B",
"o  c #0A0509",
"O  c #140303",
"+  c #140A0A",
"@  c #1B0C0B",
"#  c #180505",
"$  c #1D100E",
"%  c #060716",
"&  c #1C1214",
"*  c #1A0F13",
"=  c #260B0A",
"-  c #26110E",
";  c #281816",
":  c #371715",
">  c #38110F",
",  c #32251D",
"<  c #2F211D",
"1  c #131329",
"2  c #191B37",
"3  c #2F1D28",
"4  c #1E213C",
"5  c #382724",
"6  c #2C2133",
"7  c #3A293A",
"8  c #461B1A",
"9  c #46211F",
"0  c #4A2B27",
"q  c #572B29",
"w  c #593328",
"e  c #4B3934",
"r  c #553635",
"t  c #6A3A2D",
"y  c #783A2D",
"u  c #6B3B3A",
"i  c #693836",
"p  c #743B3C",
"a  c #7D3C3B",
"s  c #753A35",
"d  c #612625",
"f  c #60331D",
"g  c #5A4539",
"h  c #66443B",
"j  c #77433A",
"k  c #69553C",
"l  c #734A37",
"z  c #7F481D",
"x  c #27284A",
"c  c #2C2C56",
"v  c #342D56",
"b  c #39335B",
"n  c #312C47",
"m  c #3B3767",
"M  c #3B367A",
"N  c #3B3677",
"B  c #473559",
"V  c #553456",
"C  c #4D3051",
"Z  c #6C3A46",
"A  c #773C43",
"S  c #673658",
"D  c #6E3757",
"F  c #463668",
"G  c #593665",
"H  c #433574",
"J  c #4C2F63",
"K  c #703964",
"L  c #3F406C",
"P  c #5B4845",
"I  c #524856",
"U  c #6C4344",
"Y  c #6B4645",
"T  c #744344",
"R  c #7B4344",
"E  c #784948",
"W  c #79574A",
"Q  c #694657",
"!  c #7A4654",
"~  c #655453",
"^  c #745550",
"/  c #7B644A",
"(  c #7A615A",
")  c #47446B",
"_  c #564D6E",
"`  c #705069",
"'  c #7A6363",
"]  c #843C3C",
"[  c #8B3C3C",
"{  c #873A34",
"}  c #9C3D3B",
"|  c #953B39",
" . c #A13D3B",
".. c #AC3C3A",
"X. c #BD3935",
"o. c #B43C3B",
"O. c #BB3B3A",
"+. c #BC3735",
"@. c #BD3C2F",
"#. c #C23735",
"$. c #C33A36",
"%. c #C23A39",
"&. c #C03B2E",
"*. c #86423C",
"=. c #98423A",
"-. c #8C512F",
";. c #AF413F",
":. c #9B7136",
">. c #80481F",
",. c #CC433B",
"<. c #C74439",
"1. c #D34A3B",
"2. c #FA673F",
"3. c #953D42",
"4. c #853D48",
"5. c #A63E42",
"6. c #B83E42",
"7. c #864346",
"8. c #994646",
"9. c #95564C",
"0. c #8B4356",
"q. c #984955",
"w. c #995757",
"e. c #895950",
"r. c #A74547",
"t. c #B44444",
"y. c #AA5959",
"u. c #AE5352",
"i. c #987548",
"p. c #966857",
"a. c #8F6E51",
"s. c #A86F52",
"d. c #864764",
"f. c #915669",
"g. c #997464",
"h. c #987874",
"j. c #896C65",
"k. c #A76765",
"l. c #BB6766",
"z. c #A97C67",
"x. c #B57A68",
"c. c #AF7774",
"v. c #A25661",
"b. c #CB5A4A",
"n. c #D95648",
"m. c #CF5749",
"M. c #E85C49",
"N. c #E85E51",
"B. c #CD6149",
"V. c #EC684E",
"C. c #F96644",
"Z. c #F6664B",
"A. c #F9664C",
"S. c #F56A4A",
"D. c #F86849",
"F. c #EA6A53",
"G. c #F56954",
"H. c #F36954",
"J. c #EA714F",
"K. c #D07970",
"L. c #AD813E",
"P. c #BA9557",
"I. c #AC8855",
"U. c #9E846E",
"Y. c #A5876A",
"T. c #B79479",
"R. c #B58D6D",
"E. c #B5A16B",
"W. c #D88E6E",
"Q. c #D3926D",
"!. c #D8916D",
"~. c #C78776",
"^. c #D58C75",
"/. c #CA957B",
"(. c #D59273",
"). c #DA9374",
"_. c #D5967A",
"`. c #D99B78",
"'. c #CB906C",
"]. c #E29C7A",
"[. c #DDB569",
"{. c #D5AF7B",
"}. c #E2AE77",
"|. c #C79C56",
" X c #F0CD7C",
".X c #3C3981",
"XX c #7B7090",
"oX c #6B5F81",
"OX c #8C7289",
"+X c #A97B87",
"@X c #837DA0",
"#X c #C77B81",
"$X c #9C8891",
"%X c #B89287",
"&X c #B28E8D",
"*X c #9298B2",
"=X c #9C99B7",
"-X c #908CAD",
";X c #BE9CA7",
":X c #AD8EA0",
">X c #BDAAB9",
",X c #AFA2B4",
"<X c #CB9383",
"1X c #C69789",
"2X c #D79783",
"3X c #C69894",
"4X c #C4818D",
"5X c #EB9E90",
"6X c #E59B88",
"7X c #D6A68A",
"8X c #D4AA90",
"9X c #E6A98C",
"0X c #EBB496",
"qX c #F6B897",
"wX c #E6AD92",
"eX c #C39EA8",
"rX c #C6A2A8",
"tX c #C8AAB5",
"yX c #DAB7B7",
"uX c #EFBAA5",
"iX c #F6D585",
"pX c #EECB97",
"aX c #FBC3A5",
"sX c #F9C6AB",
"dX c #F2C5B2",
"fX c #DDC88B",
"gX c #BBADC5",
"hX c #BAB6CB",
"jX c #ACAAC3",
"kX c #C5ADC2",
"lX c #D2BACB",
"zX c #D1C4D5",
"xX c #F6D6D7",
"cX c #EECFD1",
"vX c #DBE0E9",
"bX c #E9ECF3",
"nX c #EBF0F4",
"mX c #FBFBFD",
"MX c #FAF2F9",
"NX c #F6E5EC",
"BX c #E8DDE9",
"VX c None",
"CX c black",
/* pixels */
"VXVXVXVXVXVXVXVXVXVXY Y Z Z T A p u p p A A A A p j i t t t VXVXVXVXVXVXVXVXVXVXVXVXVXVXVXVXVX",
"VXVXVXVXVXVXVXVXVXVXT T A a a a a a a a ] { ] ] s y l y y y t VXVXVXVXVXVXVXVXVXVXVXVXVXVXVXVX",
"VXVXVXVXVXVXVXVXVX] ] [ 3.8.=.} =.=.} } }  .} } =.-.-.=.-.-.-.CXVXVXVXVXVXVXVXVXVXVXVXVXVXVXVX",
"VXVXVXVXU T R ] { | }  .r.b.b.B.b.b.b.b.m.m.n.m.1.B.B.1.B.B.t.>.t u u Z Z VXVXVXVXVXVXVXVXVXVX",
"VXVXVXU h R ] ] { } ..o.,.N.F.H.H.V.H.S.V.H.H.H.S.J.J.J.J.J.u.j t u u h u VXVXVXVXVXVXVXVXVXVX",
"VXVXVXT j ] { |  ...X.$.1.F.G.G.D.D.S.S.A.Z.Z.A.S.S.S.S.J.J.b.8.E ! ^ W ^ E VXVXVXVXVXVXVXVXVX",
"VXU j R a { |  ...<.n.n.M.A.A.C.C.C.2.C.C.C.C.A.S.S.S.S.C.J.K.3XrX;X;X;X:Xh.Y VXVXVXVXVXVXVXVX",
"Y U T a ] |  ...O.1.F.H.A.A.Z.C.C.2.2.2.2.C.A.S.S.S.S.2.C.J.5XxXMXMXMXMXcX+XU u VXVXVXVXVXVXVX",
"U T 7.*.| | ..o.X.n.Z.G.Z.A.C.C.C.2.2.C.C.C.S.S.Z.Z.A.C.C.G.5XNXMXMXMXMXxXU.! Z VXVXVXVXVXVXVX",
"E R 7.3.} ....O.#.,.M.n.M.M.A.A.A.C.C.C.D.D.S.A.A.A.A.C.C.N.5XNXMXNXyXyX8Xk.A A VXVXVXVXVXVXVX",
"j a [ 3.5.o.O.O.+.#.<.<.1.F.A.G.A.A.A.A.A.A.A.A.A.A.A.A.C.F.5XNXMXcXc.u.u.8.7.a VXVXVXVXVXVXVX",
"T a [ 3.t.6.O.O.X.#.&.&.,.N.G.G.G.G.G.G.G.G.G.A.A.A.A.A.G.F.5XNXMXcXk.} =.| 4.! VXVXVXVXVXVXVX",
"R R 3.3.6.6.O.O.$.$.X.X.$.n.N.N.N.N.N.M.N.N.V.M.M.M.M.M.N.N.2XcXBXlX+Xy.v.7.Z D Q VXVXVXVXVXVX",
"R 7.3.5.5.6.O.O.X.X.+.+.$.,.,.,.,.%.,.,.,.,.$.,.,.1.1.$.%.6.+XyXlXlX>X>X:X` B J J m v VXVXVXVX",
"T 4.7.8.r.t.O.O.O.X.X.$.#.+.+.+.#.#.#.#.#.O.O.X.X.@.&.+.6.5.v.;XgXhXgXhXjXoXb m F m v n VXVXVX",
"i i a 8.r.r.o.o.O.X.X.$.$.#.#.#.#.#.$.#.O.O.O.X.X.@.X.t.u.v.+XtXkXhXhXhXjX@X_ _ _ _ F ) VXVXVX",
": > 8 s 3. ...o.O.$.X.#.#.#.$.$.$.#.#.O.O.O.%.+.+.+.t.l.#X;XkXBXvXvXvXvXvXzXhXhXhXhXjX@X) v c ",
". . > d ] *.=.r.;.O.X.X.$.$.#.#.$.%.O.O.O.+.O.O.+.o.t.#XkXkXzXMXmXmXmXmXnXmXnXmXmXmXnX=X) c c ",
". . - r j a =.8.5. .o.o.o.O.o.o.O.o.o.o.o.o.O.o.o...q.+X>XgXzXbXnXnXnXnXnXnXnXnXnXnXbX=X) b v ",
". . + ; 5 8 8 d d y |  . . .}  .}  .}  . . . . .5.3.8.f.OXOXXX-X=X*X*X*X*X*X*X*X*X*X-XXX) b v ",
". .   . o O # # = 8 ] [ | *.[ 7.[ [ [ [ [ [ [ [ [ ] A S B F L F F m L L ) L L L ) m m c VXVXVX",
"            . . O 0 Z R E p R R j j a a ] ] ] ] *.T Y V F m m m F B b b b b v b m m x 4 VXVXVX",
"                . ; 0 q 0 0 0 w q q q R w.y.w.p.k.c.h.~ n x ) XXOXOXXXXXoX` B ) ) F CXCXVXVXVX",
"                X o + @ + + + @ = @ > e.T.~.~.^.8XdXyX' & % I >XlXyXzXlXtXh.Q Q Q CXCXCXVXVXVX",
"                        . .   . . . = e.<X_.^.6XqXcXdX' + X I lXxXxXxXcXuXc.j Z VXVXVXVXVXVXVX",
"                  $ , , , , 5 5 @ . $ W <X_.^.2XqXsXuX' + o ~ yXxXdXcXsXqXx.j t VXVXVXVXVXVXVX",
"VXVXVXo X   .   . e j.h.U.$X&XU.5 O $ W /./.(.`.0XaXdX( + o P 8XsXsXsXaX0Xs.j t VXVXVXVXVXVXVX",
"VXVXVXX . . . . O Y T.7X8XdXdX3Xq . @ W <X_.(.`.9XaX0XW + . h 7XaXqXuXaX0Xs.l w VXVXVXVXVXVXVX",
"VXVXVXo . . # @ - T R./.7XqXsX7Xh = : e./.`.(.(.9XaX0Xe.: - W 7XqXqXqXwX9Xp.h w VXVXVXVXVXVXVX",
"VXVXVX. . + 0 g j i.'.'.`.qXpX9Xz.9.p.z./._.(.(.].].].I.p.a.z.`.9X`.l.k.k.p.VXVXVXVXVXVXVXVXVX",
"VXVXVX. . = g p.g.I.(.!.].qXqXqX].!.Q.Q.!.(.(.(.Q.Q.Q.Q.(.(.(.'.Q.R.9.a a VXVXVXVXVXVXVXVXVXVX",
"VXVXVXo . @ h g.s.x.Q.!.].qXqXqX].!.).).).(.!.(.Q.Q.Q.!.(._.(.Q.'.K.9.a Z VXVXVXVXVXVXVXVXVXVX",
"CXCXCXo   + g j.g.Y./.`.].qXqXqX].W.W.).).).!.Q.W.W.W.W.).^.(._._.K.9.p Z VXVXVXVXVXVXVXVXVXVX",
"CXCXCXo . o g / e.p.Y.x.~.0XuX0X].W.W.).).).(.!.W.W.W.W.~.~.~.~.T.z.9.p i VXVXVXVXVXVXVXVXVXVX",
"CXCXCXCXCXCX< , : 0 0 0 W ~.9X2X2X^.^.^.W.(.`.`.(.!.W.l.u.9.9.9.9.9.VXVXVXVXVXVXVXVXVXVXVXVXVX",
"CXCXCXCXCXCXo   . . . O 0 Y.2X1X<X<X/.<X<X~./.2X_.`.W.l.*.] ] s s p VXVXVXVXVXVXVXVXVXVXVXVXVX",
"CXCXCXCXCXCX; ; $ $ + $ 0 g.T.T.1X3X3X1X%X%X3X1X<X^.K.k.7.] j p u u VXVXVXVXVXVXVXVXVXVXVXVXVX",
"CXCXCXCXCX; k / a./ k k k h h ^ $XrXrXrX3X;XrX1Xx.y.y.8.7.7.7.s u VXVXVXVXVXVXVXVXVXVXVXVXVXVX",
"CXCXCX    $ a.fXfX{.E.E.e.- # , OXtXtXtX>XtXtX;Xv.| 3.] a R R VXVXVXVXVXVXVXVXVXVXVXVXVXVXVXVX",
"CXCXCX+   $ U.fXiX[.E.P.a.> O , U.tXtX>X>X>XtX;Xk.4.[ ] 4.p u VXVXVXVXVXVXVXVXVXVXVXVXVXVXVXVX",
"CX  , g W / E. X X[.|.P.i.f 8 q j.+X$X,X>XgXtX>Xk.4.3.q.q.7.T ! Z VXVXVXVXVXVXVXVXVXVXVXVXVXVX",
"    , Y.8X{. X X X[.|.I.s.l t t Y ~ ~ $X>XgXkXeXk.8.r.l.#Xk.q.R T Z VXVXVXVXVXVXVXVXVXVXVXVXVX",
"    , T.pXiXiX X X[.|.|.s.-.l j h h Y $XtXtXkXrXl.8.5.K.#X#Xf.! T Y VXVXVXVXVXVXVXVXVXVXVXVXVX",
"    , Y.8X X[. X[.|.:.:.s.:.s.p.p.p.p.Y.%X:X;X4Xy. . .u.K.l.q.0.E Y VXVXVXVXVXVXVXVXVXVXVXVXVX",
"    ; / I.I.L.L.L.:.-.-.s.`.7X9XwX8X8Xz./ ( d.e.r.r.6.t.v.q.q.! ! Q VXVXVXVXVXVXVXVXVXVXVXVXVX",
"o o $ k i.:.:.:.:.:.>.>.s.wXaXaXaXsX0Xz.Y Y Y ! 8.5.t.r.q.q.d.! Q Q VXVXVXVXVXVXVXVXVXVXVXVXVX",
"o   & k a.L.:.:.i.-.f z 9.}.0X0XqXuXwXg.Y r Z u 3.r.t.5.3.d.4.K Q Q VXVXVXVXVXVXVXVXVXVXVXVXVX",
"o o ; / U.Y.I.I.I.l 8 > j R.{.`.7X7X1XW : ; : 9 A u.5.3.D K S V V C ; X . VXVXVXVXVXVXVXVXVXVX",
"  . < a.E.Y.E.E.Y.E = = q z./././.7X%Xg O . . = s q.5.K S V J C C 7 * . . VXVXVXVXVXVXVXVXVXVX",
"o   & / Y.Y.U.Y.U.k = # 0 g.T.R.T.%X$Xg @ . o ; Z d.d.K J J J J J C ; = = VXVXVXVXVXVXVXVXVXVX",
"  . $ 5 g g g g g , = O : r k g g P P 7 6 6 6 6 V K K G J J N J J V r q q : VXVXVXVXVXVXVXVXVX",
"    o + O + O + O O O O O # # + + + o 6 B I B B J G G G N M H H J V ! q.4.8 O . VXVXVXVXVXVXVX",
"  . . . . .   . . . . O O . . . .   o 6 B b b B J J H H N N M N H S 0.q.4.8 O . VXVXVXVXVXVXVX",
"    . . . o & < 5 < 5 < ; o . . .   o & 2 4 4 x b F M M .XM M H J S 0.r.[ 8 O . VXVXVXVXVXVXVX",
"CXCXCX. . + 5 P P P I P 5 + . . .     X o X % 1 c m M M .X.XM H J D 4.u.[ 8 O . VXVXVXVXVXVXVX",
"CXCXCX. . + 5 ~ ~ ~ ~ ~ e @   . .         X X % x b m N M H H J V K 4.q.] 8 O . VXVXVXVXVXVXVX",
"VXVXVXVX  + 5 e e e g e 5 + . . . . . .   X X % 2 c c m N H H G D D 4.a i 8 O . VXVXVXVXVXVXVX",
"VXVXVXVXVXVX+ $ * & & & * VXVXVXCXCXCXCXVXVXVXVX% % 1 x m H G K d.4.9 > > = VXVXVXVXVXVXVXVXVX",
"VXVXVXVXVXVX  . . . . . . VXVXVXCXCXCXCXVXVXVXVXX X % 4 m m _ d.0.A > O O VXVXVXVXVXVXVXVXVXVX",
"VXVXVXVXVXVX  . . . . . . VXVXVXCXCXCXCXVXVXVXVX  X X 1 x n J ! 4.Z > O O VXVXVXVXVXVXVXVXVXVX",
"VXVXVXVXVXVXVXVXVXVXVXVXVXVXVXVXCXCXCXCXCXCXCXCXVXVXVX% 1 1 3 : 8 8 > VXVXVXVXVXVXVXVXVXVXVXVX",
"VXVXVXVXVXVXVXVXVXVXVXVXVXVXVXVXCXCXCXCXCXCXCXCXVXVXCXX X X X O # # VXVXVXVXVXVXVXVXVXVXVXVXVX",
"VXVXVXVXVXVXVXVXVXVXVXVXVXVXVXVXCXCXCXCXCXCXCXCXCXCXCXCXX X   . O . VXVXVXVXVXVXVXVXVXVXVXVXVX",
"VXVXVXVXVXVXVXVXVXVXVXVXVXVXVXVXCXCXCXCXCXCXCXCXCXCXCXCXVXVXVXVX. VXVXVXVXVXVXVXVXVXVXVXVXVXVX"
};
