/* XPM */
static char *xpm_[] = {
/* columns rows colors chars-per-pixel */
"51 64 243 2 ",
"   c #050002",
".  c #0B0001",
"X  c #02010B",
"o  c #0C050D",
"O  c #130303",
"+  c #1C0404",
"@  c #16080A",
"#  c #1C0A0B",
"$  c #160709",
"%  c #040314",
"&  c #0A0818",
"*  c #150C15",
"=  c #1D1315",
"-  c #240404",
";  c #2B0404",
":  c #220C0D",
">  c #2B0A0A",
",  c #231212",
"<  c #2B1313",
"1  c #29191A",
"2  c #341D1C",
"3  c #371918",
"4  c #210F0F",
"5  c #171326",
"6  c #1B1B37",
"7  c #0F0E21",
"8  c #2C1C29",
"9  c #3A2322",
"0  c #352327",
"q  c #25233C",
"w  c #352636",
"e  c #32201A",
"r  c #49110F",
"t  c #461816",
"y  c #521817",
"u  c #430D0D",
"i  c #671E1C",
"p  c #54201E",
"a  c #432624",
"s  c #432926",
"d  c #4B2E2B",
"f  c #462927",
"g  c #562A28",
"h  c #49312D",
"j  c #5B342B",
"k  c #58352A",
"l  c #452C34",
"z  c #462D39",
"x  c #4D3333",
"c  c #4E3739",
"v  c #533334",
"b  c #5B3A3C",
"n  c #573738",
"m  c #522F31",
"M  c #642424",
"N  c #752E2D",
"B  c #71362C",
"V  c #7E372C",
"C  c #77382F",
"Z  c #673B37",
"A  c #7A3935",
"S  c #733C3A",
"D  c #7B3C3B",
"F  c #773633",
"G  c #6E362C",
"H  c #71231F",
"J  c #5C433B",
"K  c #544137",
"L  c #63433D",
"P  c #6C433D",
"I  c #674336",
"U  c #74433C",
"Y  c #7B443C",
"T  c #7A4A3C",
"R  c #72543B",
"E  c #272845",
"W  c #362D44",
"Q  c #373857",
"!  c #37324E",
"~  c #47354A",
"^  c #553946",
"/  c #473A53",
"(  c #543E54",
")  c #482E46",
"_  c #653E45",
"`  c #7C3E40",
"'  c #5D4348",
"]  c #5A4454",
"[  c #634344",
"{  c #6C4442",
"}  c #6B4945",
"|  c #64444B",
" . c #6C4B4B",
".. c #664947",
"X. c #734342",
"o. c #7C4443",
"O. c #744A44",
"+. c #754B49",
"@. c #78584A",
"#. c #664753",
"$. c #6B4A54",
"%. c #674855",
"&. c #724C51",
"*. c #775656",
"=. c #4C4766",
"-. c #6E5767",
";. c #685D76",
":. c #7F6254",
">. c #8B352C",
",. c #833C3A",
"<. c #8C3C3B",
"1. c #863735",
"2. c #933A3A",
"3. c #9A3B3B",
"4. c #9A3A34",
"5. c #A13E36",
"6. c #A23D3B",
"7. c #AD3D3C",
"8. c #AC3D37",
"9. c #BC3B35",
"0. c #B43D3B",
"q. c #BA3C3A",
"w. c #B53C36",
"e. c #BD3A2C",
"r. c #C23C2C",
"t. c #C33B35",
"y. c #CB3D37",
"u. c #C23634",
"i. c #85433B",
"p. c #9E4135",
"a. c #934239",
"s. c #9E413A",
"d. c #AB423B",
"f. c #A74236",
"g. c #B84336",
"h. c #B3412F",
"j. c #9D6F31",
"k. c #9E7133",
"l. c #A37335",
"z. c #A6753B",
"x. c #A5702F",
"c. c #C3433A",
"v. c #CB433B",
"b. c #C74136",
"n. c #D74D3D",
"m. c #D5503B",
"M. c #8D3E40",
"N. c #B33F41",
"B. c #844443",
"V. c #894C44",
"C. c #974543",
"Z. c #8A5749",
"A. c #895C56",
"S. c #995D56",
"D. c #93544A",
"F. c #A34545",
"G. c #AB4343",
"H. c #A34A49",
"J. c #B34142",
"K. c #B6554D",
"L. c #8B635A",
"P. c #98655A",
"I. c #8F6F4F",
"U. c #A9794D",
"Y. c #A2695B",
"T. c #AA7C58",
"R. c #8D6967",
"E. c #956C65",
"W. c #8D7963",
"Q. c #977368",
"!. c #8F7474",
"~. c #917376",
"^. c #A66E63",
"/. c #A57365",
"(. c #A97569",
"). c #B3776B",
"_. c #AA7A73",
"`. c #B57B72",
"'. c #CA5B4C",
"]. c #CC5445",
"[. c #DA5647",
"{. c #CD5C50",
"}. c #CD4B41",
"|. c #E45648",
" X c #E45B4A",
".X c #E75848",
"XX c #ED684C",
"oX c #FA6646",
"OX c #F46A46",
"+X c #F96A46",
"@X c #F4654B",
"#X c #FB654B",
"$X c #F46A4B",
"%X c #FA684B",
"&X c #F66646",
"*X c #EB6B54",
"=X c #EB6D5A",
"-X c #EB6955",
";X c #F56553",
":X c #FA6654",
">X c #F36A52",
",X c #F96856",
"<X c #E96E61",
"1X c #E77061",
"2X c #AC824A",
"3X c #B98B48",
"4X c #A78657",
"5X c #B6935A",
"6X c #B78B6A",
"7X c #AE9266",
"8X c #B69467",
"9X c #B98174",
"0X c #B39475",
"qX c #AA8676",
"wX c #BCA375",
"eX c #9C8C7D",
"rX c #C29D5B",
"tX c #C28A77",
"yX c #D1B36F",
"uX c #E1BF75",
"iX c #E9C277",
"pX c #F0CC7D",
"aX c #766981",
"sX c #9A8B86",
"dX c #B79287",
"fX c #B1918E",
"gX c #C78D85",
"hX c #C79384",
"jX c #C99589",
"kX c #CA9894",
"lX c #C8A69B",
"zX c #CDB1AA",
"xX c #C39CA0",
"cX c #F4D489",
"vX c #EED797",
"bX c #EFCF83",
"nX c #F4EBB5",
"mX c #E5D5B5",
"MX c #FBF7D8",
"NX c #FEFACC",
"BX c #E3D1C6",
"VX c None",
"CX c black",
/* pixels */
"VXVXVXVXVXVXVXVXVXVXL P P P S S S B B B B B B B G G B B G Z F F F U F S P P P L L VXVXVXVXVXVXVXVXVXVX",
"VXVXVXVXVXVXVXVXVXVXP P U Y D A V V V V V V V V C V V V V C A 1.1.1.A 1.Y Y U P P VXVXVXVXVXVXVXVXVXVX",
"VXVXVXVXVXVXVXVXVXVXi.i.i.a.2.p.p.s.p.f.p.p.p.p.p.p.p.p.p.f.p.f.4.f.p.2.a.a.i.i.i.VXVXVXVXVXVXVXVXVXVX",
"VXVXVXVXVXVXVXVXB ,.a.s.p.p.g.K.{.{.{.{.'.'.'.'.'.].].'.'.'.'.{.'.{.{.K.f.p.a.p.a.<.N VXVXVXVXVXVXVXVX",
"VXVXVXVXVXVXVXS A <.s.d.f.h.g.[.=X1X1X1X1X=X=X=X*X*X*X*X1X1X1X1X<X<X=X'.g.h.f.f.4.2.1.N VXVXVXVXVXVXVX",
"VXVXVXVXVXVXVX,.1.3.d.g.h.h.g.[.*X*X*X=X=X=X=X*XXXXXXX*XXX*X*X=X=X=X-X[.g.g.h.h.8.3.2.1.VXVXVXVXVXVXVX",
"VXVXVXVXZ ` M.3.6.0.g.].[.m.m.XX*X*X*X*X*X*X$X$X$X$X$X$X$X>X>X>X:X;X>XXXm.m.m.[.}.7.6.3.2.A S VXVXVXVX",
"VXVXVXVXL ` <.M.7.}.[.-XXXOX.XXX*XOXXXXXXXXX$X$XOX$X$X$X$X$X$X$X@X#X,X$X.XXX*X*X|.g.0.7.2.A { VXVXVXVX",
"VXVXVXVX_ D <.G.0.y. X,X,X$X$X%X#X@X$X$X$X&X+X+X+XOXOXOX$X$X&X@X#X#X#X#X#X$X,X,X Xv.0.7.3.,.X.VXVXVXVX",
"VXVXVXVX` D 3.7.N.y..X,X#X$X%X%XoXoX+X+X&X&X+X+X+X+XOXOXOX&X&XoX#X#X#X#X%X@X@X>X Xv.9.7.3.,.X.VXVXVXVX",
"VXVXVXVXX.,.3.7.q.v..X:X#X@X%XoX&XoXoX#XoXoXoXoX+X+XOXOXOX&XoXoXoXoX#X#X#X@X@XXX Xv.9.7.3.,.U VXVXVXVX",
"VXVXVXVX` ,.3.7.q.v..X,X:X#X%XoX&XoX#X#XoX#X#XoX+X+XOX$XOX+X%X#X#XoXoX#X#X$X;X;X[.c.9.7.3.,.S VXVXVXVX",
"VXVXVXVXX.M.3.7.0.y.|.@X@X@X@X@X#X#X#X#X#X#X#X#X+XoX$X$XoX#X#X#X#X#X#X@X@X@X@XXX[.c.g.G.3.,.S VXVXVXVX",
"VXVXVXVXo.B.M.G.0.9.}.n.n.n.n..X#X:X#X:X:X#X:X:XoX@X@X>X:X#X:X:X:X:X:X.Xn.n.n.n.v.g.w.7.2.,.S VXVXVXVX",
"VXVXVXVXX.B.C.G.7.0.t.t.r.r.y.|.;X:X:X:X:X:X,X,X,X;X;X,X:X:X:X:X:X:X:X|.y.r.r.r.9.9.w.6.3.<.` VXVXVXVX",
"VXVXVXVX{ B.C.F.7.0.9.9.r.e.r.|.;X,X:X:X:X:X;X,X,X,X;X;X:X:X:X:X:X:X;X|.t.e.e.9.9.g.0.N.3.1.M.VXVXVXVX",
"VXVXVXVXd M A C.G.d.q.q.9.9.t.}. X.X|.|.|..X|.|..X[. X[.|..X|.|..X|..X}.u.9.9.q.9.9.0.G.6.,.A VXVXVXVX",
"VXVXVXVX> ; y M.F.G.7.w.9.w.9.t.b.b.y.y.y.b.c.c.g.g.c.c.y.y.y.y.y.y.b.t.9.9.q.q.q.0.J.G.3.1.B VXVXVXVX",
"VXVXVXVX+ + y M.H.G.7.7.q.q.q.t.t.u.u.u.9.9.0.7.d.d.g.w.w.9.u.u.u.u.u.9.9.q.q.0.0.0.0.G.2.1.B VXVXVXVX",
"VXVXVXa 3 t g A a.3.d.N.0.q.q.9.t.u.u.9.9.8.2.>.>.>.>.>.5.w.9.u.u.t.t.q.0.0.0.0.6.4.2.1.C.D.V.B.VXVXVX",
"Z L P A.Q.Q.O.p r i 2.G.G.0.0.q.q.N.q.q.0.4.H r r u r r H 5.0.q.q.N.q.N.N.G.7.G.4.i r i D.9X(.P.O.{  .",
"J L O.Q.jXjXL.t - u F F.F.G.J.N.N.N.N.0.G.2.r ; - - - ; r 1.G.J.J.J.J.J.G.G.F.H.F u ; u S.hXhXE.O.}  .",
"Z { @.(.jXjXL.t ; r N M.C.C.F.F.6.F.F.F.F.,.y - - + + - t 1.C.H.F.6.C.M.C.D.C.M.N r ; t L.jXjX(.O.}  .",
"{ P @./.jXtX/.U Z G M M M M M M i i N M.C.M.g a s s s a j ,.C.M.N M M M M M g g g G Z U T.jXjX(.+.P } ",
"X.P Y (.gXgX`.^.Y.Z.p ; ; ; ; ; ; ; y D B.B.X.{  .} | ..{ o.B.D y ; - ; - - - - a A.Y.Y.9XhXjX(.@.I L ",
"P Z Y (.jXkXtX^.^.S.p - + + O . . + 2 ` o.o.&.&.$.}  .$.&.o.o.S t + O . O O O + t S.(.Y.9XhXtX/.T Z b ",
"VXZ Y Y.`.`.).).).E.a O . .       . < h m m n n v x v v v m v d 1 O .   . . . O f E.`.(.).).).P.Y Z CX",
"VXVXVXV.C.M.Y.tXgX_.m O . .         o # : : : : # , # 4 : : > # O X       . . O d _.gXtXY.V.i.V.VXVXCX",
"VXVXVXVXA ,.Y.gXkX`.m + . . .           . . . . O . . . . . .             . . + m _.kXgXP.Y Z VXVXVXVX",
"VXVXVXVXA ,.S.9XgX^.j > : # @ .   X         . . . . .   . .           . $ # : > j (.gX9XS.U j VXVXVXVX",
"VXVXVXVXi.,.B.S.Y.A.S g g h s = .             . . .                 . = 0 m d m S A.P.A.A.VXVXVXVXVXVX",
"VXVXVXVXi.,.D M.M.` ` X.} } J e O .           . . . .             . . 1 [ &. .+.+.+.O.X.VXVXVXVXVXVXVX",
"VXVXVXVXD M.` M.o.X.P { L R K e + O O . . . O . O . O . . O O O O O O 2 [  .}  .} [ L { VXVXVXVXVXVXVX",
"VXVXVXD.S.E.V.m g f a a s s a 9 9 2 9 9 9 9 9 9 0 9 9 9 0 0 9 e 9 2 2 9 d s s h d s a s VXVXVXVXVXVXVX",
"k j D Y.dXgXA.3 + + + # $ $ 4 s Z _ Z | | ' [ ......[ ..} ....' [ L b s # $ O $ O . $ o VXVXVXVXVXVXVX",
"Z G Y ^.jXkXR.3 . O O . . . + d U }  .&.$.$.$.$. .$... . .$.+.+.O. .} d # . .     X X X VXVXVXVXVXVXVX",
"{ S T (.kXkXR.0 = * & o . . @ d } O.P Z n n b n c c c x v n n n { { } m # .   X & 7 7 & VXVXVXVXVXVXVX",
"Z Z o.^.jXxX~.^ z W = X   . # s U O.n 3 < < < , = , , , , < < 3 m } } h +   X X 7 q E 7 VXVXVXVXVXVXVX",
"v Z X./.kXxX~.#.~ ! 5 o     O d O.T g + O O .       . . . . . + g O. .d $   X % 6 Q ! E VXVXVXVXVXVXVX",
"n n P E.fXfX~.] / ! 5 X     @ f P I g < 4 4 , = , = = = , 4 4 , k } ..h = % & & 6 Q Q E VXVXVXVXVXVXVX",
"VXVXVXA.R.R.-.( Q W 5 X     . 1 a t k R R @.eXeXsXsXsXsX!.:.R R k 9 9 9 w q q E ! =.=.! 7 X . VXVXVXVX",
"VXVXVXVXb ' ] / ] W * X       O + + k 4X7XwXmXMXMXMXMXMXmXwX7X4Xk + O 1 z / ! Q =.;.;.! * . . VXVXVXVX",
"VXVXVXVXv ^ ~ / ! w *         O O - k 3X8XwXvXNXMXMXMXMXnXwXrX4Xj + O < ) ~ / / =.aXaX] 1 O O VXVXVXVX",
"VXVXVXVXx ^ z w w 8 & X X   . 1 a f R rXyXyXvXnXnXnXnXnXvXyXyXrXR 3 3 s ^ ( / ] -.sXfXeXK e 1 VXVXVXVX",
"VXVXVXVXVXVXVX* o o X X X X o K :.Z.T.iXpXpXcXvXvXvXvXvXcXbXpXiXU.Z Z ^  .%.%.] ;.lXBXxXR.L J VXVXVXVX",
"VXVXVXVXVXVXVX  X X X % % X * ' Q.T.tXpXcXpXcXcXcXcXcXbXcXpXpXpXU.T U &.$.$.$.| !.zXBXzX_.} ..CXVXVXVX",
"VXVXVXVXVXVXVX  X % % 7 & 7 5  .Q.Q.rXyXpXiXpXiXiXiXiXuXiXiXiXyXU.U X.{ [ _ n n :.lXBXlXE.} L CXVXVXVX",
"VXVXVXVXVXVXVXVXCXCX5 6 E E ! -.Q.Q.U.rX3X3X3X3X3X3X3X3X3X3X3X3XZ.U { n 9 < < < [ dXlXdXL.I L CXVXVXVX",
"VXVXVXVXVXVXVXVXVXVXE E Q Q =.;.~.R.P.U.x.x.x.x.x.x.j.k.j.j.j.j.V.+.#.m - O O + x Q.lXdXL.P [ VXVXVXVX",
"VXVXVXVXVXVXVXVXVXVXq E Q Q =.;.~.R.E.Y.U.z.z.z.x.l.k.l.l.x.k.I.Z.&.%.l : O O $ d Q.dXqXL...' VXVXVXVX",
"VXVXVXVXVXVXVXVXVXVX5 5 6 6 q ^ -.*.A.T.T.U.U.2X3XU.2XT.2X2X4XW.*._ ( l # O O O 1 c ........' VXVXVXVX",
"VXVXVXVXVXVXVXVXVXVXX X % % 7 w ^ _ *._.0X6X6X6X8X8X8X8X5X5X8X7X*.~ ) w $ . . . O + @ # CXCXVXVXVXVXVX",
"VXVXVXVXVXVXVXVXVXVX  X X X & q ) ) *.fXdX0X0X0X0X0X7X7X7X7X8X7X*.) W 8 o .             VXVXVXVXVXVXVX",
"VXVXVXVXVXVXVXVXVXVX    X   o w ^ ( *.R.Q.Q.W.W.W.W.W.4XW.I.:.:.^ w 6 7 o               VXVXVXVXVXVXVX",
"VXVXVXVXVXVXVXVXVXVX        * l %.%...L L L J J J J J I h e = = * & & & CXCXCXCXCXCXCXCXVXVXVXVXVXVXVX",
"VXVXVXVXVXVXVXVXVXVX        $ l $.%._ n v v m v x x h w 1 o     X X X X CXCXCXCXCXCXCXCXVXVXVXVXVXVXVX",
"VXVXVXVXVXVXVXVXVXVX    . . # l $.$.| b b n b b ^ c 0 0 1 .     X X X X VXVXVXVXVXVXVXVXVXVXVXVXVXVXVX",
"VXVXVXVXVXVXVXVXVXVX  . . . : h | $.#._ _ _ _ | #.w = * & . VXVXVXVXVXVXVXVXVXVXVXVXVXVXVXVXVXVXVXVXVX",
"VXVXVXVXVXVXVXVXVXVX    . O : z #.$.$.$.%.$.#.$.%.w o X X VXVXVXVXVXVXVXVXVXVXVXVXVXVXVXVXVXVXVXVXVXVX",
"VXVXVXVXVXVXVXVXVXVX    . . @ z #.$.#.| %.%.#.#.' w o X X VXVXVXVXVXVXVXVXVXVXVXVXVXVXVXVXVXVXVXVXVXVX",
"VXVXVXVXVXVXVXVXVXVXVX  . VX@ 0 l l l l l l x w w 1 X   VXVXVXVXVXVXVXVXVXVXVXVXVXVXVXVXVXVXVXVXVXVXVX",
"VXVXVXVXVXVXVXVXVXVXVXVXVXVXVX@ $ @ $ $ @ @ @ @ o o CXCXVXVXVXVXVXVXVXVXVXVXVXVXVXVXVXVXVXVXVXVXVXVXVX",
"VXVXVXVXVXVXVXVXVXVXVXVXVXVXVX  . . . . .         CXCXCXVXVXVXVXVXVXVXVXVXVXVXVXVXVXVXVXVXVXVXVXVXVXVX",
"VXVXVXVXVXVXVXVXVXVXVXVXVXVXVX  . . . .     .       CXCXVXVXVXVXVXVXVXVXVXVXVXVXVXVXVXVXVXVXVXVXVXVXVX"
};
