/* XPM */
static char *xpm_[] = {
/* columns rows colors chars-per-pixel */
"49 64 237 2 ",
"   c #040102",
".  c #0B0102",
"X  c #03010C",
"o  c #0A0109",
"O  c #090A0B",
"+  c #0B0807",
"@  c #120203",
"#  c #1B0303",
"$  c #1C0A0C",
"%  c #14090A",
"&  c #0B0916",
"*  c #180C16",
"=  c #171417",
"-  c #0D1112",
";  c #2B0D0D",
":  c #270707",
">  c #350909",
",  c #241212",
"<  c #2B1414",
"1  c #2C1A1B",
"2  c #291717",
"3  c #321A17",
"4  c #331A1A",
"5  c #3C1D1B",
"6  c #351616",
"7  c #3A221D",
"8  c #161726",
"9  c #1D1B31",
"0  c #211624",
"q  c #382326",
"w  c #352839",
"e  c #282C38",
"r  c #571A18",
"t  c #491917",
"y  c #47221F",
"u  c #52231F",
"i  c #4C2B2C",
"p  c #472927",
"a  c #5B2925",
"s  c #532D2B",
"d  c #582B27",
"f  c #563129",
"g  c #59362B",
"h  c #4A2E31",
"j  c #562E31",
"k  c #5C3B3B",
"l  c #583635",
"z  c #4B3330",
"x  c #672723",
"c  c #782E2C",
"v  c #65342D",
"b  c #6A332E",
"n  c #77362E",
"m  c #653635",
"M  c #6C3B36",
"N  c #643C3D",
"B  c #6B3B3B",
"V  c #683636",
"C  c #7A3A35",
"Z  c #743C3B",
"A  c #7B3C3A",
"S  c #763633",
"D  c #742F31",
"F  c #5C4137",
"G  c #53422F",
"H  c #65413D",
"J  c #6C443B",
"K  c #73433C",
"L  c #7A493B",
"P  c #774439",
"I  c #302C48",
"U  c #343449",
"Y  c #3C365D",
"T  c #363253",
"R  c #2D2C44",
"E  c #3B3866",
"W  c #3D396A",
"Q  c #3D3761",
"!  c #473546",
"~  c #473A5A",
"^  c #573C58",
"/  c #563C45",
"(  c #663E42",
")  c #763F42",
"_  c #623E56",
"`  c #493963",
"'  c #423968",
"]  c #443865",
"[  c #523D64",
"{  c #3E474D",
"}  c #4D4156",
"|  c #464659",
" . c #544455",
".. c #5D494A",
"X. c #6A4446",
"o. c #744344",
"O. c #7A4444",
"+. c #74454C",
"@. c #7A454B",
"#. c #73494A",
"$. c #784A44",
"%. c #644459",
"&. c #6A4856",
"*. c #724954",
"=. c #7B5455",
"-. c #76514A",
";. c #68635D",
":. c #594666",
">. c #545262",
",. c #664E65",
"<. c #5B6673",
"1. c #53606B",
"2. c #696A70",
"3. c #873938",
"4. c #9A3C36",
"5. c #973C39",
"6. c #85322C",
"7. c #A43D3A",
"8. c #AD3D39",
"9. c #BD3D32",
"0. c #B33D3C",
"q. c #BB3B3C",
"w. c #B73C35",
"e. c #B83A2E",
"r. c #C3382D",
"t. c #C43634",
"y. c #C53937",
"u. c #C23A39",
"i. c #C83B36",
"p. c #87443C",
"a. c #9B423A",
"s. c #964238",
"d. c #A3423B",
"f. c #AE413A",
"g. c #B4433B",
"h. c #B84237",
"j. c #CD493B",
"k. c #CB433A",
"l. c #D5493A",
"z. c #D6483B",
"x. c #DA563E",
"c. c #893D42",
"v. c #9C3C41",
"b. c #B33D41",
"n. c #BC3C41",
"m. c #A83C42",
"M. c #854745",
"N. c #994544",
"B. c #85564C",
"V. c #885B55",
"C. c #985D56",
"Z. c #92554D",
"A. c #AB4444",
"S. c #A54344",
"D. c #B34343",
"F. c #BA4243",
"G. c #8B6357",
"H. c #99655A",
"J. c #837156",
"K. c #8F6D49",
"L. c #A26B4F",
"P. c #A36C53",
"I. c #A3695C",
"U. c #AC7A4F",
"Y. c #926967",
"T. c #9B7A6A",
"R. c #866F6B",
"E. c #A76B62",
"W. c #A97468",
"Q. c #B6766C",
"!. c #B17B76",
"~. c #805F69",
"^. c #CA4946",
"/. c #CA5E4D",
"(. c #C95648",
"). c #D85745",
"_. c #CC5D50",
"`. c #D04B4A",
"'. c #E95C4A",
"]. c #EA5C52",
"[. c #ED664A",
"{. c #F66645",
"}. c #F96746",
"|. c #F46946",
" X c #F3644B",
".X c #FB664B",
"XX c #F5694B",
"oX c #FA694C",
"OX c #F96847",
"+X c #EB6A5A",
"@X c #E96758",
"#X c #F36653",
"$X c #F46952",
"%X c #F96952",
"&X c #F66759",
"*X c #E87058",
"=X c #C17C74",
"-X c #F76860",
";X c #B8974F",
":X c #AB8355",
">X c #B78654",
",X c #B29655",
"<X c #B59755",
"1X c #AC824C",
"2X c #B88378",
"3X c #B38E69",
"4X c #C28E5A",
"5X c #C2915B",
"6X c #CDAE57",
"7X c #C5897A",
"8X c #D3967E",
"9X c #CE937E",
"0X c #CCAC62",
"qX c #E0B367",
"wX c #EDC46D",
"eX c #EDCD68",
"rX c #F8D674",
"tX c #F8D66C",
"yX c #677383",
"uX c #778995",
"iX c #BF8B81",
"pX c #8296A3",
"aX c #C88D82",
"sX c #D59887",
"dX c #D1958C",
"fX c #D1A39C",
"gX c #E6B4AA",
"hX c #F6DC85",
"jX c #EED88A",
"kX c #EED5B2",
"lX c #F9EEB6",
"zX c #D3C3A9",
"xX c #E2E3D7",
"cX c #FBF3C4",
"vX c #FFFDE5",
"bX c None",
"nX c black",
/* pixels */
"bXbXbXbXbXbXbXbXbXbX( V V V B ) n b M J Z M V V V v b v M v g v v v b D Z V j bXbXbXbXbXbXbXbXbXbX",
"bXbXbXbXbXbXbXbXbXbX( Z A A C C n n n n S S C C C C C S n n n n n n C A A S b bXbXbXbXbXbXbXbXbXbX",
"bXbXbXbXbXbXbXbXbX3.3.3.5.5.5.4.s.s.a.s.s.d.4.a.a.a.a.a.s.a.a.a.s.s.s.5.5.6.3.n bXbXnXnXbXbXbXbXbX",
"bXbXbXbXbXbXbXZ 3.c.N.a.d.7.h.(.(./././._./._._._._._._./././././.(.h.g.d.7.7.6.c b nXnXbXbXbXbXbX",
"bXbXbXbXbXbXbXA 3.s.d.g.h.e.j.*X*X*X*X@X@X+X+X+X+X+X+X+X+X+X*X*X*X@Xj.e.w.f.7.3.c x nXnXbXbXbXbXbX",
"bXbXbXbXbXbXM.3.5.d.h.h.9.h.j.'.*XXXXX%X X$X$X#X#X&X#X%XXXXX$XXX*X[.l.h.h.h.f.7.6.6.nXnXbXbXbXbXbX",
"bXbXbXbXZ M.M.a.7.h.^.).x.x.x.|.XX|.oX.XoXoX#X X X#X.X XXX|.|.|.|.|.'.x.)./.^.h.7.5.5.bXbXbXbXbXbX",
"bXbXbXB Z M.N.A.f.^.@X*X$X$X|.|.{.}.}..X}..X{.{.{..X.XoX|.|.|.}..X{.XXXX@X+X@X^.8.D.4.6.b g bXbXbX",
"bXbXbXo.O.c.N.m.8.^.@X&X#X%X.X{.{.}.}.}.}.}.|.XXoXoXoXXX|.|.|.{.{.{.XX#X&X+X@X`.b.b.m.3.S V bXbXbX",
"bXbXbX+.O.c.v.m.w.^.@X#X#X#XXX{.}.}.}.}.{.{.|.|.oXoXoX|.|.|.|.|.{.{.oX&X&X].@X`.b.b.m.3.Z J bXbXbX",
"bXbXbX) ) c.v.b.q.`.@X&X#X#XoXoX.X}.{.{.{.{.|.oXoXoXoX|.[.[.|.|.}..XoX%X-X-X+X`.q.0.4.3.A o.bXbXbX",
"bXbXbX+.c.c.v.b.^.^.@X&X#X#XXX%XoX{.{.{.{.|.oXoXoXoX|.|.|.[.|.{.}..X.X&X-X-X+X`.q.b.v.5.P X.bXbXbX",
"bXbXbX+.O.c.m.b.n.^.].].'.).[..X.X{. XXX.XoX.X.XoX.X.XoX|.|.|.{..X.X{.'.'.].].^.q.m.4.3.O.o.bXbXbX",
"bXbXbXo.o.c.v.b.q.u.i.z.k.i.z. X X XXXXXoX.X.X.X.X.X.XoXXX|.|.XX.X Xz.z.z.i.k.u.n.0.4.3.P o.bXbXbX",
"bXbXbX#.o.3.v.D.n.q.y.r.r.r.z. X#X%X%X#XXX%X%X.X.X%X.X%X XXXXXoXoX Xz.i.r.t.t.y.F.D.4.3.Z K bXbXbX",
"bXbXbXH N Z N.D.q.q.y.r.r.i.z.].#X X#X#X X[.'. X X'.'. X[. X X X#X'.z.i.t.t.t.u.0.D.4.3.C K bXbXbX",
"bXbXbX3 4 t c S.0.q.q.t.t.i.i.z.z.z.z.z.z.k.j.j.j.j.j.j.l.l.z.z.l.z.k.i.y.t.q.q.0.f.5.3.C Z nXnXbX",
"bXbXbX# # : x N.A.g.q.q.t.y.y.y.y.i.t.r.e.9.h.g.f.e.h.e.r.r.r.r.r.t.y.t.y.u.q.0.g.d.s.3.S S nXnXbX",
"bXbXbX@ # : a p.d.7.0.q.q.u.y.y.i.y.y.q.9.8.d.a.7.d.7.e.e.e.e.r.t.9.q.q.q.q.q.8.7.a.p.p.A p.nXnXbX",
"bXbXbXy y d a x x 6.7.g.0.q.n.u.u.u.u.b.7.6.x x x x x 6.8.e.q.q.q.q.q.n.n.b.8.6.x x p.L.I.C.nXnXbX",
"p p d Z B.M.a > > r 4.A.A.D.b.b.b.n.F.D.4.r > : > : > r 5.F.F.b.8.b.b.D.D.A.5.r > > p.7XaXQ.M.V l ",
"p s v ) B.Z.a > : t p.N.N.N.S.S.A.A.A.S.3.r : : # # : t 5.A.D.A.A.m.S.S.N.a.p.r : > O.7XaX=XN.V N ",
"s d D M.C.I.p.a d d v v v b D D D 3.v.v.c.a 6 6 4 4 5 a c.v.v.6.c D D D c b v a u d C.9XsXQ.M.Z B ",
"d v 3.C.=X7XQ.C.Z.M 3 : ; ; : > > t S c.c.Z N N k k ( ) ) c.D t > > > ; > > 6 J V.Z.W.9XsXQ.N.Z V ",
"s j A E.aXsX=XI.E.o.; . . . @ # : > B c.@.@.#.X.&.-.&.#.+.O.V > # # @ @ # @ ; K H.I.3XaXsXQ.M.D j ",
"s j Z I.Q.=XQ.Q.Q.O.; . .   . . @ ; i ( N l l l l l l l m m i ; @ . . . . . ; $.W.W.Q.=X=XE.c.m j ",
"nXnXbXM.M.Z.W.aXaXB.< .       . . # , < < < , , < < < < < < $ @ .     . . @ < B.aXaXW.Z.N.M.nXnXbX",
"nXnXnXm M ) E.dXdXG.< .       . . . . @ .       . . . . . . .   .         . < G.dXdXI.A x x nXnXbX",
"nXnXnXl m K E.iXaXY.5 $ # % @ @ . .   .                     . . . . @ % $ # 5 V.aX2XH.S a bXbXbXbX",
"nXnXnXnXbXbXB.C.H.-.j s i h 4 % . .                             . % 7 h i i j B.H.C.Z.bXbXbXbXbXbX",
"nXnXnXnXbXbXbXM ) O.O.o.o.+.h %                                   % i +.+.o.+.o.K K bXbXbXbXbXbXbX",
"nXnXnXnXbXbXbXJ o.o.O.M.M.O.s %               X X X X             % i +.c.O.O.o.o.M bXbXbXbXbXbXbX",
"bXbXbXbXbXbXbX#.#.$.O.O.M.) i %       .         X X     +         $ i ) M.c.+.#.#.J nXnXnXnXnXnXnX",
"bXbXbXbXbXbXbXF X.N l m Z B i , $ $ $ $ : : $ * $ $ $ : $ $ $ : $ , p B Z V m N F l nXnXnXnXnXnXnX",
"bXbXbXbXbXbXbX2 2 2 < < < < 7 i l f f f f j s j j j f f f f d f j i 7 < < < 2 2 2 2 nXnXnXnXnXnXnX",
"bXbXbXbXbXbXbX        .   . 4 H $.L L L L L L L O.$.L L L L L L o.X.4 .   .         nXnXnXnXnXnXnX",
"bXbXbXbXnXnX- O O -         1 B O.L K M P K K K o.K K J J P M L O.N 1 .       O - O O nXbXbXbXbXnX",
"bXbXbXbXnX& 9 U | e -     . 3 X.M.M u 5 7 q 7 7 7 7 7 5 y 7 y M M.J 3       O e { U 8 nXbXbXbXbXnX",
"nXnXbX    O e <.uX<.=       4 ( @.m ; . . .     .   . . . @ , g @.o.7       = 1.uX<.e X X   bXbXnX",
"nXnXnX    - U uXuX<.8     . 3 X.+.l < . . + O + + + O + + . , g *.( 1       8 <.uXyXU & + . bXbXnX",
"nXnXbXy q U } <.2.| 8 X     = p p i p G G ..;.;.2.2.;.;.G z G G h q = .     8 | yX<.,. ./ N bXbXnX",
"p f b B.T.!.;. .~ I &         + + q K.1X,XzXxXxXxXxXxXzX,X1X-.7 . +         & I | } T.fXfXW.M t 6 ",
"d v P I.dXfXY./ ! w &             3 K.;X0XkXvXvXvXvXvXkX0X,XK.2           X & w ! / !.gXkX7XL u t ",
"d b p.E.sXfXW.B.&./ *       O 2 2 G 1X6X6XjXlXlXcXlXlXjX6X6X1XG 2 1 %   . o * ! &.&.iXgXgX7Xp.v d ",
"g v p.E.sXsX9X7XiX,.< . . . q -.B.K.qXeXeXrXrXjXhXhXhXrXeXeX0XU.-.-.q . . . < V.iX2X9X8XsX2Xp.M g ",
"f f K W.aX8X8XsXdXC.3 . . . p G.P.>XwXrXtXtXrXrXrXrXrXtXtXrXwX>XP.G.p . . . 2 H.dXsX8X8X8XQ.L g f ",
"p p B E.7X3XQ.2X!.=.1 & & $ h V.P.>XqXeXwXwXeXeXwXwXwXwXwXwXqX>XP.G.z * & % 1 =.2X2X3X7X7XW.J p p ",
"nXnXbXB.V.K.J f p w w R R w ..Y.P.U.>X5X5X5X5X3X4X4X4X5X5X<X>XU.P.Y...w R R w w w z J B.G.B.nXnXbX",
"nXnXnXN ..F 7 +   = U E E Y >.Y.E.P.P.P.L.L.P.L.L.L.L.L.L.L.H.P.E.Y.:.] E E U 8 + + 7 G F k bXbXbX",
"nXnXbXz z l 2     8 T E E W :.~.Y.Y.P.P.P.P.P.P.L.L.L.P.P.P.P.H.Y.~.:.' W E I 8     , z l z bXbXbX",
"bXbXbXbXnXh =   X 8 T W W W :.,.,.V.W.:X1X>X1X1XU.U.U.>X>X:XY.V.&.,.[ W E E T 8 X X = h bXbXbXbXbX",
"bXbXbXbXnXnX@ o & 9 Y E E W ' ' ~ %.:X3X;X;X;X;X5X;X;X;X;X3XT.&.~ ] ' W E E T 8 X o bXbXbXbXbXbXbX",
"bXbXbXbXbXbXbXo X 8 T Q Q ' ' ' ] ,.T.3X,X,X,X,X;X,X;X,X,X3XT.,.] ] ] W Q Y T 9 X o bXbXbXbXbXbXbX",
"bXbXbXbXbXbXbXo o 0 !  .^ ` ` W W :.2.R.J.J.J.J.J.J.J.J.J.2.2.:.E W ] :.^ } ! 8 X o bXbXbXbXbXbXbX",
"bXbXbXbXbXbXbX. @ 1 / %.&.%.[ ' W ' ~ ~ ~ } ~  .} } } }  .| | ' ' ' ` %.&.&./ 2 . . bXbXbXbXbXbXbX",
"bXbXbXbXbXbXbX. @ 4 X.+.*.&.^ ` ] ' Y Y ] Y Y Y ~ Y Y Y ~ Y Y E ' ` ^ &.+.X.X.4 . . bXbXbXbXbXbXbX",
"bXbXbXbXbXbXbX. o 4 J #.+.+._ ^ [ ` ~ ~ ` T I I T T R T ` ~ ~ ` [ ^ _ _ @.#.N 3 @ . bXbXbXbXbXbXbX",
"bXbXbXbXbXbXbX. @ 3 H #.+.+.@._ &.%._ _ ^ q 0 * * * * w ^ %.%.%.%.*.*.) @.o.N 3 . . bXbXbXbXbXbXbX",
"bXbXbXbXbXbX. . . 4 N #.+.+.@.@.*.*.*.*.X.1 . . . . . 1 ..*.*.+.@.@.) @.+.#.N 3 @ .   bXbXbXbXbXbX",
"bXbXbXbXbXbXbX  . < l k N B B B V N X.X.k 1 @ . . . . 1 k ( ( N B ( ) ( N F l 3 @ . bXbXbXbXbXbXbX",
"bXbXbXbXbXbXbXbXbX, < 1 6 4 4 6 < 6 4 1 2 , bXbXbXbXbX, 1 1 3 3 4 6 5 6 4 2 2 , bXbXbXbXbXbXbXbXbX",
"bXbXbXbXbXbXbXbXbXbX  . . @ @ # # . . .   bXbXbXbXbXbXbX  . . @ @ @ @ . . .   bXbXbXbXbXbXbXbXbXbX",
"bXbXbXbXbXbXbXbXbXbX      . . . . .       bXbXbXbXbXbXbX      . . . . . .     bXbXbXbXbXbXbXbXbXbX",
"bXbXbXbXbXbXbXbXbXbXbXbXbXbXbXbXbXbXbXbXbXbXbXbXbXbXbXbXbXbXbXbXbXbXbXbXbXbXbXbXbXbXbXbXbXbXbXbXbX"
};
