/* XPM */
static char *xpm_[] = {
/* columns rows colors chars-per-pixel */
"47 64 237 2 ",
"   c #040102",
".  c #0B0203",
"X  c #04020B",
"o  c #0B060A",
"O  c #130303",
"+  c #1B0505",
"@  c #110907",
"#  c #150B09",
"$  c #1B0A09",
"%  c #180708",
"&  c #060416",
"*  c #150E18",
"=  c #240B0A",
"-  c #2B0D0C",
";  c #200707",
":  c #26110E",
">  c #281613",
",  c #331D1B",
"<  c #391816",
"1  c #300E0C",
"2  c #3C231C",
"3  c #37231D",
"4  c #16122A",
"5  c #181736",
"6  c #0F0D25",
"7  c #271A27",
"8  c #2D1D2F",
"9  c #38282D",
"0  c #1F213F",
"q  c #481D1B",
"w  c #47221D",
"e  c #452824",
"r  c #582925",
"t  c #493527",
"y  c #58352B",
"u  c #593836",
"i  c #672C28",
"p  c #66322C",
"a  c #74322C",
"s  c #7B322C",
"d  c #653333",
"f  c #6A3939",
"g  c #743D3C",
"h  c #7B3D3B",
"j  c #763536",
"k  c #742E29",
"l  c #59472C",
"z  c #5B4733",
"x  c #5B4D30",
"c  c #68453A",
"v  c #78453B",
"b  c #695438",
"n  c #77623E",
"m  c #1D1E42",
"M  c #383547",
"N  c #362E58",
"B  c #2D3457",
"V  c #38345A",
"C  c #2B2D4F",
"Z  c #393868",
"A  c #3A3A73",
"S  c #2F3164",
"D  c #1E2049",
"F  c #473659",
"G  c #573851",
"H  c #673C44",
"J  c #773D44",
"K  c #613F56",
"L  c #473B67",
"P  c #523F64",
"I  c #5A4259",
"U  c #524651",
"Y  c #664747",
"T  c #764544",
"R  c #6B5746",
"E  c #775244",
"W  c #674659",
"Q  c #754855",
"!  c #7B5855",
"~  c #7A634E",
"^  c #47466B",
"/  c #564665",
"(  c #4A4872",
")  c #6D5068",
"_  c #796877",
"`  c #72636B",
"'  c #89362D",
"]  c #883A3A",
"[  c #933B32",
"{  c #973A3A",
"}  c #95372F",
"|  c #A53B3A",
" . c #BC3A35",
".. c #B43C3C",
"X. c #BB3B3A",
"o. c #B63E35",
"O. c #B5382E",
"+. c #C4382D",
"@. c #C33A33",
"#. c #C23A3B",
"$. c #88443D",
"%. c #97443B",
"&. c #81503F",
"*. c #AD433C",
"=. c #A3433A",
"-. c #B3413A",
";. c #B94339",
":. c #CA4439",
">. c #D24337",
",. c #8A3B42",
"<. c #853C42",
"1. c #9C3D44",
"2. c #933C43",
"3. c #A23D44",
"4. c #AC3D44",
"5. c #B63C42",
"6. c #C13A42",
"7. c #8B4646",
"8. c #9B4347",
"9. c #885949",
"0. c #9B594A",
"q. c #985B55",
"w. c #8D4D54",
"e. c #AD4145",
"r. c #A84546",
"t. c #B64744",
"y. c #A74A56",
"u. c #A55755",
"i. c #B0544B",
"p. c #8C6756",
"a. c #996558",
"s. c #9A7458",
"d. c #936F4B",
"f. c #A3735C",
"g. c #AD715A",
"h. c #A85A67",
"j. c #8D6A68",
"k. c #956577",
"l. c #94706B",
"z. c #A57763",
"x. c #AC6E6F",
"c. c #8D5B67",
"v. c #C35A4C",
"b. c #C95747",
"n. c #D95747",
"m. c #CF4B42",
"M. c #EA5D4A",
"N. c #E95B50",
"B. c #D76958",
"V. c #EE6B4D",
"C. c #EA644A",
"Z. c #F4654B",
"A. c #FA664A",
"S. c #F3694C",
"D. c #F86648",
"F. c #E56C54",
"G. c #EB6955",
"H. c #F46553",
"J. c #F76953",
"K. c #E87458",
"L. c #E5764B",
"P. c #E47962",
"I. c #AA8856",
"U. c #A89354",
"Y. c #B79A58",
"T. c #B2934B",
"R. c #B8A354",
"E. c #B88567",
"W. c #B98B78",
"Q. c #A88470",
"!. c #99844C",
"~. c #C8AD50",
"^. c #C8856C",
"/. c #D68D6D",
"(. c #C78A77",
"). c #D58E73",
"_. c #D88E74",
"`. c #CC947C",
"'. c #CA9479",
"]. c #D49275",
"[. c #DA9273",
"{. c #D3947B",
"}. c #DA9B7B",
"|. c #D5997A",
" X c #D0926D",
".X c #E39E7B",
"XX c #D0B16D",
"oX c #E3AE76",
"OX c #E8C76A",
"+X c #F8D576",
"@X c #DEC26E",
"#X c #787394",
"$X c #927789",
"%X c #AE7887",
"&X c #8478A1",
"*X c #C57A8F",
"=X c #A58A98",
"-X c #B89599",
";X c #B58A8F",
":X c #9894B1",
">X c #A39DB4",
",X c #AE9CAA",
"<X c #BBACB9",
"1X c #AAA4B9",
"2X c #C99684",
"3X c #D89C84",
"4X c #C49E9E",
"5X c #C4849C",
"6X c #D9A588",
"7X c #D3AC90",
"8X c #E7A987",
"9X c #E8B49A",
"0X c #F6BB98",
"qX c #E8B291",
"wX c #C894AD",
"eX c #C5ABBB",
"rX c #D3B1B1",
"tX c #EAB5A5",
"yX c #F3CF90",
"uX c #F4C4A8",
"iX c #EFC9B4",
"pX c #BEB2C3",
"aX c #B9ADC1",
"sX c #C4B4C3",
"dX c #CFB4C6",
"fX c #D9C5C7",
"gX c #D9CAD7",
"hX c #F5D9D4",
"jX c #F0D1C8",
"kX c #E2D5E4",
"lX c #F7E7E4",
"zX c #F4F2F9",
"xX c #FDF6F7",
"cX c #EFE9F3",
"vX c #E9DBE3",
"bX c None",
"nX c black",
/* pixels */
"bXbXbXbXbXbXbXbXbXbXbXbXbXbXbXbXbXr i p i y i y i p y y y d d p d f f c u u bXbXbXbXbXbXbXbXbX",
"bXbXbXbXbXbXbXbXbXbXbXbXbXbXbXbXr i k k k k i i i k k k a a s k a j g g a d bXbXbXbXbXbXbXbXbX",
"bXbXbXbXbXbXbXbXbXbXbXbXbXbXbXbX$.$.} %.%.%.' %.%.%.%.%.%.[ } [ { %.{ ' ' k bXbXbXbXbXbXbXbXbX",
"bXbXbXbXbXbXbXbXbXbXbXH K H d k =.i.:.b.;.v.v.v.;.v.v.;.v.v.b.b.v.v.t.%.{ { s k p f f f bXbXbX",
"bXbXbXbXbXbXbXbXbXbXG H J H d a i.F.L.K.F.F.F.K.L.V.K.F.F.G.H.K.G.F.b.....} ' k a f f H nXnXnX",
"bXbXbXbXbXbXbXbXbXbXQ Q Q Q T $.i.F.V.S.K.S.G.J.J.J.H.H.H.H.J.J.G.H.n.:.o.| } ' ] h J J nXnXnX",
"bXbXbXbXbXbXbXbXbXj.;X-X-X-X-X(.^.G.S.D.S.S.S.J.J.A.A.A.J.A.A.A.H.H.C.n.m.;.O.| { { ,.<.J nXnX",
"bXbXbXbXbXbXbXu H k.gXlXlXlXlXhX8XL.C.D.S.S.Z.D.A.A.A.A.D.A.A.D.A.J.J.H.F.B.t.*.3.2.{ ,.J f d ",
"nXnXnXnXnXnXnXd T x.vXxXxXxXxXhX9XK.C.S.V.V.Z.Z.A.A.A.D.D.D.A.Z.H.Z.J.J.K.B.;.X.5.{ { { 2.J j ",
"nXnXnXnXnXnXnXf J j.4XrXdXlXxXlX9XK.V.V.V.V.S.Z.D.A.A.A.D.D.D.Z.Z.H.C.M.n.m.;.o...| | 3.3.,.J ",
"nXnXnXnXnXnXnXf H w.c.j.Q.fXxXhX9XP.V.C.V.V.J.Z.D.A.A.A.D.A.H.A.J.G.M.:.@. .X.X.5.5.5.5.3.,.j ",
"nXnXnXnXnXnXnXK W Q Q Q j.fXxXlXtXP.V.V.V.V.V.J.J.A.J.A.D.D.A.J.J.H.>. . . . .#.#.X.5.5.3.2.j ",
"nXnXnXnXnXnXP K K ) j.j.=XsXlXhX9XB.N.M.C.Z.M.H.N.H.N.A.M.M.M.H.G.N.m.@.#. .#.X.#.6.5.5.1.2.J ",
"nXnXnXnXD N P L F ) =X,X-X<XfXfX*Xt.t.:.>.>.@.#.#.>.>.+.>.>.>.>.m.:.#.#.#.X.X.#.6.6.5.4.1.,.J ",
"bXbXnXN N N N F F ) ,XsX<X<X<X<X%X1.3.X.+.+.+.+.+.@.@.+.+.+.@.+.@.@.@.@.@. .X.X.X.5.5.4.1.,.J ",
"bXbXbX( ( / ( ^ P #X,XfXeX<XeX<X=Xh.y.e.;.@.+.@.@.@.#.@.@.@.#.+.@.@.@. . . . .....5.3.1.] f H ",
"C B ^ #X>X1X1X1XaXpXkXvXkXkXkXkXsX5X*X*X6.X.@. . .X.X...X...X. .@.@. . .o.-.-.-.-.{ { 7.i q < ",
"C B ^ >XcXzXzXzXzXzXxXxXxXxXxXzXkXdXwX*X5.5.X.X.o.....5.5.5.5.5...o.o.-.-.-.*.*.r.%.$.<.q + O ",
"C B ^ :XcXzXzXzXcXzXzXcXzXzXzXcXkXaXdX*X4.4...| e.*.e.4.4.e.e.e.4.| -.*.*.=.{ %.$.$.v f q O O ",
"C B ( #X&X:X>X>X>X>X,X>X1X>X>X>X:X#X&X$X1.1.3.| | | 3.3.8.1.1.1.3.%.=.%.%.' i i r e e 2 : O . ",
"bXbXbX^ A ^ ( ^ L L P U ^ ^ U ^ ^ ^ / G K ,.{ [ [ } ] 2.,.,.h ] $.%.<.] ] i < = = ; + O . . . ",
"bXbXbXB B Z V V F F G F 9 9 M B B Z V G J <.] ' } ] ] ,.,.,.J 7.7.T T T J y - O O . .       . ",
"bXbXnXnXV Z ^ G K / ` _ _ _ _ ` U C C G j.f.f.u.0.y.u.w.d i p d u y r y y 9 + . .             ",
"bXbXnXnXnXnX/ W / k.wXfXfXfXfXeX` 4 6 I 4XiX9X`.^.^.(.h.w - - - = = - = = % O                 ",
"bXbXbXbXbXbXbX) Q %XdXhXhXhXhXgX` * o Y rXhXyX6X'.{.3Xf.q O O . . O @   .                     ",
"bXbXbXbXbXbXbXQ J h.tXjXjXiXiXiX` & o U tXiXiXoX'.].2Xf.w O + < 2 2 3 7 3 > @               o ",
"bXbXbXbXbXbXbXJ J h.tXtXuXuXuXrX! # @ z 9XiXyX}.].{.{.f.q O : ! ;X;XQ.l.l.R :       .     bXbX",
"bXbXbXbXbXbXbXf f h.9XjXuXuXuX9X! $ @ c 6XuXqX.X).{.3Xa.q O > z.iXuX7X2X7Xj.>           bXbXbX",
"bXbXbXbXbXbXbXu f h.6X9X0X0XyX9Xd.1 - T 6XuXqX[./.).{.z.r - e Q.uXuX7X'.W.j.w $ # o .   bXbXbX",
"bXbXbXbXbXbXbXbXbXq.f.g.g.].}.oXg.9.9.f.`.oX.X[.[.).{.W.p.9.d.`.0X0XqX|.'.I.E c t >     bXbXbX",
"bXbXbXbXbXbXbXbXbXbXv $.0.g.[. X|.{.{.{.). X/.[.[._.).`.`.{.{.8X0X0X8XXX XE.f.l.! 3 .   bXbXbX",
"bXbXbXbXbXbXbXbXbXbXc j &.g.[.}.|.|.}.}.[././.[._._.).`.{.{.}.8X0X0X8X|.|.E.f.s.! 3 . . bXbXbX",
"bXbXbXbXbXbXbXbXbXbXc g 9.g.|.}.{.).[._.[././.[._._.).).'.)..XqX0X0X8X}.}.W.I.l.! 3 O . bXbXbX",
"bXbXbXbXbXbXbXbXbXbXY c v z.(.(.^.^.^./._.[.[.[.).).).).)./.[.8XqX0X}.E.E.Q.j.~ R , . . bXbXbX",
"bXbXbXbXbXbXbXbXbXbXbXbXnXq.q.a.0.0.0.g.).[._./.].].[.[.[.).].}..X6Xs.u t t e 2 3 , bXbXbXbXbX",
"bXbXbXbXbXbXbXbXbXbXbXbXbXc g $.$.v h u._._.[.].].].].{.].).].'.3X'.E = O . . @ O bXbXbXbXbXbX",
"bXbXbXbXbXbXbXbXbXbXbXbXbXY H g j v s 0.(.3X).{.2X'.2X2X2X6X2X'.;XQ.R # @ # # $ # bXbXbXbXbXbX",
"bXbXbXbXbXbXbXbXbXbXbXbXbXbXc f g v $.7.h.g.x.;X4X-X4X4X4X4X-Xj.b b x x b x n ~ n t bXbXbXbXbX",
"bXbXbXbXbXbXbXbXbXbXbXbXbXbXbXbXf f v <.,.] q.-XeXaXsXeX<XeX,XU # # l !.R.R.OXyXXXt o . bXbXbX",
"bXbXbXbXbXbXbXbXbXbXbXbXbXbXbXbXu f J <.,.,.w.-XeXaXaXsXpX<X,XU o @ x U.R.~.OXyXXXl O . bXbXbX",
"bXbXbXbXbXbXbXbXbXbXbXbXbXbXbXbXH W c.3.1.1.c.%X=X=X=X=X=X=X$X9   @ x U.T.~.OX+XOX!.l x l bXbX",
"bXbXbXbXbXbXbXbXbXbXbXbXbXc f J w.k.%X%Xy.3.1.2.w.! Q Q ! ! Y 8   # l U.T.~.OX+XOXOXOXXXR @   ",
"bXbXbXbXbXbXbXbXbXbXbXbXbXv J T k.-XwX*Xh.3.3.,.h g h v H T u , . @ l U.R.~.+X+X+XyXyXyX~ @   ",
"bXbXbXbXbXbXbXbXbXbXbXbXbXT J 7.h.;X*X*Xy.3.3.w.0.0.a.u.q.a.w.t : $ l d.!.T.XXoXOX@X@XXXR @   ",
"bXbXbXbXbXbXbXbXbXbXbXbXbXJ g ,.8.y.h.h.1.<.0.(.3X3X.X.X6X6X;Xp.y y t 2 2 l !.I.I.I.E.I.z O . ",
"bXbXbXbXbXbXbXbXbXbXbXbXbXT T 7.1.4.4.8.,.] q.6XyX0X0XuXuXuXqXz.b b 2 + O w 9.s.s.d.d.p.t % . ",
"bXbXbXbXbXbXbXbXbXbXbXbXbXY H h 8.e.| { j a 0.3XuX0X0X0X0X0XqXs.c c 3 + O 2 9.f.s.d.g.a.y O . ",
"bXbXbXbXbXbXbXbXbXbXbXbXbX< , q s *...' q < y E..X.X.X.X.X8X-XR < > : . O w d.U.T.I.I.!.u @ . ",
"bXbXbXbXbXbXbXbXbXbXbXbXbX. . + r | -.k 1 O 2 z.}.[././.[.3XW.u O   @   @ 2 !.Y.Y.Y.Y.U.z O   ",
"bXbXbXbXbXbXbXbXbXbXbXbXbX  . % r [ %.p - . 3 a.`.^.^. X'.2Xx.u . @       9 s.Y.U.U.U.I.l o   ",
"bXbXbXbXbXbXbXbXbXbXbXbXbXbX  + q r r e 8 7 9 Y R v v E R R U 9 7 7 * o   > l x x x x x t @   ",
"bXbXbXbXbXbXbXbXbXbXbXbXbXbXbXbX; + ; 7 N F C 4 % $ % @ $ * * 9 M M 0 &     o o # # @ # # bXbX",
"bXbXbXbXbXbXbXbXbXbXbXbXbXbXbXbXO . & 5 S A S 6 X X     X X & D ^ Z 0 & & X             bXbXbX",
"bXbXbXbXbXbXbXbXbXbXbXbXbXbXbXbX  X & 5 S A S D 5 4 4 4 4 5 5 S Z B 0 6 & &             bXbXbX",
"bXbXbXbXbXbXbXbXbXbXbXbXbXbXbXbX.   & 5 S A A S B B S S S S Z A A S m & X X bXbXbXbXbXbXbXbXbX",
"bXbXbXbXbXbXbXbXbXbXbXbXbXbXbXbXO . X 7 Z A A A A Z A Z Z A A A A Z D &     bXbXbXbXbXbXbXbXbX",
"bXbXbXbXbXbXbXbXbXbXbXbXbXbXbXbX1 1 1 8 M N S N N N N V L L L ^ ^ F 0 o X   bXbXbXbXbXbXbXbXbX",
"bXbXbXbXbXbXbXbXbXbXbXbXbXbXX ; w a s r 7 4 4 4 6 4 * 8 G / W I W U 9 O . O bXbXbXbXbXbXbXbXbX",
"bXbXbXbXbXbXbXbXbXbXbXbXbXX . + r 8.r.p - o X & o . . : u W Q Q W Y 9 + O O bXbXbXbXbXbXbXbXbX",
"bXbXbXbXbXbXbXbXbXbXbXbXbX    + r $.8.i ; . .   o . . : u Y Y u u Y e + O . bXbXbXbXbXbXbXbXbX",
"bXbXbXbXbXbXbXbXbXbXbXbXbXbXbXbX< w q < .   o         @ > 3 3 , , , > bXbXbXbXbXbXbXbXbXbXbXbX",
"bXbXbXbXbXbXbXbXbXbXbXbXbXbXbXbXO O % .   o o             X       . o bXbXbXbXbXbXbXbXbXbXbXbX",
"bXbXbXbXbXbXbXbXbXbXbXbXbXbXbXbX.       o . . o                     X bXbXbXbXbXbXbXbXbXbXbXbX",
"bXbXbXbXbXbXbXbXbXbXbXbXbXbXbXbXbX  bXbXbXbXbXbXbXbXbXbXbXbXbXbXbX  bXbXbXbXbXbXbXbXbXbXbXbXbX"
};
