/* XPM */
static char *xpm_[] = {
/* columns rows colors chars-per-pixel */
"48 64 246 2 ",
"   c #040102",
".  c #0B0302",
"X  c #04020A",
"o  c #0E0909",
"O  c #120303",
"+  c #1A0605",
"@  c #140B0B",
"#  c #180A09",
"$  c #090718",
"%  c #19121A",
"&  c #191211",
"*  c #240C0B",
"=  c #280C0A",
"-  c #22100E",
";  c #2C1916",
":  c #271814",
">  c #371917",
",  c #37261D",
"<  c #181836",
"1  c #110F27",
"2  c #331C29",
"3  c #3B2822",
"4  c #322736",
"5  c #461919",
"6  c #45281E",
"7  c #472824",
"8  c #493329",
"9  c #56362D",
"0  c #4C3535",
"q  c #563836",
"w  c #502A2A",
"e  c #642C2C",
"r  c #6C3C3C",
"t  c #683736",
"y  c #753C34",
"u  c #733B3A",
"i  c #793838",
"p  c #6D3330",
"a  c #591F21",
"s  c #594532",
"d  c #68453B",
"f  c #76453A",
"g  c #67533A",
"h  c #775931",
"j  c #7F6C3A",
"k  c #2A2847",
"l  c #3A324E",
"z  c #3A3759",
"x  c #312E53",
"c  c #393968",
"v  c #383876",
"b  c #352F61",
"n  c #1F1F42",
"m  c #463658",
"M  c #553857",
"N  c #4D3746",
"B  c #743D43",
"V  c #7A3D47",
"C  c #783859",
"Z  c #693B53",
"A  c #463668",
"S  c #583268",
"D  c #473776",
"F  c #502F6C",
"G  c #6B3565",
"H  c #763661",
"J  c #5B4658",
"K  c #52434F",
"L  c #694647",
"P  c #744445",
"I  c #73434C",
"U  c #7A4747",
"Y  c #755A4A",
"T  c #694455",
"R  c #774855",
"E  c #725853",
"W  c #7E6847",
"Q  c #4A4767",
"!  c #534667",
"~  c #4A4771",
"^  c #6D596B",
"/  c #756371",
"(  c #85382F",
")  c #8C3C3D",
"_  c #853939",
"`  c #9C3C3B",
"'  c #953B38",
"]  c #A33D3B",
"[  c #AA3E3A",
"{  c #BD3A34",
"}  c #BB3B3A",
"|  c #B43C3C",
" . c #BF382D",
".. c #C33A2E",
"X. c #C43734",
"o. c #C33932",
"O. c #C3363B",
"+. c #C33A3A",
"@. c #82423C",
"#. c #854737",
"$. c #944737",
"%. c #8D553C",
"&. c #A8413A",
"*. c #B7433B",
"=. c #97643C",
"-. c #A0773C",
";. c #CA4437",
":. c #D2463A",
">. c #E45B3F",
",. c #873D44",
"<. c #9C3D43",
"1. c #963B46",
"2. c #8E3B58",
"3. c #AC3E43",
"4. c #A43D45",
"5. c #B33D43",
"6. c #BB3B43",
"7. c #B73E48",
"8. c #A73B52",
"9. c #973C60",
"0. c #C13843",
"q. c #844344",
"w. c #854948",
"e. c #984647",
"r. c #9A554E",
"t. c #8A4656",
"y. c #8E5352",
"u. c #A94449",
"i. c #B64846",
"p. c #A85653",
"a. c #AA4C54",
"s. c #89665A",
"d. c #97695A",
"f. c #936F4E",
"g. c #A26A49",
"h. c #A76757",
"j. c #B67C56",
"k. c #AD7155",
"l. c #955C69",
"z. c #8E5367",
"x. c #956867",
"c. c #916C6D",
"v. c #A97765",
"b. c #B67C69",
"n. c #A37679",
"m. c #AF6B6C",
"M. c #A45369",
"N. c #C95A4A",
"B. c #D85847",
"V. c #CB544D",
"C. c #EB5E4B",
"Z. c #E45B48",
"A. c #CD6753",
"S. c #ED664C",
"D. c #F66645",
"F. c #F66946",
"G. c #F4664D",
"H. c #F9674B",
"J. c #F46A4A",
"K. c #F96849",
"L. c #E96C57",
"P. c #F56953",
"I. c #F46752",
"U. c #E6725C",
"Y. c #CA756E",
"T. c #E27263",
"R. c #BB963D",
"E. c #A4865C",
"W. c #BB9556",
"Q. c #B78D4D",
"!. c #B88976",
"~. c #B18B67",
"^. c #AD9451",
"/. c #C39B54",
"(. c #CBAC4C",
"). c #CFB555",
"_. c #CA8C6C",
"`. c #D48D6D",
"'. c #D4916E",
"]. c #DA916F",
"[. c #C88C75",
"{. c #D78B76",
"}. c #CD9479",
"|. c #D39272",
" X c #DA9272",
".X c #D3937A",
"XX c #DA987A",
"oX c #C09966",
"OX c #D4AA74",
"+X c #E29A7D",
"@X c #EED465",
"#X c #F4DA68",
"$X c #EDD173",
"%X c #EBD15F",
"&X c #3A3A80",
"*X c #6C6793",
"=X c #987B93",
"-X c #C67B88",
";X c #B48E95",
":X c #928CAF",
">X c #A998A8",
",X c #B899A8",
"<X c #A594B3",
"1X c #A6A5B9",
"2X c #B8A9BA",
"3X c #BDA1AF",
"4X c #968292",
"5X c #CB9582",
"6X c #CB9987",
"7X c #D99A84",
"8X c #C69899",
"9X c #C6878A",
"0X c #E59B85",
"qX c #DAA488",
"wX c #D8AD8E",
"eX c #E9A78A",
"rX c #E5AA97",
"tX c #EAB597",
"yX c #F5BB9A",
"uX c #F6B998",
"iX c #F0AC96",
"pX c #CC9CA4",
"aX c #C4AABB",
"sX c #D5B1B3",
"dX c #F7BFA4",
"fX c #E3B3A9",
"gX c #F9C4A7",
"hX c #F3C4B1",
"jX c #ECD285",
"kX c #BCB2C6",
"lX c #B9AECE",
"zX c #C5B4C5",
"xX c #CDB6CA",
"cX c #E3BCC6",
"vX c #D7C8D6",
"bX c #F4D9D9",
"nX c #F0CDCA",
"mX c #DBD5E6",
"MX c #E8DAE9",
"NX c #F8E5EA",
"BX c #F6EEF8",
"VX c #F4F3FA",
"CX c #FAF6FD",
"ZX c #ECEAF5",
"AX c None",
"SX c black",
/* pixels */
"AXAXAXAXAXAXAXAXAXAXSXSXSXSXSXSXAXt t p e p p y p y y t r B U B u B V B t 9 AXAXAXAXAXAXAXAXAXAX",
"AXAXAXAXAXAXAXAXAXAXSXSXSXSXSXSXB u i i p i ( i ( y y y i i ,._ _ _ @.i r t AXAXAXAXAXAXAXAXAXAX",
"AXAXAXAXAXAXAXAXAXAXAXSXSXSXSXSXe.e.u.<.4.<.] ` $.#.$.$.@.$.` &.] <.1.' ( y AXAXAXAXAXAXAXAXAXAX",
"AXAXAXAXAXAXAXAXAXAXAXI U U f r.a.p.m.V.V.V.V.N.N.N.N.N.A.A.N.V.V.V.i.] ` ' i y d L L q AXAXAXAX",
"AXAXAXAXAXAXAXAXSXSXL B P f y @.p.T.T.T.U.U.U.L.S.U.S.L.U.L.U.P.L.L.N.&.[ ' ( y i P L r AXAXAXAX",
"AXAXAXAXAXAXAXAXSXSXy.U Y w.U $.p.T.U.I.J.F.S.J.J.S./.S.S.S.P.P.I.G.B.*.[ ] ' ( #.q.w.P AXAXAXAX",
"AXAXAXAXAXAXAXt R n.;X,X,X8X8X[.{.U.P.G.D.D.D.J.J.J.F.J.J.J.K.H.I.G.S.B.N.*.[ ' ' $.,.,.U U I AX",
"AXAXAXAXAXAXAXt u =XnXNXNXNXNXbX0XU.J.D.D.D.K.F.F.J.F.F.F.F.K.K.H.G.S.S.U.>.*.&.[ ' ) ,.,.V I AX",
"SXSXSXSXSXSXSXB V n.bXZXVXBXBXNXiXL.H.D.D.D.K.D.F.J.J.K.K.H.H.H.H.I.I.I.U.A.*.{ [ ' ' ' ,.U P AX",
"SXSXSXSXSXSXSXV q.l.pXsXvXNXBXNXiXU.H.H.H.H.K.D.F.F.J.F.F.H.H.H.I.I.C.Z.B.;.*.*.*.] ' ' ) U P AX",
"SXSXSXSXSXSXSXV q.t.l.l.=XvXCXNXiXL.F.K.K.K.H.G.J.D.J.J.J.H.H.H.G.G.B.X.;.;.o.+.{ [ [ ` #.f P AX",
"SXSXSXSXSXSXSXT R U 2.V c.cXCXNXiXU.D.D.K.K.G.I.P.P.G.J.P.P.H.H.I.H.B.o. ...o.+.O.} | &.1._ P AX",
"SXSXSXSXAXAXZ T T R l.s.=XxXNXMXqXA.Z.D.C.Z.C.C.C.C.C.S.S.C.Z.C.I.C.:...X.X.X.X.O.O.6.3.1.,.U AX",
"SXSXSXSXM m M N N E ;X,XpXzXvXxX[.*.;.:.B.:.:.:.+.:.;.:.:.:.;.:.O.B.X.X.X.X.O.O.0.6.7.3.<.,.P AX",
"SXSXSXA A m l N N ^ ,XaXaX2X2X3Xm.&.[ {  .X.X.X.X.X.........X.X.X.X.X.X.O.O.O.0.0.6.7.3.1.,.P AX",
"SXSXSXD D ~ ! ! ! / 1XzXkXkXzX2X=Xz.u.5.} { { +.O.{  .....X.X.X.X.X.X.O.+.O.0.0.6.7.3.e.) r r AX",
"SXz ~ *X:X1X1X2X1XkXvXmXmXmXmXmXaX;X-XM.0.6.O.6.} } } } } } O.O.O.O.O.O.} | 6.5.3.] <.,.e 5 , AX",
"z c c :XMXVXVXVXVXVXCXCXCXCXVXZXmXsXaX-X8.6.6.} | | [ *.*.| | } } 6.6.6.5.| u.u.4.) ,.u 5 * O AX",
"z z ~ *XmXVXVXZXZXVXVXVXVXVXVXZXmXlXzX-XM.8.3.[ [ u.3.3.u.3.3.3.u.5.3.3.u.u.u.e.e.U P t > . . AX",
"c c c *X:X:X1XlX1X1X1X1X1X1X1X1X:X:X=X=X2.<.` ] ] ] ` <.4.4.4.] 4.` ` e.e.) e e e w w 3 * .   SX",
"SXSXSXm c Q Q ~ Q Q ! Q Q Q Q Q ~ Q Q G C ,.' ' ' ' _ ) ) ) ) ) ) ) ) @.q.p ; * * + O @ o .   SX",
"SXSXSXz z z m m z l l N l l l x z z m K B _ ( ( ( ( _ ) q.q.q.q.f f f P P w + O . . . .       SX",
"SXSXAXAXc m m K M ! ^ / / / / ^ Q k 4 K x.x.p.r.r.p.r.w.u e e e 9 q 9 9 9 , O . . .           SX",
"SXSXAXAXAXSXJ ! T / 3XcXzXzXzX2X^ % & J pXfXrX5X9XY.b.x.7 = = = = = - * & # .             X   SX",
"SXSXSXSXAXAXAXT R n.cXbXbXbXbXnXE o o E sXbXgXeX5X5X5Xx.> + O O + O . . . . .             X   SX",
"SXSXSXSXAXAXAXI V n.fXnXnXnXhXgXE o o K hXhXgX7X.X5X5Xx.> O + ; > > ; : ; * O . o         X X SX",
"SXSXSXSXAXAXAXu ,.x.fXdXhXhXhXtXY @ o g tXgXuX7X}.}.5Xx.> O : E n.n.d.s.s.d * .       o o SXSXSX",
"SXSXSXSXAXAXAXt B M.fXdXgXyXgXiXY O O g wXgXuXXX.X.X5Xh.> O > v.hXhXwXwX6Xs.=         X SXSXSXSX",
"SXSXSXSXSXSXSXr u h.7XdXyXyXdXiXy.= - g eXdXuXXX|..X}.d.7 * 6 ~.dXdXrX6X!.y.> + @       AXAXAXAX",
"SXSXSXSXSXSXSXSXAXs.k.~._.7XeX+Xv.f f d.XXeXOX X'.}.}.~.%.f s.XXdXdX0XXX5Xm.d 9 3 @     AXAXAXAX",
"SXSXSXSXSXSXSXSXAXAXf #.%.Y.].].|.[.[.[.|. X X'.'.|.}._.!.~.}.eXdXuX0X{.{.!.h.s.Y ;     AXAXAXAX",
"SXSXSXSXSXSXSXSXAXAXf f #.b. X]. X|..X|.|.'. X'.'.|.'.}.|.|.OXiXuXuXeX X{.[.v.v.Y ;     AXAXAXAX",
"AXAXAXAXAXAXAXAXAXAXP f w.Y.0X0X X|.'.`. X X X].'.|.'.|.'.|.+XeXyXyXeX X X[.v.x.Y ;   . AXAXAXAX",
"AXAXAXAXAXAXAXAXAXAXL r w.Y.Y.{.{._._.`.].].].].'.'.|.'.'.'.OXtXuXiXqX'.[.v.d.s.Y ;   . AXAXAXAX",
"AXAXAXAXAXAXAXAXAXAXAXr U l.h.h.h.g.g.j.].].].].'.'.'.'.'.'.XXXXeXqXk.Y f 9 9 8 3 :   o AXAXAXAX",
"AXAXAXAXAXAXAXAXAXAXAXAXAX@._ f @.@.#.g._. X X X X X|.|.|.|..XOXXX!.d = + O o . o SXSXSXAXAXAXAX",
"AXAXAXAXAXAXAXAXAXAXAXAXAXf f y f f y r.`..X X{.}..X}.5X6X5X}.}.}.;Xd + . . . . o SXSXSXSXSXSXSX",
"AXAXAXAXAXAXAXAXAXAXAXAXAXAXB r y u f r.v.m.b.8X8X8X8X8X8X6X;Xc.s.Y g 8 9 s g g s 3 SXSXSXSXSXSX",
"AXAXAXAXAXAXAXAXAXAXAXAXAXAXAXAXu r B w.w.R l.,XaX2XkXaXaXaX>XK & : g E.~.^.OX$XE.3     SXSXSXSX",
"AXAXAXAXAXAXAXAXAXAXAXAXAXAXAXAXr r B V I B z.<XxXlXlXlXkXaX>Xq   # g ~.(.).$XjX).8 o o SXSXSXSX",
"AXAXAXAXAXAXAXAXAXAXAXAXAXAXAXAXT R z.t.2.2.l.:XlXlXlXkX>X<X4XN - = %.R.R.(.@X#X).h , 3 3 SXSXSX",
"AXAXAXAXAXAXAXAXAXAXAXAXAXAXq Z z.;X;X-Xt.1.M.,XkXkXkX>Xc./ E d e d =.Q.R.(.%X#X@X).(.^.s O   SX",
"AXAXAXAXAXAXAXAXAXAXAXAXAXL r L n.aXsX9Xa.4.m.pXzXkXaX4XW L u f f #.-.Q.R.(.@X#X#X#XjXjXg .   AX",
"AXAXAXAXAXAXAXAXAXAXAXAXAXI P U n.pXpXY.i.4.a.-X3X3X3X;Xs.w.#.w.$.$.g.Q.Q./.%X@X@X@X$XwXg o   AX",
"AXAXAXAXAXAXAXAXAXAXAXAXAXI V w.a.m.Y.i.V.7.8.M.x.c.c.v.!.[.}._._.oXj.=.=.-.Q./.^.W.W.~.0 o . AX",
"AXAXAXAXAXAXAXAXAXAXAXAXAXU V q.e.4.4.6.6.6.4.,.U f P d.wXgXyXyXyXiXQ.#.f #.g.k.f.E.f.W 7 O . AX",
"AXAXAXAXAXAXAXAXAXAXAXAXAXT I V q.e.] 5.0.0.3.,.u d y f.rXgXuXyXgXuXE.f f %.f.h.g.g.g.f.8 . . AX",
"AXAXAXAXAXAXAXAXAXAXAXAXAXN K Z Z C 2.1.6.6.<.e 7 , 5 Y }.eXeXeXtXqXf.a 6 f d.E.Q.k.Q.f.8 o   AX",
"AXAXAXAXAXAXAXAXAXAX  X $ k c z b A M 2.1.8._ 5 * O + w !.6X5XXXqX!.f = # s E.W.W./.^.E.9 .   AX",
"AXAXAXAXAXAXAXAXAXAX. X % k c v v v A C 9.8._ > . .   7 ~.6X6X}.5X6XL #   4 E.oXW.Q.^.E.s o   AX",
"AXAXAXAXAXAXAXAXAXAX> > 2 z v v v v D F H t.Z 2 % % % 4 E c.s.s.s.s.0 O . , Y W =.j j j ,     AX",
"AXAXAXAXAXAXAX  . > B 2.H S v v &Xv v A S M M m l x x 4 4 ; ; : ; : & .   @ : : : & : & o     AX",
"AXAXAXAXAXAXAX  . 5 2.8.9.G F D &X&Xv v A b b c A c c k $                   X                 AX",
"AXAXAXAXAXAXAX  . 5 1.8.9.G F D D v v c v v c b b z x k $         . O & # @ & @ o o   X X X   AX",
"AXAXAXAXAXAXAX  O 5 ` 6.8.H D D v v v c c v b < < 1 1 $ X       . o , 8 q 0 q 0 3 & o   X AXAXAX",
"AXAXAXAXAXAXAX  O 5 ' 6.8.H F D D A D v c c b 1 X $ X X       . . O 7 L L L E I K : .   AXAXAXAX",
"AXAXAXAXAXAXAX  O 5 ( 4.1.C S F F A A c b c k 1 X X         . . . + 3 r L L K L q : . . AXAXAXAX",
"AXAXAXAXAXAXAXAXSX= 5 a e 2.C H S F A x n < < 1 AXAXAXAXAXAXAXAXAXAX; , , > > 3 , - SXSXAXAXAXAX",
"AXAXAXAXAXAXAXAXSXSX+ + > i 9.2.G M A n 1 $ $ SXAXAXAXAXAXAXAXAXAXAXo . . . o . . AXAXAXAXAXAXAX",
"AXAXAXAXAXAXAXAXSXSX. . = p y.t.C m m 4 $ $ $ SXAXAXAXAXAXAXAXAXAXAX              AXAXAXAXAXAXAX",
"AXAXAXAXAXAXAXAXAXAX    * w e e w k 4 < $ X AXAXAXAXAXAXAXAXAXAXAXAXAX  X       AXAXAXAXAXAXAXAX",
"AXAXAXAXAXAXAXAXAXAXAXAXAX# * * @ @ $ $ SXAXAXAXAXAXAXAXAXAXAXAXAXAXAXAXAXAXAXAXAXAXAXAXAXAXAXAX",
"AXAXAXAXAXAXAXAXAXAXAXAXAX            X SXSXAXAXAXAXAXAXAXAXAXAXAXAXAXAXAXAXAXAXAXAXAXAXAXAXAXAX",
"AXAXAXAXAXAXAXAXAXAXAXAXAX            SXSXSXAXAXAXAXAXAXAXAXAXAXAXAXAXAXAXAXAXAXAXAXAXAXAXAXAXAX"
};
