/* XPM */
static char *xpm_[] = {
/* columns rows colors chars-per-pixel */
"47 64 238 2 ",
"   c #040101",
".  c #0C0102",
"X  c #02010A",
"o  c #0F070D",
"O  c #130303",
"+  c #1A0605",
"@  c #150B0A",
"#  c #1B0B0A",
"$  c #150708",
"%  c #060414",
"&  c #170D16",
"*  c #19121D",
"=  c #1D120E",
"-  c #240C0B",
";  c #290C0B",
":  c #27110F",
">  c #2A1513",
",  c #291718",
"<  c #371A19",
"1  c #300F0E",
"2  c #37231C",
"3  c #2F241C",
"4  c #17132A",
"5  c #0F0D22",
"6  c #2A1B27",
"7  c #331E25",
"8  c #211B32",
"9  c #372325",
"0  c #342537",
"q  c #2A2133",
"w  c #471A19",
"e  c #47231F",
"r  c #482725",
"t  c #572928",
"y  c #54322D",
"u  c #583635",
"i  c #4E3332",
"p  c #682A28",
"a  c #6B352D",
"s  c #78372C",
"d  c #662D37",
"f  c #6A3A38",
"g  c #7B3D3C",
"h  c #773837",
"j  c #752D33",
"k  c #544533",
"l  c #66463B",
"z  c #7B423C",
"x  c #75443A",
"c  c #684F38",
"v  c #2C2A45",
"b  c #352B43",
"n  c #39324C",
"m  c #35325B",
"M  c #383557",
"N  c #342D58",
"B  c #3C3A64",
"V  c #3A3764",
"C  c #463A56",
"Z  c #503A4D",
"A  c #7B3D42",
"S  c #6B3D48",
"D  c #453B66",
"F  c #573F60",
"G  c #3F405B",
"H  c #5C4658",
"J  c #5F4F41",
"K  c #6B4646",
"L  c #744344",
"P  c #7B4443",
"I  c #734C45",
"U  c #744A4B",
"Y  c #785849",
"T  c #654656",
"R  c #764E56",
"E  c #7A5855",
"W  c #6E534C",
"Q  c #7E654E",
"!  c #48426D",
"~  c #4A4671",
"^  c #554B6F",
"/  c #695168",
"(  c #853C3D",
")  c #8C3D3C",
"_  c #883834",
"`  c #963C38",
"'  c #8F382F",
"]  c #A23C3C",
"[  c #AD3C3C",
"{  c #BE3734",
"}  c #B63B3B",
"|  c #BB3A3B",
" . c #BC3836",
".. c #C3352D",
"X. c #C4382F",
"o. c #C23635",
"O. c #C33834",
"+. c #C23639",
"@. c #C2393B",
"#. c #CA3E34",
"$. c #86433B",
"%. c #934437",
"&. c #AE453C",
"*. c #956D3E",
"=. c #CC4238",
"-. c #D1453B",
";. c #D24436",
":. c #F7683D",
">. c #F8693F",
",. c #873E42",
"<. c #953E42",
"1. c #A43E42",
"2. c #B63D42",
"3. c #894546",
"4. c #9B4345",
"5. c #974548",
"6. c #865949",
"7. c #9A584F",
"8. c #944C53",
"9. c #865855",
"0. c #945953",
"q. c #8A4E53",
"w. c #A54347",
"e. c #B34244",
"r. c #A95453",
"t. c #8E724A",
"y. c #9A7247",
"u. c #8A6455",
"i. c #94655B",
"p. c #966B52",
"a. c #A76555",
"s. c #B16A5E",
"d. c #8F5B63",
"f. c #AD5B65",
"g. c #9A7565",
"h. c #956D6A",
"j. c #A46766",
"k. c #B77969",
"l. c #AF7572",
"z. c #CB5547",
"x. c #CB514A",
"c. c #EB5D4B",
"v. c #E35848",
"b. c #EE634D",
"n. c #F56944",
"m. c #F5664B",
"M. c #F9664C",
"N. c #F86948",
"B. c #ED6653",
"V. c #E76958",
"C. c #FA6552",
"Z. c #F46A53",
"A. c #F46552",
"S. c #CB796B",
"D. c #D7695D",
"F. c #B69A5A",
"G. c #AD8A57",
"H. c #A98869",
"J. c #B98977",
"K. c #B69378",
"L. c #AE886E",
"P. c #9D8569",
"I. c #D98E6A",
"U. c #D78D6D",
"Y. c #DB916C",
"T. c #D4926D",
"R. c #C78975",
"E. c #CD947C",
"W. c #CC9277",
"Q. c #D49374",
"!. c #D99272",
"~. c #D3947A",
"^. c #D89B7B",
"/. c #CC8B70",
"(. c #E98574",
"). c #E29D73",
"_. c #D4B96F",
"`. c #E3A57D",
"'. c #E3B977",
"]. c #ECD17D",
"[. c #E3C779",
"{. c #DCC174",
"}. c #766582",
"|. c #716E93",
" X c #90778D",
".X c #B67E81",
"XX c #C67685",
"oX c #9F8892",
"OX c #B9938A",
"+X c #BA969A",
"@X c #AE888E",
"#X c #9590B0",
"$X c #B09DB3",
"%X c #A5A2BC",
"&X c #BEA8BC",
"*X c #CA9684",
"=X c #C99686",
"-X c #D79D87",
";X c #C79C98",
":X c #D18990",
">X c #D9A38B",
",X c #D3AA91",
"<X c #E5A786",
"1X c #EEB38B",
"2X c #E9B497",
"3X c #F5B994",
"4X c #F6BC98",
"5X c #E5AC95",
"6X c #CBA6A8",
"7X c #D0A9A8",
"8X c #CCAAB5",
"9X c #D9B9B8",
"0X c #ECBCAD",
"qX c #CC92A7",
"wX c #F4D888",
"eX c #FAC39D",
"rX c #E7CA88",
"tX c #FAC3A4",
"yX c #F5C5A8",
"uX c #F7CAB6",
"iX c #F8D4B5",
"pX c #B8ADC6",
"aX c #BBB5CD",
"sX c #ABA8C2",
"dX c #C7B9CD",
"fX c #C3B3CB",
"gX c #F9D6C5",
"hX c #F2D6CF",
"jX c #DCD9E9",
"kX c #E2DFEE",
"lX c #F8EAE4",
"zX c #FEF3EB",
"xX c #F4F2FA",
"cX c #FAF6F9",
"vX c #E9E5F2",
"bX c #D1C3D3",
"nX c None",
"mX c black",
/* pixels */
"nXnXnXnXnXnXnXnXnXnXK K K U U U L l l L I P x s a a a a a p t mXmXmXnXnXnXnXnXnXmXmXmXmXmXmXmX",
"nXnXnXnXnXnXnXnXnXnXK L S L x 3.z x z z g $.$.z s s s z _ s p mXmXmXnXnXnXnXnXnXmXmXmXmXmXmXmX",
"nXnXnXnXnXnXnXnXnXnX,.,.( 3.) 5.5.' %.%.' %.%.%.%.%.' %.[ ' _ nXmXmXmXnXnXnXnXnXmXmXmXmXmXmXmX",
"nXnXnXnXd f h j j _ <.) w.r.z.z.x.z.z.z.z.-.-.z.v.z.-.-.z.z.r.' p y u d t nXnXnXmXmXmXmXmXmXmX",
"nXnXnXf S f g h _ ' ] [ x.V.V.V.V.Z.Z.Z.Z.Z.Z.V.Z.N.Z.C.Z.V.D._ p u f u i mXmXmXmXmXmXmXmXmXmX",
"nXnXnXL P 3.( ` ' ` [ | =.c.Z.C.M.M.M.N.n.n.:.n.n.Z.C.C.C.Z.D.w.z U W R K K mXmXmXmXmXmXmXmXmX",
"nXnXP P 3.) ` ` [ 2.x.-.v.m.C.M.N.n.n.:.:.:.:.n.N.M.M.C.C.Z.S.:XOX+X+X+X+X Xd.nXmXmXmXmXmXmXmX",
"K K P g h ' ` &.[ x.V.B.B.m.M.N.n.>.>.:.:.:.:.n.N.M.M.C.C.B.(.uXlXzXlXlXlX8XR d t mXmXmXmXmXmX",
"K L g ( _ ` ] e.} z.V.B.Z.m.n.N.N.>.>.>.>.>.>.n.n.M.C.C.C.C.V.uXzXzXzXcXlX8Xq.d d nXnXnXmXmXmX",
"L L ,.<.` ] [ |  .#.v.v.c.b.m.n.N.n.n.n.n.>.N.n.n.M.M.M.C.C.:XgXzXzXhX9X0X@X3.g A nXnXnXmXmXmX",
"L A ,.<.1.2.|  .{ o.#.#.-.c.A.m.C.M.M.M.M.n.N.N.m.M.M.m.m.B.<XuXzXlX;Xs.f.7.3.A P nXnXnXmXmXmX",
"S ,.,.w.e.2. .+.+.o.....;.c.Z.Z.C.C.C.C.M.C.C.M.N.N.M.M.Z.Z.V.gXzXlX;X5.` ` P P U nXnXnXmXmXmX",
"A ,.<.<.e.2. .+.o.o.....#.v.c.A.b.c.c.c.c.c.c.b.m.c.c.c.A.c.S.0XlXhX;Xf.0.8.U S T nXmXmXmXmXmX",
"P ,.<.1.2.2.2.@.O.O.o...X.#.-.-.-.-.-.-.-.;.;.;.=.;.;.;.x.2.f.7XdXdX&X$XqX X/ C D D D D mXmXmX",
"P ,.<.4.w.2.|  .+.O.O.O...{ o.O.O.o.o.+.O.O.o...........2.2.f.+XpXsXaXaXpX XD V D D B B mXmXmX",
"S A ,.<.w.1.} |  .{ o.O.+.{ { { o.o.+.+.+.+.O.O.o...o.@.2.1.f.&XdXaXaXaXaXoX^ ~ ~ ^ ~ ! mXmXmX",
"< w t j ` ` [ 2.| |  .+.{ { +.+.+.+.+.+.+.+.o.O.o.+.@.x.XXXX+XbXkXjXjXjXkXdXpXsXsXsX#X|.! V N ",
"O O 1 a %.<.w.w.e.e.&. . . .@.@.@.+.+.@.+.{ { O.+.2.2.f.qXfXfXkXcXcXcXcXcXxXxXxXcXxXvXmX! D N ",
". . - y g ( 3.%.` w.e.e.2.2.2.} } | } } | | } } | 2.1.f.qXpXdXkXxXxXxXxXxXxXxXxXxXxXmXmX! D m ",
"  . O , r r t t p j <.w.1.1.] ] ] ] ] 1.` ] ] ` 1.<.5.d. X X X%X%X%X%X%X%X%X%X%X%X%X|.nX! B m ",
"      . . O + - ; w g ,.( ) $.` ) ` $.$.) ( ( ) ,.,.3.U ! ~ ! ~ ~ D ! ! D F ~ ~ ! ~ V V nXnXnX",
"            . . O < f P A 3.P P z g z g g g g A ,.,.A F G m V B V N N V N m D D V m m m nXnXnX",
"                . > i u y t y y y y y K 9.i.0.0.i.j.g./ n v m ^ }.}.}.}.}./ F F D B m m nXnXnX",
"                . . O # $ @ # # # # ; l L.R.J.R.-X9XuXoXq X 0 oXdX9X9X9X9X@XR T / mXmXmXnXnXnX",
"                                  . O l J.*X~.~.5XiXhX@X7   9 OXgXgXiXgXiX;Xq.S S nXnXnXnXnXnX",
"X               . $ > , , 7 3 3 # O O l K.^.Q.Q.5XuXhX@X,   9 OXiXiXuXiXuX-Xq.g S nXnXnXnXnXnX",
"mXmXmX        . O r 9.i.g.P.K.g.i O # l J.Q.Q.Q.<XtXuXL.,   9 L.yXtXeXtXuX*X3.h S nXmXmXnXnXnX",
"mXmXmXX X   . O + u J.=X>X2XiX,Xl O # f J.Q.T.T.<X4X0XL.<   3 L.tXeX4XeX0X*Xq.j S mXmXmXnXnXnX",
"mXmXmXX X X $ # ; f R.*X<X1XeX5XI : 1 c R.~.T.Y.<X3X3Xk.r $ r K.4X3X3X1X2XS.q.d d mXmXmXmXmXmX",
"mXmXmX    @ 9 S f 0./.~.`.1X4X1XG.6.Y s.W.Q.Y.Y.`.`.`./.0.Y i.R.<X>X/.k.k.j.8.mXmXmXmXmXmXmXmX",
"mXmXmX    @ u h.j.k./.Q.).1X4X3X<XW./.W.~.Y.Y.I.Y.Y.Y.T.E.=XE.W.!.T.y.%.g A mXmXmXmXmXmXmXmXmX",
"mXmXmX    @ k g.g.R.Q.Q.!.1X4X3X`.U.Q.~.Q.Y.Y.I.I.I.Y.Y.~.^.~.Q.Q./.7.x a mXmXmXmXmXmXmXmXmXmX",
"nXnXnX    @ u h.g.L.*XE.>X2XeX3X`.T.~.!.U.I.Y.I.I.I.Y.!.!.~.!.T.Q.W.a.a f nXnXnXmXmXmXmXmXmXmX",
"nXnXnX  . # i 9.u.i.l.L.R.2XeX2X-XQ.!.U.I.U.Y.Q.!.!.!.!./././././.J.0.f a nXnXnXmXmXmXmXmXmXmX",
"nXnXnXnXnXnX3 9 9 i y y c K.>X>X~.W.Q.Q.Q.Q.~.Q.Q.Q.!.S.a.r.7.7.7.6.6.nXnXnXnXnXmXmXmXmXmXmXmX",
"nXnXnXnXnXnX. . O O + O < g.=X*XE.E.E.E.~.*XE.E.E.~.~.k.%.%.$.s s x s nXnXnXnXnXmXmXmXmXmXmXmX",
"nXnXnXnXmXmX= @ $ = @ + 2 i.K.=XOX=X=X=X=X=X=X=X=X*XE.k.3.s $.s a a nXnXnXnXnXnXmXmXmXmXmXmXmX",
"nXnXnXnXmX= k Q 6.Y c k c K I Y L.;X6X;X;X=X;X;XJ.j.j.r.$.g x s a nXnXnXnXnXnXnXmXmXmXmXmXmXmX",
"mXmXnX    @ Q rXrX_.F.G.t.r + < h.6X8X6X6X6X7X6Xl.3.$.$.P P A mXmXmXnXnXnXnXnXnXmXmXmXmXmXmXmX",
"mXmXmX.   @ t.rXwX{.F.F.t.< . > h.6X8X8X8X6X7X6Xl.3._ ( ,.A A mXmXmXnXnXnXnXnXnXmXmXmXmXmXmXmX",
"mXmX3 i k c F.].]._.F.F.t.2 O : W oXoXoX+X@X.X.Xj.3.<.5.8.q.,.,.mXnXnXnXmXmXmXmXmXmXmXmXmXmXmX",
"    3 P.,X{.[.].]._.F.F.*.2 O - i W W R 9.E E q.8.8.5.8.l..X.X,.h j nXnXmXmXmXmXmXmXmXmXmXmXmX",
"    3 K.iXwXwXwXwX{.F.F.t.2 O + r K S l x l A h 3.5.4.f.:X:X.X<.h j d nXmXmXmXmXmXmXmXmXmXmXmX",
"    2 H.rX[.{.{.[.F.G.p.Q r - < K 9.0.6.9.0.0.0.8.4.4.r.S.XXf.<.A d d nXmXmXmXmXmXmXmXmXmXmXmX",
". . > t.G.G.F.G.G.*.e 2 2 i u I l.>X>X>X>X>X>X>Xk.) ) w.w.r.8.,.j d t mXmXmXmXmXmXmXmXmXmXmXmX",
". . : c y.y.y.*.*.k # . = y I u.OX0XtXtXtXtXtX4XR.%._ ) 4.w.w.3.A u u nXmXmXmXmXmXmXmXmXmXmXmX",
". . : x a.y.y.y.y.c = . : y k z K.0X4X4X3X3X4X2Xk.$.j ( 4.w.5.g d i i nXmXmXmXmXmXmXmXmXmXmXmX",
". . > 6.L.G.G.G.H.c - . @ > < r j.5X<X<X`.<X<X~.u.w < p 5.w.<.t < : > nXmXmXmXmXmXmXmXmXmXmXmX",
"    , u.K.K.K.K.K.Q =   . . . > u.=X=X*XW.Q.~.R.I - O w <.w.z 1 O . . mXmXmXmXmXmXmXmXmXmXmXmX",
"    , Q L.L.H.H.H.J >   . $   , E OXOXJ.J.K.*X@XU # $ w A 3.x <   X mXmXmXmXmXmXmXmXmXmXmXmXmX",
"    , k J J c J J 9 @   @ 4 6 6 Z W W W I I Y W i 6 6 9 r t r >   nXmXmXmXmXmXmXmXmXmXmXmXmXmX",
"nXnXnXo @ @ @ $ = @     & 0 C n 6 & # # - - - = 0 n C 0 ; + + nXnXnXmXmXmXmXmXmXmXmXmXmXmXmXmX",
"nXnXnX                X 5 v ! n 4 %     .     X 8 M C 0 # . . nXnXnXnXnXmXmXmXmXmXmXmXmXmXmXmX",
"nXnXnXnX              X 5 v G n q 4 4 4 4 * * 4 v m V v & . . nXnXnXnXnXmXmXmXmXmXmXmXmXmXmXmX",
"nXnXnXnXnXnXnXnXmXmXX X 5 v M M n n n n n 0 b n M B B b # . O nXnXnXnXnXmXmXmXmXmXmXmXmXmXmXmX",
"nXnXnXnXnXnXnXnXmXmX  X 5 0 M G C C C C C ! G M B B B b # O O nXnXnXnXnXmXmXmXmXmXmXmXmXmXmXmX",
"nXnXnXnXnXnXnXnXmXmX    * 0 H G C H C C b n N M N N N 0 , 1 1 nXnXnXnXnXnXnXnXnXmXmXmXmXmXmXmX",
"nXnXnXnXnXnXnXnXmXmX    * n H H H H H n 6 5 4 4 4 4 4 0 S K u 1 .   nXnXnXnXnXnXmXmXmXmXmXmXmX",
"nXnXnXnXnXnXnXnXmXmX    & Z H / / R T 0 % X X X % % % q R d.U < .     nXnXnXnXnXmXmXmXmXmXmXmX",
"nXnXnXnXnXnXnXnXmXmX    = i H J H T Z q o X X X % % % 6 K q.L 1 . . nXnXnXnXnXnXmXmXmXmXmXmXmX",
"nXnXnXnXnXnXnXnXnXnXnXnX@ 6 7 2 9 9 6 : .       X X X & < r r > nXnXnXnXnXnXnXnXmXmXmXmXmXmXmX",
"nXnXnXnXnXnXnXnXnXnXnXnXnX. . . . . . .         X X X O O O O nXnXnXnXnXnXnXnXnXmXmXmXmXmXmXmX",
"nXnXnXnXnXnXnXnXnXnXnXnXnX. . . . . .             X . . . . . nXnXnXnXnXnXnXnXnXmXmXmXmXmXmXmX",
"nXnXnXnXnXnXnXnXnXnXnXnXnXnXnXnXmXmXmXmXmXmXnXnXnXnXnXnXnXnXnXnXnXnXnXnXnXnXnXnXmXmXmXmXmXmXmX"
};
