/* XPM */
static char *xpm_[] = {
/* columns rows colors chars-per-pixel */
"51 64 236 2 ",
"   c #050002",
".  c #0B0001",
"X  c #03010B",
"o  c #0B040B",
"O  c #130303",
"+  c #1B0303",
"@  c #150709",
"#  c #15080C",
"$  c #1A090A",
"%  c #0C0A1C",
"&  c #070514",
"*  c #120C17",
"=  c #1A121D",
"-  c #230202",
";  c #220B0B",
":  c #2C0E0D",
">  c #3A0807",
",  c #291615",
"<  c #351D1B",
"1  c #381816",
"2  c #2D100F",
"3  c #37211E",
"4  c #0D0C23",
"5  c #161326",
"6  c #181832",
"7  c #221723",
"8  c #2B1E2B",
"9  c #1E203D",
"0  c #372425",
"q  c #2B2539",
"w  c #372736",
"e  c #332834",
"r  c #491716",
"t  c #541616",
"y  c #400A09",
"u  c #48231E",
"i  c #422525",
"p  c #452B2C",
"a  c #4A2C2A",
"s  c #522E2B",
"d  c #532824",
"f  c #4B332E",
"g  c #46312F",
"h  c #5A342C",
"j  c #55322C",
"k  c #442C32",
"l  c #482F35",
"z  c #522E33",
"x  c #4B3336",
"c  c #553433",
"v  c #5A3B3B",
"b  c #593837",
"n  c #6A2A29",
"m  c #762A26",
"M  c #66352C",
"N  c #75342E",
"B  c #6C3936",
"V  c #643C3A",
"C  c #673936",
"Z  c #743935",
"A  c #7B3936",
"S  c #773837",
"D  c #752C32",
"F  c #641A1A",
"G  c #5A4338",
"H  c #63423D",
"J  c #6A453B",
"K  c #76443B",
"L  c #2B2B49",
"P  c #362D44",
"I  c #383248",
"U  c #3B3855",
"Y  c #2E314F",
"T  c #48364A",
"R  c #573A47",
"E  c #453852",
"W  c #553F53",
"Q  c #6A3E46",
"!  c #3E405E",
"~  c #5C4248",
"^  c #564457",
"/  c #644543",
"(  c #6C4442",
")  c #6B4945",
"_  c #65434B",
"`  c #66494C",
"'  c #6C4B4A",
"]  c #6B464C",
"[  c #744945",
"{  c #784A43",
"}  c #724B4B",
"|  c #764644",
" . c #785647",
".. c #6B4953",
"X. c #664853",
"o. c #795957",
"O. c #6C534D",
"+. c #7A6145",
"@. c #504E6A",
"#. c #68566B",
"$. c #796271",
"%. c #8A352E",
"&. c #833936",
"*. c #8A3A35",
"=. c #843B39",
"-. c #8B3A3A",
";. c #883635",
":. c #953A32",
">. c #943C3A",
",. c #9C3B3A",
"<. c #983834",
"1. c #87302E",
"2. c #BE392D",
"3. c #B13F2F",
"4. c #AC3D3B",
"5. c #A53D36",
"6. c #BC3A35",
"7. c #B43D3C",
"8. c #BB3C3A",
"9. c #B43B36",
"0. c #C13A2C",
"q. c #C33A35",
"w. c #C93E37",
"e. c #9A413A",
"r. c #834B3C",
"t. c #AB403C",
"y. c #A64238",
"u. c #B4423B",
"i. c #BA4539",
"p. c #9C7031",
"a. c #A1712B",
"s. c #A67537",
"d. c #A36C2F",
"f. c #C84438",
"g. c #D94B3F",
"h. c #D44A3C",
"j. c #8F3F41",
"k. c #AD3E41",
"l. c #834644",
"z. c #974644",
"x. c #86554B",
"c. c #91574B",
"v. c #895952",
"b. c #965D55",
"n. c #A34443",
"m. c #AC4342",
"M. c #A54948",
"N. c #B94E42",
"B. c #B44642",
"V. c #896759",
"C. c #99665B",
"Z. c #88745C",
"A. c #926E4E",
"S. c #A2665A",
"D. c #A57854",
"F. c #A57149",
"G. c #8D6964",
"H. c #996B64",
"J. c #987267",
"K. c #8C6D73",
"L. c #8E7374",
"P. c #A46C61",
"I. c #A86F65",
"U. c #A57366",
"Y. c #AB7669",
"T. c #B87E73",
"R. c #AD796F",
"E. c #CF4E40",
"W. c #DC5746",
"Q. c #D15245",
"!. c #E35A46",
"~. c #E65A49",
"^. c #EF5F51",
"/. c #F15F52",
"(. c #DF6755",
"). c #DE604E",
"_. c #EB674D",
"`. c #F66645",
"'. c #F96646",
"]. c #F56945",
"[. c #F96945",
"{. c #FA664B",
"}. c #F36A4C",
"|. c #F9694A",
" X c #F3664A",
".X c #EC6D55",
"XX c #E76958",
"oX c #F46453",
"OX c #FA6654",
"+X c #F36A53",
"@X c #FA6857",
"#X c #EA715B",
"$X c #EB7160",
"%X c #B4853E",
"&X c #AE834D",
"*X c #A88357",
"=X c #B28957",
"-X c #B68F4F",
";X c #B88D68",
":X c #B49466",
">X c #A68477",
",X c #B98478",
"<X c #B39375",
"1X c #A98F6F",
"2X c #BEA874",
"3X c #C48A7C",
"4X c #C2976C",
"5X c #D1B06C",
"6X c #E2B96C",
"7X c #E1BB70",
"8X c #ECC77C",
"9X c #F3CC7D",
"0X c #726A83",
"qX c #887B90",
"wX c #B1908B",
"eX c #B6AA9C",
"rX c #A797A8",
"tX c #B5AAA3",
"yX c #938AA1",
"uX c #C89687",
"iX c #CA938E",
"pX c #C9A59A",
"aX c #CDB1AE",
"sX c #F5D285",
"dX c #F5D58A",
"fX c #EDD997",
"gX c #F1D38A",
"hX c #EBDDAD",
"jX c #F2E7AF",
"kX c #DEC6B6",
"lX c #FCF9D5",
"zX c #FCF7CA",
"xX c #FBFAE1",
"cX c #E6D1C8",
"vX c None",
"bX c black",
/* pixels */
"vXvXvXvXvXvXvXvXvXvXC B Z B Z Z N M N N A N A r.:.*.%.*.K %.r.*.%.*.&.-.-.&.A M M bXbXbXbXbXbXbXbXbXbX",
"vXvXvXvXvXvXvXvXvXvXS A &.&.*.*.;.-.-.:.%.:.%.e.:.:.:.:.e.e.:.:.:.:.:.e.>.-.*.A A vXbXbXbXbXbXbXbXbXbX",
"vXvXvXvXvXvXvXvXvXvX*.-.r.e.y.t.M.B.N.N.i.N.N.u.i.i.i.i.i.i.F.i.i.N.N.B.y.<.<.>.z.j.S vXbXbXbXbXbXbXbX",
"vXvXvXvXvXvXvXn m ;.,.y.y.y.i.Q.(.$X(.XX#X(.(.(.(.).(.#X(.(.XX(.(.(.(.Q.i.y.y.y.,.>.D n bXbXbXbXbXbXbX",
"vXvXvXvXvXvXvXD 1.:.y.y.y.y.i.!.XX$X$X$X#X#X.X.X_..X#X#X#X#X#X#X#X#X#XW.i.i.y.3.,.<.1.D vXvXvXvXbXbXbX",
"vXvXvXvXvXvXvX1.%.y.y.i.f.f.f.!.+X+X.X.X.X.X+X}.].].}..X.X.X.X#X.X.X.XW.f.f.f.f.7.4.>.;.vXvXvXvXbXbXbX",
"vXvXvXvXC S ;.<.3.u.h.(.).!.W._.OXoXoX}.+X}.}.}.]..X].].]._..X_._.}..X}.!.W.!.).Q.8.4.n.-.D Q vXbXbXbX",
"vXvXvXvXB A >.4.3.f.)..X.X.X}.].OX|.}.}.].}.].[.].].].].].].].}._.}.}.}.].].+X+X~.w.8.m.>.S V bXbXbXbX",
"vXvXvXvXB A >.k.7.f._..X}.}.}.|.{.{.{.'.`.`.].].[.[.[.[.].`.].].].].[.[.|.{.{.OX~.w.q.k.j.;.B bXbXbXbX",
"vXvXvXvXB &.>.y.4.f.W.}. X}.|.|. X'.{.{.'.'.].`.[.[.[.[.'.`.].[.].].].[.|.{.{.OX^.w.q.k.,.=.Z bXbXbXbX",
"vXvXvXvXB &.>.y.u.f.W._.}.}.|.`.`.`.'.{.'.'.'.].[.[.'.'.'.'.[.|.'.`.`.'.|.'.{.{./.w.q.k.,.;.A bXbXbXbX",
"vXvXvXvXS &.>.4.u.f.!.+X+X}.}.|.'.{.{.{.{.{.|.].].'.'.'.'.'.{.{.'.'.|.|.{.{.OXOX~.w.q.k.5.&.Z bXbXbXbX",
"vXvXvXvXS &.>.4.7.w.W.~.~.~.~.`.OXOX{.{.|.|.}.}.}. X|.{.|.|.{.{.{.{.'. X~.~.~.~.W.q.8.k.k.j.Q bXbXbXbX",
"vXvXvXvXD Q >.4.7.2.q.w.f.w.f.~.oXOXOXOX{.OX}.+X}.}.oXOXOXOX{.{.OX|. X!.h.w.f.w.w.q.k.m.j.S Q bXbXbXbX",
"vXvXvXvXZ ;.5.k.8.6.q.0.0.0.w.!.OX@X@XOXOX@XoXoX@X@X@XOX@XOXOX@XOX.XoX!.0.0.0.2.6.q.k.m.j.j.Q bXbXbXbX",
"vXvXvXvXZ ;.5.k.B.q.0.0.0.0.w.g././././.oXoX^.^.XXXX_.oX^.oXoXoXoXoX_.W.0.0.2.6.6.k.k.m.j.S B bXbXbXbX",
"vXvXvXvXD =.5.k.8.8.q.q.q.6.q.f.W.g.g.g.g.g.g.E.f.h.h.h.h.h.g.g.W.E.E.f.6.6.6.8.8.k.m.,.n r r vXbXbXbX",
"vXvXvXvXn -.k.m.k.7.u.i.8.8.6.q.q.q.q.q.q.q.q.k.i.u.u.i.u.i.q.0.0.q.q.q.6.6.6.u.u.4.M.-.r - + vXbXbXbX",
"vXvXvXvXN ;.e.z.k.4.3.4.7.7.7.6.q.q.q.q.q.6.8.4.<.y.5.5.5.9.6.2.0.q.q.6.6.8.8.u.7.y.z.r.r ; + ; bXbXbX",
"vXvXvXv.b.b.z.N m N <.4.m.t.7.7.k.q.q.8.8.9.1.m m m m m 1.3.9.6.8.6.6.8.7.7.7.4.,.D m N M C b b bXbXbX",
"j h K U.3X3Xc.r > t 1.n.n.n.m.m.B.k.k.k.k.<.F y > > > > F <.u.7.8.k.8.k.k.k.B.n.1.t > r v.<XR.G.' H R ",
"c h K U.uXuXv.r - y N z.n.M.M.M.n.m.B.k.k.<.t - + + + - r ;.n.m.m.m.k.B.M.M.m.n.N y - 1 V.uXwXR. ./ ) ",
"h C { U.3XuXC.d 1 r M S A =.l.A =.-.-.k.z.&.t : 2 2 : : t =.z.n.>.>.>.-.-.-.*.&.D t 1 u C.uXuXU.{ ( ) ",
"j M K U.3XuX;Xx. .J d r < r r r r r n -.z.j.C z c c c c M l.z.-.n t y r t r r r h K l.x.Y.uXuXU.{ H V ",
"j h K S.3XuX3XI.S.v.u + + + + + + - r A l.| | } ' O.' } | | l.Q r - + + + + - - d b.P.P.T.iXuXU.{ V V ",
"j h K S.3X3XT.S.I.v.u + O . . . . O < Q | V ] ' / / _ ] | Q Q V < o   . . O O + u b.P.I.T.3XuXU.K b b ",
"bXbXbXc.C.S.I.T.,XH.a O . . .     . ; 0 i i i 0 0 i i i i i i 0 $ .       . O + d H.T.T.I.P.S.b.vXvXvX",
"bXbXbXZ D =.S.3XiXR.j O . . .     . . @ @ @ @ @ @ @ @ @ @ O @ O .         . . O z T.iX3XS.-.&.A vXvXvX",
"bXbXbXbXM S b.uXiX,Xz + O O                 . . . . . . . .             . . . + s R.iXiXb.S N vXvXvXvX",
"bXbXbXbXh C v.R.T.R.b 1 2 2 ; @             .   . . . . . .           @ , , 1 2 h C.,XT.c.S M vXvXvXvX",
"bXbXbXbXvXvXx.x.v.x.Q V v R x ,                   . . . .           . , f v b C V x.c.x.=.Z B vXvXvXvX",
"bXbXbXbXvXvXvX( | } | } } O./ , . . .           . . . . . .     . . . < G ' } ) | | | | S B M vXvXvXvX",
"bXbXbXbXbXbXbX_ H H H H H / V < $ $ @ @ @ $ $ $ $ $ $ $ $ $ # $ $ $ $ 1 b H H / / V V | | K S A bXvXvX",
"bXbXbXbXbXbXbX0 < < < < < < 0 0 i p a p a g g p p g g p p g k p a i i u < < < 3 < < < d v.R.I.b.C d vX",
"bXbXbXbXbXbXvX. . . . O . . $ p / ) ) ) ) ' ` ` ) ` ` ` ` ] ' ] ( ( H a ; O O . O O @ 1 G.iXiXH.M s h ",
"bXbXbXbXbXbXvXX X X o . . . $ f ) ) ) [ ) ) ) ) ` ` ` X.......} [ { [ s ; . . . o o O 2 G.iXiXJ.K C C ",
"bXbXbXbXvXvXvX5 5 5 % X X . @ f ) ) V s f f g g k p w f f f c c J { J d + . . o * = 7 w K.iXiXU.x.C V ",
"bXbXbXbXvXvXvXY U L 5 & X X # k ` ) s 2 ; ; $ ; $ @ $ $ ; ; ; 2 h { ) a + . .   * q T R qXeXiXU.{ C c ",
"bXbXbXbXvXvXvXY U Y 6 & X X # k ' } f + . . .             O O ; d { K f $ .   X 5 P T W qXiXwXI.K h z ",
"bXbXbXbXvXvXvX@.@.! 9 4 4 % = k ~ J h 1 1 < 0 0 0 e 0 0 3 < , < d C H i $     X 5 I E T qXwXwXC.C j z ",
"bXbXbXbX. o P 0XyX0X! L L L w 0 < 1 c +.+.Z.<XtXtXtXtXeXwXZ.+.+.h 1 1 ; o       5 P I E #.G.o.} vXvXvX",
"bXbXbXbX.   e qXrX0X0XY U U P , O + j *X:X2XhXlXxXlXxXlXhX5X:X*Xh + O O         * q I T R ~ c vXvXvXvX",
"bXbXbXbX. @ x yXrXyX#.U U E T , O - M &X:X2XjXlXlXlXlXzXhX5X-X%XM ; @ O .       = e w P T R c bXvXvXvX",
"bXbXbXbX3 0 ` wXtXrX$.^ W W R a < u r.5X5X7XfXjXjXjXjXjXfX5X5X5Xp.j j 3         o 5 5 7 e bXbXbXvXvXvX",
"bXbXbXbXv G G.aXcXaXL.X.X.X.X./ H J *X8XsX9XdXfXfXfXfXdXsX9X9X8X:XV.V.~ $   X X X X o o bXbXbXbXvXvXvX",
"bXbXbXbXJ J J.aXcXaXL.X.` ....) J J D.8XdXdXdXdXdXdXdXdXsXsXsX8X4XC.L.~ * X X X X       bXbXbXbXvXvXvX",
"bXbXbXbXJ J C.pXkXaXo.f x G v Q K K A.7X7X6X8X6X6X7X6X6X6X6X6X6X=XD.L.X.5 % % & X X X   bXbXbXbXvXvXvX",
"bXbXbXbX) J V.wXpXwX~ 2 ; 2 1 c | [ x.%X%X%X%X%X%X%X%X%X%Xs.%X&XD.J.K.#.E L 9 5 & bXbXbXbXbXbXbXvXvXvX",
"bXbXbXbX/ J V.wXeXR.f O . O - z ..} c.p.p.p.p.a.a.a.a.a.d.d.d.p.C.U.K.#.@.Y L 9 vXvXvXvXvXvXvXvXvXvXvX",
"bXbXbXbXG ) G.>XwXG.i O O O $ x ..} x.A.p.p.p.s.s.s.s.s.s.F.F.S.C.K.K.#.I Y 9 6 vXvXvXvXvXvXvXvXvXvXvX",
"bXbXbXbXbXbX/ G v f , O O . $ T R R O.*X=X=X&X&X&X&X&X&X&X=XR.U.b.} X.W 9 5 4 4 % vXvXvXvXvXvXvXvXvXvX",
"bXbXbXbXbXbXbX@   @ o . . . # w E T o.1X:X:X:X:X;X;X:X:X;X:X3XT.o.R x e % & & X & vXvXvXvXvXvXvXvXvXvX",
"bXbXbXbXbXbXbX              & q U T o.1X:X:X:X<X<X<X1X1X1X<X<XwXo.v l e % X X X   vXvXvXvXvXvXvXvXvXvX",
"bXbXbXbXbXbXbX              * 6 q e G O.+.+.A.Z.Z.Z.Z.Z.Z.Z.H.Z.} R R w *         vXvXvXvXvXvXvXvXvXvX",
"bXbXbXbXbXbXbXbXvXvXvXvXvXvXvX% % % * , * , g G G G G G G G / ~ ] X.X.w @         vXvXvXvXvXvXvXvXvXvX",
"bXbXbXbXbXbXbXbXvXvXvXvXvXvXvXX X X       o 0 g x f g f c c c b Q ..X.l $         vXvXvXvXvXvXvXvXvXvX",
"vXvXvXvXvXvXvXvXvXvXvXvXvXvXvXX X X X       , 8 w l v v b R v R _ X.] l $ . .     vXvXvXvXvXvXvXvXvXvX",
"vXvXvXvXvXvXvXvXvXvXvXvXvXvXvXvXvXvXvXvXvXvX* * 5 k W _ Q R Q Q ..X.] k $ . . .   vXvXvXvXvXvXvXvXvXvX",
"vXvXvXvXvXvXvXvXvXvXvXvXvXvXvXvXvXvXvXvXvXvXX X o w X.....X.] ........l ; . .     vXvXvXvXvXvXvXvXvXvX",
"vXvXvXvXvXvXvXvXvXvXvXvXvXvXvXvXvXvXvXvXvXvXX X o e W X.X.X.X.X...X.X.l $ . .     vXvXvXvXvXvXvXvXvXvX",
"vXvXvXvXvXvXvXvXvXvXvXvXvXvXvXvXvXvXvXvXvXvXvXvXvX7 0 w k p k k p k p 8 $ vXvXvXvXvXvXvXvXvXvXvXvXvXvX",
"vXvXvXvXvXvXvXvXvXvXvXvXvXvXvXvXvXvXvXvXvXvXvXvXvXo o @ @ @ @ @ @ @ @ @ vXvXvXvXvXvXvXvXvXvXvXvXvXvXvX",
"vXvXvXvXvXvXvXvXvXvXvXvXvXvXvXvXvXvXvXvXvXvXvXvXvXvX          . . . .   vXvXvXvXvXvXvXvXvXvXvXvXvXvXvX",
"vXvXvXvXvXvXvXvXvXvXvXvXvXvXvXvXvXvXvXvXvXvXvXvXvX    . .   . . . . .   vXvXvXvXvXvXvXvXvXvXvXvXvXvXvX"
};
