/* XPM */
static char *xpm_[] = {
/* columns rows colors chars-per-pixel */
"52 64 241 2 ",
"   c #040102",
".  c #0A0102",
"X  c #0A070B",
"o  c #130203",
"O  c #1A0505",
"+  c #1B0A0B",
"@  c #13090B",
"#  c #0A0814",
"$  c #191516",
"%  c #10110F",
"&  c #2B0D0D",
"*  c #230A0A",
"=  c #380D0D",
"-  c #2C1313",
";  c #271919",
":  c #361918",
">  c #2F100F",
",  c #171725",
"<  c #271D25",
"1  c #2B1E30",
"2  c #292426",
"3  c #332322",
"4  c #3A2626",
"5  c #28263A",
"6  c #3A3337",
"7  c #312227",
"8  c #461918",
"9  c #541717",
"0  c #53221E",
"q  c #45201F",
"w  c #472625",
"e  c #592A28",
"r  c #5A362C",
"t  c #493736",
"y  c #593836",
"u  c #562E33",
"i  c #68372D",
"p  c #74352E",
"a  c #673A37",
"s  c #783A36",
"d  c #702B2C",
"f  c #721619",
"g  c #3F413E",
"h  c #69443C",
"j  c #79453A",
"k  c #7A513E",
"l  c #5F4039",
"z  c #363857",
"x  c #32344F",
"c  c #2C396B",
"v  c #3A3365",
"b  c #363668",
"n  c #363973",
"m  c #333268",
"M  c #4A3748",
"N  c #753D43",
"B  c #493C60",
"V  c #344569",
"C  c #374676",
"Z  c #38425D",
"A  c #5B4546",
"S  c #525051",
"D  c #6A4647",
"F  c #774648",
"G  c #785546",
"H  c #664D55",
"J  c #695158",
"K  c #785757",
"L  c #764E53",
"P  c #76625D",
"I  c #454675",
"U  c #524D7B",
"Y  c #5A567D",
"T  c #4B4D6D",
"R  c #655B79",
"E  c #725B6C",
"W  c #6A6974",
"Q  c #746D70",
"!  c #843B3D",
"~  c #893938",
"^  c #933B3A",
"/  c #9B3D3C",
"(  c #912E2E",
")  c #A73C3C",
"_  c #B93B39",
"`  c #C63B36",
"'  c #CB3A2E",
"]  c #88453B",
"[  c #94433B",
"{  c #9A413C",
"}  c #80503C",
"|  c #A8423D",
" . c #B1413B",
".. c #D34A3E",
"X. c #E4563B",
"o. c #F56A3E",
"O. c #F2653E",
"+. c #853B43",
"@. c #973C45",
"#. c #902E43",
"$. c #A73C46",
"%. c #B83D41",
"&. c #C33E40",
"*. c #834643",
"=. c #984443",
"-. c #885B4B",
";. c #875755",
":. c #955B53",
">. c #8D5151",
",. c #AC4543",
"<. c #A74746",
"1. c #B54344",
"2. c #A64954",
"3. c #A5554F",
"4. c #8A6355",
"5. c #976457",
"6. c #9D7259",
"7. c #A66957",
"8. c #B6685A",
"9. c #A8735B",
"0. c #B9745D",
"q. c #875764",
"w. c #906F6D",
"e. c #A47A68",
"r. c #B97A65",
"t. c #A77A74",
"y. c #B37174",
"u. c #AE5D66",
"i. c #C85749",
"p. c #CE4F4A",
"a. c #E65A48",
"s. c #EE6B4B",
"d. c #EE6748",
"f. c #F46A44",
"g. c #F46A4B",
"h. c #F56648",
"j. c #ED6B53",
"k. c #E86757",
"l. c #F26953",
"z. c #EC7152",
"x. c #C67B6A",
"c. c #C6777A",
"v. c #D2736D",
"b. c #E67A6A",
"n. c #BB8769",
"m. c #A88A78",
"M. c #B28972",
"N. c #958A7A",
"B. c #CC8A6D",
"V. c #C78A7A",
"C. c #D98D75",
"Z. c #D78D76",
"A. c #C99375",
"S. c #D49474",
"D. c #D5937B",
"F. c #DA937B",
"G. c #D89777",
"H. c #D48E6E",
"J. c #E8987D",
"K. c #EC836E",
"L. c #3C4E81",
"P. c #495483",
"I. c #585885",
"U. c #4F4F81",
"Y. c #625A86",
"T. c #596A95",
"R. c #69759A",
"E. c #71738E",
"W. c #6577A0",
"Q. c #8A748C",
"!. c #B17989",
"~. c #C37C85",
"^. c #7A89A7",
"/. c #6E81A9",
"(. c #91898D",
"). c #BB8985",
"_. c #B8958A",
"`. c #A68B98",
"'. c #AB9390",
"]. c #B4A997",
"[. c #8A97B7",
"{. c #9899BA",
"}. c #8F8DA8",
"|. c #A891AD",
" X c #B5AAB8",
".X c #C98884",
"XX c #C99485",
"oX c #D49683",
"OX c #D59A87",
"+X c #D49796",
"@X c #CD9092",
"#X c #D8A995",
"$X c #D2A38A",
"%X c #E8AB88",
"&X c #F5B78D",
"*X c #E5A795",
"=X c #E7B59A",
"-X c #FABD92",
";X c #F3BA97",
":X c #ECB089",
">X c #CA9CA8",
",X c #D19DA5",
"<X c #C6A6A8",
"1X c #D5A3A8",
"2X c #C7A9B3",
"3X c #D6ACB7",
"4X c #D7B5BA",
"5X c #CEB6AF",
"6X c #EBBAAF",
"7X c #EC9580",
"8X c #FAC196",
"9X c #F8C39A",
"0X c #DBC6B0",
"qX c #EBC4A9",
"wX c #F5C7A7",
"eX c #E8C5B5",
"rX c #F7C9B8",
"tX c #F7D2B5",
"yX c #ADABC7",
"uX c #B4ADC9",
"iX c #B5B3C5",
"pX c #A39FC0",
"aX c #D7B7C5",
"sX c #CAB9CD",
"dX c #E4BEC9",
"fX c #DCC8D8",
"gX c #D0C4D4",
"hX c #E9C7C7",
"jX c #F7CDC5",
"kX c #FAD3C5",
"lX c #FAD7CA",
"zX c #E5CAD7",
"xX c #F0D5D5",
"cX c #D7CCE6",
"vX c #DBD5EB",
"bX c #E4CDE3",
"nX c #E5D6E3",
"mX c #F8F3F8",
"MX c #FAEDEF",
"NX c None",
"BX c black",
/* pixels */
"NXNXNXNXNXNXNXNXNXNXNXNXNXNXNXNXBX+.*.*.N F *.+.! +.! +.! ! F F +.+.+.+.+.+.! j j p BXBXBXBXBXBXBXBXBXBX",
"NXNXNXNXNXNXNXNXNXNXNXNXNXNXNXNXN N +.N +.! ] ~ ! ^ ^ ~ ! ! ! *.N +.~ ! ^ ~ ~ s s p BXBXBXBXBXBXBXBXBXBX",
"NXNXNXNXNXNXNXNXNXNXNXNXNXNXNX~ #.@.[ [ [ [ [ { { { { { [ [ [ ] ^ @./ @./ ^ ^ ~ p p NXNXBXBXBXBXBXBXBXBX",
"NXNXNXNXNXNXNXNXNXNXNXNXNXNXNX#.2.i.i.i.i.i.i.i.i.i.i.i.i.i.i.i.i.i.p.i.1.%.) / [ ~ p e BXBXBXBXBXBXBXBX",
"NXNXNXNXNXNXNXNXBXBXBXBXNXBX#.$.p.k.k.g.f.z.z.g.l.j.l.s.j.z.z.z.z.l.l.j.p.` %.%.$.^ p d r BXBXBXBXBXBXBX",
"NXNXNXNXNXNXNXNXBXBXBXBXf ( $.%.p.l.l.f.o.o.o.O.h.l.l.l.g.s.o.f.g.h.l.l.a.' ` &.%.) ^ s s BXBXBXBXBXBXBX",
"NXNXNXNXNXNXNXNXBXBXBX( %...p.p.a.h.o.o.o.o.o.o.f.g.g.h.f.o.o.o.o.f.g.h.a.X...p.p.1.) ~ ~ ~ BXBXBXBXBXBX",
"NXNXNXNXNXNX- > 8 9 f _ p.k.l.l.h.h.f.o.o.o.o.h.h.h.h.h.f.f.f.o.f.f.h.f.O.h.h.h.k.p._ ) ^ ( p i BXBXBXBX",
"NXNXNXNXBXy r i ( ( ( p.k.k.l.l.h.h.h.o.o.o.g.g.l.k.j.l.l.f.a.h.f.d.f.f.f.f.h.l.l.a.&.%.) ^ ~ p BXBXBXBX",
"NXNXNXNXBXh h ] [ )  ...a.a.a.a.O.h.h.h.o.o.b.b.J.7X7X7XJ.K.l.l.d.s.f.s.f.X.O.X.a.p.&.%.) ^ s s BXBXBXBX",
"NXNXNXNXBXD N ~ { |  .` ` ` ' ' ..h.g.g.g.s.b.;XkXlXlXlXkX=Xb.k.s.j.z.z.X.' ' ' ` ` ` %.) ^ s s BXBXBXBX",
"NXNXNXNXNXa s ~ @.|  . .` ` ` ' a.g.l.z.l.j.b.6XMXmXMXMXMXjX7Xk.k.j.z.g...` ' ' ` %.%.%.$.^ F F BXBXBXBX",
"NXNXNXNXNXw e s ~ =.<._ _ ` ` ` ..k.a.j.b.b.~.dXjXzXjXxXjX6X@Xv.v.k.a.a.p.` ` ` %.%.$.$.@.s a a BXBXBXBX",
"NXNXNXNXNX+ & 8 d @.^ ) %._ ` _ ` ..1.8.~.+X+X~.~.~.c.c.!.~.@X+X.Xx.p...` _ _ %.%.%.$.#.d q : - BXBXBXBX",
"NXNXNXNXNX. . * u *.@./ $.%.%._ _  .$.2.@XaX>Xu.$.$.$.$.@.u.>X3X,Xu.$._ _ _ _ 1.$.@.@.N u & @ o BXBXBXBX",
"NXNXNXNXNX. . O u N s ^ <.<.%.%.1.<.3.u.>XaX2X!.2.$.2.$.@.!.>XaX1Xy.=.3. .) ,.<.$.=.N N u * o . BXBXBXBX",
"NXNXNXNXNX. . o ; q q i ] =.{ { 8.V.XX<XgXnXzX4X1X,X1X1X,XaXzXbXfX<XXXV.8.=.^ =.*.a 0 3 ; @ . . BXBXBXBX",
"NXNXNXNXNX. . . . . O q a j p j t.4XhXnXMXmXmXmXmXmXMXmXMXMXmXmXMXnXhXeX!.*.s j h w O . .       BXBXBXBX",
"NXNXNXNXNXX @ . .   o 3 h k h j t.aXvXnXmXmXmXmXmXmXmXmXmXmXmXmXmXnXnXfX_.*.j j D 4 X     .   X BXBXBXBX",
"NXNXNXNXNXh D l ; . O t w.m.e.m.`.|.{.{.yXiXyXyXyXuXyXuXuXyXyXuXyXpX{.{.`.t.e.m.w.t @   ; t A l k BXBXBX",
"NXNXh a ;.XX1X_.l o + G 5XqXeX6X`.U I I P.P.U U U U.U.U.U.U.U U U I C T (.4XqXeX0XP $ . t '.#X$X4.i e NX",
"NXNXh i :.*XtX#XD O O K eXlXlXjX!.B v v b b b v v v v v v v v m b b z B (.xXlXlXhXQ + . y $XtX:X7.j i NX",
"NXNXa j :.*XtX#XG = : 5.eXkXkXjX>XY.R U.v x z T W I.R Y.R U z x z T R R `.hXkXlXjXw.q - h #XwX%X7.j i NX",
"NXNXa j 5.#XwX=XM.G G m.eXkXjXjXdX4XaXQ.x # 2 Q.2X5X<X2X4XQ.x % 5 Q.2X5X4XjXkXkXrX_.-.} 9.=XwX%X5.p i NX",
"NXNXh h 4.$XwX=Xn.6.6.M.rXjXkXjXkXlXlX|.6   ; N.lXlXlXlXlX'.2   ; (.lXlXkXkXkXkXjX+X9.9.n.=XwX:X6.i a NX",
"NXNXk h P $XqX#Xn.n.m.A.6XrXrXrXrXrXlXXX4   ; N.tXtXtXtXtX].3   ; m.tXtXtXrXrXrX6XoX8.8.n.J.=X$X5.l r NX",
"NXNXNXNXG e.9.9.n.n.n.A.*X*X*X*X;XwXwXM.3   * N.wXtX9XwXtXm.2   2 N.9X9X;X*X*X*X*XD.B.x.r.9.9.6.BXBXNXNX",
"NXNXNXNXBXh h k 9.S.S.H.F.F.Z.F.%X8XwXM.4   > N.9X8X8X8X9XM.3 X ; M.&X8X%XF.C.oXF.Z.Z.D.n.] i i BXBXNXNX",
"NXNXNXNXNXy l k 9.H.H.H.C.C.Z.Z.%X;X9XM.w X 3 M.9X8X8X8X9Xn.4 % : M.9X8X%XC.H.C.C.C.Z.oXn.*.r e BXBXBXBX",
"NXNXNXNXBXBXBX*.5.7.8.x.H.J.Z.Z.G.%X:XA.-.l G A.8X8X&X8X9XA.-.l k M.%X:XJ.C.C.C.C.x.8.8.5.} BXBXBXBXBXBX",
"NXNXNXNXBXBXBXBXj j ] 7.H.F.C.Z.C.S.S.A.A.n.A.J.8X8X&X8X8XJ.A.M.n.A.S.S.S.H.C.F.Z.8.] j s NXBXBXBXBXBXBX",
"NXNXNXNXBXBXBXBXNXp j :.B.oXF.oXD.B.A.H.S.A.S.:X8X8X8X&X8X8XG.A.G.S.B.B.S.F.F.C.V.7.] i a NXBXBXBXBXBXBX",
"BXBXBXBXBXBXBXBXNXh F 6.V.OXoXOXOXA.S.S.S.H.H.:X8X-X&X-X8X&XG.H.S.S.S.S.A.OXG.oXoX9.F a a BXNXNXNXNXNXNX",
"BXBXBXBXBXBXBXBXNXD D 5..XM._.V.A.A.S.A.S.H.J.:X-X-X-X&X-X:XG.Z.S.S.A.B.A.A.V._.M.w.D y M BXNXNXNXNXNXNX",
"BXBXBXBXBXBXBXBXNX4 4 y G D G F -.7.7.0.B.H.F.J.%X%X:X:X%XJ.C.C.S.n.7.7.-.G G D k y 4 3 : NXNXNXNXNXNXNX",
"BXBXBXBXBXBXBXBXNXo o o + + + * 0 j ] | B.G.S.D.G.F.OXOXS.S.oXF.B.3.] ] e & + + + O o % % NXNXNXNXNXNXNX",
"BXBXBXBXBXBXBXBX      X     . O 8 s ~ <.B.oXoX@XD.XXXXXXXXXXXX+XB.3.] ! 0 O . .       % X BXBXBXNXNXNXNX",
"BXBXBXBXBXBXBXBX$ , 2 ;       o 8 ~ [ [ 3.:.5.5.4.4.-.4.4.5.5.5.7.{ [ ~ 0 O .     % 2 2 $ BXBXBXNXNXNXNX",
"BXBXBXBXBXX   % 6 S Q g %     o 0 [ | [ 9 8 : : : - ; - : : : 8 9 ( | [ 0 O     X g Q Q g %   X NXNXNXNX",
"BXBXBXBXBX  X % S N.(.S %     o 0 [ | ( 8 * * . .       . . O * 8 p | | e o     X S (.N.S %     NXNXNXNX",
"BXBXBXBXBX4 3 6 P '.].S % X   O 0 [ ,.( 9 8 = - 3 < 2 2 2 ; & = 9 ( ) =.d O .   X S (.].Q g 4 4 BXBXNXNX",
"BXBXBXr G t._.m.].0X XQ %     @ 0 =.<.) ^ d h q.(.(.^.w.(.w.N p ( / ,.$.0 * .   X J ].0X].'.M.M.-.r w NX",
"BXBXl r ;.$XtX0X0X0X0Xw.$   . @ w @.<.<.{ =.:.'.iXiXiXiX X'.5.=.<.$.<.=.e O .   % P 0X0XeXqXrX#X6.a e NX",
"BXBXl h 5.OX9XqX=X0X0Xw.$ . . o e >.2.2.<.<.3.'.iXuXiXiX X'.e.<.<.2.2.>.u o . . + P 5X0XqX;X6X*X7.a y NX",
"NXNXa a :..X*X*X#X#X$XK + . . o M !.~.c.8.8.r.+XsXsXgXiXsX>Xy.u.8.x.~.!.N @ . . + G +X#X#X$X*XoX:.s y NX",
"NXNXA N ;.V.+XOXOXXX_.K * .   # H >X3X@Xc.v.V.5XfXcXcXcXzX3XV.v.~.@X,XsXK @   . + D '.+XOXoXoXV.:.s y NX",
"NXNXy D ;.t.XX.XXX+X_.L * X   # B  XaX>X~.v.V.3XbXcXcXcXbXaX@Xc.~.1XaXuXR $     + D ).@X@XXXXXM.:.a a BX",
"NXNXNXN F >.K -.;.;.K A 2 , , , I Q.}.`.@X+X,XdXbXcXcXcXbXhX,X,X+X!.Q.Q.T , , , < y K ;.;.:.;.;.L D BXBX",
"NXNXNXNXNX- & & > - ; ; x x x z c C I Y.,XdXdXdXcXcXcXcXfXdXdXdX3XQ.C C V x Z g x 3 ; & - & - - NXNXNXNX",
"NXNXNXNXNX. . . . .   , x Z V V c c m Y.aXbXbXbXcXcXvXcXcXzXcXbXsXE.m c c c V V z , X   . . . . NXNXNXNX",
"NXNXNXNXNX    .     X 5 C T C P.L.n n P.{.uXuXuXyXyXuXuXyXyXuXuXpXY.c C C C C P.T 5 #   .   . . NXNXNXNX",
"NXNXNXNXNXNXNXNX    X x ^.^.^./.T.L.n C U.Y.Y.I.I.I.I.I.I.I.Y.I.I.n c C T./.^.^.E.Z #     NXNXNXNXNXNXNX",
"NXNXNXNXNXNXNXNX    # g ^.[.[.[.T.L.n c c z c c m m v v n v m m c c c V T.^.[.[.[.T %     NXNXNXNXNXNXNX",
"NXNXNXNXNXNXNXNXNX  X g E.(.}.[.T.L.n C V C C V n n n n n n I C C C V C T.^.^.[.(.S X     NXNXNXNXNXNXNX",
"NXNXNXNXNXNXNXNXNX    6 W Q W W E.R.R.R.R./.R.I n n n n n U.T.W.R.R.R.E.E.W W W W 6 X     NXNXNXNXNXNXNX",
"NXNXNXNXNXNXNXNXNX. X 2 S S J S Q |.{.{.[.[./.I.n v n v n I.}.{.[.[.}.}.Q J S J S 2 X   . NXNXNXNXNXNXNX",
"NXNXNXNXNXNXNXNXNX. X 7 A H D H q.Q.|.|.!.[.}.Y b m m m z U Q.{.}.`.!.}.Q.J L H H 4 O .   NXNXNXNXNXNXNX",
"NXNXNXNXNXNXNXNXNXX o 7 N H F F q.Q.Q.Q.Q.Q.Q z 5 5 5 5 5 z Y.E.E.Q.Q.w.q.F N N D w O . . NXNXNXNXNXNXNX",
"NXNXNXNXNXNXNXNX. . X 3 A D F N >.q.q.K J H S 1 # # # # # < S J L q.q.q.q.N N L F w o . . NXNXNXNXNXNXNX",
"NXNXNXNXNXNXNXNX    X 3 A D F D F >.;.L H L M < X # X X X $ M H H L q.;.>.;.N N D w O . . NXNXNXNXNXNXNX",
"NXNXNXNXNXNXNXNXNX  X < t t u e u a a u y t t ;   # #   . ; 4 M u a a a N u u u u : + . NXNXNXNXNXNXNXNX",
"NXNXNXNXNXNXNXNXNXNXNX@ @ @ + & & & = & & * @ + BXBXNXNXNXNX@ + * & & & * & & & * + NXNXNXNXNXNXNXNXNXNX",
"NXNXNXNXNXNXNXNXNXNXNX      . . o o o o o o o NXNXNXNXNXNXNX. . X . o O o o . . . . NXNXNXNXNXNXNXNXNXNX",
"NXNXNXNXNXNXNXNXNXNXNXNXX     . . . . o o o O NXNXNXNXNXNXNX. . . . o O . . . . . NXNXNXNXNXNXNXNXNXNXNX"
};
