/* XPM */
static char *xpm_[] = {
/* columns rows colors chars-per-pixel */
"47 64 236 2 ",
"   c #030102",
".  c #0B0303",
"X  c #02000B",
"o  c #0B060A",
"O  c #1B0A0B",
"+  c #150606",
"@  c #040212",
"#  c #0B0819",
"$  c #140D15",
"%  c #171318",
"&  c #220A0A",
"*  c #270B0B",
"=  c #291716",
"-  c #371A18",
";  c #340D0D",
":  c #181429",
">  c #1B1935",
",  c #0F0C26",
"<  c #231C38",
"1  c #3A2625",
"2  c #252438",
"3  c #2E252B",
"4  c #4D1919",
"5  c #44201E",
"6  c #4B1E22",
"7  c #452924",
"8  c #582925",
"9  c #5A322C",
"0  c #5A3734",
"q  c #483136",
"w  c #6A2D2B",
"e  c #732926",
"r  c #78372E",
"t  c #6D3B34",
"y  c #683837",
"u  c #733C3B",
"i  c #7B3A3C",
"p  c #773A34",
"a  c #66322E",
"s  c #631B1B",
"d  c #68433E",
"f  c #74423C",
"g  c #7C4237",
"h  c #2B284A",
"j  c #37364B",
"k  c #38355A",
"l  c #2E2E52",
"z  c #2F366A",
"x  c #373869",
"c  c #383B72",
"v  c #4A364A",
"b  c #55394B",
"n  c #463755",
"m  c #493548",
"M  c #7A3C42",
"N  c #743B41",
"B  c #6D3B43",
"V  c #443A64",
"C  c #3A4367",
"Z  c #3B4776",
"A  c #38425F",
"S  c #4F4756",
"D  c #6A4649",
"F  c #784645",
"G  c #78544A",
"H  c #755757",
"J  c #694A51",
"K  c #474264",
"L  c #4A4A7A",
"P  c #534C7A",
"I  c #53516F",
"U  c #775A6A",
"Y  c #6C5A6D",
"T  c #746E79",
"R  c #6B6365",
"E  c #8C3B3C",
"W  c #853939",
"Q  c #943B3B",
"!  c #973A37",
"~  c #872D30",
"^  c #AC3B3C",
"/  c #A43B3A",
"(  c #BB3B3B",
")  c #B83B39",
"_  c #C63B37",
"`  c #874538",
"'  c #974336",
"]  c #8C4937",
"[  c #A9423C",
"{  c #B7423A",
"}  c #C5573F",
"|  c #CE453D",
" . c #F9693E",
".. c #863C42",
"X. c #983D44",
"o. c #A43C43",
"O. c #AB3D43",
"+. c #B43D42",
"@. c #BB3D41",
"#. c #884846",
"$. c #974846",
"%. c #885449",
"&. c #975548",
"*. c #865859",
"=. c #955955",
"-. c #8F4B55",
";. c #A84347",
":. c #B64445",
">. c #A55B5A",
",. c #B25A59",
"<. c #A8554E",
"1. c #986657",
"2. c #8D6757",
"3. c #B5745D",
"4. c #AA6D56",
"5. c #976668",
"6. c #967467",
"7. c #8A6C71",
"8. c #AB7764",
"9. c #B57A66",
"0. c #B77777",
"q. c #AF6B69",
"w. c #9B5A62",
"e. c #CA4942",
"r. c #C75647",
"t. c #DA5547",
"y. c #D0524B",
"u. c #E55849",
"i. c #E65D52",
"p. c #D5695B",
"a. c #EB694A",
"s. c #FA6644",
"d. c #F56A44",
"f. c #F3664C",
"g. c #F66946",
"h. c #EC6955",
"j. c #E96959",
"k. c #F36554",
"l. c #F46A54",
"z. c #F46859",
"x. c #E77154",
"c. c #CB736B",
"v. c #E66D64",
"b. c #E3746B",
"n. c #BB836A",
"m. c #B88675",
"M. c #AC8877",
"N. c #9C8477",
"B. c #C7886B",
"V. c #CE926D",
"C. c #D2936E",
"Z. c #C78975",
"A. c #D68B79",
"S. c #CC927A",
"D. c #D49472",
"F. c #DB9575",
"G. c #D4947C",
"H. c #D79979",
"J. c #D0856E",
"K. c #E58E73",
"L. c #DDA37C",
"P. c #475786",
"I. c #4E5283",
"U. c #5C698F",
"Y. c #7D7A9A",
"T. c #6E708E",
"R. c #7678A1",
"E. c #637DA5",
"W. c #8A778B",
"Q. c #B17D85",
"!. c #748AAA",
"~. c #7B8798",
"^. c #928997",
"/. c #B49987",
"(. c #A88D9C",
"). c #BA9799",
"_. c #B28A8E",
"`. c #8498B5",
"'. c #8F90AB",
"]. c #B396A3",
"[. c #ACA5B2",
"{. c #CE9A87",
"}. c #D79685",
"|. c #C9999C",
" X c #D79996",
".X c #CE888A",
"XX c #E29891",
"oX c #D2AA93",
"OX c #E9AA86",
"+X c #ECB48B",
"@X c #E9B799",
"#X c #EEB394",
"$X c #D79DA2",
"%X c #CAA4A8",
"&X c #D7A6AB",
"*X c #C8A9B8",
"=X c #D7B1B2",
"-X c #E8BAA4",
";X c #EBB6AF",
":X c #E19CA0",
">X c #F3C295",
",X c #F5C29A",
"<X c #EDC29F",
"1X c #F6C6A8",
"2X c #E9C4BA",
"3X c #F9CBB7",
"4X c #FCD1BD",
"5X c #EAC4A9",
"6X c #A19FC0",
"7X c #A1A2C3",
"8X c #B7B2C7",
"9X c #BBAEC6",
"0X c #9CA0C1",
"qX c #CBB6C7",
"wX c #D8BBC5",
"eX c #E1BDC2",
"rX c #BDC1D7",
"tX c #DACBD9",
"yX c #D0C3D3",
"uX c #E9C3C4",
"iX c #F7CCC7",
"pX c #FAD3C8",
"aX c #E4CBD4",
"sX c #F0D2D5",
"dX c #D3CEE3",
"fX c #D9D8E8",
"gX c #CACFE2",
"hX c #E1DCE9",
"jX c #EBE4EC",
"kX c #F9E5E4",
"lX c #FEFBFC",
"zX c #FCF6F8",
"xX c #EBEBF4",
"cX c #EEE2E4",
"vX c None",
"bX c black",
/* pixels */
"vXvXvXvXvXvXvXvXvXvXvXvXvXvXvXvXvXvXvXvXvXvXvXvXvXvXvXvXvXvXvXvXvXvXvXvXvXvXvXvXvXvXvXvXvXvXvX",
"vXvXvXvXvXvXvXvXvXvXvXvXvXvXvXvXvXvXvXvXvXvXvXvXvXvXvXvXvXvXvXvXvXvXvXvXvXvXvXvXvXvXvXvXvXvXvX",
"vXvXvXvXvXvXvXvXvXvXvXvXvXvXvXvXvXvXvXvXvXvXvXvXvXvXvXvXvXvXvXvXvXvXvXvXvXvXvXvXvXvXvXvXvXvXvX",
"vXvXvXvXvXvXvXvXvXt t u N B M M M i u f f u t t t p t t t y u N u B N N u vXvXvXvXvXvXvXvXvXvX",
"vXvXvXvXvXvXvXvXvXp p i i i ....W i W r g r t r W r g r r r r p W i W i p w bXbXvXvXvXvXvXvXvX",
"vXvXvXvXvXvXvXvXvXW E E ! Q X.X.Q ' ' ' ' ' ! ! ' ' ' ] ' ' ' ' X.~ ..X...E bXbXvXvXvXvXvXvXvX",
"vXvXvXvXvXvXvX#.$.' / ^ ^ @.y.r.r.r.} } } r.r.y.r.r.} { { } } ,.:.^ O.O.o.X.X.vXvXvXvXvXvXvXvX",
"vXvXvXvXvXvXM W ` ;.+.( ( e.v.v.h.a.a.a.h.a.z.v.h.h.a.a.x. .x.x.u._ @.+.+.o.E w vXvXvXvXvXvXvX",
"vXvXvXvXvXvXX.E ! ^ ( _ _ | g.g.d.g.g.g.k.k.z.z.l.z.d.d.a.a.a.a.u._ _ _ ) / Q W p vXvXvXvXvXvX",
"vXvXvXvXM X.X.Q ^ e.y.t.| u.f.g.d. .s.s.k.l.z.z.z.l.g.d. .d. . .i.t.| t.y.:.^ Q Q i u vXvXvXvX",
"vXvXvXB M X.O.{ e.i.h.k.f.g.g.s.d. .s.s.l.z.z.i.l.k.s. . . .s.f.a.a.f.z.j.y.:.;.X...N d vXvXvX",
"vXvXvXF ..Q ^ ) e.h.h.h.l.l.g.s.s. .s.s.k.v.v.b.v.v.l.d. . .s.s.g.l.l.l.h.t.) ) o...i F vXvXvX",
"vXvXvXF E ! ^ ) | t.t.y.t.a.s. .s.s.g.f.}.XX:X X:XOXK.s.s.s.s.s.a.u.u.t.u.| ) ^ ^ Q F f vXvXvX",
"vXvXbXF ` ! ^ ) @._ _ _ | | f.f.s.s.f.K.;XkXkXkXkXpXOXg.s.k.s.k.u.| _ _ _ ( { ) ! Q ` F vXvXvX",
"vXvXbXF ` ! [ ^ ) ( ( _ _ t.i.k.k.f.j.K.pXkXzXlXzXkX#Xj.i.k.z.z.u._ _ ) ) ) { { / ! F G vXvXvX",
"vXvXvX0 a r [ / ^ +.( ( _ e.u.u.j.b.c.}.;X;XuXuX;X;X XA.b.z.i.i.t._ ) ( ( ^ ) [ ! w 9 0 vXvXvX",
"vXvXvXO * 4 W Q O.+.+.@._ _ _ _ y. X:X.Xc.,.,.,.,.q..X X:Xc.@.| _ ( ) +.+.O.! E w ; O O vXvXvX",
"vXvXvX  + - i X.X.O.+.@.@._ @.O.,.|.*X|.w.o.^ ^ ^ ;.0.*X%X.X+.+.( ) ) O.;.o.X...8 &     vXvXvX",
"vXvXvX  . * 0 u ..X.O.O.+.;.,.,.Q.*XqX%X0.q.p.,.3.q.|.qXqX|.q.,.<.;.;.;.X...p a 7 +     vXvXvX",
"vXvXvX  X o = ; 6 N X.....q.$XqXqXhXjXjXsXuXuXuXuXuXaXjXjXwXqX&X.X-.......w - * O .     vXvXvX",
"bXbXbX        + * y M N B Q.tXhXxXlXlXlXzXzXzXzXlXlXlXlXlXxXhXaX].F B B f 5 + +         vXvXvX",
"bXbXbX= = $ .   = d *.*.*.W.8X8XgXfXfXhXhXhXhXhXfXhXhXhXfXgXgX9X].7.*.*.G 7 + . + = = = vXvXvX",
"9 t 2.6.N.J %   7 _.%X&X%X(.T.T.E.R.R.R.R.W.Y.Y.W.R.R.R.R.R.R.T.W.).%XoX/.R O   1 6.N.6.G d y ",
"a t N.5X5X6.=   q %XpXsXsX(.S x x z c c c x k k k x c c c c x n W.wXpXiX2X6.o o S =X3X{.] d d ",
"f g 3.>X1XN.3 + 0 oXpXsXsX).I n V x x x K K K K K S x x x x K V W.=XpXpX3X6.% O D -X3X}.&.u F ",
"t g n.+X1Xm.d 9 2.=XiXpXiX=X(.(.T.h > k Y.(.(.(.^.^.J < 2 I ^.(.%XiXpX4X3XM.d 9 6.@X1X}.&.f F ",
"t g n.+X1X}.8.1.m.;X4XiX3XpXpXsX(.2 X 3 [.pXpXpXsXuXY o o R uXsXiXpX4X4X3XL.1.1.Z.#X;X X=.f D ",
"a f 8.@X-XoX3.1.9.#X3X1X3X4XpXpX/.3   1 /.pX4X4XpX5XH o . R 2XpXiX3X3X3X1XC.4.4.D.#X;X{.=.d D ",
"bXbX4.m.m.m.9.9.B.OX@X+X@X@X1X1XM.1   1 /.4X3X1X3X-XG o o H 5X3X-X@X@X@X+XV.n.n.B.B.m.0.=.vXvX",
"bXbXbXF g 1.Z.S.H.H.L.H.S.L.>X>XM.=   7 M.1X,X1X5X@XG o o G @X1X#X}.{.}.L.V.V.V.3.&.` ` vXvXvX",
"bXbXbXa t =.Z.G.S.V.V.V.C.L.>X>XM.1 o 7 M.,X>X>X>XoXG O O G >X,XOX}.S.D.C.V.V.C.3.g f p vXvXvX",
"bXbXbX0 u =.9.3.n.B.C.C.C.L.L.+XV.d 7 f oX>X>X>X>X>X2.9 0 1.L.+XOX}.D.S.V.B.3.3.<.` i F vXvXvX",
"bXbXbXbXbXbX#.] ' B.H.D.C.D.H.H.Z.J.9.Z.+X>X>X>X>X>XH.9.n.B.F.K.A.A.S.}.S.4.%.] #.W M M bXbXvX",
"bXbXbXbXbXbXg g 1.B.H.H.H.G.G.A.A.}.XXOX+X>X>X>X>X>XOXF.F.F.D.C.G.G.{.{.{.q.F i M M ..M bXbXvX",
"bXbXbXbXbXbX9 9 g 2.6.1.8.q.9.0.c.}.}.K.L.+XL.>X+XOXL.F.F.J.c.n.8.8.5.6.5.H D B F w.w.*.bXbXbX",
"bXbXbXbXbXbX& * * - - - - 8 #.-.>.A.F.F.K.K.F.H.H.H.D.F.D.9.' ] p 7 - = 3 m b b Y Q._.6.G y y ",
"bXbXbXbXvXvXX . . .       - p W =.Z.}.G.D.H.C.V.C.S.D.L.D.3.] W 8 O     @ < n n U ].|.0.%.t a ",
"bXbXbXbXvXvX$ # $ .     + - W X.;.q.9.9.8.n.8.n.n.8.8.n.3.<.' ] s +   X # < n n U (.|.0.%.f t ",
"bXbXbXbXbXj h h 2 , o   . 4 ..o.W w 7 7 7 7 7 1 1 7 1 1 8 e ' ' w O   X # < n n U ).|.m.#.f u ",
"bXbXbXbXbXC C x l , @ X + 4 X.+.~ ; + . .           .   & s / [ e &   X @ < n v U _.{.0.] g F ",
"bXbXvXvXvXA C C A , @ o . 4 o.+.~ 4 & O $ % % % , : * & ; s / { e &     @ > m b U _..Xq.%.g G ",
"bXbXvXX # j U.E.I : o   + 4 X.@.^ ~ w D R T T.T.U T.M N ~ ^ ) { e *     X > j v J *.5.=.-.vXvX",
"bXbXbXX o 3 ~.`.T 2     . 4 ' +.) O.$.>.).[.8X8X9X*XQ.;.+.( ( O.w &     @ 2 S b b D J F vXvXvX",
"bXbXbXo o j ^./.T 3 o O & 8 $.;.) ^ [ ,.).8X8X8XqXqXc.+.( @.+.;.a O   X @ > j m v B J J vXvXvX",
"bXbXbX1 1 d /.oX/.6.H R 2.2.$.' ^ r.r.c.&XyXyXrXqXwX.Xy.y.p..XQ.H $ X X X % > : 3 b vXvXvXvXvX",
"bXbXbXf d N.oX<X@X@X@X<X<Xm.] W [ p.p.c.;XaXdXgXdXeX:Xc.c..X$XqXW.: X @ X @ X o o vXvXvXvXvXvX",
"bXbXbXg g n.>X<X,X,X>X,X,XS.%.p $.p.b.A.;XaXdXdXdXaX$Xc.c..X9X8XT.: @ @ @ X X X vXvXvXvXvXvXvX",
"bXbXbXg r 4.L.L.+X+XL.OX+Xm.` g =.A.XX:XwXdXdXdXdXaX&X$X|.].W.W.I.h > > > , @ X vXvXvXvXvXvXvX",
"bXbXbXg W &.C.F.F.F.F.F.F.3.#.f w.&XeXeXhXdXdXdXdXdXtXeXwX'.I.Z C C x k k k vXvXvXvXvXvXvXvXvX",
"bXbXbXg i &.B.G.G.H.A.G.G.8.F D W.qXsXhXdXdXdXdXdXdXdXhXgX'.c z z z C x n n vXvXvXvXvXvXvXvXvX",
"bXbXbXg F %.=.1.1.=.2.2.5.-.B b *.Q.6X6X7X6X7X7X7X7X7X7X0XR.U.P.Z l h h h 2 vXvXvXvXvXvXvXvXvX",
"bXbXbXbXvX1 - = = = * = = 1 n b n P I.P P L I.L L I.P P I.E.!.!.P.> # # # % vXvXvXvXvXvXvXvXvX",
"bXbXbXbXbXo .             : n V V V x c z z z z c c c z z U.`.`.I :   X X   vXvXvXvXvXvXvXvXvX",
"bXbXbXbXvXvXo X     X X X : h l l x l l z Z Z Z P.L Z P.I.U.!.W.I %       o vXvXvXvXvXvXvXvXvX",
"bXbXbXbXvXvXvXvXvXvXbXbXbXbX$ , , , > > l z Z U.E.E.E.!.R.T.Y Y v %         vXvXvXvXvXvXvXvXvX",
"bXbXbXbXvXvXvXvXvXvXbXbXbXbXX X @ @ @ , l z Z !.`.`.`.`.'.T.Y B q O       . vXvXvXvXvXvXvXvXvX",
"vXvXvXvXvXvXvXvXvXvXvXvXvXvXX X X X @ # h l C U.!.'.'.W.W.T.F J q O       . bXbXvXvXvXvXvXvXvX",
"vXvXvXvXvXvXvXvXvXvXvXvXvXvXvXvXvXvXvX, : , 2 S Y U T.7.5.w.-.D q O     .   bXbXvXvXvXvXvXvXvX",
"vXvXvXvXvXvXvXvXvXvXvXvXvXvXvXvXvXvXvXvX@ X $ q B J -.w.w.X.F D q +   o   o bXbXvXvXvXvXvXvXvX",
"vXvXvXvXvXvXvXvXvXvXvXvXvXvXvXvXvXvXvXvXX X o q B N M -.X.M f d 7 +   .   . bXbXvXvXvXvXvXvXvX",
"vXvXvXvXvXvXvXvXvXvXvXvXvXvXvXvXvXvXvXvXvXvXO = 3 1 6 6 5 5 5 - = bXbXbXbXbXbXbXvXvXvXvXvXvXvX",
"vXvXvXvXvXvXvXvXvXvXvXvXvXvXvXvXvXvXvXvXvXvXvX  o . . . . . . . . bXbXbXbXbXbXbXvXvXvXvXvXvXvX",
"vXvXvXvXvXvXvXvXvXvXvXvXvXvXvXvXvXvXvXvXvXvXvX              .   . bXbXbXbXbXbXbXvXvXvXvXvXvXvX",
"vXvXvXvXvXvXvXvXvXvXvXvXvXvXvXvXvXvXvXvXvXvXvXvX                bXbXbXbXbXbXbXbXvXvXvXvXvXvXvX"
};
