/* XPM */
static char *xpm_[] = {
/* columns rows colors chars-per-pixel */
"48 64 238 2 ",
"   c #040202",
".  c #0B0203",
"X  c #04020B",
"o  c #0A030B",
"O  c #0E090B",
"+  c #120403",
"@  c #190B0B",
"#  c #040412",
"$  c #0B0917",
"%  c #1C1317",
"&  c #140F18",
"*  c #270C0C",
"=  c #271515",
"-  c #361615",
";  c #2E0E0D",
":  c #0D0C22",
">  c #161428",
",  c #1B1B38",
"<  c #110F28",
"1  c #231E37",
"2  c #221C2C",
"3  c #3A2625",
"4  c #262435",
"5  c #332C35",
"6  c #2A2124",
"7  c #4A1717",
"8  c #571A1B",
"9  c #4B251D",
"0  c #501F23",
"q  c #472927",
"w  c #572C28",
"e  c #4B312D",
"r  c #55332D",
"t  c #5A322B",
"y  c #4A3733",
"u  c #5A3739",
"i  c #4F2E32",
"p  c #652D2B",
"a  c #64342A",
"s  c #6A352C",
"d  c #77372D",
"f  c #6C3433",
"g  c #6B3A35",
"h  c #673636",
"j  c #733434",
"k  c #7C3C3A",
"l  c #773938",
"z  c #732D30",
"x  c #6A4439",
"c  c #784238",
"v  c #2B294A",
"b  c #362C49",
"n  c #383659",
"m  c #332F4A",
"M  c #3C3B65",
"N  c #363769",
"B  c #373C73",
"V  c #2E3166",
"C  c #4A394A",
"Z  c #553647",
"A  c #413453",
"S  c #773C44",
"D  c #653A48",
"F  c #423D66",
"G  c #394176",
"H  c #3A426E",
"J  c #3E4057",
"K  c #524853",
"L  c #7A4646",
"P  c #6B4754",
"I  c #774A54",
"U  c #6F4848",
"Y  c #56536F",
"T  c #685569",
"R  c #6C596E",
"E  c #766C6F",
"W  c #883738",
"Q  c #963A38",
"!  c #8D382E",
"~  c #AB3B3B",
"^  c #A33B3B",
"/  c #B43C3C",
"(  c #BC3A3B",
")  c #BA3A37",
"_  c #C53B38",
"`  c #8E463A",
"'  c #A9423D",
"]  c #B6423D",
"[  c #C6433B",
"{  c #D2453D",
"}  c #DD543F",
"|  c #FA683E",
" . c #8A3B42",
".. c #953C43",
"X. c #A93D43",
"o. c #B43D42",
"O. c #B93C41",
"+. c #8A4847",
"@. c #974846",
"#. c #885649",
"$. c #95574B",
"%. c #985656",
"&. c #8B4D54",
"*. c #A94247",
"=. c #B44446",
"-. c #AB5759",
";. c #B85A57",
":. c #B3534A",
">. c #9B6B59",
",. c #8F6D5D",
"<. c #A66959",
"1. c #AA6F56",
"2. c #926E6B",
"3. c #A76869",
"4. c #B76968",
"5. c #A87A65",
"6. c #B47866",
"7. c #B07674",
"8. c #A65D64",
"9. c #C64945",
"0. c #C35544",
"q. c #C5554B",
"w. c #D95748",
"e. c #CE534B",
"r. c #E75B4B",
"t. c #EE5D52",
"y. c #D96A56",
"u. c #D36653",
"i. c #EC6C4C",
"p. c #E8664B",
"a. c #F56944",
"s. c #F96942",
"d. c #F46A4B",
"f. c #F7674B",
"g. c #EC6C54",
"h. c #E96757",
"j. c #F46555",
"k. c #F96553",
"l. c #F36A55",
"z. c #EE7150",
"x. c #D87268",
"c. c #CA7C6E",
"v. c #E96963",
"b. c #E67B69",
"n. c #B9846B",
"m. c #BB8474",
"M. c #B08A75",
"N. c #9B8171",
"B. c #C5866B",
"V. c #D7926E",
"C. c #C68875",
"Z. c #D78C79",
"A. c #CA9679",
"S. c #D19374",
"D. c #D99474",
"F. c #DA947B",
"G. c #D79879",
"H. c #CF906C",
"J. c #E19C79",
"K. c #E6826F",
"L. c #D7A27C",
"P. c #4F5682",
"I. c #5B6D98",
"U. c #5B6688",
"Y. c #6B6D9A",
"T. c #6A7499",
"R. c #6D6E89",
"E. c #687BA2",
"W. c #877788",
"Q. c #8F7A8F",
"!. c #A97A84",
"~. c #798DAE",
"^. c #7A8292",
"/. c #948891",
"(. c #B28C8D",
"). c #BFA288",
"_. c #9494AA",
"`. c #8599B6",
"'. c #8D90AF",
"]. c #B59AA8",
"[. c #A496AE",
"{. c #B2A5B3",
"}. c #C78788",
"|. c #D69785",
" X c #C6969A",
".X c #D79797",
"XX c #CE8C8B",
"oX c #E7978E",
"OX c #C9A389",
"+X c #D9A789",
"@X c #D7AD96",
"#X c #E5AC88",
"$X c #EDB998",
"%X c #F3BD93",
"&X c #F1B798",
"*X c #EDB591",
"=X c #C9A7A8",
"-X c #D9A7A7",
";X c #C7ABB7",
":X c #DCB5B8",
">X c #D3B1AA",
",X c #F2BBA4",
"<X c #E3B6B6",
"1X c #E6B4A1",
"2X c #CD9FA6",
"3X c #F5C298",
"4X c #EEC29A",
"5X c #EAC4A8",
"6X c #F6C5A8",
"7X c #FACBB8",
"8X c #FCD1BA",
"9X c #ECC7BA",
"0X c #BCBBDA",
"qX c #BAB3C9",
"wX c #C7B5C6",
"eX c #CABAD0",
"rX c #B7C0D8",
"tX c #C9C8DB",
"yX c #D8CAD8",
"uX c #DBC3CA",
"iX c #E8C9C8",
"pX c #F8CCC7",
"aX c #FBD4CB",
"sX c #E4CAD5",
"dX c #E6D4DB",
"fX c #FADBD6",
"gX c #F2CED1",
"hX c #D8CEE6",
"jX c #CDD3E4",
"kX c #D4D2E4",
"lX c #CDCEE3",
"zX c #E5D7E5",
"xX c #DDE1ED",
"cX c #EAEAF3",
"vX c #FDF6F8",
"bX c #EFE7EE",
"nX c None",
"mX c black",
/* pixels */
"nXnXnXnXnXnXnXnXnXnXnXnXnXnXnXnXmXmXmXmXmXmXmXmXmXmXmXmXnXnXnXnXnXnXnXnXnXnXnXnXnXnXnXnXnXnXnXnX",
"nXnXnXnXnXnXnXnXnXnXnXnXnXnXnXnXmXmXmXmXmXmXmXmXmXmXmXmXnXnXnXnXnXnXnXnXnXnXnXnXnXnXnXnXnXnXnXnX",
"nXnXnXnXnXnXnXnXnXnXnXnXmXmXnXnXmXmXmXmXmXnXnXmXnXnXmXmXnXnXmXmXnXnXnXnXnXnXnXnXnXnXnXnXnXnXnXnX",
"nXnXnXnXnXnXnXnXnXnXnXx l h h g D l l j j j d a a a a g f f f j D z f f h a nXnXnXnXnXnXnXnXnXnX",
"nXnXnXnXnXnXnXnXnXnXx l l l j S k l l d d ! d d s s d d d d d l k z j l j j f nXnXnXnXnXmXmXmXmX",
"nXnXnXnXnXnXnXnXnXnXd W Q W Q ....` Q Q ! ` ! ! ! ! Q ! ` ! ` Q ..W Q W Q W W nXnXnXnXnXmXmXmXmX",
"nXnXnXnXnXnXnXnXnXW Q ..X.~ X.9.q.0.[ :.[ 0.0.0.} 0.0.0.0.0.:.0.q.:.] ^ X.Q Q W nXnXmXmXmXmXmXmX",
"nXnXnXnXnXnXnXp d W Q o.( ( [ h.y.z.z.z.z.z.g.g.z.h.g.j.z.i.i.y.y.p.9./ / X.X.W z z mXmXmXmXmXmX",
"nXnXnXnXnXnXnXk W ! / / ) _ { r.d.d.d.d.a.d.j.j.k.k.k.k.d.z.z.z.z.p.[ [ ) ( ~ Q ! z mXmXmXmXmXmX",
"nXnXnXnXnXnXW ..Q ^ :.e.w.{ } a.f.a.a.s.d.f.j.j.j.k.k.k.d.a.a.s.i.p.} } w.e.9.O.^ ! Q mXmXmXmXmX",
"nXnXnXnXS S  ...o.( w.h.g.j.i.d.f.| | | s.f.j.h.v.j.k.k.f.s.| s.| i.p.i.h.g.h.[ O.X.Q z p mXnXnX",
"nXnXnXnXL k Q *./ ] h.g.g.z.z.f.f.f.| | a.j.v.v.v.v.v.l.s.s.| | a.i.z.i.l.j.r.[ _ O.Q z h nXnXnX",
"nXnXnXnXc W Q o.) ) e.r.w.r.r.p.f.s.| | k.b.oXoXoXoXoXK.d.s.s.s.a.p.r.r.w.r.} [ ( o.Q W p nXnXnX",
"nXnXnXnXg k Q ' ] ) _ _ _ _ { t.k.f.| a.l.1XaXfXbXfXfX,Xb.a.s.f.f.p.{ _ _ [ [ ) ) ~ ! ! s nXnXnX",
"nXnXnXnXg ` ' ' ] ) _ ( _ _ _ f.k.k.f.p.K.,XbXvXvXvXvX,Xb.p.k.k.k.t.9._ ) ) ) ] / ' Q k f nXnXnX",
"nXnXnXnX9 p d ! ^ ] O.( _ _ _ r.t.t.v.x.Z.1XiXsXgXgXiX1XZ.v.v.t.t.r.{ _ ) ) ) ~ ^ @.! p w nXnXnX",
"nXnXnXnX@ ; 9 ! Q ^ o.O.O.( _ _ _ 9.c..X.X}.4.4.4.4.4.}..X.XZ.e._ { _ ( ( O.o.X.Q W 9 ; % mXmXmX",
"nXnXnXnX  . ; h  ...X.o.O.O.O.( / :.}.:X-X4...^ o.....3. X-X X-.o.( _ O.o.o.X...+.h - .   mXmXmX",
"nXnXnXnX    = r S  ...*.X.X.=.=.-.3. XwX;X!.;.;.q.;.;.!.;X;X=X7.-.=.=.o.X.X... .l u =     mXmXmX",
"nXnXnXnX    + = - 0 S ......8.}.2X=XyXzXzXiX<X<X<X<X<XuXzXbXyX;X2XXX8.......W 0 - ; @     mXmXmX",
"mXmXmXmX        + * u S S S 2.;XhXkXcXvXvXvXvXvXvXvXvXvXvXvXvXkXhXwX3.S c L s = + .       mXmXmX",
"mXmXmXmX@ @ O .   * u +.&. .W.qXlXlXxXcXcXcXcXcXbXbXzXcXcXcXxXlXlXqXW.I I I h * . . O @ % mXmXmX",
"mXmXnXc E E K %   - 2.}. X(.(.Q.^.~.~.'.'._._._.'.Q.'.'.`.'.'.~.E././.].(. X2.3   % K ,.,.L mXmX",
"mXt x 1.@X9XM.6 X 3 (.gXpXgX{.T M B B Y B B M F F F F B Y B G N n T ].gXgXaX Xq   6 2.5X$XN.s w ",
"x s d 1.$X9X(.3   3 ).aXaXaX=XR n M N N G H n M n F F F N B V M n Y ].aXaXaX2Xi + 6 M.6X4X6.c a ",
"x g ` 1.&X7XOXx q x OXpXpXpX:X(.Q.E A 1 m R W.Q.Q.Q.W.T m v M R.W./.:XpXpXpX>XU q x M.6X$X6.c s ",
"u g d 6.,X,X+X5.#.>.@XaX8X8XpX7XiX{.C o % E uXiXsXiXeX!.6 O J {.iXpXpX7X7XpX$X5.$.>.@X6X&X6.c a ",
"mXt s <.1X,X@X5.>.n.*X8X7X8X8X8XaX>Xu   & N.iXaXaXaXgX(.6   5 ).aXaX7X7X7X8X1Xm.>.6.|.6X,X6.g t ",
"mXt a %.}.|.C.n.1.B.+X&X,X,X,X6X8X@Xy O = N.7X8X7X7X7XN.= X e ).8X6X6X&X,X&X#XB.6.6.B.|.|.5.s t ",
"nXnXnXnXL #.>.n.H.H.D.J.|.|.oX&X6XOXy   % ,.6X3X3X3X5XN.=   5 ).5X3X+XA.G.+XG.H.B.n.<.+.+.nXnXnX",
"nXnXnXnXt g #.C.G.F.D.Z.Z.Z.oX&X6XOXy   % >.4X3X3X3X3X5.=   3 ).4X4XL.S.S.V.V.V.G.C.$.j p nXnXnX",
"nXnXnXnXu g #.6.B.B.V.Z.Z.|.J.#X3XL.x - 3 N.3X3X3X3X3Xn.r - x A.3XL.L.A.H.H.H.B.c.6.$.f w nXnXnX",
"nXnXnXnXh l ` @.$.:.c.|.Z.Z.F.G.G.A.n.,.>.L.3X%X%X%X%X+X5.>.5.A.L.L.H.H.A.H.B.$.` #.mXmXmXmXmXmX",
"nXnXnXnXh g l l d $.6.|.|.|.F.G.S.S.S.L.L.L.3X3X%X%X%X&X|.|.A.S.S.G.H.L.L.G.H.` d x mXmXmXmXmXmX",
"nXnXnXnXh L +.L c #.3.7.7.m.m.C.C.B.S.G.L.J.3X%X*X%X*X#XF.F.Z.C.B.H.n.n.n.n.n.c t r mXmXmXmXmXmX",
"nX9 a +.>.7.2.I D Z y e i i h #.$.<.B.D.D.J.J.J.J.J.J.J.F.Z.Z.<.$.$.x r r t 9 - - = mXmXmXmXmXmX",
"nXw a $.(.XX!.P C 5 > . .   ; h ` @.c.S.S.D.D.V.V.K.V.V.F.|.c.%. .j - + O O + + .   mXmXmXmXmXmX",
"a a s ` }. X!.K C b < #     = a c @.6.C.H.B.B.B.B.H.B.H.C.C.7.*...j - .   O . . X   mXmXmXmXmXmX",
"t a d $.XX.X!.D Z b < # X   ; j ` Q W x x x x x x x x x g x  .....k - +   X & 2 4 2 mXmXmXmXmXmX",
"Z u j >.}.2X!.P A b < X     ; ! ' Q 7 * @ . O O . . O + + + 7 W X.W - . X # < m n n mXmXmXmXmXmX",
"Z D f &.}..X!.I Z b < #   . - ! ] ^ 7 + + . o X X X     + * 7 ! o...7 . X X > m H V mXmXmXmXmXmX",
"nXnXnX&.8.3.2.D Z A < #   . - Q ] ~ ! w 8 Z K K J K K K 9 8 z ^ o...7 . X O , Y U.Y m # mXmXmXmX",
"nXnXnXnXD S S Z Z b > # X . - W o.O./ ^ @.!.].{.[.qX{.!.@.X.~ ( O.Q 7 .   O , ^.~.^.5 $ X mXmXmX",
"nXnXnXnXD D Z Z Z b > X X . ; W *.O.( o.*.(.;X0XqXqXwX}.-.o.( O.o.Q 7 +     > R._.^.5 O O mXmXmX",
"nXnXnXnXZ Z e 3 4 4 & X X X 3 &.4.;.e.9.q. XwXeXqXtX;X X;.9.[ ~ X.@.x u y y K N.{.M.x = = mXmXmX",
"nXnXnXnXnXnXnX& O $ X X X # 5 Q.;X.Xx.e.x.-XsXhXtXyXyX@Xx.u.e.' W @.M.+XOX).+X*X5X).#.a x mXmXmX",
"nXnXnXnXnXnXnX  X X X # # X b [.eX-X}.x.x.-XsXhXjXkXsX-Xc.y.u.@.k $.|.6X6X4X3X3X4X4XN.c x mXmXmX",
"nXnXnXnXnXnXnXX X $ $ $ : : V Q.[.!.XXXXXX-XhXhXjXjXyX:X|.Z.c.&.l #.}.%X4X3X*X*X4X#X$.d c mXmXmX",
"nXnXnXnXnXnXnXnXnXnXv v v m M Y P.R.].<X<XsXlXjXlXlXhXuX<X<XXX&.x #.n.L.J.J.J.J.G.S.$.d c mXmXmX",
"nXnXnXnXnXnXnXnXnXnXK J H B N B V Y {.zXhXhXjXjXhXhXhXhXdXsX=X,.x ` 6.G.D.Z.J.F.|.H.>.c d mXmXmX",
"nXnXnXnXnXnXnXnXnXnXn n n n N B G P.[.0XeX0X0XrX0X0X0X0XeXtX{.R U U 2.m.n.n.c.7.m.6.#.c h nXmXmX",
"nXnXnXnXnXnXnXnXnXnX& > < > v U.E.E.E.Y.Y.Y.E.Y.Y.Y.Y.Y.Y.R.R.K K C u r r t t r r r h nXnXnXmXmX",
"nXnXnXnXnXnXnXnXmXmX  O   X 4 R.`.~.P.V B B B G B B B B V B N M n m % .   . + + + + nXnXmXmXmXmX",
"nXnXnXnXnXnXnXnXmXmXO       4 R.~.~.U.G B G G G G B B B B V V N J 5 &       .   . . nXnXmXmXmXmX",
"nXnXnXnXnXnXnXnXmXmX        6 Y R.R.I.E.I.I.E.I.P.G B V , , , , , , : X X       . nXnXnXmXmXmXmX",
"nXnXnXnXnXnXnXnXmXmX        % K Y Y ^.`.~.~.~.`.I.B B v < : : : X X mXmXnXnXnXnXnXnXnXnXmXmXmXmX",
"nXnXnXnXnXnXnXnXmXmX        = Z P T Q.'.'.`.`.`.U.F n v : # # # X X mXmXmXmXmXmXmXmXmXmXmXmXmXmX",
"nXnXnXnXnXnXnXnXmXmXX .   . = u S I 2.Q.Q.2.R.W.Y v 1 , : mX# X X mXmXmXmXmXmXmXmXmXmXmXmXmXmXmX",
"nXnXnXnXnXnXnXnXmXmXO X   X = u I +.&.%.%.&.P P 5 & $ $ nXnXmXmXmXmXmXmXmXmXmXmXmXmXmXmXmXmXmXmX",
"nXnXnXnXnXnXnXnXmXmXX O o X = u P  ...X.*.+.L D 3 @   X nXnXmXmXmXmXmXmXmXmXmXmXmXmXmXmXmXmXmXmX",
"nXnXnXnXnXnXnXnXnXnXnXo o o % q e t j W W z t r - @ . nXmXmXmXmXmXmXmXmXmXmXmXmXmXmXmXmXmXmXmXmX",
"nXnXnXnXnXnXnXnXnXnXnXnXmXmXnX@ @ * ; ; ; * * @ % nXnXnXmXmXmXmXmXmXmXmXmXmXmXmXmXmXmXmXmXmXmXmX",
"nXnXnXnXnXnXnXnXnXnXnXnXnXnXnX      . . . .       nXnXnXmXmXmXmXmXmXmXmXmXmXmXmXmXmXmXmXmXmXmXmX",
"nXnXnXnXnXnXnXnXnXnXnXnXnXnXnX        . .       nXnXnXnXmXmXmXmXmXmXmXmXmXmXmXmXmXmXmXmXmXmXmXmX"
};
