/* XPM */
static char *xpm_[] = {
/* columns rows colors chars-per-pixel */
"49 64 167 2 ",
"   c #010101",
".  c #0A0907",
"X  c #0E0D0A",
"o  c #15120E",
"O  c #181711",
"+  c #121C12",
"@  c #1C1B15",
"#  c #201E16",
"$  c #162316",
"%  c #192619",
"&  c #1B2C1B",
"*  c #1F331D",
"=  c #242219",
"-  c #29261C",
";  c #252B1E",
":  c #2C291F",
">  c #21361E",
",  c #223B1E",
"<  c #2E2B21",
"1  c #322E23",
"2  c #253521",
"3  c #2A3523",
"4  c #253C20",
"5  c #2B3C22",
"6  c #363426",
"7  c #393426",
"8  c #333A27",
"9  c #3C3628",
"0  c #3B3B2A",
"q  c #433D2D",
"w  c #25431F",
"e  c #27491E",
"r  c #284E1F",
"t  c #2A531F",
"y  c #2C5B1E",
"u  c #2E621D",
"i  c #31641F",
"p  c #264521",
"a  c #274921",
"s  c #294D21",
"d  c #2C5321",
"f  c #2E5A22",
"g  c #315D23",
"h  c #336522",
"j  c #366A23",
"k  c #396D25",
"l  c #3C7326",
"z  c #3E7528",
"x  c #46422F",
"c  c #48412F",
"v  c #4C4332",
"b  c #514734",
"n  c #544935",
"m  c #584C37",
"M  c #5A4E38",
"N  c #5E513A",
"B  c #62543C",
"V  c #67583F",
"C  c #68593F",
"Z  c #407728",
"A  c #437B2A",
"S  c #6C5C41",
"D  c #47802C",
"F  c #4A842E",
"G  c #4C8730",
"H  c #4E8931",
"J  c #528E33",
"K  c #559235",
"L  c #589637",
"P  c #599837",
"I  c #599738",
"U  c #5C9C39",
"Y  c #5FA03B",
"T  c #62A33D",
"R  c #66A83F",
"E  c #67A940",
"W  c #69AC41",
"Q  c #6DB144",
"!  c #71B546",
"~  c #71B646",
"^  c #71B747",
"/  c #72B746",
"(  c #70B545",
")  c #73B847",
"_  c #73B947",
"`  c #74B947",
"'  c #74BA47",
"]  c #74B948",
"[  c #74BA48",
"{  c #75BA48",
"}  c #75BB48",
"|  c #76BB48",
" . c #76BC48",
".. c #76BC49",
"X. c #77BD49",
"o. c #76BD49",
"O. c #77BE49",
"+. c #77BE4A",
"@. c #77BD4A",
"#. c #78BE4A",
"$. c #78BF4A",
"%. c #79BF4A",
"&. c #79BF4B",
"*. c #78BD4A",
"=. c #79C04A",
"-. c #79C04B",
";. c #7AC04B",
":. c #7AC14B",
">. c #7AC14A",
",. c #7BC24B",
"<. c #7AC24B",
"1. c #7BC24C",
"2. c #7BC34C",
"3. c #7BC34D",
"4. c #7AC14C",
"5. c #7CC34C",
"6. c #7CC44D",
"7. c #7DC44D",
"8. c #7DC54D",
"9. c #7EC64D",
"0. c #7FC74E",
"q. c #7EC74E",
"w. c #7FC84E",
"e. c #80C84F",
"r. c #80C94F",
"t. c #80C84E",
"y. c #81CA4F",
"u. c #81C950",
"i. c #81CA50",
"p. c #82CB50",
"a. c #83CC51",
"s. c #83CD51",
"d. c #82CC51",
"f. c #83CD52",
"g. c #84CE52",
"h. c #85CE52",
"j. c #85CF52",
"k. c #84CE51",
"l. c #86D052",
"z. c #87D153",
"x. c #86D053",
"c. c #86D153",
"v. c #87D254",
"b. c #87D154",
"n. c #88D354",
"m. c #88D355",
"M. c #89D455",
"N. c #89D454",
"B. c #8AD555",
"V. c #8AD655",
"C. c #8AD656",
"Z. c #8BD656",
"A. c #8BD756",
"S. c #8AD556",
"D. c #8CD756",
"F. c #8CD757",
"G. c #8CD857",
"H. c #8DD857",
"J. c #8DD957",
"K. c #8CD957",
"L. c #8DDA57",
"P. c #8DD958",
"I. c #8DDA58",
"U. c #8EDA58",
"Y. c #8EDB58",
"T. c None",
"R. c black",
/* pixels */
"T.T.T.T.T.T.T.T.T.T.T.T.T.T.T.T.T.T.T.T.T.T.T.W ( ( T.T.T.T.T.T.T.T.T.T.T.T.T.T.T.T.T.T.T.T.T.T.T.",
"T.T.T.T.T.T.T.T.T.T.T.T.T.T.T.T.T.T.T.T.T.T.W &.a.1.Q T.T.T.T.T.T.T.T.T.T.T.T.T.T.T.T.T.T.T.T.T.T.",
"T.T.T.T.T.T.T.T.T.T.T.T.T.T.T.T.T.T.T.T.T.Q &.z.H.S.q./ T.T.T.T.T.T.T.T.T.T.T.T.T.T.T.T.T.T.T.T.T.",
"T.T.T.T.T.T.T.T.T.T.T.T.T.T.T.T.T.T.T.W / W a.U.P.P.S.Q Q / T.T.T.T.T.T.T.T.T.T.T.T.T.T.T.T.T.T.T.",
"T.T.T.T.T.T.T.T.T.T.T.T.T.T.T.T.T.Y Y ( &./ h.Y.H.P.N. .` _ T U T.T.T.T.T.T.T.T.T.T.T.T.T.T.T.T.T.",
"T.T.T.T.T.T.T.T.T.T.T.T.T.T.T.T.U &.y./ R &.S.H.H.P.A.q.Q Q y.1.E T.T.T.T.T.T.T.T.T.T.T.T.T.T.T.T.",
"T.T.T.T.T.T.T.T.T.T.T.T.T.T.K U Q q.d...` z.D.H.H.L.H.S...` y.p._ T L T.T.T.T.T.T.T.T.T.T.T.T.T.T.",
"T.T.T.T.T.T.T.T.T.T.T.T.T.W Q _ &.<.<.<.y.S.H.H.L.H.H.H.d.<.<.<.<.` Q Q T.T.T.T.T.T.T.T.T.T.T.T.T.",
"T.T.T.T.T.T.T.T.T.T.T.L R e.H.n.y.<.<.&.e.D.H.H.H.L.H.D.h.<.<.,.q.z.H.z.Q L J T.T.T.T.T.T.T.T.T.T.",
"T.T.T.T.T.T.T.T.T.T.T.U &.S.D.D.h.7.<.<.q.n.H.P.H.H.H.S.y.,.&.<.h.S.A.S.y.T L T.T.T.T.T.T.T.T.T.T.",
"T.T.T.T.T.T.T.T.T.T.I T / p.h.q.7.<.&.<.<.y.n.D.L.H.S.h.1.<.<.<.q.w.y.z...E U T.T.T.T.T.T.T.T.T.T.",
"T.T.T.T.T.T.T.T.K K U R E / / Q Q ( ` <.&.<.p.n.H.A.a.,.&.<.&.Q Q Q Q / W E U K K T.T.T.T.T.T.T.T.",
"T.T.T.T.T.T.T.L U U U R E / ......&.<.&.&.` <.y.z.d.,.` ..<.<... . .&._ W R U I T L K T.T.T.T.T.T.",
"T.T.T.T.T.T.T.P R T U E / d.D.P.S.z.q.<. .Q ..w.w.w.<./ ` <.2.h.S.A.H.N...W Y Y E U T.T.T.T.T.T.T.",
"T.T.T.T.T.T.T.T.U T E Q q.n.S.S.S.y.1.<.<. .<.d.S.z.,.=...<.q.w.n.A.S.N.h./ R T U T.T.T.T.T.T.T.T.",
"T.T.T.T.T.T.K U E W E W Q _ ..p.p.h.n.y.<.q.z.H.H.A.z.q.<.q.z.v.y.y.,.` / W R W W U L T.T.T.T.T.T.",
"T.T.T.T.T.T R E ` / R E E E / q.d.D.P.y...d.S.H.H.H.L.z.<.<.A.A.z.q.` W E E E Q ..Q E T T.T.T.T.T.",
"T.T.T.T.T.T W Q / Q R R E E Q 1.S.P.P.2._ S.L.L.L.H.P.H.&...A.P.D.p.Q W E E E W / Q W R T.T.T.T.T.",
"T.T.T.T.T.T.L P T R W W E E R { S.H.S.../ d.H.H.H.H.H.z._ _ z.H.P.2.E E E W W W R U I L T.T.T.T.T.",
"T.T.T.T.T.T.K T R / &.` W E R _ n.S.&.W R _ z.L.H.P.S.{ E E _ z.S.&.E E E / &./ E T I K T.T.T.T.T.",
"T.T.T.T.T.K K U W &.1.&.W E E W / ` W T U Q d.H.H.H.S./ T U E / { Q E E W { <.<./ U L K T.T.T.T.T.",
"T.T.T.T.U L P R { q.{ W ( / / W E E R T Y R ..S.H.N.q.W Y T E E E W / / Q W Q 2.<.W U L U T.T.T.T.",
"T.T.K L T U U E W Q E R { 1.,.{ W E W W Q W W _ q. .Q W W Q W W R / &.1...W E Q W W U U E I K T.T.",
"T.T.K U T U L L G J T { 1.*.` / E R / <.<.` Q T U T R ` &.&._ R R Q ` ..<.<.E K G K K L T U L T.T.",
"T.T.T.G D G K K H G T  .&.R L Y R U Q 1.,.<.{ W T R / <.&.<./ T T T U T / &.E J J J J H G G H T.T.",
"T.T.T.T.Z A F J K K P T T L H G U E ` ,.<.q.&.E U T { 1.<.<.&.Q U J D K T T U K K J H A z l T.T.T.",
"T.T.T.T.D F J U L L U U K J J F P / q.<...W W U K L R W / &.1.&.Y G H K K I U U K U J H G T.T.T.T.",
"T.T.T.T.L U R R L U R T L K K J L W / / W P K L L I K L R / / Q U K J K L T E U I T E T K T.T.T.T.",
"T.T.A K U E E E U U E E R L K K L P P L L K L U R T L J L I L P L K J L T E E T U T E E T L A T.T.",
"T.T.A L E E E E T E E R T U J L U T L K J L U R R R T K J J L T Y U K I T R E R T T E E E Y F T.T.",
"T.T.T.J U E R K K U W T L K K U R E T K F K T E R E R U G J T R R U J J K T E T K K U R T J D T.T.",
"T.T.T.A G U K A l D U K A D K Y R E E L A J T E E E R J A J R R E Y L G A J U G l A J U K A T.T.T.",
"T.T.T.A A A A A i l D D A A K R E T Y K A D P E E E U F A H U Y R E U A A A D z j l A A A A T.T.T.",
"T.T.A A F F A z k z J G z z K T T G D A z z D P E U G A A A A G U E U A z G J D j z A D G A A T.T.",
"T.A F J J K F A l D G z z A H L G A z A D F D D G F A F D z z A D K K A z z D G Z Z D J K J H D T.",
"T.D K K K J D z D D l i z z G H F F D A F K G A A A F K H D A D G H G A A j k A A z A J K K K D Z ",
"T.A D G J A k h D z i i k A H H F H F G K K K A l A J K K H G G G H K D l h u z H j h A G J F A T.",
"T.T.j l l j d g D D l i j A H D j z F K K K G l u j F K K K H A j l H D j i j A D h t g l l k T.T.",
"T.T.T.d d s e u i l z l u h k h i i D K K H l u u u k F J J G k u i j i u j z z j h d s d d T.T.T.",
"T.T.T.T.a s y t j z l u u j l k l i i l l l i j l k u j l l k h j l l k u h k z j f t d a T.T.T.T.",
"T.T.T.T.d y y s f h g d u l z A l u h j h h j l Z A k u h h h g l z A l h r d h h d d y d a T.T.T.",
"T.T.T.s e y y s s s s s h l A z k d h Z k h k Z Z Z z h h A z d h z A z j d s s s a y y t e T.T.T.",
"T.T.T.T.w e t a s t t t j l l k d s j Z k f l A A A z g h A l d a h l z l d r t a p r r w T.T.T.T.",
"T.T.T.T.T., , , r y y r d d f d a s j j s s k Z Z Z l f s h k s p d d f d s t u t p 4 w T.T.T.T.T.",
"T.T.T.T.T.T.* 2 t u u t a a s t d s f f p s g Z Z l h s a s f s d d d a a r y u y , * T.T.T.T.T.T.",
"T.T.T.T.T.T.T.* t u y r s s y u f d p a p p p g j h a p a a a d f u y d e r y u y , * R.T.T.T.T.T.",
"T.T.T.T.T.T.T., t y r * w t u u u y s a a s a a a a s s a a a y u u u y e * e y t * R.R.T.T.T.T.T.",
"T.T.T.T.T.T.T.T.* * * $ * t y y y r a a d f f d a a y y d a s s y y y d * & & , * * R.R.T.T.T.T.T.",
"T.T.T.T.T.T.T.T.T.% T.T.$ * e w w a 4 e y u u t a s y u y r , a w w e * & T.T.$ T.T.T.T.T.T.T.T.T.",
"T.T.T.T.T.T.T.T.T.T.T.T.T.+ % * * 4 > e y u u s a s u u u r * , * * & + T.T.T.T.T.T.T.T.T.T.T.T.T.",
"T.T.T.T.T.T.T.T.T.T.T.T.T.@ ; 3 4 2 , t u u t e , e t u u t w 2 2 4 < @ T.T.T.T.T.T.T.T.T.T.T.T.T.",
"T.T.T.T.T.T.T.T.T.T.T.T.@ 9 v v 7 3 a d y t e > 3 2 , r y y r 5 8 q b q - T.T.T.T.T.T.T.T.T.T.T.T.",
"T.T.T.T.T.T.T.T.T.T.T.o 9 m V N v 0 5 4 4 4 2 8 x 8 3 4 4 4 4 0 q m S B q - T.T.T.T.T.T.T.T.T.T.T.",
"T.T.T.T.T.T.T.T.T.T.  o 9 v v b n m v 8 0 0 0 q v v 0 8 0 0 x n m n v v q 1 T.T.T.T.T.T.T.T.T.T.T.",
"T.T.T.T.T.T.T.T.T.T.  . = - 6 c B M M v v b n b b b n n v v n N B b 7 < - # T.T.T.T.T.T.T.T.T.T.T.",
"T.T.T.T.T.T.T.T.T.T.      T.# v S N B M n N N N N N N N m n B N S b < X T.T.T.T.T.T.T.T.T.T.T.T.T.",
"T.T.T.T.T.T.T.T.T.T.T.T.T.T.X - m M S V N M M M M M M M M V S B n 1 O T.T.T.T.T.T.T.T.T.T.T.T.T.T.",
"T.T.T.T.T.T.T.T.T.T.T.T.T.T.T.o - q V S V b q q q q q v B S V b 1 O T.T.T.T.T.T.T.T.T.T.T.T.T.T.T.",
"T.T.T.T.T.T.T.T.T.T.T.T.T.T.T.T.O 7 n M n 9 - @ # @ # 7 v M m 0 @ T.T.T.T.T.T.T.T.T.T.T.T.T.T.T.T.",
"T.T.T.T.T.T.T.T.T.T.T.T.T.T.T.T.T.1 q q q - X       . = 9 q q 7 O T.T.T.T.T.T.T.T.T.T.T.T.T.T.T.T.",
"T.T.T.T.T.T.T.T.T.T.T.T.T.T.T.T.T.- 1 6 : X             # 1 1 < O T.T.T.T.T.T.T.T.T.T.T.T.T.T.T.T.",
"T.T.T.T.T.T.T.T.T.T.T.T.T.T.T.T.T.T.T.T.T.T.T.T.T.T.T.T.T.T.T.T.T.T.T.T.T.T.T.T.T.T.T.T.T.T.T.T.T.",
"T.T.T.T.T.T.T.T.T.T.T.T.T.T.T.T.T.T.T.T.T.T.T.T.T.T.T.T.T.T.T.T.T.T.T.T.T.T.T.T.T.T.T.T.T.T.T.T.T.",
"T.T.T.T.T.T.T.T.T.T.T.T.T.T.T.T.T.T.T.T.T.T.T.T.T.T.T.T.T.T.T.T.T.T.T.T.T.T.T.T.T.T.T.T.T.T.T.T.T."
};
