/* XPM */
static char *_1zon_fire117233812971723381733[] = {
/* columns rows colors chars-per-pixel */
"64 51 69 1 ",
"  c None",
". c #000000",
"X c #0C0000",
"o c #140000",
"O c #1D0000",
"+ c #230000",
"@ c #2E0000",
"# c #310000",
"$ c #3C0000",
"% c #420000",
"& c #490000",
"* c #530000",
"= c #5E0000",
"- c #600000",
"; c #690000",
": c #740000",
"> c #850000",
", c #8F0000",
"< c #9E0000",
"1 c #A10000",
"2 c #AB0000",
"3 c #B50100",
"4 c #BE0000",
"5 c #C50000",
"6 c #CA0000",
"7 c #DD0300",
"8 c #E00000",
"9 c #EC0000",
"0 c #F50000",
"q c #FF0000",
"w c #F40B00",
"e c #FF0B00",
"r c #FF1400",
"t c #FF1C00",
"y c #FF150A",
"u c #EE2500",
"i c #FF2500",
"p c #FF2C00",
"a c #FF2E09",
"s c #FF3400",
"d c #FF3D00",
"f c #FF4300",
"g c #FF4C00",
"h c #FF5300",
"j c #FF5B00",
"k c #FF6200",
"l c #FF6B00",
"z c #FF7300",
"x c #FF7C00",
"c c #FF5323",
"v c #FF8400",
"b c #FF8C00",
"n c #FF9005",
"m c #FF940C",
"M c #FF9A14",
"N c #FF9E19",
"B c #FFA11E",
"V c #FFA422",
"C c #FFAA2B",
"Z c #FFAE31",
"A c #FFB135",
"S c #FFB53B",
"D c #FFBB43",
"F c #FFBF49",
"G c #FFC34E",
"H c #FFC652",
"J c #FFC956",
"K c #FFCE5E",
"L c #FFCF60",
/* pixels */
"             ......................................             ",
"             ......................................             ",
"             ...............*+.....................             ",
"             ...............+XX;&..................             ",
"             .................%9-..................             ",
"             .................&0=..................             ",
"             ..........X.....o2q=..................             ",
"             .........@<$....$9q-..................             ",
"             .........XOX...#5q8%..................             ",
"             ..............#5qq,...................             ",
"             ............O,6qqq>...................             ",
"             ...........+2qqqq6+...................             ",
"             ..........+2qqqqq3....................             ",
"                       0qqqqqq        .............  q          ",
"                      qqqqqqq         .............             ",
"                     eyqqqqq          ............X q           ",
"                    qacqqqqq          ............# qq          ",
"                    pdeqqqqq          ............. qq          ",
"                   qteqqqqq           ............. qq          ",
"                  eeqqqqqqq      qq          ....+O qq          ",
"                  tpqqqqqq        qqq        ...o52  qq         ",
"                  qqqqqqq           qqqq     ...*95   qq        ",
"      qqq        eqqqqqqq            qqqqw   ..X2q4   qqq       ",
"      qq        rfeqqqqqq            qqqedu  ..-9q5   qqq       ",
"     qq        qstqqqqqq              qqqrs3o..:qq00  qqq       ",
"    qq        qqqqriqqqq              qqqqqq2+.<qqqqqqqqqq      ",
"   qqq   q   qqqqrlgqqqq              qqqqqip   qqqqqqqqqq      ",
"   qqq   qq  qqqqjbfqqqq               qqqqrft  qqqqqqqqqq      ",
"   qqq   qq  qqqixletqqq               qqqqqqq   qqqqqqqq       ",
"  qqqq   qqqqqqqhvdqhheq               qqepqqqq   qqqqqqq       ",
"  qqqq   qqqqqqqjbfqjxrq               qehvsqqe    qqqqqq       ",
"  qqqqq qqqqqqqsvblgvbhq               qgbbgqrs7    qqqq        ",
"  qqqqqqqqqqqqqfnbvbbbztq             qrlbbkeqq1... qqqq   q    ",
"   qqqqqqqqqqqqtzbbbbbbgqq            qfbbbbjeq9#.. qqq    q    ",
"   qqqqqqqqqqqqqhbbbbbbhqqq         qqtzbbbbbtqq>.. qqqq   qq   ",
"    qqqeeqqqqqqqhnbbmnbxpqqq      qqqqsbbbMmvsqq    qqq    qqq  ",
"     qqshiqqqqqrlbbbZMbbsqqqqqqqqqqqqsxbbmHZbxpqq   qptq   qqqq ",
"      qdbxrqqqqfbbbNFMbblrqqqqqqqqqqsvbbbZKZbbxpqqqqezlq  qqqqq ",
"      qsbvheqeizbbMGKMbbbkrqqqqqqqesvbbbmFLHMbnheqqqezvsqqqqqqq ",
"       ejbbxfkxbbbBJJVbbbbktttittplvbbbbZKKLVbbvzsttjbbvdqqehtq ",
"   q   qhbbbbbbbbbNKKGmbbbbvbvvvvvbbbbbMFKKKAnbbbvvvbbbbvfsjvtq ",
"   q   qhbbbbbbbbbSKKHmbbbbbbbbbbbbbnCADKKKKLAnbbbbbbbMNbbbnxtq ",
"  qq  qqjbMCbbbbmMJLLJDDBmnbbbbbbmmVDJLLKKKKLJAbbbbbbbVAbbbbgq  ",
"  qqqqqsvbCJCMMMSHKKLKLLJJSBMMMMNDJJLKKKKKKLLJGmbbbbbbCJBbbxpq  ",
"  qtsepjbmHLKJKJKLKKKKLKKLKJJJKJJLLLKKKKKLKLKKJDVmbbbVJKVbbgqq  ",
"  qdblvbbmHLLKKKKKLKKKKKKKKKLKKKKKKKKKKLKKKKKKKLJSAZSJKKVbbfqq  ",
"  qdbbbnmSKKKKKKKKKKKLKKKLKKLLKKKLKKKKKKKKLKKKKKKLLLLKKJBblrq   ",
"  qdbbnZHKKLKKKKKKKKKKKKKKKKKLLKKKKKKLKKKKKKKLKKKKKLKKLSbxrqq   ",
"  qdbbNJLKKLKKKKKKKLKKKKKKKKKKKKKKLKKLKKKKKKKLKKKKKKKKLZbzeq    ",
"  qtlbNKKKKKKKKKKKKKKKLKKKKLKLKKKKKKKKKLLKKLKKKKKKKLKKGMvfqq    ",
"   qhbNKKKKKKKLKLKKKKKKKKKKKKKKKKKKKKKLLJLKKKKLLKKKKKLDbvtq     "
};
