/* XPM */
static char *_1zon_fire217233812981723381733[] = {
/* columns rows colors chars-per-pixel */
"64 51 232 2 ",
"   c None",
".  c black",
"X  c #1F0000",
"o  c #360000",
"O  c #370000",
"+  c #3A0000",
"@  c #A40000",
"#  c #C30000",
"$  c #C60700",
"%  c #CC0503",
"&  c #E10000",
"*  c #E90600",
"=  c #F70000",
"-  c #FD0000",
";  c red",
":  c #FE0100",
">  c #FF0100",
",  c #FF0200",
"<  c #FE0300",
"1  c #FF0300",
"2  c #FF0302",
"3  c #FF0400",
"4  c #FF0500",
"5  c #FF0600",
"6  c #FF0700",
"7  c #FF0800",
"8  c #FF0900",
"9  c #FF0A00",
"0  c #FF0B00",
"q  c #FF0B02",
"w  c #FB0C00",
"e  c #FF0C00",
"r  c #FF0D00",
"t  c #FF0E00",
"y  c #FF0F00",
"u  c #EB1900",
"i  c #EF1B00",
"p  c #FF1000",
"a  c #FF1100",
"s  c #FF1200",
"d  c #FF1400",
"f  c #FF1500",
"g  c #FF1600",
"h  c #FF1700",
"j  c #FF1800",
"k  c #FE1900",
"l  c #FF1900",
"z  c #FF1A00",
"x  c #FF1B00",
"c  c #FF1C00",
"v  c #FF1D00",
"b  c #FF1E00",
"n  c #FF1F00",
"m  c #FB1409",
"M  c #F62700",
"N  c #FF2000",
"B  c #FF2100",
"V  c #FF2600",
"C  c #FF2700",
"Z  c #FF2800",
"A  c #FF2900",
"S  c #FF2A00",
"D  c #FF2B00",
"F  c #FF2D00",
"G  c #FF2F00",
"H  c #FF2F09",
"J  c #FF3000",
"K  c #FF3100",
"L  c #FF3200",
"P  c #FF3300",
"I  c #FF3400",
"U  c #FF3500",
"Y  c #FF3600",
"T  c #FF3900",
"R  c #FF3B00",
"E  c #FF3D00",
"W  c #FC3E00",
"Q  c #FF3F00",
"!  c #FF3E01",
"~  c #FF4000",
"^  c #FF4100",
"/  c #FF4200",
"(  c #FF4300",
")  c OrangeRed",
"_  c #FF4700",
"`  c #FF4800",
"'  c #FF4A00",
"]  c #FF4B00",
"[  c #FF4D00",
"{  c #FF4F00",
"}  c #FF5000",
"|  c #FF5200",
" . c #FF5300",
".. c #FF5400",
"X. c #FF5500",
"o. c #FF5600",
"O. c #FF5800",
"+. c #FF5A00",
"@. c #FF5B00",
"#. c #FF5C00",
"$. c #FF5D00",
"%. c #FF5F00",
"&. c #FF6000",
"*. c #FF6100",
"=. c #FF6200",
"-. c #FF6300",
";. c #FF6600",
":. c #FF6800",
">. c #FF6A00",
",. c #FF6B00",
"<. c #FF6C00",
"1. c #FF6E00",
"2. c #FF7000",
"3. c #FF7200",
"4. c #FF7300",
"5. c #FF7400",
"6. c #FF7600",
"7. c #FF7800",
"8. c #FF7900",
"9. c #FF7A00",
"0. c #FF7C00",
"q. c #FF7D00",
"w. c #FF7E00",
"e. c #FF7F00",
"r. c #FF5323",
"t. c #FF8000",
"y. c #FF8100",
"u. c #FF8200",
"i. c #FF8300",
"p. c #FF8400",
"a. c #FF8500",
"s. c #FF8600",
"d. c #FF8700",
"f. c #FF8800",
"g. c #FF8900",
"h. c #FF8A00",
"j. c #FF8B00",
"k. c DarkOrange",
"l. c #FF8D00",
"z. c #FF8C01",
"x. c #FF8D01",
"c. c #FF8E00",
"v. c #FF8F00",
"b. c #FF8E02",
"n. c #FF8E03",
"m. c #FF8F04",
"M. c #FF8F05",
"N. c #FF9000",
"B. c #FF9003",
"V. c #FF9005",
"C. c #FF9006",
"Z. c #FF9107",
"A. c #FF9208",
"S. c #FF9209",
"D. c #FF930A",
"F. c #FF930B",
"G. c #FF940A",
"H. c #FF940B",
"J. c #FF940C",
"K. c #FF950D",
"L. c #FF950E",
"P. c #FF960E",
"I. c #FF960F",
"U. c #FF9811",
"Y. c #FF9812",
"T. c #FF9912",
"R. c #FF9913",
"E. c #FF9A14",
"W. c #FF9A15",
"Q. c #FF9B15",
"!. c #FF9C17",
"~. c #FF9D18",
"^. c #FF9D19",
"/. c #FF9E1A",
"(. c #FF9F1B",
"). c #FFA11D",
"_. c #FFA11E",
"`. c #FFA21F",
"'. c #FFA220",
"]. c #FFA320",
"[. c #FFA321",
"{. c #FFA422",
"}. c #FFA524",
"|. c #FFA828",
" X c #FFA92A",
".X c #FFAA2B",
"XX c #FFAB2D",
"oX c #FFAD2F",
"OX c #FFAD30",
"+X c #FFAE30",
"@X c #FFAE31",
"#X c #FFAF32",
"$X c #FFB034",
"%X c #FFB135",
"&X c #FFB136",
"*X c #FFB236",
"=X c #FFB237",
"-X c #FFB338",
";X c #FFB43A",
":X c #FFB53B",
">X c #FFB73D",
",X c #FFB840",
"<X c #FFB940",
"1X c #FFBB43",
"2X c #FFBC45",
"3X c #FFBD46",
"4X c #FFBE47",
"5X c #FFBF48",
"6X c #FFBF49",
"7X c #FFC24D",
"8X c #FFC24E",
"9X c #FFC34E",
"0X c #FFC551",
"qX c #FFC552",
"wX c #FFC652",
"eX c #FFC653",
"rX c #FFC754",
"tX c #FFC856",
"yX c #FFC956",
"uX c #FFC957",
"iX c #FFCA58",
"pX c #FFCA59",
"aX c #FFCB5A",
"sX c #FFCC5B",
"dX c #FFCC5C",
"fX c #FFCD5C",
"gX c #FFCD5D",
"hX c #FFCE5D",
"jX c #FFCE5E",
"kX c #FFCE5F",
"lX c #FFCF5F",
"zX c #FFCF60",
/* pixels */
"                                                                                                                                ",
"                                                                                                                                ",
"                                                                                                                                ",
"                                                                                                                                ",
"                                                                ;                                                               ",
"                                                                ;                                                               ",
"                                                                ; ;                                                             ",
"                                                                ; ;             ;                                               ",
"                                                                ; ; ;                                                           ",
"                                                                ; ; ; ;                                                         ",
"                                                                ; ; ; ; ; ;                                                     ",
"                                                                  ; ; ; ; ; ;                                                   ",
"                                                                  ; ; ; ; ; ; ;                                                 ",
"                    ;                                               ; ; ; ; ; ; ; + . . . . . . . . .                           ",
"                                                                      ; ; ; ; ; ; # X . . . . . . . .                           ",
"                      ;                                                 ; ; ; ; ; m %     . . . . . .                           ",
"                    ; ;                                                 ; ; ; ; 2 r.H ;   . . . . . .                           ",
"                    ; ;                                                 ; ; ; ; ; 7 W F @ . . . . . .                           ",
"                    ; ;                                                   ; ; ; ; ; e v & o . . . . .                           ",
"                    ; ;                                   ; ;             ; ; ; ; ; ; ; e $ o                                   ",
"                  ; ;     ; ;                         ; ; ;                 ; ; ; ; ; ; F i                                     ",
"                ; ;       ; ;                   ; ; ; ;                       ; ; ; ; ; 6 ;                                     ",
"              ; ; ;       ; ; ;             w ; ; ; ;                         ; ; ; ; ; ; ; 7                 ; ; ;             ",
"              ; ; ;       ; ; ;           Z ~ 6 ; ; ;                         ; ; ; ; ; ; 7 ~ h                 ; ;             ",
"              ; ; ;     ; ; ; ;         6 I h ; ; ;                             ; ; ; ; ; ; v K ;                 ; ;           ",
"            ; ; ; ; ; ; ; ; ; ;       ; ; ; ; ; ; ;                             ; ; ; ; V h ; ; ; ;                 ; ;         ",
"            ; ; ; ; ; ; ; ; ; ;       M Z ; ; ; ; ;                             ; ; ; ;  .;.h ; ; ; ;       ;       ; ; ;       ",
"            ; ; ; ; ; ; ; ; ; ;     u W e ; ; ; ;                               ; ; ; ; ~ p.#.6 ; ; ;     ; ;       ; ; ;       ",
"              ; ; ; ; ; ; ; ;       6 6 ; ; ; ; ;                               ; ; 7 z 7 >.w.N ; ; ;     ; ;       ; ; ;       ",
"              ; ; ; ; ; ; ;       ; ; ; ; F e ; ;                               ; 6 [  .; T i. .; ; ; ; ; ; ;       ; ; ; ;     ",
"              ; ; ; ; ; ;         7 ; ; I w.o.e ;                               ; h w.#.6 _ j.+.6 ; ; ; ; ; ;       ; ; ; ;     ",
"                ; ; ; ;         6 I p ; [ N.j.' ;                               ; o.j.p._ <.v.p.I ; ; ; ; ; ; ;   ; ; ; ; ;     ",
"        ;       ; ; ; ;         ; 7 ; p -.v.v.>.h ;                           ; z 5.v.j.p.j.v.v.W ; ; ; ; ; ; ; ; ; ; ; ; ;     ",
"        ;         ; ; ;         ; ; e #.j.j.j.v.~ ;                         ; ; ' j.j.v.j.v.v.<.v ; ; ; ; ; ; ; ; ; ; ; ;       ",
"      ; ;       ; ; ; ;         ; ; v p.j.j.j.j.4.z ; ;                   ; ; 6  .v.v.j.j.j.v.o.; ; ; ; ; ; ; ; ; ; ; ; ;       ",
"    ; ; ;         ; ; ;         ; ; K p.S.U.M.v.j.W ; ; ; ;             ; ; ; F i.j.M.J.v.j.v. .; ; ; ; ; ; ; 7 e ; ; ;         ",
"  ; ; ; ;       ; N V 6       ; ; Z w.j.oXwXL.j.j.w.K ; ; ; ; ; ; ; ; ; ; ; ; I j.j.W.@Xj.v.v.;.h ; ; ; ; 6 Z o.T ; ;           ",
"  ; ; ; ; ;     6 -.4.6 ; ; ; ; Z 9.j.v.%XdXoXv.j.v.i.I ; ; ; ; ; ; ; ; ; ; p -.v.j.W.5X/.j.j.v.W ; ; ; ; p 5.v.W ;             ",
"  ; 6 6 ; ; ; 6 T i.4.e ; ; ; 7  .v.j./.wXzX7XL.j.j.v.w.I e ; ; ; ; ; ; ; p -.v.j.j.W.aX7XY.j.j.4.V 7 ; e [ j.j.I ;             ",
"  ; z [ e ; ; T i.v.j.+.v v F 4.i.j.j.[.lXdXdX@Xj.j.j.v.p.<.F v N v v N N #.j.j.j.v.[.sXdX/.j.v.v.w.-._ 9.j.v.+.7               ",
"  ; z i.+.K ~ p.j.j.v.j.i.i.p.v.v.j.S.%XdXzXzX7XI.v.j.v.j.v.p.p.p.p.p.p.p.j.j.j.j.S.0XgXsX/.v.j.j.v.v.p.v.j.v. .;       ;       ",
"  ; z i.j.j.j.v./.R.j.j.v.v.v.j.j.M.%XdXzXdXdXsX3X%X XM.j.j.j.v.v.v.v.v.v.j.v.j.v.J.0XzXlX:XM.j.j.j.j.j.j.j.v. .;       ;       ",
"    * ' v.j.v.M.#X[.j.j.j.j.v.j.v.@XgXdXlXlXlXdXzXzXsX3X}.S.V.j.j.j.j.j.v.M.G.].1X5XaXdXzXuX!.V.j.j.j.v. XW.j.+.7 ;     ; ;     ",
"    = V 9.v.j./.tX.Xv.v.j.j.j.j.J.5XdXzXdXdXlXlXlXdXdXlXaXwX3X/.W.W.W.W.!.<XwXuXzXzXdXzXdXsXuX:X!.W.W..XuX Xv.i.I ; ; ; ; ;     ",
"    ; ; [ v.j.}.lXuX}.v.j.v.V.`.>XlXlXlXlXlXlXdXdXlXlXlXlXzXlXsXdXaXsXsXsXdXzXlXdXzXlXlXdXlXzXdXaXsXaXdXzXwXL.v.#.F p K h ;     ",
"    ; ; _ v.j.[.dXzXuX-X%X%X>XsXlXlXdXdXlXdXlXlXlXlXdXlXdXlXdXdXzXdXlXdXlXdXdXlXzXdXdXlXdXlXlXdXdXzXdXdXdXuXL.v.v.p.;.j.W ;     ",
"      ; p -.j._.uXdXdXzXzXzXlXlXlXdXlXlXdXlXdXlXlXdXlXdXlXlXlXlXdXzXlXlXdXdXlXlXdXzXdXzXlXlXlXlXlXdXzXlXzXdX:XL.M.j.v.j.W ;     ",
"      ; ; h 9.M.:XzXzXdXzXdXlXdXlXlXdXlXlXlXdXlXlXdXlXlXlXdXdXlXzXdXdXlXlXlXlXdXzXdXzXdXlXdXdXlXlXlXzXdXdXdXdXwXoXM.j.v.W ;     ",
"        ; e 5.v.@XzXdXdXzXdXzXdXlXdXlXlXlXdXdXlXlXlXdXlXlXdXlXlXlXdXdXlXlXdXdXlXlXdXdXlXlXdXdXlXdXdXlXlXdXlXlXlXsX/.j.v.T ;     ",
"        ; 6 ~ j.W.7XzXzXdXzXdXzXlXdXlXdXlXlXlXlXdXlXdXlXlXdXlXdXlXlXlXlXlXlXlXlXlXlXlXlXlXlXzXzXlXlXlXdXlXlXdXlXsX/.v.>.z ;     ",
"          ; z p.v.,XzXdXzXdXzXlXlXlXdXlXdXlXlXdXlXdXlXlXlXlXdXlXdXlXlXdXdXlXlXdXdXlXlXdXdXlXdXdXlXlXlXdXlXdXlXdXdX/.v. .;       "
};
