/* XPM */
static char *statua17233812981723381732[] = {
/* columns rows colors chars-per-pixel */
"32 64 245 2 ",
"   c #02010C",
".  c #040513",
"X  c #0D0D1D",
"o  c #080818",
"O  c #12061D",
"+  c #120C1E",
"@  c #0D111E",
"#  c #11111D",
"$  c #0B0829",
"%  c #1B0224",
"&  c #140A22",
"*  c #1C042B",
"=  c #140C2B",
"-  c #1A0C2B",
";  c #150827",
":  c #0E1221",
">  c #131423",
",  c #171829",
"<  c #140B31",
"1  c #1B0B34",
"2  c #1D0735",
"3  c #0E1736",
"4  c #131234",
"5  c #1A1639",
"6  c #21082B",
"7  c #210C34",
"8  c #230C3B",
"9  c #21073C",
"0  c #2A133A",
"q  c #221D3D",
"w  c #261639",
"e  c #291936",
"r  c #1B2333",
"t  c #222534",
"y  c #27293A",
"u  c #34203D",
"i  c #251D41",
"p  c #2C1F42",
"a  c #321948",
"s  c #2A0E47",
"d  c #1F2044",
"f  c #2D2549",
"g  c #342B4C",
"h  c #37244A",
"j  c #2D3342",
"k  c #3B3C4B",
"l  c #343747",
"z  c #3B2A53",
"x  c #39355A",
"c  c #3B3C60",
"v  c #181C41",
"b  c #4A2F5C",
"n  c #432D58",
"m  c #443455",
"M  c #4A325C",
"N  c #473A5A",
"B  c #4A3A54",
"V  c #492C62",
"C  c #4B3B63",
"Z  c #493965",
"A  c #523A6A",
"S  c #563973",
"D  c #3C4353",
"F  c #3B414F",
"G  c #3E4266",
"H  c #45414F",
"J  c #464959",
"K  c #494568",
"L  c #56476A",
"P  c #4B5363",
"I  c #535564",
"U  c #5B5566",
"Y  c #565969",
"T  c #4B4B71",
"R  c #574974",
"E  c #5B5B7D",
"W  c #595775",
"Q  c #4E5D79",
"!  c #615668",
"~  c #614B79",
"^  c #66567B",
"/  c #735A7D",
"(  c #604C6D",
")  c #5B6476",
"_  c #5D626F",
"`  c #666879",
"'  c #69717E",
"]  c #6B5A85",
"[  c #735C85",
"{  c #735D8B",
"}  c #705585",
"|  c #745893",
" . c #6A6683",
".. c #75678B",
"X. c #6B7183",
"o. c #767889",
"O. c #7E6B9A",
"+. c #7B6694",
"@. c #7A7797",
"#. c #5C6683",
"$. c #82738E",
"%. c #816C95",
"&. c #83699B",
"*. c #85769B",
"=. c #816A8E",
"-. c #866CA3",
";. c #8769A6",
":. c #8573A3",
">. c #8A74A5",
",. c #8E7AAA",
"<. c #8B79A7",
"1. c #927DA5",
"2. c #9476AC",
"3. c #947BAB",
"4. c #9679AA",
"5. c #947CB4",
"6. c #9B7CB4",
"7. c #957BBB",
"8. c #9B7CBB",
"9. c #9776B4",
"0. c #8E77B0",
"q. c #A17FB5",
"w. c #9C7BC2",
"e. c #977AC2",
"r. c #8E7CC1",
"t. c #A17DC6",
"y. c #A47CC9",
"u. c #788194",
"i. c #7B808F",
"p. c #7B85A7",
"a. c #858998",
"s. c #8A909F",
"d. c #8B83AB",
"f. c #8C8BAC",
"g. c #8488AD",
"h. c #9C84AD",
"j. c #9788A9",
"k. c #8E94A2",
"l. c #8997AC",
"z. c #9596A6",
"x. c #868DB2",
"c. c #8B8BB3",
"v. c #9582B3",
"b. c #9B83B5",
"n. c #9C8BB5",
"m. c #9C82BC",
"M. c #9789B8",
"N. c #8B92B4",
"B. c #8A97B9",
"V. c #9898B7",
"C. c #A48BB4",
"Z. c #A183BC",
"A. c #A58BB8",
"S. c #A597B8",
"D. c #A38CAE",
"F. c #9BA5B5",
"G. c #95A1B6",
"H. c #A5A9BA",
"J. c #ABB2BF",
"K. c #A4B0BE",
"L. c #9C81C1",
"P. c #9784C4",
"I. c #979DC3",
"U. c #8F86C0",
"Y. c #A284C3",
"T. c #A38AC4",
"R. c #A682CA",
"E. c #A88ACA",
"W. c #A99AC9",
"Q. c #A798C5",
"!. c #B799D8",
"~. c #B095D3",
"^. c #9AA7C5",
"/. c #A7A8CA",
"(. c #B7AAC5",
"). c #AAB5C6",
"_. c #B5B8C7",
"`. c #A9ACD4",
"'. c #A8B6D7",
"]. c #B8B9D8",
"[. c #B9ADD7",
"{. c #BCBBE8",
"}. c #BDAAE1",
"|. c #C2BCCE",
" X c #C4BBD9",
".X c #D1B9DF",
"XX c #CCBAEC",
"oX c #CAB6E8",
"OX c #CDBBF1",
"+X c #D3BEEB",
"@X c #BDC4D3",
"#X c #BAC6D8",
"$X c #BAC1CD",
"%X c #BCCCEB",
"&X c #BAC6E6",
"*X c #BFCCF1",
"=X c #BED3F1",
"-X c #BDD2EB",
";X c #C6C8D9",
":X c #CCCDDB",
">X c #C3CAEB",
",X c #CBCCEC",
"<X c #C4C7E6",
"1X c #D9CAE9",
"2X c #CDD5E2",
"3X c #C4D4EC",
"4X c #C8D6E8",
"5X c #D3D4E3",
"6X c #D2DDEB",
"7X c #DCDEED",
"8X c #D6D6E9",
"9X c #C9CEF4",
"0X c #C6CBF4",
"qX c #D3C4F5",
"wX c #D9CAF6",
"eX c #C4D4F4",
"rX c #CBD5F4",
"tX c #CCDAF3",
"yX c #CAD5F9",
"uX c #CCDBFB",
"iX c #C5D7F8",
"pX c #D3DAF5",
"aX c #DAD8F7",
"sX c #E3DDEC",
"dX c #E3D8E7",
"fX c #E6DAF7",
"gX c #EDD4F6",
"hX c #DCE2EE",
"jX c #D6E1EE",
"kX c #D4E2F4",
"lX c #DBE5F3",
"zX c #D9E7FB",
"xX c #CFE0F6",
"cX c #E5E1EF",
"vX c #E3E4F2",
"bX c #ECE5F4",
"nX c #EBE9F6",
"mX c #E6EDFA",
"MX c #EDECFB",
"NX c #EAE6F8",
"BX c #F4E4FA",
"VX c #F4EBFB",
"CX c #F2E7F7",
"ZX c #EAF2FE",
"AX c #F7F2FF",
/* pixels */
"L.e.Y.8.4.=.0 % 6 * 6 * * 6 * 6 % 6 % % % % * % ; R 8.Y.t.w.w.!.",
"Y.e.t.Z.q.4.=.[ { [ [ [ [ ( 6 O % h / / / / [ / ] >.7.Y.R.t.w.y.",
"w.8.8.6.4.D.C.D.C.6.C.C.D.$.n u u ( D.S.S.D.4.h.n.M.5.L.t.y.y.w.",
"y.y.E.;.A A A R h.1.L C B =.J.|.|.D.! H B / D.=.N C V | y.w.y.R.",
"y.8.R.;.a * % z d.O.q & + $.CXCXAX|.e O - L j.W < $ 2 S w.e.y.y.",
"y.;.S S { { [ ^ g ^ V. .O ' bXCXAX_.# H H.a.x W V.:.O.S V O.y.w.",
"y.;.a z 3.S.S...q ` aX].t i.cXhXmX_.y ` nXH.f  .NX0XW.R s ~ y.e.",
"w.9.;.| V T *.N./.].#X;X/.F.o.o.' s.J.).6X].^./.^.O.A ] O.0.e.E.",
"P.7.R.+.4 x :.F.aXpXtX4XzXH.y . @ ) 6X6X4XxXxX#Xp.] < C Z.5.9.!.",
"L.e.7.3...] g E >X/.Q ) tX4XF.G.G.$XkXK.D p.xXG.g T { >.b.,.9.T.",
"w.y.8.5.M.*.g K 4X).j G 4XxX4XzXxX-XzXp.r i.zXp.v E M.L.v.b.8.9.",
"w.7.T.>.Z ../.F.4X3X#X^.) B.-X-X-X).u.p.-X4X4X#X`.c.T ] A.6.8.Y.",
"t.7.E.:.$ ) 3XtX-X-XmX^.3 Q -X-X=XI.3 Q mXpX,X7XpXV.5 L Q.6.8.m.",
"R.0.x f o Q tXtX=X-XzX-X^.'.=X-X=X&X^.'.zX6X6X6X8Xz.7 2 a ] E.v.",
"P.O.x q r ' #X4X4X#X=XxXxX=X=X=X-X-XiXtX-X<X6X<X8XV.g g f ^ j.v.",
"A ] ].@X$X).u.Q ) ' G u.=X=XxX-XG.'.xX).Y _ X.Y W H._. X XS.C +.",
"5 R aXMXZX#Xl @ # > . J #XlXmX2Xl.K.kXu.r @ @ @ X $.AXMXVXS.= ] ",
"9 ] fXhX).H.J.a.# P ).s.F F D F t j F ) J.u.@ D J.;XnX5X(.` O L ",
"a } wX7Xa.s.hX_.y ' ZXJ.t , , r t t : _ mX$Xj ' lXhXnX$X@.( u L ",
";.+.{ *.;X_.' ` J.F.o.i.J.J.J.J.K.K.$Xk.' a.J.s.Y z.AXD.B  .+.>.",
"R.;.0 g :X|.y l hXF.@ H 6XhXcXcX5XhXnXk.. I lXa.  o.nXo.* ~ q.Y.",
"8.9.>.^ L l & J :X2X$Xi.F k l l F F l _ K.$XjXk.> y B ^ %.4.9.q.",
"w.9.A.O.1 X # J @XjXmXJ.y t t t t t t _ hXhX2Xs., . O ( A.q.6.t.",
"Y.m.C.%., > @ J 2XlX2X6X$X;X;X:X$X:X$X2X6X6XmXi.# , ; L h.Z.y.~.",
"m.5.n.*., # , P 2X2XhXlXZXZXMXAXAXCXAXnXhX2XhXs.# # # L C.8.6.!.",
"T.-.z N H.s.y r F s.ZXvXcXnXnXnXbXCXbXhXZX$XI t # ` _.*.h ~ q.E.",
"8.,.p N 2X_.P y . I 5XmXnXbXnXCXCXCXbXnXmXF.> > y a.sXa.8 ~ 8.9.",
"S ~ ..*.I i.J.s.@ F I s.nXAXCXCXCXCXAX$X_ I @ J ;Xz.U ..+.} S } ",
"s n S.*.X Y 6XF., @ . I cXnXCXAXCXCXnXz.# # . I hXH.@ J Q.[ 9 S ",
"9 V D.$.> I 6X#XJ.J.J.s.F H H H H H k ` H.J.J.$X2Xz.> L S.{ 8 A ",
"7 N <..., Y ;XjXlX2XZXJ.# . . .   #   _ lX4X6XjX2Xk., H 1.^ 8 S ",
"7 n n...o W jXjX@X6XZXK., # , > # , # _ jXlX@X2XmXH.6 B C.^ 6 } ",
"0 n 1...= ` lXhX6XhXmXF.> # # # # , . U jX7X7X5XNX(.u B D.^ 2 { ",
"6 M *.1.%...L x l j k l @ # # # # # o , F l m B M } =.&.4.] 9 R ",
"2 M h.b.Z.O.f < 5 - o   o # # # # # # + . & 7 0 0 ~ C.C.h.+.1 S ",
"1 M 3.3.5.5.:.O.O.[ u O + O O + + + + + - C ..%.%.2.q.6.4.} 1 S ",
"1 M v.v.b.L.L.m.M.-.z 2 6 * ; - * * 1 7 8 R 4.6.q.q.8.q.n.{ 2 A ",
"< L  XoXm.7.7.8.e.8.;.+.&.&.%.&.%.+.&.>.O.;.7.8.8.8.7.!.OX5.1 C ",
"& W 1XwXQ.8.m.7.7.P.w.Y.Y.Y.E.L.T.L.E.E.E.L.e.r.e.P.L.}.fXn.1 T ",
"= U hXfX].}.T.9.7.7.w.w.e.7.7.7.7.r.m.m.P.e.e.U.r.!.}.XXaXM.< ^ ",
"> U sXCX8XXXS.7.m.m.6.9.w.w.w.L.L.P.L.7.m.U.M.7.U.`.0XyXaXc.< ] ",
"+ Y 7XCXfXwXXXXXOXOXOXoXoXOXOXOXXXXXXXXXOXOXXX{.{.{.yXyXrXc.= K ",
"& ! sXAXNXfXwXwXwX+XXXqXwXqXqXwXwXOXwXwXqXqXyXyX0X*XyXiXpXc.4 N ",
"O U 5XBXBXwX(.Q.W./.I.W.W.Q.~.W.W.W.W.W.I.^.`./.I.'.yXeXpXx.4 K ",
"O ! dXCXBX1XC.1.<.<.f.d.<.d.d.d.d.<.d.d.M.g.@.p.p.'.iXiXuXB.3 K ",
"O U :XbXBX1XS. .l 5 5 t 5 f 5 d f p f q p i d T x.'.*XyXuXU.4 Z ",
"O J :XsXbX1XS. .= - g g 5 f g f q i q p g f $ G x.^.eXyXuXB.4 G ",
"+ I 5XfX8X<XC. .1 R _./.@.f.(.I.:.&.O.d.].<.v T g.^.eX=XiXx.$ #.",
"+ ! sXcX1XXXQ...< R 0XXXx.^.rX&XP.V.M.Q.7XV.5 G I.'.eXiXyXx.4 #.",
"+ ! sXCXfX1XaXn.< W >XeX{.&XyX9XXX<X#X>XlXV.v G &X=XiXyXuXN.4 A ",
"+ ! dXCXBXfXaXS.4 #.*XiX*X*X0X>X9XyX9XeXuXV.v T %X*XyXyXuXc.v K ",
"O ! sXVXBXqXQ.O.4 E eX&XI.I.I.I.I.I.B.`.tXB.3 G I.'.yXeXyXx.4 Z ",
"X U cXVXnX<XV. .$ E rX&Xp.p.B.x.g.g.g.^.iXI.3 c x.'.eX=XrXc.4 Z ",
"X U sXbXCX8XH. .& E rXrX*X*X*X%X<X<X*X<XxX^.v x p./.eXrXtXc.4 Z ",
"X I cXCXVX:XD.^ = W ].pX<X>X*X>X<X,X<X,XrXV.v c p.`.eXyXrXf.= K ",
"> I sXCXBX1XH...- q L R T T T R T R R K T x $ c B.`.9XrXtXf.4 W ",
"# ! gXBXBX1XD.=.p 7 1 - < 2 1 < 1 1 < 2 5 2 5 Z <./.9X9XrXg.4 ^ ",
"+ ! gXBXBX1XC.4.&.:.<.2.>.>.>.-.<.>.-.&.;.-.O.>.M.`.,XrXpXf.$ C ",
"u / +XgXBX1XA.q.A.Z.Y.Y.m.Y.L.Z.m.Z.Y.Z.Z.Z.b.v.v./.0X,X;Xd.f L ",
"*.%.( =.gXgXA.4.6.8.8.6.8.8.8.8.8.8.7.8.6.9.5.3.3.W.fXn.C ..:.,.",
"A.<.0 M .X+XC.q.8.8.8.6.6.6.8.8.8.8.8.8.8.8.8.v.3./.wX*.- ~ T.M.",
"b.3.*.[ n ( 4.q.8.8.Z.Z.m.8.Z.Z.q.8.w.m.8.8.b.6.v.+.z R :.3.7.8.",
"5.5.E.>.h A &.4.4.9.2.9.9.2.4.4.4.2.4.2.4.1.3.<.1.[ h ~ T.Y.8.t.",
"P.L.v.,.4.+.C b V V V V V V b b b b b b b n m m z ~ 1.6.2.8.R.!."
};
