/* XPM */
static char *water17233812981723381733[] = {
/* columns rows colors chars-per-pixel */
"64 64 211 2 ",
"   c #0B4E7B",
".  c #0E517D",
"X  c #15547E",
"o  c #0C5385",
"O  c #08548D",
"+  c #085385",
"@  c #155682",
"#  c #195681",
"$  c #155984",
"%  c #1B5A84",
"&  c #165B8C",
"*  c #1C5E8B",
"=  c #10568C",
"-  c #0C5B93",
";  c #0D5791",
":  c #125C92",
">  c #105E98",
",  c #094F81",
"<  c #215D85",
"1  c #225E88",
"2  c #1E608E",
"3  c #1E6394",
"4  c #1D669C",
"5  c #1E689E",
"6  c #16629A",
"7  c #2C658C",
"8  c #2E688C",
"9  c #276287",
"0  c #326A8D",
"q  c #34698B",
"w  c #206394",
"e  c #20669B",
"r  c #22699E",
"t  c #2A6F9F",
"y  c #346B91",
"u  c #396E92",
"i  c #336790",
"p  c #3D7394",
"a  c #3A7398",
"s  c #1C66A0",
"d  c #1F6AA2",
"f  c #1F6EAA",
"g  c #1E70AD",
"h  c #196EB5",
"j  c #176EB7",
"k  c #1C71B6",
"l  c #1E73BA",
"z  c #2067A2",
"x  c #216CA5",
"c  c #226EA9",
"v  c #2C6EA5",
"b  c #2370AC",
"n  c #2772A7",
"m  c #2374B4",
"M  c #2277BC",
"N  c #2378BD",
"B  c #2A7CBB",
"V  c #3578AB",
"C  c #447799",
"Z  c #497B99",
"A  c #467898",
"S  c #2479C0",
"D  c #2A7CC0",
"F  c #2277C1",
"G  c #2E81BF",
"H  c #3283BD",
"J  c #3D85BE",
"K  c #3F88BD",
"L  c #4385B7",
"P  c #6F96AA",
"I  c #6F95A8",
"U  c #7399AD",
"Y  c #7B9DAD",
"T  c #7097AB",
"R  c #7A9FB9",
"E  c #759DB5",
"W  c #628CA6",
"Q  c #7DA3BD",
"!  c #7FA2B1",
"~  c #2E82C3",
"^  c #3385C3",
"/  c #3689C3",
"(  c #3B8CC4",
")  c #3B8CC9",
"_  c #3A85C1",
"`  c #3E91C5",
"'  c #3F92C8",
"]  c #408FC1",
"[  c #4393C6",
"{  c #4494CA",
"}  c #4896CB",
"|  c #4699CC",
" . c #4B9BCD",
".. c #4697D0",
"X. c #4799D1",
"o. c #4C9DD1",
"O. c #519ED2",
"+. c #519FCA",
"@. c #4FA0CF",
"#. c #57A2CE",
"$. c #4EA1D2",
"%. c #54A4D4",
"&. c #5AA6D6",
"*. c #5BA9D6",
"=. c #5CACDB",
"-. c #57A7D8",
";. c #5FB1DD",
":. c #62A3D2",
">. c #63ABD5",
",. c #6CABD5",
"<. c #61AEDB",
"1. c #69AAD5",
"2. c #71ADD4",
"3. c #63B2DD",
"4. c #6BB4DE",
"5. c #6DBADF",
"6. c #78B5DA",
"7. c #7FA5C1",
"8. c #5DAEE0",
"9. c #60AFE0",
"0. c #65B5E2",
"q. c #68B6E2",
"w. c #6BBAE2",
"e. c #73BDE4",
"r. c #75BEE8",
"t. c #6EC0E5",
"y. c #74C3E6",
"u. c #7CC4E5",
"i. c #75C4E9",
"p. c #7BC5EA",
"a. c #7CC9EC",
"s. c #7EC8E7",
"d. c #7FCDF1",
"f. c #82A2AF",
"g. c #84A5B4",
"h. c #86A8B7",
"j. c #80A6BF",
"k. c #88A8B5",
"l. c #91AFBB",
"z. c #98B3BE",
"x. c #85AAC1",
"c. c #9CB7C1",
"v. c #9EBFD1",
"b. c #95BAD0",
"n. c #8AB8D5",
"m. c #A2BCC6",
"M. c #A1BED4",
"N. c #9DC1D5",
"B. c #A3C2D6",
"V. c #A3C4D9",
"C. c #A8C6D8",
"Z. c #A5C9DD",
"A. c #ABCADC",
"S. c #AED0DF",
"D. c #B2CCDA",
"F. c #81C6E8",
"G. c #84CCEC",
"H. c #8ACDED",
"J. c #88C6E4",
"K. c #95CDEA",
"L. c #8CD1ED",
"P. c #87D0EF",
"I. c #92D2ED",
"U. c #99D5EE",
"Y. c #9EDAED",
"T. c #80CBF0",
"R. c #85D2F0",
"E. c #8DD4F2",
"W. c #9BD7F2",
"Q. c #9CDAF3",
"!. c #97D8F3",
"~. c #A5CCE1",
"^. c #ACCEE0",
"/. c #A4D5EB",
"(. c #ABD6EB",
"). c #A2D9ED",
"_. c #ACDAED",
"`. c #AFD3E4",
"'. c #B3D2E3",
"]. c #B2DCED",
"[. c #BDDDED",
"{. c #B9D7E6",
"}. c #A3DCF4",
"|. c #A7DCF4",
" X c #B8DCF0",
".X c #A7E1F6",
"XX c #B4E2F6",
"oX c #BAE3F5",
"OX c #BDEAFA",
"+X c #B3E3F9",
"@X c #C6D7DD",
"#X c #C1DFED",
"$X c #C4DFF0",
"%X c #C2E1EE",
"&X c #DBECED",
"*X c #C3E2F1",
"=X c #CAE6F2",
"-X c #C7EBF9",
";X c #D8ECF2",
":X c #DDF0F2",
">X c #E1EEEC",
",X c #ECF2EC",
"<X c #F1F4EE",
"1X c #E0EDF1",
"2X c #E3F2F3",
"3X c #E9F1F1",
"4X c #F4F6F3",
"5X c #F5F9F5",
"6X c #F9FBF5",
"7X c #F5F9F8",
"8X c #FCFEFA",
/* pixels */
"N ^ D ~ D ~ B G 3.{ =.[ 5.Q.}.}.~.C.A.a @ w c 4 3 c 4 x 4 x 4 % % 9 N.A.}.L.[ e.{ =.[ 4./ N / S ^ N / N $.=.| =. .=. .*.$.=.o.3.",
"| =.o.=.| =.| q.| q.| u.}.~.A.A.p # < % * x s c g r x s x 4 c w % 3 $ 7 V.A.Q.Q.y.' w.' ;.' 9.{ <.| >.| *.| <. .=. .=. .*.o.=.| ",
"<.} -.{ q. .0.}.|.}.}.~.A.u @ * * * * * c s c 4 * c s c 4 x s x 4 v 3 % @ 9 V.~.}./.|.H.{ r.' 3.{ <.| <.| <.| *. .=. .=. .=. .<.",
"} 4.@.e..XQ.}.Z.B.B.Z.p @ * 3 x 4 x r x 4 x 4 x M 4 x 4 x 4 c s c 3 f 3 * e @ 8 B.C.V.C.}..XG.[ e.[ <.| =. .w.@.w. .q.o.4.@.q.{ ",
".XY..X~.B.B.A.A . % @ * * * c 4 c 4 c 4 m 4 m 4 m F s m s m e x 4 c 4 x 4 x r % X % X 7 V.V.Z.}.}.F.} e.{ E.)..X}.}.}.}.}.}.}.}.",
"B.N.Z.A . $ X % 3 * 3 c 4 x e m 4 m 4 m M N l N F M M M N N m 4 m s x 4 x 4 c 3 * w * w $ . 8 B.M.V.}.}..XY.N.N.M.B.B.M.M.M.M.V.",
"X # X 2 2 w * 2 c 4 x e x 4 c F N M N M M M N M M M M M M M M N M M s m 4 d 4 f 5 c 4 n 3 2 3 X . y B.B.B.Q X X @ X # X X X @ X ",
"2 2 2 f d x d x 5 x 4 b s m F M M M M M M M M M M M M M M M M M M M M M M 4 m 4 c 5 d 4 x 5 f 3 * 3 X X X % 2 3 2 w 2 w 2 3 2 3 ",
"x d x 4 x s x s d 4 m M N l N N M M M M M M M M M M M M M M M M M M M M M N N m 4 d 5 d 4 c 3 c r c 3 * w * r x r x x x 4 d d x ",
"4 d 4 x s x s x 5 b N M M M M M N M M M M M M M M M M M M M N M M M M M N M M N m 5 m d m 5 m 4 d 4 x r x d d d x 4 d d c d m 4 ",
"m d s x x 4 x 4 b F N M M N M M N N M M M M M M M M M N M M M M M M M M M M M M M N N N M N S k 4 m 4 x 4 d 5 d x m 4 S N M M k ",
"M N d x s x 4 m N l N N M M M M l N M M M N M M N M M M M M M M M M M M M M M M M M M M M M M M S M m s x d d d M M N M M M M N ",
"N M F d x 5 d m N M M N M M M M M M M M N M M M l M N M M N M M M M M M M M M M N M N N M M M M M M M d 5 d d N M M M M M M M M ",
"M M N N 5 x r g N M M M M M M M M N M M M M M M N N M M M M M M N M M M M M N M M M N N M M M M M N m s 5 x N N M M M M M M M M ",
"M M N l N d k F l N M M M M M N M M M M M M N M M M M M N M l N M N M M M N M N M N M F M N N N M M M m 5 N M M N M M M M M M M ",
"M M N N M N N M M N M M M M M M M M M N N N N N N M N M N N N N M k M l N k l l M k l k l l M k M l M M N M M M M M M N M M M M ",
"M M M M M N M M M M M M N M M M M N M j M h l j j M k N k M k N m | F X.N X.N ..N ..D { D | S | S ..k N F M M M M M M M M N M M ",
"N M M M M M M M M M M M M M M M M N h &.B :.B :.*.m X.N X.N o.M $.=.%.*.O.*.O.*.&.&.-.*.&.=.%.*.%.=.| k M M l l F M M M M M M M ",
"M M M M M M M M M M M N M N N M m k 1.n.:.6.1.6.>.%.-.*.*.@.&.%.%.o.%. .s.+.a.| %. .%. .%. .%. .%. .=.{ D ..~ ..j N N N M M M M ",
"N M M M N M M M M M M N M N j M k o.n.O.%. .O.| $.%. .%.@.a. .i.$.i. .+XoXOX+Xa.O.a.%.a.%.p.%.p.%.a. .%.O.&.O.=.{ k M k N M M N ",
"l N N M N N N N N N N N N k 1.H X.*.| %.O.T.%.a.3. .a.@.G.+XOXoXOXoXoXx.j.Q x.XX|./._.(.(./.(./._.Y.y.*.i.*.a.| =.' ~ X.j N N M ",
"_ j l l k l k l j M h M k  .6.>.-. .G.-.T./.|./.#.a.+XOX Xx.R Q Q Q E @ .   % h.7X7X7X7X5X7X7X7X6X2X/._./._.W.u.| -.$.-.{ k l J ",
"n._ &.L :._ &._ :.J :.J | =.| $.X.a.).(.(.3X5X5X-X+X7.! E &   . . . o x * r $ 1 g.k.h.h.k.h.h.h.g.c.8X4X7X6X&X_.J.>.p.| *...D 4.",
"2.4.,.,.2.,.2.,.2.>.2.4.%. .d.*.I._.2X5X7Xz.f.k.R E %   o & t * r 1 x d x x x * > o : , : + : o ; 9 h.g.k.f.m.8X:X_./.i.| %.%.%.",
" . .%.%.%.%.$.%.$.%.o.@.o.a.).].3X8Xz.Y g.% - o . 6 * r * r x x x x z x 4 d z c x v d v d b x v v 4 + & o ; 8 Y c.8X;X_.J.3.i. .",
"a.q. .%.%.@.%.%.$. .a.=.K._.2X6Xz.Y 2 - o r v f n d d d x 5 d 5 s r x 5 d 5 x 4 d 5 d 5 d 5 d 5 d d c c c x r + V Y m.6X:X_.Y.y.",
"(.Y.<.i.;.y.3.i.3.y.).].:X8Xc.U t   5 n c d 5 5 5 d d 5 x d 5 d x x 4 x 5 d 4 d r d z d d 5 x d 4 d 5 x 5 x d b r O 8 Y m.8X;X(.",
"6X$X_._.]._.]._.].(.>X8Xl.P 1 - d n d d 5 x 5 d d r x M d N d M d s x s d d d d z s x d d N 5 5 d d d 5 d 5 d r r n 4 + V U m.8X",
"I @X8X5X5X6X5X5X4X6Xc.P v , r c d s x s 5 5 d 5 M x M M F N N M N x d d d d 5 x M c m f N M l f l f M x s x s x x 4 x c 3 + V Y ",
"o Z U T T T T T T U 9 - s n r x d d s d m c M f m F N l M M M M N F d 5 d d f N N F M F M M N N N N m 5 d d b m c M z 5 e w * o ",
"v & : = : = . . 6 o 4 c d 5 x 5 d s x m N N l N M M M M M M M M M M N d 4 c M M M M M N M M M N N M m d d d d N N N m c N 4 3 c ",
"s c x c x v 3 r r n x d s d 5 r M f M M N N N N M M M M M M N M M M M M x r N M M M M M M M N N l N N m x 4 c M M M N N M M d d ",
"x s x 4 x 4 x d d d d d r N g m N N N M M M M M M M M M M M M M M M M M 4 c M M M M M M M M M M N N N k 4 b F M M M N M M N l 5 ",
"m b 4 x r x r d s d M f m N F M M M M M M M M M M M M M M M M M M M M M f N M M M N M M M M M M l N N m g N N M M M M M M M N m ",
"M F m 4 x 4 5 d x m F F N M M M M M M M M N M M M N M M M M M M M M M M S M M M M M M M N M M M M M N N N M N M M M M M M N N N ",
"N N F c 4 x 5 d M M M M M M M N M N M N M N N N N M N M M M M M M M M M M M M M M M M M M M M M M M M N M M M N M M M M M M M M ",
"M M M N m 4 5 M M M M M N N N l M l N l l l N l l N M M M M M M M M F M M M M M M M N M M M M M M M M M M N l N M M M N M M M M ",
"M M M M N k m N M N M N l N k ;.H =.^ 8.^ ;.G ;.r.N M N M M M M M M N M M M M M M M M M M M M M M M M M M M N M M M M M M M M M ",
"M N N l M N N M F l M l ;.H -.@.3.| <.} 3.} 3.[ ` 0.B l M M M M M M M M M M M M M M M M M M M N M M M M M M M M M M M M M M M N ",
"M M N N M N l M k =./ *. .;. .*.R.w.G.5.a.5.H.5.3.{ 0.B M N M M M M M M M M M N M M M M N M M M N M M M M M M M M M M M M M M M ",
"N l M M M k 8.) %.@.;. .*.P.5._.$X*X#X%X#X$X[.*X-X5.[ 0.B M M M M M M M M M M M M M M M M M M M M M M M M M M M M N M M M M M M ",
"k *.) -.' %.o.=.@.#.R.e.G.].%X3X4X<X<X<X<X<X4X,XW _.e.` 0.B l M M N N M M M M M M M M M M M M M M M M M M M M M N l M M M M M M ",
"8.o.9.o.=. .%.P.y.s.].%X[.>X5XI C Z Z A Z A Z Z X C ].e.{ q.H 0.B m N M N M M M M M M M M M M N M M M N M N M M N M M M N N M M ",
"| *.o.%.R.r.G.].=X%X>X<X4XP p 9 6 : s : s : s & c & C ].e.[ q.{ 0.M M M N N M N N M M M M M M N M M l M M M M M M N M M k { %.H ",
"*.L.u.u._.=X%X>X<X7XT u A x - x 5 b 4 v 4 c 5 b 4 b * p {.e.] 0.{ 0.~ 0.N N M l ^ <.^ <.^ 3.^ =.^ <.( =.( =.) =.l k { %.) <.o.0.",
"s.].=X%X>X<X5XU y C n = 5 4 n 3 c 4 d 4 c 4 c 4 d 4 c & p ].F.L.5.` 4.[ 3.^ 0.H 0.{ 4.} 0.} 4.} 3.| <.| 3. .3. .*.) 3.| ;.{ s.G.",
"[.&X<X,X6XU q n : 4 5 n 5 d 4 c 4 c 4 c 3 c 4 c 4 c 4 b $ p ].*XoXu.L.w.[ 0.{ 0.{ 3.[ 3.{ 9.{ 3.} <.} 3.| =.| =.X.;.{ a.G.u.Y.*X",
"u p p p L e 6 5 c d d 5 c 5 c N b M m 4 c 4 c 4 c 4 c 4 f 2 y u A [.oXI.u.L.q.' 3.[ 3.{ 3.} 3.{ 3.{ 3.} 3.| ;.[ G.H.u.).%X=Xn.i ",
"X 5 6 5 6 d x c 4 c s c 4 d N M N M N k 4 c 4 c 4 x 4 c 4 c * @ % y C ].*X XH.s.L.s.E.0.[ 0.[ a.L.s.H.G.H.F.H.H.*X[.=Xb.q p 7 @ ",
"n d f 5 d 4 c 4 d 4 d 4 c N M M M M M N m 3 c M m 4 x 4 b 3 * * * = * y y C [.*X[.[.[.I.F.H.J.%X[.[.[.[.[.[.*XN.7 p y 8 $ $ 3 c ",
"d d 4 d 5 c 4 f 5 c M m M M M M M M M M N m N M M m 4 c 3 & d 3 x w v & @ & y q 0 7 Z [.#X*X~.i y y y y y y y 7 X % $ 3 x 4 f 4 ",
"f 5 d 5 c 4 d N m N M M M M M M M M M M l N N M M M k 3 b m 4 f 4 c 4 c w c : $ * $ & 8 7 0 7 @ $ $ $ @ % $ $ % e x e c 4 f 4 f ",
"4 d d c 5 d M M N F M M M M M M N l N N M M M N M M N m N M m 4 c 4 b 4 c 4 c * c 3 c & $ * @ w c w c e x e x 3 c 5 x 4 x 4 d d ",
"m N m N m N M M M M M N M M M M M M N M M M M N M M M N M M M m M m M m 4 c s c 4 c 4 c 3 c 4 x 4 c r x 4 x 4 f 4 c 4 x 5 f 4 m ",
"N N N N N N N M M M M M M M M M M M M M M M N N M M M M M M M N M M M N m M m N m M b 4 f 4 c 4 c 4 c 4 c 4 d 4 c 4 x 4 m N M M ",
"l N N l N l N N M M M M M M M M M M M M M N N l M N M M M N M M M M M M F M S M F M M m 4 x 4 c 4 c 4 c 4 c 4 c 4 c e M M M M N ",
"M M M M M M M M M M M M M M M M M M M N M M l ~ ^ M M M M l M M M M M M M M M M M M M M g e c 4 x 4 c 4 d 5 f 4 c 4 M M N M M N ",
"M M M M M M M M M M M M N M M M M M M M N l G w.i.^ l ~ M H M M M N M M M M M M M M M F S m N c 3 c 4 x 4 M m M m M l M N M M M ",
"M M M M M M M M M M M M M M M M M N l M l ~ w.` H r.` 0.) 0.( l M M M M M M M M M M M M M F M N b 4 c 4 M N M N N N l N M M M M ",
"F M M M M M M M N M M M M M N M N M ~ N ~ q.` w.E.!.a.( r.` 0./ m ~ M M M M M M M M N M M M M M N k 4 m M M M M M M N N M M M M ",
"M M M M M M M M M M M M M N l N m ~ 0.` 0.( F.Q.`.S.Y.I.W.H.[ t.{ q.) l M l N M M M M M M M M M N M m N M M M M M M N M N N M M ",
"M M M M M M M M M M M M N l ^ M B q.{ r.[ F.{.^.y * B.{.D.'.U.Q.p.( q./ l ^ l M N N M M M M M M M M N l M M M M l M M M l N M M ",
"M M M M M F M F M M M M M ^ 0.[ y.| e.W.U.~.y % 2 * * < % 1 B.S.!.H.[ y.' 0./ l M m N N M M M M M M N l N M l B ~ N G M G N M l ",
"m m B N m B m m B B B m B r.[ 5.I.I.I.'.{.u # 1 v w % < % < < 1 D.{.L.!.u.K e.H m B B B m N N B m m B M B B m | 4.} 3.} 5.m B B "
};
