/* XPM */
static char *water217233812981723381733[] = {
/* columns rows colors chars-per-pixel */
"64 64 137 2 ",
"   c #00B7EF",
".  c #00B6EF",
"X  c #3BC8F3",
"o  c #79D9F7",
"O  c #98E2F9",
"+  c #87DDF7",
"@  c #59D0F5",
"#  c #08B9F0",
"$  c #03B8EF",
"%  c #2CC3F2",
"&  c #7AD9F7",
"*  c #6DD6F6",
"=  c #35C6F2",
"-  c #1CBFF1",
";  c #87DDF8",
":  c #43CAF3",
">  c #10BBF0",
",  c #01B7EF",
"<  c #31C5F2",
"1  c #72D7F6",
"2  c #7CDAF7",
"3  c #2AC3F2",
"4  c #04B8EF",
"5  c #14BDF0",
"6  c #67D4F5",
"7  c #52CEF4",
"8  c #07B9EF",
"9  c #75D8F6",
"0  c #33C5F2",
"q  c #1EBFF1",
"w  c #57D0F4",
"e  c #88DDF8",
"r  c #44CAF3",
"t  c #0FBBF0",
"y  c #76D8F6",
"u  c #2EC4F2",
"i  c #02B8EF",
"p  c #13BCF0",
"a  c #4FCDF4",
"s  c #0ABAF0",
"d  c #70D7F6",
"f  c #78D9F7",
"g  c #1DBFF1",
"h  c #5AD0F5",
"j  c #84DCF7",
"k  c #49CCF4",
"l  c #0CBAF0",
"z  c #06B9EF",
"x  c #29C3F2",
"c  c #7EDAF7",
"v  c #6FD6F6",
"b  c #16BDF0",
"n  c #63D3F5",
"m  c #80DBF7",
"M  c #4ACCF4",
"N  c #0DBBF0",
"B  c #00B5EF",
"V  c #1ABEF1",
"C  c #5FD2F5",
"Z  c #37C7F2",
"A  c #1BBFF1",
"S  c #33C6F2",
"D  c #56CFF4",
"F  c #6BD5F6",
"G  c #7DDAF7",
"H  c #05B8EF",
"J  c #7ADAF7",
"K  c #6ED6F6",
"L  c #36C6F2",
"P  c #10BCF0",
"I  c #3FC9F3",
"U  c #8ADEF8",
"Y  c #61D2F5",
"T  c #18BEF1",
"R  c #89DEF8",
"E  c #51CEF4",
"W  c #4BCCF4",
"Q  c #69D5F6",
"!  c #46CBF3",
"~  c #83DCF7",
"^  c #60D2F5",
"/  c #18BEF0",
"(  c #20C0F1",
")  c #11BCF0",
"_  c #3DC8F3",
"`  c #5DD1F5",
"'  c #21C0F1",
"]  c #4CCCF4",
"[  c #81DBF7",
"{  c #5CD1F5",
"}  c #05B9EF",
"|  c #17BEF0",
" . c #4CCDF4",
".. c #66D4F5",
"X. c #0BBAF0",
"o. c #85DDF7",
"O. c #23C1F1",
"+. c #0EBBF0",
"@. c #86DDF7",
"#. c #58D0F5",
"$. c #47CBF3",
"%. c #7BDAF7",
"&. c #6CD6F6",
"*. c #68D4F6",
"=. c #08B9EF",
"-. c #45CAF3",
";. c #58D0F4",
":. c #45CBF3",
">. c #65D3F5",
",. c #19BEF1",
"<. c #62D3F5",
"1. c #8CDFF8",
"2. c #2FC4F2",
"3. c #8BDEF8",
"4. c #3EC8F3",
"5. c #26C2F1",
"6. c #77D9F6",
"7. c #71D7F6",
"8. c #3CC8F3",
"9. c #6CD5F6",
"0. c #22C1F1",
"q. c #2BC3F2",
"w. c #3AC7F3",
"e. c #17BDF0",
"r. c #27C2F1",
"t. c #74D8F6",
"y. c #5ED2F5",
"u. c #42CAF3",
"i. c #6AD5F6",
"p. c #7EDBF7",
"a. c #24C1F1",
"s. c #38C7F3",
"d. c #64D3F5",
"f. c #4ECDF4",
"g. c #7FDBF7",
"h. c #30C5F2",
"j. c #FEFEFE",
/* pixels */
"                      .   X o O + @ # .                                                                                         ",
"                  . $ % & * = . - @ ; : > .                                                                                     ",
"              . , < 1 2 3 4 .   .   5 6 & 7 8 .                                                                                 ",
"              < 9 1 0                 . q w e r t .                                                                             ",
"      . $ % o y u i .                   .   p 6 2 a s .                                                                         ",
"      = d f u , .                             . g h j k l .                                                                     ",
"z x c v 0   .                                   .   b n m M N B .                                                             B ",
"* 2 3 4 .                                             . V C c @ Z   .                                                     . A w ",
"S   .                                                     . V D F 2 3 4 .                                             . V C G w ",
".                                                             B H x c v 0   .                                   .   b n m M N B ",
"                                                                      = d f u , .                             . g h j k l .     ",
"                                                                      . $ % o y u i .                   .   p 6 2 a s .         ",
"                                                                              < 9 1 0                 . q w e r t .             ",
"                                                                              . , < 1 2 3 4 .   .   5 6 & 7 8 .                 ",
"                                                                                  . $ % J K L . - @ e : P .                     ",
"                        B l I U Y T .                                                 .   = * R & E 8                           ",
"                    . 4 W o Q - ! ~ ^ / . .                                               . H ( ) B                             ",
"                . N _ e ` ' .   . s ] [ { - .                                                                                   ",
"            . } W f * |   .         . l  .G ..5   .                                                                             ",
"        . X.I o.` O..                   . +.! @.#.q .                                                                           ",
"    . # $.%.&./   .                         . # E J *.p   .                                                                     ",
". =.-.m Y ' .                                   . > : R ;.g .                                                                   ",
":.m ..-   .                                         . 8 7 %.>.,.+..                                                       . $ ,.",
"<.q .                                                   B > r 1.o M H                                                 . . 2.Q 3.",
"                                                              . ( ^ @.4.N .                                       . , 5.6.7.8.  ",
"                                                                .   ,.9.f ] H .                               .   % * m 2.z .   ",
"                                                                      . 0.{ + 4.l .                           q.1 9 w.          ",
"                                                                        .   e.* o k 8 .               . , r.t.J S 4 .           ",
"                                                                              . 0.y.~ u.s .         . 2.&.J = $ .               ",
"                                                                                .   V i.p.r s B $ a.o t.s.i .                   ",
"                                                                                      . ( d.G f.6 g.h.} .                       ",
"                        B l I U Y T .                                                   . . q Y _   .                           ",
"                    . 4 W o Q - ! ~ ^ / . .                                                   B .                               ",
"                . N _ e ` ' .   . s ] [ { - .                                                                                   ",
"            . } W f * |   .         . l  .G ..5   .                                                                             ",
"        . X.I o.` O..                   . +.! @.#.q .                                                                           ",
"    . # $.%.&./   .                         . # E J *.p   .                                                                     ",
". =.-.m Y ' .                                   . > : R ;.g .                                                                   ",
":.m ..-   .                                         . 8 7 %.>.,.+..                                                       . $ ,.",
"<.q .                                                   B > r 1.o M H                                                 . . 2.Q 3.",
"                                                              . ( ^ @.4.N .                                       . , 5.6.7.8.  ",
"                                                                .   ,.9.f ] H .                               .   % * m 2.z .   ",
"                                                                      . 0.{ + 4.l .                           q.1 9 w.          ",
"                                                                        .   e.* o k 8 .               . , r.t.J S 4 .           ",
"                                                                              . 0.y.~ u.s .         . 2.&.J = $ .               ",
"                                                                                .   V i.p.r s B $ a.o t.s.i .                   ",
"                                                                                      . ( d.G f.6 g.h.} .                       ",
"                          . H ( ) B                                                     . . q Y _   .                           ",
"                      .   = * R & E 8                                                         B .                               ",
"                  . $ % J K L . - @ e : P .                                                                                     ",
"              . , < 1 2 3 4 .   .   5 6 & 7 8 .                                                                                 ",
"              < 9 1 0                 . q w e r t .                                                                             ",
"      . $ % o y u i .                   .   p 6 2 a s .                                                                         ",
"      = d f u , .                             . g h j k l .                                                                     ",
"z x c v 0   .                                   .   b n m M N B .                                                             B ",
"* 2 3 4 .                                             . V C c @ Z   .                                                     . A w ",
"S   .                                                     . V D F 2 3 4 .                                             . V C G w ",
".                                                             B H x c v 0   .                                   .   b n m M N B ",
"                                                                      = d f u , .                             . g h j k l .     ",
"                                                                      . $ % o y u i .                   .   p 6 2 a s .         ",
"                                                                              < 9 1 0                 . q w e r t .             ",
"                                                                              . , < 1 2 3 4 .   .   5 6 & 7 8 .                 ",
"                                                                                  . $ % & * = . - @ ; : > .                     ",
"                                                                                      .   X o O + @ # .                         "
};
