/* XPM */
static char *xpm_[] = {
/* columns rows colors chars-per-pixel */
"64 64 39 1 ",
"  c #68B592",
". c #6BB996",
"X c #64BF99",
"o c #6BBD99",
"O c #6DBC98",
"+ c #65C09A",
"@ c #67C19B",
"# c #68C29B",
"$ c #6CC09B",
"% c #6BC39C",
"& c #6BC39D",
"* c #6FC29D",
"= c #6CC39E",
"- c #6DC49E",
"; c #6EC59E",
": c #70C19C",
"> c #72C49F",
", c #6FC6A0",
"< c #73C4A0",
"1 c #72C5A0",
"2 c #74C7A2",
"3 c #73C8A1",
"4 c #74C8A3",
"5 c #75C8A3",
"6 c #75C9A3",
"7 c #76C9A4",
"8 c #78CAA4",
"9 c #78CAA5",
"0 c #78CBA6",
"q c #7ACBA7",
"w c #7BCBA7",
"e c #7CCCA7",
"r c #7ACBA8",
"t c #7ACCA8",
"y c #7CCDAA",
"u c #82CEAB",
"i c #83CFAC",
"p c #84D0AC",
"a c #84D0AD",
/* pixels */
"::112>:>>>72:***1>::1>15>>>:>52>:***-1>**1711:>>551:***11->:>72>",
"O35tq7533tyy1@&@313313t7t213qyy2+*=131313rtr7157ty7*-+,151317tqq",
"1127353315571&113733357751335573=1,3551567372115777,1,1753335713",
"53513511533133330tt73131335135131337tt731313173337113177tq133331",
"3313315331133315777533313133153133355753313633331331733757511153",
"3135351333531313333111333313135111311351613133331331313131333331",
"3311115315313133-131711311353533533331313313133>6331331313133331",
"1533333113513351*+=,333353313113313-@@>3137313333116161&@-351135",
"33513113333311333*=13331611333133311,*=3113333333351331,--133313",
"1133333351133317tt3131313333117315707713636133>3113313t771331313",
".---1533317313770073,==3133133313>777t1,+&13333>531335q7031@=,33",
"o&-&1331*=>373133131===>131==1313335331-+&133>>=113313135>-$=,51",
"3133214*&&-313173311>>5>731,==37133313331552>>$=-13331333>331173",
":31qtq4<13131313>353355yt71,13311317131737ey5533,3313131333557u5",
"135pui713331313335353>iaat3113317311731110uuq>5>33317313133>quuu",
"351547733171333133>33372713371311333133377555>>511331337133>>535",
"1553131531733133311533151331331631131335313113335133331133315153",
"13175313317531>133331335311737713,335311377135137731-33351313771",
"3557qq333ttt3=@=13111777t3177yt3&*$131331ttt7117ttr&&@1133337tt7",
"3137535177771,,-3773337773317706*=,3771337773335777-1-3571157755",
"3351>153315351137tt73313133317313317rt73117331357133157tt7133317",
"1133333131313335777715137113313313367751333151313113131775531311",
"5313333153131331153151533317311331333113333133131137353333313133",
"31351135133513313>3133311331337133313135113513537331311311513371",
"3313331153311333,+@*331333171633161,&+,113331531335133--@-133313",
"1513133331353515==$->37113313313131,&&-1331313511133131-==331313",
"1353333313133117073315331731313136477731313135335313377751313133",
"3>--333535133137tt7>--=13133313331777731@-13311331331577731-*,71",
"$@*=31:1--1331531311===331>--3131317373&@$3331,,1313331113=$--31",
".313337,==-533131333>31333-=$=3373113131513111@*=1131353333>1333",
">137771:3311115337113370051533>>3133131355q733131133173331>525t5",
"335tuu27>3333331313331tpp75>3333331333131qtp01333331331133225yut",
"1337371331331333133513355531311317133313551551313531317331531555",
"7311133737117311531153135133337313331313133333513133311137133331",
"31137131137331-331333135131517713,113133137111535715-33311531753",
"337qt7317ttt3&==331335q7q533qtt7&&*133613ttt7337tt7-&@1133317tq7",
"1157773317771,1,1753157553314773,111771117773317775-113573137773",
"53131113311317137yt73331313371111337rt73353111335133337tt7533113",
"313317333133317177r531311315331331337r7331515313331111577q313133",
"3351331133713133533151335313133333313171313331351353333113513351",
"1131533133113313111311331333173111331131333153113361313115331173",
".731313513737133-@=-333133131171611,++1331371333113333=*@-133331",
"*333131313333311*++,373131313733311==+,131131333611316-&@&133331",
"1115351333111337771311337133311333677313371333113133167733311135",
"&---3313313333577r711--33133331313777t1,+,13313331333577q3-@--71",
">$-&151,==1311311331@-&1611=*1531317133&+&12331-1331513133-$&-31",
"33>3135-@*-153333333133133*@=&3173113711133211@&,13133131333>517",
"3155q531311331137113335r6331,,511333313317q773-1,1331353133355q5",
"335uuu5153313531173315tup77:1533133535312rya7113,133331133177tuu",
"1315575331513133331313577717331353111133117773331371137361333677",
"513333313313131511313533337:31133133331573313131313133333311111:",
"33315133155333>3713331173317355331135133317137317733113113613477",
"1357q7155ryt3-&$73131777r5157yt5&-$3331137yq7137rt7-*&*651137tt0",
"1357553317771=--177137775>337775---355531q577137777-=*1753355557",
"53333311335313337y773113333133111335qt533531331311353667y53133>3",
"3115135351133513777733333333153333157753113311737331316477313333",
"5113133331331133133313313133313331313531173317311371133353313331",
"3335351133135351311713313711371133313133331313313313331131313135",
"13313153113535311+*,7333133313331131*@13313137333113311-@,331313",
"1331351353311133&X+,111713171313533-&@,171333113173317,&$$333513",
"5131313313333535r73331337313313333777513131333313331357733333133",
"3,-1313135113117tt711&,51313313111777731+=13113131171577t1-$*,31",
"o+*+3331>15331333131+-+13171&3313313171&++,6331,3333531313&@@&31",
" ,11133&@&-133513133,11133,+*&337133113-311131+=*1311337131,1135"
};
