/* XPM */
static char *xpm_[] = {
/* columns rows colors chars-per-pixel */
"62 64 248 2 ",
"   c black",
".  c #010101",
"X  c #020202",
"o  c gray1",
"O  c #040404",
"+  c gray2",
"@  c #060606",
"#  c #070707",
"$  c gray3",
"%  c #090909",
"&  c gray4",
"*  c #0B0B0B",
"=  c #0C0C0C",
"-  c gray5",
";  c #0E0E0E",
":  c gray6",
">  c #101010",
",  c #111111",
"<  c gray7",
"1  c #131313",
"2  c gray8",
"3  c #151515",
"4  c #161616",
"5  c gray9",
"6  c #181818",
"7  c #191919",
"8  c gray10",
"9  c #1B1B1B",
"0  c gray11",
"q  c #1D1D1D",
"w  c #1E1E1E",
"e  c gray12",
"r  c #202020",
"t  c gray13",
"y  c #222222",
"u  c #232323",
"i  c gray14",
"p  c #252525",
"a  c gray15",
"s  c #272727",
"d  c #282828",
"f  c gray16",
"g  c #2A2A2A",
"h  c gray17",
"j  c #2C2C2C",
"k  c gray18",
"l  c #2F2F2F",
"z  c gray19",
"x  c #313131",
"c  c #323232",
"v  c gray20",
"b  c #343434",
"n  c #353535",
"m  c gray21",
"M  c #373737",
"N  c gray22",
"B  c #393939",
"V  c #3A3A3A",
"C  c gray23",
"Z  c #3C3C3C",
"A  c gray24",
"S  c #3E3E3E",
"D  c #3F3F3F",
"F  c gray25",
"G  c #414141",
"H  c gray26",
"J  c #434343",
"K  c #444444",
"L  c gray27",
"P  c #464646",
"I  c gray28",
"U  c #484848",
"Y  c #494949",
"T  c gray29",
"R  c #4B4B4B",
"E  c #4C4C4C",
"W  c gray30",
"Q  c #4E4E4E",
"!  c gray31",
"~  c #505050",
"^  c #515151",
"/  c #535353",
"(  c gray33",
")  c #555555",
"_  c #565656",
"`  c gray34",
"'  c gray35",
"]  c #5A5A5A",
"[  c gray36",
"{  c #5D5D5D",
"}  c gray37",
"|  c #5F5F5F",
" . c #606060",
".. c gray38",
"X. c #626262",
"o. c gray39",
"O. c #646464",
"+. c #656565",
"@. c gray40",
"#. c #676767",
"$. c #686868",
"%. c #6A6A6A",
"&. c gray42",
"*. c #6C6C6C",
"=. c #6D6D6D",
"-. c gray43",
";. c #6F6F6F",
":. c gray44",
">. c #717171",
",. c #727272",
"<. c gray45",
"1. c #747474",
"2. c gray46",
"3. c #777777",
"4. c gray47",
"5. c #797979",
"6. c gray48",
"7. c #7B7B7B",
"8. c #7C7C7C",
"9. c gray49",
"0. c #7E7E7E",
"q. c gray50",
"w. c #808080",
"e. c #818181",
"r. c gray51",
"t. c #838383",
"y. c #848484",
"u. c gray52",
"i. c #868686",
"p. c gray53",
"a. c #888888",
"s. c #898989",
"d. c gray54",
"f. c #8B8B8B",
"g. c gray55",
"h. c #8D8D8D",
"j. c #8E8E8E",
"k. c gray56",
"l. c #909090",
"z. c gray57",
"x. c #929292",
"c. c #939393",
"v. c gray58",
"b. c #959595",
"n. c gray59",
"m. c #979797",
"M. c #989898",
"N. c gray60",
"B. c #9A9A9A",
"V. c #9B9B9B",
"C. c gray61",
"Z. c #9D9D9D",
"A. c gray62",
"S. c #9F9F9F",
"D. c #A0A0A0",
"F. c gray63",
"G. c #A2A2A2",
"H. c gray64",
"J. c #A4A4A4",
"K. c #A5A5A5",
"L. c gray65",
"P. c #A7A7A7",
"I. c gray66",
"U. c #A9A9A9",
"Y. c #AAAAAA",
"T. c gray67",
"R. c #ACACAC",
"E. c gray68",
"W. c #AEAEAE",
"Q. c #AFAFAF",
"!. c gray69",
"~. c #B1B1B1",
"^. c #B2B2B2",
"/. c gray70",
"(. c #B4B4B4",
"). c gray71",
"_. c #B6B6B6",
"`. c #B7B7B7",
"'. c gray72",
"]. c #B9B9B9",
"[. c gray73",
"{. c #BBBBBB",
"}. c #BCBCBC",
"|. c gray74",
" X c gray",
".X c gray75",
"XX c #C0C0C0",
"oX c gray76",
"OX c #C3C3C3",
"+X c gray77",
"@X c #C5C5C5",
"#X c gray78",
"$X c #C8C8C8",
"%X c gray79",
"&X c #CACACA",
"*X c #CBCBCB",
"=X c gray80",
"-X c #CDCDCD",
";X c #CECECE",
":X c gray81",
">X c #D0D0D0",
",X c gray82",
"<X c #D2D2D2",
"1X c LightGray",
"2X c gray83",
"3X c #D5D5D5",
"4X c gray84",
"5X c #D7D7D7",
"6X c #D8D8D8",
"7X c gray85",
"8X c #DADADA",
"9X c gray86",
"0X c gainsboro",
"qX c #DDDDDD",
"wX c #DFDFDF",
"eX c gray88",
"rX c #E1E1E1",
"tX c #E2E2E2",
"yX c gray89",
"uX c #E4E4E4",
"iX c gray90",
"pX c #E6E6E6",
"aX c #E7E7E7",
"sX c gray91",
"dX c #E9E9E9",
"fX c #EAEAEA",
"gX c gray92",
"hX c #ECECEC",
"jX c gray93",
"kX c #EEEEEE",
"lX c #EFEFEF",
"zX c gray94",
"xX c #F1F1F1",
"cX c gray95",
"vX c #F3F3F3",
"bX c #F4F4F4",
"nX c gray96",
"mX c #F6F6F6",
"MX c gray97",
"NX c #F8F8F8",
"BX c #F9F9F9",
"VX c gray98",
"CX c #FBFBFB",
"ZX c gray99",
"AX c #FDFDFD",
"SX c #FEFEFE",
"DX c white",
"FX c None",
/* pixels */
"FXFXFXFXFXFXFXFXFXFXFXFXFXFXFXFXFXFXFXFX                                            FXFXFXFXFXFXFXFXFXFXFXFXFXFXFXFXFXFXFXFX",
"FXFXFXFXFXFXFXFXFXFXFXFXFXFXFXFXFXFXFXFX                                            FXFXFXFXFXFXFXFXFXFXFXFXFXFXFXFXFXFXFXFX",
"FXFXFXFXFXFXFXFXFXFXFXFXFXFXFXFXFXFXFXFX@ @ @ @ @ @ @ @ @ @ @ @ @ @   @ @ @ @ @ @ @ FXFXFXFXFXFXFXFXFXFXFXFXFXFXFXFXFXFXFXFX",
"FXFXFXFXFXFXFXFXFXFXFXFXFXFXFXFXFXFXFXv n V n n n V n n n V n V n V V n n V n n V n i FXFXFXFXFXFXFXFXFXFXFXFXFXFXFXFXFXFXFX",
"FXFXFXFXFXFXFXFXFXFXFXFXFXFXFXFX    7 ] p.k.s.k.s.s.s.s.s.s.s.s.s.s.s.s.p.s.s.s.s.9.D @     FXFXFXFXFXFXFXFXFXFXFXFXFXFXFXFX",
"FXFXFXFXFXFXFXFXFXFXFXFXFXFXFXFX    7 $.L.~.R.R.R.R.R.R.~.R.R.R.R.R.R.R.I.R.R.R.~.n.L @     FXFXFXFXFXFXFXFXFXFXFXFXFXFXFXFX",
"FXFXFXFXFXFXFXFXFXFXFXFXFXFXFXFX@ @ 0 $.L.R.R.I.I.R.R.R.R.I.I.I.R.R.R.R.R.R.R.R.~.n.R & @ @ FXFXFXFXFXFXFXFXFXFXFXFXFXFXFXFX",
"FXFXFXFXFXFXFXFXFXFXFXFXFXFXFXn L L ] p.L.I.I.I.L.I.I.I.I.I.I.I.I.I.R.I.I.R.I.I.I.S.>.R L D f FXFXFXFXFXFXFXFXFXFXFXFXFXFXFX",
"FXFXFXFXFXFXFXFXFXFXFXFX    , ) k.n.n.L.I.I.I.I.L.L.I.I.I.R.I.R.I.R.I.R.I.I.I.I.I.I.S.n.n.9.V @     FXFXFXFXFXFXFXFXFXFXFXFX",
"FXFXFXFXFXFXFXFXFXFXFXFX    , | D.~.R.I.I.R.R.I.I.L.I.R.R.I.R.I.R.I.R.I.I.L.I.I.R.I.R.R.~.z.D       FXFXFXFXFXFXFXFXFXFXFXFX",
"FXFXFXFXFXFXFXFXFXFXFXFX    , | D.~.R.I.R.I.I.R.I.L.I.I.I.I.I.I.I.I.I.R.I.L.I.I.I.I.I.R.R.s.D       FXFXFXFXFXFXFXFXFXFXFXFX",
"FXFXFXFXFXFXFXFXFXFXFXFX    , ] D.~.I.I.I.I.R.I.I.I.R.I.I.I.L.L.L.I.R.I.I.I.I.R.R.R.I.R.I.p.D @     FXFXFXFXFXFXFXFXFXFXFXFX",
"FXFXFXFXFXFXFXFXFXFXFXFX    , | S.R.I.I.I.I.I.I.I.I.I.I.I.L.L.L.L.I.I.I.L.I.I.I.I.R.R.R.R.k.D       FXFXFXFXFXFXFXFXFXFXFXFX",
"FXFXFXFXFXFXFXFXFXFXFXFX    ,  .L.~.R.R.R.I.I.L.I.L.L.L.L.L.L.L.L.L.L.L.L.L.I.I.R.I.R.R.~.k.D       FXFXFXFXFXFXFXFXFXFXFXFX",
"FXFXFXFXFXFXFXFXFXFXFXFX    : ^ s.n.N.D.I.I.I.~.~.~.~.`.~.~.~.~.~.`.~.~.~.~.R.I.I.L.S.n.n.5.n @     FXFXFXFXFXFXFXFXFXFXFXFX",
"FXFXFXFXFXFXFXFXFXFXFX      @ i D L ^ e.L.R.`.%X6X6X6X6XwX6X6X6X6X6X6X6X6X5XOXR.I.S.=.L J n 4         FXFXFXFXFXFXFXFXFXFXFX",
"FXFXFXFXFXFXFXFX              @ @ @ 0 =.L.R.[.wXmXVXVXVXVXVXVXVXVXVXVXVXVXzX1X~.R.n.R : @ &                 FXFXFXFXFXFXFXFX",
"FXFXFXFXFXFXFXFX                    , $.L.~..XuXDXDXDXDXDXDXDXDXDXDXDXDXDXVX5X~.R.n.J @                     FXFXFXFXFXFXFXFX",
"FXFXFXFXFXFXFXFX            @ 4 j v D $.p.s.n.[.%X%X@X%X@X@X%X%X@X@X%X%X%XOXL.k.s.e.) v j f ,               FXFXFXFXFXFXFXFX",
"FXFXFXFXFXFXFXFX            , | D.R.n. .n n V R ^ ^ ^ E E E E E E E E E ^ E J V v J 5.L.R.k.D @             FXFXFXFXFXFXFXFX",
"FXFXFXFXFXFXFXFX            7 s.uXVX1X] &   @ @ @ @ @ @ @ @ @ @ & & @ @ & @   @   0 k.gXVX%X) @             FXFXFXFXFXFXFXFX",
"FXFXFXFXFXFXFXFX@     @     0 k.jXDX1X) &   @         @                     @     0 k.zXDX1X] @           @ FXFXFXFXFXFXFXFX",
"FXFXFXFXFXFXFXFXD J D i &   7 s.jXDXwXp.L D J J J D J J J J J J J J J J J D J D D ) R.zXDX;X]     : j J L V FXFXFXFXFXFXFXFX",
"FXFXFXFX    & ^ I.@X~. .,   7 s.gXDXzX1X.X[.[.[..X[.[.[.[..X[..X[.[.[..X.X[.[.[.[.@XwXVXDX;X) @   j s.OX.Xs.v     FXFXFXFXFX",
"FXFXFXFX    & O.6XDXgXe.7   4 s.gXDXVXVXVXDXVXVXDXVXVXDXVXVXVXVXVXDXVXDXVXDXVXDXVXVXVXVXDX%X^ @   n ~.VXVXR.n @     FXFXFXFX",
"FXFXFXFX    &  .6XDXjXp.0   0 s.jXDXVXVXVXDXVXVXmXmXVXVXVXDXDXDXDXVXVXVXmXmXVXVXDXVXVXVXDX;X] : @ D ~.DXVX~.n       FXFXFXFX",
"FXFXFXFX    & O.5XDXjXR.O.R O.~.jXDXVXVXVXVXuX.XD.D.`.yXVXVXVXVXVXmX5XI.S.I.;XzXVXVXmXVXVXwXk.) E 5.%XDXmX~.n       FXFXFXFX",
"FXFXFXFX    & O.5XDXmXuX1X%X1XuXmXVXmXVXVXDX;XO.f i  .%XVXVXmXVXDXjXD.J 0 D z.gXDXVXVXVXVXzX6X;X%X6XgXDXVXR.n       FXFXFXFX",
"FXFXFXFX    &  .6XDXDXDXDXDXDXDXVXVXmXVXDXVXOXL     D [.VXVXmXVXDXjXk.7   , 5.uXDXmXVXVXmXDXDXDXDXDXDXDXVX~.n       FXFXFXFX",
"FXFXFXFX    &  .;XzXjXjXzXjXjXmXVXmXVXVXDXDX@XR @ @ J .XVXVXVXmXDXjXz.r   , 5.uXDXVXmXVXVXmXzXjXjXzXzXjXjXI.n       FXFXFXFX",
"FXFXFXFXFXFXFXE e.k.k.k.k.s.N.%XzXVXVXVXVXDX@XL   @ J .XVXVXVXVXDXjXz.0   4 9.yXDXmXVXmXVXuX`.k.s.k.k.k.k.=.n FXFXFXFXFXFXFX",
"FXFXFXFXFXFXFXFX0 0 0 0 7 7 v n.jXDXVXVXDXVXOXR @   L .XVXVXVXVXDXjXz.0   , 9.yXDXVXVXVXDX5X$.r 7 0 0 7 0 7 FXFXFXFXFXFXFXFX",
"FXFXFXFXFXFXFXFX            4 s.jXDXDXDXDXDXOXR @   D .XDXDXVXVXDXzXk.7   , 3.yXVXVXDXDXDX1X) @             FXFXFXFXFXFXFXFX",
"FXFXFXFXFXFXFXFX            4 9.5XuXuXjXVXDX@X] 4 4 ^ [.zXmXzXzXmXuXn.j , i p.uXDXmXgXyXuX`.^ @             FXFXFXFXFXFXFXFX",
"FXFXFXFXFXFXFXFX            : J >.5.k.@XmXDXwXD.e.9.n..X1X1X1X;X1X;XR.s.5.s..XzXDXgXR.9.5. .f               FXFXFXFXFXFXFXFX",
"FXFXFXFXFXFXFXFX              & : : n D.zXDXmXjXgXuX6X.XR.R.R.~.R.~.%XyXgXgXzXVXDXwX3.7 : : @               FXFXFXFXFXFXFXFX",
"FXFXFXFXFXFXFXFX                    i D.mXDXDXDXDXDXgXOXI.I.I.I.I.R.1XVXDXDXDXDXDXyXO.&                     FXFXFXFXFXFXFXFX",
"FXFXFXFXFXFXFXf r i i i i r r ,     r p.;XwX5X1X5X5XOXS.z.k.z.z.z.z.R.;X5X5X1X5X6X.X| @   @ 7 r i i i i i r FXFXFXFXFXFXFXFX",
"FXFXFXFX    & R s.N.N.n.n.S.s.J &   , D  .O.O. .O. .] L J J J J L L E  .O. . . .O.] f @   7 | n.N.n.n.N.n.3.j     FXFXFXFXFX",
"FXFXFXFX    &  .1XmXzXzXzXVX6X$.,     @ & & & & & & & @   @   @   @ @ & & & & : & @       f S.jXmXjXzXmXzXR.n       FXFXFXFX",
"FXFXFXFX    &  .5XDXDXDXDXDXuX>.,                                                         j L.VXDXDXDXDXVX~.n       FXFXFXFX",
"FXFXFXFX    & O.5XDXVXmXVXDXyX=.,                                                         j L.zXVXVXmXVXVX~.n       FXFXFXFX",
"FXFXFXFX    &  .5XDXVXVXmXVXwX=.,                                                         j D.mXDXmXVXVXmXR.n       FXFXFXFX",
"FXFXFXFX    & O.6XDXVXVXDXDXyX=.,                                                         j L.VXDXVXDXDXVX~.n       FXFXFXFX",
"FXFXFXFX    &  .5XDXmXmXVXDXyX=.,           @     @                     @     @   @       f L.zXVXmXVXVXmXR.n       FXFXFXFX",
"FXFXFXFXFX  & ) D.`.`.`.`.[.D.^ :   & 0 j v j v v j r :             4 i j v v j j f ,     0 >.~.[.`.`.`.`.p.v     FXFXFXFXFX",
"FXFXFXFXFXFXFXj n V V V n V v 7     4 ^ e.e.e.e.e.e.| r           & n >.p.e.e.p.p.>.n @   : i V V V n V V v FXFXFXFXFXFXFXFX",
"FXFXFXFXFXFXFXFX                    7 =.I.`.R.R.~.~.9.i           & R N.`.R.R.R.`.n.R @                     FXFXFXFXFXFXFXFX",
"FXFXFXFXFXFXFXFX                @   7 $.L.I.I.L.R.R.9.f   @ @ @   : R z.R.I.I.I.R.n.L &   @                 FXFXFXFXFXFXFXFX",
"FXFXFXFXFXFXFXFXFX          & i V V J ] =.=.=.=.=.=.| L n V V V n V ^ O.=.=.=.=.=.O.^ J D j 4             FXFXFXFXFXFXFXFXFX",
"FXFXFXFXFXFXFXFXFXFXFX      : E p.n.9.L r 7 7 0 0 0 V >.k.k.k.k.z.s.| f 7 0 7 0 7 f ] s.z.3.v       FXFXFXFXFXFXFXFXFXFXFXFX",
"FXFXFXFXFXFXFXFXFXFXFXFX    ,  .D.`.z.V @           f p.`.~.R.~.`.I.O.,           , | L.`.k.D @     FXFXFXFXFXFXFXFXFXFXFXFX",
"FXFXFXFXFXFXFXFXFXFXFXFX    , | D.~.z.L : @ @ & & @ v 9.D.D.D.D.L.N. .7 @ @ & @ @ 7 O.L.~.k.D       FXFXFXFXFXFXFXFXFXFXFXFX",
"FXFXFXFXFXFXFXFXFXFXFXFX    : | D.~.S.=.E L R R R R ^ ] | | ] | ] | ] E R R R L R ) e.I.R.s.V @     FXFXFXFXFXFXFXFXFXFXFXFX",
"FXFXFXFXFXFXFXFXFXFXFXFX    , | D.~.L.S.n.n.N.N.N.N.>.n , , 4 4 , 7 R p.N.N.N.n.n.S.D.I.R.s.D       FXFXFXFXFXFXFXFXFXFXFXFX",
"FXFXFXFXFXFXFXFXFXFXFXFX    : | D.~.R.~.~.~.~.~.~.~.9.i           @ R N.`.~.~.~.~.~.~.R.R.k.D @     FXFXFXFXFXFXFXFXFXFXFXFX",
"FXFXFXFXFXFXFXFXFXFXFXFX    , ] z.S.N.S.N.N.N.N.S.S.>.i           & J s.S.S.N.N.S.N.N.N.S.e.n @     FXFXFXFXFXFXFXFXFXFXFXFX",
"FXFXFXFXFXFXFXFXFXFXFXFXFX  , v R ^ E E E E E E E E D 0           @ j R E E E E E E E E ^ L f @   FXFXFXFXFXFXFXFXFXFXFXFXFX",
"FXFXFXFXFXFXFXFXFXFXFXFXFXFXFX, & & : & : & & : : & : FXFXFXFXFXFXFXFX& : & : & & & : & & & FXFXFXFXFXFXFXFXFXFXFXFXFXFXFXFX",
"FXFXFXFXFXFXFXFXFXFXFXFXFXFXFXFX                      FXFXFXFXFXFXFXFX                      FXFXFXFXFXFXFXFXFXFXFXFXFXFXFXFX",
"FXFXFXFXFXFXFXFXFXFXFXFXFXFXFXFX                      FXFXFXFXFXFXFX                        FXFXFXFXFXFXFXFXFXFXFXFXFXFXFXFX",
"FXFXFXFXFXFXFXFXFXFXFXFXFXFXFXFXFX  FXFX                  FX    FX                        FXFXFXFXFXFXFXFXFXFXFXFXFXFXFXFXFX",
"FXFXFXFXFXFXFXFXFXFXFXFXFXFXFXFXFXFXFXFXFX                                              FXFXFXFXFXFXFXFXFXFXFXFXFXFXFXFXFXFX",
"FXFXFXFXFXFXFXFXFXFXFXFXFXFXFXFXFXFXFXFXFX                                              FXFXFXFXFXFXFXFXFXFXFXFXFXFXFXFXFXFX"
};
