/* XPM */
static char *_1zon_p1down217233813731723381733[] = {
/* columns rows colors chars-per-pixel */
"55 64 242 2 ",
"   c None",
".  c black",
"X  c #010101",
"o  c #020202",
"O  c gray1",
"+  c #040404",
"@  c gray2",
"#  c #060606",
"$  c #070707",
"%  c gray3",
"&  c #090909",
"*  c gray4",
"=  c #0B0B0B",
"-  c #0C0C0C",
";  c gray5",
":  c #0E0E0E",
">  c gray6",
",  c #101010",
"<  c #111111",
"1  c gray7",
"2  c #131313",
"3  c gray8",
"4  c #151515",
"5  c #161616",
"6  c gray9",
"7  c #181818",
"8  c #191919",
"9  c gray10",
"0  c #1B1B1B",
"q  c gray11",
"w  c #1D1D1D",
"e  c #1E1E1E",
"r  c gray12",
"t  c #202020",
"y  c gray13",
"u  c #222222",
"i  c #232323",
"p  c gray14",
"a  c #252525",
"s  c gray15",
"d  c #272727",
"f  c #282828",
"g  c gray16",
"h  c #2A2A2A",
"j  c gray17",
"k  c #2C2C2C",
"l  c #2D2D2D",
"z  c gray18",
"x  c #2F2F2F",
"c  c gray19",
"v  c #313131",
"b  c #323232",
"n  c gray20",
"m  c #343434",
"M  c #353535",
"N  c gray21",
"B  c #373737",
"V  c gray22",
"C  c #393939",
"Z  c #3A3A3A",
"A  c gray23",
"S  c #3C3C3C",
"D  c gray24",
"F  c #3E3E3E",
"G  c #3F3F3F",
"H  c gray25",
"J  c #414141",
"K  c gray26",
"L  c #434343",
"P  c #444444",
"I  c gray27",
"U  c #464646",
"Y  c #484848",
"T  c #494949",
"R  c gray29",
"E  c #4B4B4B",
"W  c #4C4C4C",
"Q  c gray30",
"!  c #4E4E4E",
"~  c gray31",
"^  c #505050",
"/  c #515151",
"(  c #535353",
")  c gray33",
"_  c #555555",
"`  c #565656",
"'  c gray34",
"]  c #585858",
"[  c gray35",
"{  c #5A5A5A",
"}  c #5B5B5B",
"|  c #5D5D5D",
" . c gray37",
".. c #5F5F5F",
"X. c #606060",
"o. c gray38",
"O. c #626262",
"+. c gray39",
"@. c #646464",
"#. c #656565",
"$. c gray40",
"%. c #676767",
"&. c #686868",
"*. c DimGray",
"=. c #6A6A6A",
"-. c gray42",
";. c #6D6D6D",
":. c gray43",
">. c #6F6F6F",
",. c gray44",
"<. c #717171",
"1. c #727272",
"2. c gray45",
"3. c #747474",
"4. c gray46",
"5. c #767676",
"6. c #777777",
"7. c gray47",
"8. c #797979",
"9. c gray48",
"0. c #7B7B7B",
"q. c #7C7C7C",
"w. c gray49",
"e. c #7E7E7E",
"r. c gray50",
"t. c #808080",
"y. c #818181",
"u. c gray51",
"i. c #838383",
"p. c #848484",
"a. c gray52",
"s. c #868686",
"d. c gray53",
"f. c #888888",
"g. c #898989",
"h. c gray54",
"j. c #8B8B8B",
"k. c #8D8D8D",
"l. c #8E8E8E",
"z. c gray56",
"x. c #909090",
"c. c gray57",
"v. c #929292",
"b. c #939393",
"n. c gray58",
"m. c #959595",
"M. c gray59",
"N. c #979797",
"B. c #989898",
"V. c gray60",
"C. c #9A9A9A",
"Z. c gray61",
"A. c #9D9D9D",
"S. c gray62",
"D. c #9F9F9F",
"F. c gray63",
"G. c #A2A2A2",
"H. c gray64",
"J. c #A5A5A5",
"K. c gray65",
"L. c #A7A7A7",
"P. c gray66",
"I. c #A9A9A9",
"U. c #AAAAAA",
"Y. c gray67",
"T. c #ACACAC",
"R. c gray68",
"E. c #AEAEAE",
"W. c #AFAFAF",
"Q. c gray69",
"!. c #B1B1B1",
"~. c #B2B2B2",
"^. c gray70",
"/. c #B4B4B4",
"(. c gray71",
"). c #B6B6B6",
"_. c #B7B7B7",
"`. c gray72",
"'. c #B9B9B9",
"]. c gray73",
"[. c #BCBCBC",
"{. c gray75",
"}. c #C1C1C1",
"|. c gray76",
" X c #C3C3C3",
".X c #C5C5C5",
"XX c #C6C6C6",
"oX c gray78",
"OX c #C8C8C8",
"+X c gray79",
"@X c #CACACA",
"#X c #CBCBCB",
"$X c gray80",
"%X c #CDCDCD",
"&X c #CECECE",
"*X c gray81",
"=X c #D0D0D0",
"-X c #D2D2D2",
";X c LightGray",
":X c gray83",
">X c #D5D5D5",
",X c gray84",
"<X c #D7D7D7",
"1X c #D8D8D8",
"2X c gray85",
"3X c #DADADA",
"4X c gray86",
"5X c #DDDDDD",
"6X c gray87",
"7X c #DFDFDF",
"8X c gray88",
"9X c #E1E1E1",
"0X c #E2E2E2",
"qX c gray89",
"wX c #E4E4E4",
"eX c gray90",
"rX c #E6E6E6",
"tX c #E7E7E7",
"yX c gray91",
"uX c #E9E9E9",
"iX c #EAEAEA",
"pX c gray92",
"aX c #ECECEC",
"sX c gray93",
"dX c #EEEEEE",
"fX c #EFEFEF",
"gX c gray94",
"hX c #F1F1F1",
"jX c gray95",
"kX c #F3F3F3",
"lX c #F4F4F4",
"zX c gray96",
"xX c #F6F6F6",
"cX c gray97",
"vX c #F8F8F8",
"bX c #F9F9F9",
"nX c gray98",
"mX c #FBFBFB",
"MX c gray99",
"NX c #FDFDFD",
"BX c #FEFEFE",
"VX c white",
/* pixels */
"                                                                                                              ",
"                                                                                                              ",
"                                                                                                              ",
"                                                                                                              ",
"                                  . . . . . . . . . . . . . . . . . . . . . . .                               ",
"                                  . . . . . . . . . . . . . . . . . . . . . . .                               ",
"                                  + + + + + + + + . + + + + + + + + + + + + + +                               ",
"                                a b Z M M Z M M M Z Z M M Z M Z M M Z M M M Z b a                             ",
"                          . . + M 3.h.h.h.s.h.s.s.s.s.s.s.s.s.s.h.s.h.s.h.h.h.3.M * . .                       ",
"                          . . . Z z.Q.T.T.Y.T.T.T.Y.Y.Y.T.Y.Y.Y.T.T.Y.Y.T.T.T.z.G + . .                       ",
"                          + + * G z.T.Y.Y.Y.Y.Y.Y.Y.Y.Y.Y.Y.Y.Y.Y.Y.Y.J.Y.T.Q.z.H * . +                       ",
"                        a M Z G %.n.T.Y.J.Y.J.J.Y.J.Y.J.Y.J.Y.Y.Y.J.J.Y.J.Y.Y.n.%.H Z Z b                     ",
"                  . . + b 3.z.z.n.G.J.Y.Y.J.Y.J.J.J.J.J.Y.Y.J.J.J.J.Y.J.J.Y.J.G.n.z.c.2.b + . .               ",
"                  . . + M h.Q.T.Y.Y.Y.J.J.J.Y.Y.Y.Y.J.Y.J.Y.Y.J.J.Y.J.Y.J.Y.Y.Y.Y.T.Q.s.M + . .               ",
"                  . . + Z s.T.T.J.Y.J.Y.Y.J.J.J.Y.J.Y.Y.Y.J.Y.J.Y.Y.J.J.J.J.Y.Y.Y.Y.Y.h.M + . .               ",
"                  . . . M s.Y.Y.Y.J.Y.J.Y.Y.Y.Y.J.J.Y.J.J.Y.J.Y.J.Y.J.Y.Y.Y.J.J.Y.Y.Y.s.M + . .               ",
"                  . . . Z s.T.T.Y.J.J.Y.J.J.Y.J.Y.J.Y.Y.J.J.Y.J.Y.Y.J.Y.J.Y.Y.J.Y.T.Y.h.Z + . .               ",
"                  . . + Z h.Q.T.Y.Y.Y.J.Y.J.J.J.J.J.J.J.Y.J.J.J.J.J.J.J.J.Y.J.Y.Y.Q.T.h.M + . .               ",
"                  . . + b r.G.G.G.J.Y.Y.Y.T.T.T.T.T.T.T.Y.T.T.T.Y.T.Y.Y.Y.J.Y.J.G.G.J.r.M + . .               ",
"                . . . . r Q  .+.0.Z.J.Y.).oX$X$X$X$X@X$X@X@X@X$X@X@X@XoX].Y.J.Z.0.+. .Q t . . . .             ",
"          . . . . . . . + 1 1 8 R c.Y.T.oXtXhXhXhXhXhXhXhXhXhXhXhXhXhXyXoXT.Y.c.R 8 5 1 + . . . . . . .       ",
"          . . . . . . . . . . + G c.T.Q.$XxXMXMXMXMXMXMXMXMXMXMXMXMXMXxX=XQ.T.c.Z . . . . . . . . . . .       ",
"          . . . . . . . . . . + Z r.Z.G.[.2XyXyXtXtXtXtXyXyXyXtXtXtXyX7X].G.Z.s.Z + . . . . . . . . . .       ",
"          . . . . . . . . . . . r R } } *.r.s.s.u.s.u.u.s.s.u.s.u.s.u.r.%.} } R r + . . . . . . . . . .       ",
"          . . . . . . . . . . . + 1 1 5 5 5 5 8 5 5 5 8 8 5 5 5 5 8 8 8 1 1 > 1 + . . . . . . . . . . .       ",
"          . . . . . . . . . . . . . . . . . . . . . . . . . . . . . . . . . . . . . . . . . . . . . . .       ",
"          5 8 8 5 + . . + 5 8 8 5 5 5 8 8 5 8 5 5 5 8 8 5 5 8 8 8 5 5 8 5 5 5 8 5 8 8 1 * . . + 1 8 8 8       ",
"    . . b %.u.u.} r . . g %.u.u.u.r.r.u.r.r.r.u.u.r.r.r.r.r.r.r.r.r.r.r.r.r.r.r.r.r.u.%.g + . r } u.u.*.b + . ",
"  . . + Z T.aXyXJ.M . . Q ].aXyX0XtXyXyXtXtXtXtX0XtXtXtXtXtXyXyXtXtXyXyXtXyXyXyXyXaXyX].U * . M J.yXyXY.Z . . ",
"  . . . G ].nXMX).M . . Q @XMXMXMXMXMXMXMXMXMXMXMXMXMXMXMXMXMXMXMXMXMXMXMXMXMXMXMXMXMX$XQ + . M ).nXMX).G . . ",
"  . . + Z ).nXnX].Q 8 r %.$XnXnXnXnXnXxXaX0X2X7XaXnXnXnXnXnXnXxXaX7X2X0XaXnXMXnXnXnXMX$X%.r 8 ^ ].nXMX).G . . ",
"  . . . G Q.nXnX2XG.s.s.Y.0XnXnXnXxXnXxX|.u.*.3.Q.yXMXnXnXnXnXyXY.0.*.r.|.hXMXnXxXnXnX0XY.s.s.G.<XnXnX).G . . ",
"  . . . G ).nXMXxXhXyXyXhXxXxXnXxXnXMXhXB.k + 8 3.7XMXnXnXnXMX0X3.r + k B.hXMXnXxXnXnXxXaXyXyXhXnXMXnX).G . . ",
"  . . + G ].MXMXMXMXMXMXMXnXxXnXnXnXMXhXz.t . * ;.0XMXnXxXnXMX7X;.> . r c.aXMXnXnXxXxXnXMXMXMXMXMXMXMX).G . . ",
"  . . . M Z.<X2X2X2X<X2X0XhXnXxXxXnXMXhXc.t . > 3.7XMXnXxXnXMX0X2.1 . t n.aXMXnXnXnXnXxXtX2X<X<X<X2X2XG.Z . . ",
"  . . . 8 R %.*.%.*.+.%.B.2XnXMXxXnXMXaXn.t . > 2.7XMXnXnXxXMX7X;.> . t n.hXMXnXxXnXnX2Xn.%.+.%.%.%.%._ M     ",
"  . . . . * * * * * + > } @XnXMXnXxXMXhXc.t . > ;.7XMXnXnXnXMX7X;.1 . t n.hXMXnXnXMXMX$X_ > * * * * * >       ",
"  . . . . . . . . . . + ^ $XMXMXMXnXMXaXz.r . * ;.0XMXnXnXMXMX0X;.> . r c.hXMXnXMXMXMX@XR . . . . . . .       ",
"  . . . * r g g 8 * . + H J.<X=X0XhXMXhXG.U t b u.<XxXaXyXaXhX<Xu.b t H G.aXMXhX7X<X=XT._ r 8 5 * . . .       ",
"  . . . a 2.Z.Z.2.a . . r R  .+.n.7XMXxX$XY.B.Z.T.|.oXoX|.oXoX|.T.Z.B.Y.=XxXMX0Xn.+.}  .%.*.*.^ r . . .       ",
"  . . + G Q.xXxXQ.G . . . * + 1 +.=XMXMXnXxXhXhX<XQ.Y.Y.Y.T.Y.Q.<XhXhXxXnXMXMX=X .> + a 2.G.Y.0.k . . .       ",
"  . . . G ].MXMX].G . . . . . + } <XMXMXMXMXMXnX2XQ.Y.Y.Y.Y.J.).2XnXMXMXMXMXMX<X} + . r 2.Y.Q.u.b . . .       ",
"  . . + Z B.$X$Xc.k . . . . . + U J.=X$X@X@X$XoXY.z.s.h.s.s.s.z.T.@X$X@X@X@X=XJ.R * . a r.].].z.M . . .       ",
"          R _ _ G 8 . . . . . . t R _ _ _ ^ _ _ R G M Z Z Z Z G R ^ _ _ _ _ _ R r + . k n.7X0XY.H + . .       ",
"          + + + + . . . . . . . + + + + + + + + + . + . + . + + . + + * + + + . . . . b Y.xXMX|.U + . .       ",
"          . . . . . . . . . . . . . . . . . . . . . . . . . . . . . . . . . . . . . . b T.xXMXoXU + . .       ",
"          . . . . . . . . . . . 1 r a t 5 + . . . . . . . . . . . . . + t M M Z M M b ^ n.oXoXc.M + . .       ",
"                  . . . . . . . g +.0.2.U 1 . . . . . . . . . . . . . 8 *.J.Q.T.T.Q.Q.B.*.Q Q Z 5 . . .       ",
"                  . . . . . . + G z.Q.J.%.5 . . . . . . . . . . . . . t n.aXMXnXxXMXnXoX^ * + + . . . .       ",
"                  . . . . . . + H c.).Y.%.5 . . . . + . . . . + . . . a n.hXMXMXMXMXMX@XQ + . . . . . .       ",
"                  . . . . . . + k *.s.0.R 1 . . 1 a k g g k g a 5 . . t n.hXMXnXnXMXMXoX^ + . . . . .         ",
"                          . . . 1 a b k 5 + . * Z ;.r.0.3.r.u.2.M * . t n.aXMXnXxXMXMXoXQ * . . .             ",
"                          . . . . . + . . . . + Q B.Q.T.T.Q.Q.Z.Q * . t n.hXMXMXMXMXMX$X^ + . .               ",
"                          . . . + . . + + + . > Q B.Q.T.T.T.Q.B.Q > . t n.aXMXnXnXnXnXoXQ * . .               ",
"                          . . . 5 a k b k b g M ^ 2.0.0.0.0.0.2.G > . t 3.T.].Q.Q.).).n.U + .                 ",
"                          . . + k ;.s.u.r.u.s.r._ b a a g g a a r       M Z Z Z Z G Z M g                     ",
"                          . . + H z.Q.Q.Q.Q.Q.J. .1 . . + . . . .         . . + . + . +                       ",
"                          . . + G z.T.T.Y.Y.T.G.} 5 . . . . . . .         . . . . . . .                       ",
"                          . . + M %.3.3.2.3.0.;.G > . . . . . .           . . . . . .                         ",
"                                  t t a t t t t 1 . . . .                                                     ",
"                                  + . . . . . . . . . . .                                                     ",
"                                  . . . . . . . . . . . .                                                     ",
"                                    . . . . . . . . .                                                         ",
"                                                                                                              "
};
