/* XPM */
static char *_1zon_p1down417233813731723381734[] = {
/* columns rows colors chars-per-pixel */
"58 64 241 2 ",
"   c None",
".  c black",
"X  c #010101",
"o  c #020202",
"O  c gray1",
"+  c #040404",
"@  c gray2",
"#  c #060606",
"$  c #070707",
"%  c gray3",
"&  c #090909",
"*  c gray4",
"=  c #0B0B0B",
"-  c #0C0C0C",
";  c gray5",
":  c #0E0E0E",
">  c gray6",
",  c #101010",
"<  c #111111",
"1  c gray7",
"2  c #131313",
"3  c gray8",
"4  c #151515",
"5  c #161616",
"6  c gray9",
"7  c #181818",
"8  c #191919",
"9  c gray10",
"0  c #1B1B1B",
"q  c gray11",
"w  c #1D1D1D",
"e  c #1E1E1E",
"r  c gray12",
"t  c #202020",
"y  c gray13",
"u  c #222222",
"i  c #232323",
"p  c gray14",
"a  c #252525",
"s  c gray15",
"d  c #272727",
"f  c #282828",
"g  c gray16",
"h  c #2A2A2A",
"j  c gray17",
"k  c #2C2C2C",
"l  c #2D2D2D",
"z  c gray18",
"x  c #2F2F2F",
"c  c gray19",
"v  c #313131",
"b  c #323232",
"n  c gray20",
"m  c #343434",
"M  c #353535",
"N  c gray21",
"B  c #373737",
"V  c gray22",
"C  c #393939",
"Z  c #3A3A3A",
"A  c gray23",
"S  c #3C3C3C",
"D  c gray24",
"F  c #3E3E3E",
"G  c #3F3F3F",
"H  c gray25",
"J  c #414141",
"K  c gray26",
"L  c #434343",
"P  c #444444",
"I  c gray27",
"U  c #464646",
"Y  c gray28",
"T  c #484848",
"R  c #494949",
"E  c gray29",
"W  c #4C4C4C",
"Q  c #4E4E4E",
"!  c gray31",
"~  c #505050",
"^  c #515151",
"/  c gray32",
"(  c #535353",
")  c gray33",
"_  c #555555",
"`  c #565656",
"'  c gray34",
"]  c #585858",
"[  c gray35",
"{  c #5A5A5A",
"}  c #5B5B5B",
"|  c gray36",
" . c #5D5D5D",
".. c gray37",
"X. c #5F5F5F",
"o. c #606060",
"O. c gray38",
"+. c #626262",
"@. c gray39",
"#. c #646464",
"$. c #656565",
"%. c gray40",
"&. c #676767",
"*. c #686868",
"=. c DimGray",
"-. c #6C6C6C",
";. c #6D6D6D",
":. c gray43",
">. c #6F6F6F",
",. c gray44",
"<. c #717171",
"1. c #727272",
"2. c gray45",
"3. c #747474",
"4. c gray46",
"5. c #767676",
"6. c #777777",
"7. c gray47",
"8. c #797979",
"9. c gray48",
"0. c #7B7B7B",
"q. c #7C7C7C",
"w. c gray50",
"e. c #808080",
"r. c #818181",
"t. c gray51",
"y. c #838383",
"u. c #848484",
"i. c gray52",
"p. c #868686",
"a. c gray53",
"s. c #898989",
"d. c gray54",
"f. c #8B8B8B",
"g. c gray55",
"h. c #8D8D8D",
"j. c #8E8E8E",
"k. c gray56",
"l. c #909090",
"z. c gray57",
"x. c #929292",
"c. c #939393",
"v. c gray58",
"b. c #959595",
"n. c gray59",
"m. c #979797",
"M. c #989898",
"N. c gray60",
"B. c #9A9A9A",
"V. c #9B9B9B",
"C. c gray61",
"Z. c #9D9D9D",
"A. c gray62",
"S. c #9F9F9F",
"D. c #A0A0A0",
"F. c gray63",
"G. c #A2A2A2",
"H. c gray64",
"J. c #A4A4A4",
"K. c #A5A5A5",
"L. c gray65",
"P. c #A7A7A7",
"I. c gray66",
"U. c #A9A9A9",
"Y. c #AAAAAA",
"T. c gray67",
"R. c #ACACAC",
"E. c gray68",
"W. c #AEAEAE",
"Q. c #AFAFAF",
"!. c gray69",
"~. c #B1B1B1",
"^. c #B2B2B2",
"/. c gray70",
"(. c #B4B4B4",
"). c gray71",
"_. c #B6B6B6",
"`. c #B9B9B9",
"'. c #BBBBBB",
"]. c #BCBCBC",
"[. c gray74",
"{. c gray",
"}. c #C0C0C0",
"|. c #C1C1C1",
" X c gray76",
".X c #C3C3C3",
"XX c gray77",
"oX c #C5C5C5",
"OX c #C6C6C6",
"+X c gray78",
"@X c #C8C8C8",
"#X c gray79",
"$X c #CACACA",
"%X c #CBCBCB",
"&X c gray80",
"*X c #CDCDCD",
"=X c #CECECE",
"-X c gray81",
";X c #D0D0D0",
":X c gray82",
">X c #D2D2D2",
",X c LightGray",
"<X c gray83",
"1X c gray84",
"2X c #D7D7D7",
"3X c #D8D8D8",
"4X c gray85",
"5X c #DADADA",
"6X c gray86",
"7X c gainsboro",
"8X c #DDDDDD",
"9X c gray87",
"0X c #E2E2E2",
"qX c gray89",
"wX c #E4E4E4",
"eX c #E6E6E6",
"rX c #E7E7E7",
"tX c gray91",
"yX c #E9E9E9",
"uX c #EAEAEA",
"iX c gray92",
"pX c #ECECEC",
"aX c gray93",
"sX c #EEEEEE",
"dX c #EFEFEF",
"fX c gray94",
"gX c #F1F1F1",
"hX c gray95",
"jX c #F3F3F3",
"kX c #F4F4F4",
"lX c gray96",
"zX c #F6F6F6",
"xX c gray97",
"cX c #F8F8F8",
"vX c #F9F9F9",
"bX c gray98",
"nX c #FBFBFB",
"mX c gray99",
"MX c #FDFDFD",
"NX c #FEFEFE",
"BX c white",
/* pixels */
"                                                                                                                    ",
"                                                                                                                    ",
"                                                                                                                    ",
"                                                                                                                    ",
"                                  . . . . . . . . . . . . . . . . . . . . . . . .                                   ",
"                                  . . . . . . . . . . . . . . . . . . . . . . . .                                   ",
"                                  + + . . + . + . . + . + . + . + . . + . + + + .                                   ",
"                                  f v x v v x v v v v x v v v x v v x v v v x x x t                                 ",
"                          . . . t } w.r.w.r.r.r.r.r.r.r.r.r.r.r.r.r.w.r.r.w.r.r.;.C & . .                           ",
"                          . . . r ;.P.~.I.I.W.I.I.I.I.I.I.I.I.I.I.W.I.I.W.W.I.W.j.S + . .                           ",
"                          . . . t ;.P.W.W.I.W.I.W.W.W.W.W.I.W.I.W.I.I.W.I.I.W.~.j.S & . .                           ",
"                        t f v v U w.P.W.P.I.P.P.I.P.I.I.I.I.I.I.I.P.I.I.I.I.I.W.m...m v v x                         ",
"                  . . . t } w.u.s.V.P.I.I.I.I.I.I.P.P.I.I.I.I.P.I.I.I.I.I.I.I.I.G.l.u.r.,.C + . .                   ",
"                  . . . t ,.I.W.W.I.I.I.I.I.I.I.P.I.I.I.I.I.I.I.I.I.I.I.I.P.I.I.I.I.I.~.l.S & . .                   ",
"                  . . . t ;.P.W.I.I.I.I.I.I.I.I.I.I.I.I.P.P.P.I.I.I.I.I.I.I.I.I.I.I.W.W.l.S & . .                   ",
"                  . . . t ;.P.W.I.I.I.I.I.I.I.I.I.I.I.I.I.I.I.P.I.I.I.I.P.I.I.I.I.I.I.W.j.S + . .                   ",
"                  . . . r ;.I.W.I.I.I.I.I.I.I.I.I.P.P.P.P.I.P.P.I.I.I.I.I.I.I.I.I.I.I.W.j.S + . .                   ",
"                  . . . t ,.I.~.I.I.I.I.I.P.P.P.P.P.P.P.P.P.P.P.P.P.I.P.P.P.I.I.I.I.~.~.l.S & . .                   ",
"                  . . . t ;.P.I.I.I.I.I.P.I.I.I.P.I.I.I.I.I.I.P.I.I.I.I.I.I.I.I.I.I.I.I.j.S & . .                   ",
"                  . . . 8 W ;.5.r.m.I.I.W.`. X X X X X X X X X X]. X X X].~.I.I.G.u.0.,.o.f + . . .                 ",
"          . . . . . . . & 8 t t S 0.P.I.(.:XtXtXtXtXtXtXtXtXtXtXtXtXtXtX9X].W.I.l._ f t r ; . . . . . . .           ",
"          . . . . . . . . . + . r ,.P.W.].0XMXMXMXMXMXMXMXMXMXMXMXMXMXMXgX#X~.W.j.S & . . . . . . . . . .           ",
"          . . . . . . . . . . . r -.G.P.(.5XlXlXlXlXlXlXlXvXlXlXvXlXvXlXtXOXI.I.j.S + . . . . . . . . . .           ",
"          . . . . . . . . . . . 3 R ,.,.0.m.P.I.P.P.P.P.P.P.P.P.I.I.I.I.C.u.5.,...f + . . . . . . . . . .           ",
"          . . . . . . . . . . . + 8 t d d x x x v v v v v v v v v v x v v f t t 8 ; . . . . . . . . . . .           ",
"          . . . . . . . . . . . . . . . . . . . . . . . . . . . . . . . . . . . . . . . . . . . . . . . .           ",
"          + & + + + . . . + & & + & + & & + + & & + & & + & + & & & + & + & & & & & & & + + . . . + & & &           ",
"        d L _ } U t + . , C ~ _ _ _ _ _ _ _ _ _ _ _ _ ~ _ _ _ _ _ ~ _ _ _ _ ~ _ ~ _ _ _ U t + . , m ~ _ W L         ",
"  . . . x j.&X:XP.L + . f u.#X&X#X&X#X#X#X#X#X&X#X#X#X#X#X#X#X#X#X&X#X#X&X#X#X&X#X#X&X:XP.R & . t r.OX:XW._ & . .   ",
"  . . + v I.vXMX#X~ . . x P.vXMXMXMXMXMXMXMXMXMXMXMXMXMXMXMXMXMXMXMXMXMXMXMXMXMXMXMXMXMX:X} & . f C.lXMX:Xo.& . .   ",
"  . . . v P.lXMX&X_ & + m I.lXMXMXvXvXvXvXvXlXlXvXvXMXMXvXvXvXMXvXvXlXlXvXlXvXvXvXMXMXMX:Xo., + x G.gXMX:X..& . .   ",
"  . . . v P.lXMX5Xj.} ~ 5. XlXvXvXvXvXvXtX].G.C.~.5XlXMXvXvXvXvXtX XG.C.~.5XlXvXvXvXvXMX9Xl.} ~ ,.].lXMX:Xo.& . .   ",
"  . . . v I.lXMXgX9X&X#X<XtXvXvXvXvXvXMX:X,.x d ~ ~.lXMXvXvXvXvX<X5.v d W W.lXMXvXlXvXvXgX5X#X#X:XtXvXMX&X..& . .   ",
"  . . . v I.lXMXMXMXMXMXMXvXvXlXvXvXvXMX#X~ + . f G.gXMXlXvXMXMX&X~ + . d C.gXMXvXvXvXvXvXMXMXMXMXMXMXMX<Xo.& . .   ",
"  . . . v P.dXlXgXlXlXlXgXvXvXvXlXvXvXMX#X_ + . x G.lXMXvXlXvXMX:X_ & . d G.lXMXlXvXvXvXlXlXlXlXlXlXlXlX&X..& . .   ",
"    . . v ,.V.G.C.C.C.C.W.5XlXvXvXvXMXMX#X_ + . x G.gXMXvXvXvXMX&X} & . f C.lXMXvXvXvXvXtX XG.V.V.V.G.G.u.S + . .   ",
"          d f f x f f d ~ ~.lXMXlXvXMXvX#X} + . f G.gXMXvXvXMXMX&X} & . x C.gXMXvXvXvXMX<X0.v d f f x f d , + . .   ",
"          . . . . . . . x P.vXMXMXvXvXMX#X~ + . f G.lXMXvXvXMXMX&X_ & . d V.lXMXvXvXMXMX:X..+ . . . . . . . . . .   ",
"          . . . . . + + v C.dXlXgXlXMXMX#X..; + v G.gXMXlXlXvXvX&X..; + x G.gXMXvXlXlXvX#X_ & . . + & + + . . . .   ",
"          . . . ; x S S ~ 0.m.V.W.5XvXMX5Xm.o._ 5.W.5X9X5X5X9X9XOXs..._ 5. XlXMXtX].C.C.r.C & . , S ..o.~ d . . .   ",
"          . . . 8 ..j.m.0.R f d W ~.lXMXgX9X:X:X#X].(.(.(.(.(.(.`.OX:X&X5XtXvXMX<X,.x d t , . . t r.&X5XW.~ & . .   ",
"          . . . d ,.I.~.s.m . . x P.vXMXMXMXMXMXlX#XW.I.I.I.I.I.`.wXMXMXMXMXMXMX<X} + . . . . . x P.vXMX5Xo.& . .   ",
"          . . . t ,.I.~.j.C . . f G.dXlXgXgXgXgX0X].G.G.P.G.G.C.~.<XgXgXgXdXdXgX#X} & . . . . . f V.tXvX#X..; . .   ",
"          . . . d u.#X:XG.L + . r o.l.V.V.m.m.V.j.5.-.&.&.&.&.&.,.u.V.V.m.m.V.V.w.m & . . . . . 3 ..m.C.u.U & . .   ",
"          . . . x C.tXlX X~ + . + 8 d d d d t d d r r 8 8 8 8 8 r t d d d t d d r ; . . . . . . + 8 d d d f         ",
"          . . . v W.vXMX&X_ . . . . . . . . . . . . . . . . . . . . . . . . . . . . . . . . . . . . . . .           ",
"          . . . x C.dXlX X} ; & ; & & & & . . . . . . . . . . . . . . . . . + & + . . . . . . . . . . . .           ",
"          . . . r o.l.V.s.5.o.&.o.&.&.&.~ d . . . . . . . . . . . . . . ; x U U C 8 + . . . . . . . . . .           ",
"          . . . & 8 d t U m.&X5X<X<X5X5XW.R + . . . . . . . . . . . . . 8 ..j.m.0.m + . . . . . . .                 ",
"          . . . . . . . x P.vXMXMXMXMXMX&X} + . . . . . . . . . . . . . r ,.W.].l.L & . . . . . .                   ",
"          . . . . . . . x G.lXMXvXvXMXMX&X_ + . . + & & + & & + + + . . 8 -.G.I.s.S & . . . . . .                   ",
"            . . . . . . v P.gXMXvXlXMXMX#X_ & . ; x U R L U R U S 8 . . , S o.&._ t . . . . . . .                   ",
"                  . . . x G.gXMXvXvXvXMX#X} + . 8 o.j.m.l.l.m.m.0.m + . . , 8 8 3 & . . . .                         ",
"                  . . . v P.vXMXMXMXMXMX&X} + . t ,.W.(.~.~.~.(.l.S + . . . . . . . . . .                           ",
"                  . . . v C.tXdXtXdXdXdX X_ + . t -.C.P.P.G.G.P.u.L ; & & & & ; + + . . .                           ",
"                    . . f ;.j.l.j.j.l.l.0.U + . r U ..o.o.o.o.o...~ R U R R U R S 8 + . .                           ",
"                          r t t t t t t r         3 8 3 8 3 8 3 f -.l.m.m.m.l.V.w.m + . .                           ",
"                          . . . . . . . .         . . . . . . . 8 ;.W.(.W.~.~.(.l.L & . .                           ",
"                          . . . . . . . .         . . . . . . . 8 -.V.P.G.G.G.P.s.S & . .                           ",
"                            . . . . . .             . . . . . . , S } o.....o.o.~ x + .                             ",
"                                                          . . . + ; 3 3 , , 3 3 3 3                                 ",
"                                                          . . . . . . . . . . . .                                   ",
"                                                          . . . . . . . . . . . .                                   ",
"                                                            . . . . . . . . . .                                     "
};
