/* XPM */
static char *_1zon_p1left117233813741723381733[] = {
/* columns rows colors chars-per-pixel */
"56 64 242 2 ",
"   c None",
".  c black",
"X  c #010101",
"o  c #020202",
"O  c gray1",
"+  c #040404",
"@  c gray2",
"#  c #060606",
"$  c #070707",
"%  c gray3",
"&  c #090909",
"*  c gray4",
"=  c #0B0B0B",
"-  c #0C0C0C",
";  c gray5",
":  c #0E0E0E",
">  c gray6",
",  c #101010",
"<  c #111111",
"1  c gray7",
"2  c #131313",
"3  c gray8",
"4  c #151515",
"5  c #161616",
"6  c gray9",
"7  c #181818",
"8  c #191919",
"9  c gray10",
"0  c #1B1B1B",
"q  c gray11",
"w  c #1D1D1D",
"e  c #1E1E1E",
"r  c gray12",
"t  c #202020",
"y  c gray13",
"u  c #222222",
"i  c #232323",
"p  c gray14",
"a  c #252525",
"s  c gray15",
"d  c #272727",
"f  c #282828",
"g  c gray16",
"h  c #2A2A2A",
"j  c gray17",
"k  c #2C2C2C",
"l  c #2D2D2D",
"z  c gray18",
"x  c #2F2F2F",
"c  c gray19",
"v  c #313131",
"b  c #323232",
"n  c #353535",
"m  c gray21",
"M  c #373737",
"N  c #393939",
"B  c #3A3A3A",
"V  c #3C3C3C",
"C  c gray24",
"Z  c #3E3E3E",
"A  c #3F3F3F",
"S  c gray25",
"D  c #414141",
"F  c gray26",
"G  c #434343",
"H  c #444444",
"J  c gray27",
"K  c #464646",
"L  c gray28",
"P  c #484848",
"I  c #494949",
"U  c gray29",
"Y  c #4B4B4B",
"T  c #4C4C4C",
"R  c gray30",
"E  c #4E4E4E",
"W  c gray31",
"Q  c #515151",
"!  c gray32",
"~  c #535353",
"^  c gray33",
"/  c #555555",
"(  c #565656",
")  c gray34",
"_  c #585858",
"`  c gray35",
"'  c #5A5A5A",
"]  c #5B5B5B",
"[  c gray36",
"{  c #5D5D5D",
"}  c gray37",
"|  c #5F5F5F",
" . c #606060",
".. c gray38",
"X. c #626262",
"o. c gray39",
"O. c #646464",
"+. c #656565",
"@. c gray40",
"#. c #686868",
"$. c DimGray",
"%. c #6A6A6A",
"&. c gray42",
"*. c #6C6C6C",
"=. c #6D6D6D",
"-. c gray43",
";. c #6F6F6F",
":. c gray44",
">. c #717171",
",. c #727272",
"<. c gray45",
"1. c #747474",
"2. c #767676",
"3. c #777777",
"4. c gray47",
"5. c #797979",
"6. c gray48",
"7. c #7B7B7B",
"8. c #7C7C7C",
"9. c gray49",
"0. c #7E7E7E",
"q. c gray50",
"w. c #808080",
"e. c #818181",
"r. c gray51",
"t. c #838383",
"y. c #848484",
"u. c gray52",
"i. c #868686",
"p. c gray53",
"a. c #888888",
"s. c #898989",
"d. c gray54",
"f. c #8B8B8B",
"g. c gray55",
"h. c #8D8D8D",
"j. c #8E8E8E",
"k. c gray56",
"l. c #909090",
"z. c gray57",
"x. c #929292",
"c. c #939393",
"v. c gray58",
"b. c #959595",
"n. c gray59",
"m. c #979797",
"M. c #989898",
"N. c gray60",
"B. c #9B9B9B",
"V. c gray61",
"C. c #9D9D9D",
"Z. c gray62",
"A. c #9F9F9F",
"S. c #A0A0A0",
"D. c gray63",
"F. c gray64",
"G. c #A4A4A4",
"H. c #A5A5A5",
"J. c gray65",
"K. c #A7A7A7",
"L. c gray66",
"P. c #A9A9A9",
"I. c #AAAAAA",
"U. c gray67",
"Y. c #ACACAC",
"T. c gray68",
"R. c #AEAEAE",
"E. c #AFAFAF",
"W. c gray69",
"Q. c #B1B1B1",
"!. c #B2B2B2",
"~. c gray70",
"^. c #B4B4B4",
"/. c gray71",
"(. c #B6B6B6",
"). c #B7B7B7",
"_. c gray72",
"`. c #B9B9B9",
"'. c gray73",
"]. c #BBBBBB",
"[. c #BCBCBC",
"{. c gray74",
"}. c gray",
"|. c #C0C0C0",
" X c #C1C1C1",
".X c gray76",
"XX c #C3C3C3",
"oX c gray77",
"OX c #C6C6C6",
"+X c gray78",
"@X c #C8C8C8",
"#X c gray79",
"$X c #CACACA",
"%X c #CBCBCB",
"&X c gray80",
"*X c #CDCDCD",
"=X c gray81",
"-X c #D0D0D0",
";X c #D2D2D2",
":X c LightGray",
">X c gray83",
",X c #D5D5D5",
"<X c gray84",
"1X c #D7D7D7",
"2X c #D8D8D8",
"3X c gray85",
"4X c #DADADA",
"5X c gray86",
"6X c gainsboro",
"7X c #DDDDDD",
"8X c gray87",
"9X c #DFDFDF",
"0X c gray88",
"qX c #E2E2E2",
"wX c gray89",
"eX c gray90",
"rX c #E6E6E6",
"tX c #E7E7E7",
"yX c gray91",
"uX c #E9E9E9",
"iX c #EAEAEA",
"pX c gray92",
"aX c #ECECEC",
"sX c gray93",
"dX c #EEEEEE",
"fX c #EFEFEF",
"gX c gray94",
"hX c #F1F1F1",
"jX c gray95",
"kX c #F3F3F3",
"lX c #F4F4F4",
"zX c gray96",
"xX c #F6F6F6",
"cX c gray97",
"vX c #F8F8F8",
"bX c #F9F9F9",
"nX c gray98",
"mX c #FBFBFB",
"MX c gray99",
"NX c #FDFDFD",
"BX c #FEFEFE",
"VX c white",
/* pixels */
"                                    . # . # . # . . # . # . # # . # . # . . # . . # #                           ",
"                                    g g l g g g l l g l g g g g g g g g l g l l g g y 8                         ",
"                            . . # c @.7.7.7.7.7.7.7.7.7.7.7.7.7.7.7.7.7.7.7.7.7.0.2./ 8 . .                     ",
"                            . . # V u.E.P.P.J.J.J.J.P.J.P.J.J.P.P.J.P.P.J.J.P.J.E.D.;.w . . .                   ",
"                            . . # N a.E.!.P.E.P.P.E.P.E.P.P.P.E.E.P.E.P.P.P.E.P.!.J.$.w . . .                   ",
"                          w y y a Q h.P.P.P.J.P.P.J.P.P.P.P.P.J.P.P.J.J.P.P.P.P.P.J.2.N y y y 8                 ",
"                    . . & N o.;.<.t.C.P.P.P.J.P.P.P.P.P.P.P.P.P.J.P.P.P.J.P.P.P.P.J.c.7.<.;./ y . .             ",
"                  . . . & K h.P.J.D.P.P.J.P.P.P.P.J.P.J.P.J.J.P.J.P.J.P.P.P.J.P.P.J.J.J.P.D.7.g # . .           ",
"                  . . . & U v.E.P.P.P.P.P.P.P.J.P.P.P.J.P.J.J.P.P.P.P.J.P.P.J.J.P.P.P.P.!.E.7.g . . .           ",
"                  . . . & W C.`.).!.P.P.P.J.P.J.J.J.P.P.P.P.P.P.P.J.P.P.J.P.P.P.P.J.P.P.P.J.2.a # . .           ",
"            . . . . . . ; | `.8X>XOX!.J.J.P.P.P.P.P.J.P.J.P.P.J.J.P.J.P.J.P.P.P.P.P.P.P.P.P.2.g . . .           ",
"          . . . . . . . ; $.>XNXmX>X).J.J.J.P.J.P.J.P.P.J.P.P.J.P.P.J.P.P.P.J.J.J.J.P.P.E.J.7.g # . .           ",
"          . . . . . . . ; $.>XNXmX8X!.J.J.J.J.J.P.P.J.P.J.P.P.P.P.J.P.J.P.P.P.P.P.P.P.E.!.E.7.g . . .           ",
"          8 w w w w w 8 g 7.8XNXmX8X[.!.E.E.E.P.J.P.P.J.P.P.J.P.P.P.P.J.P.J.P.J.P.P.J.v.v.c.$.a . . .           ",
"    . . y o.t.a.a.u.u.t.h.).uXmXmXuX2X-X-X$X).J.J.P.P.J.P.J.J.P.J.P.J.P.P.P.P.J.P.D.u.| W W c 6 . . . . . . .   ",
"  . . . a a.8XuXtXtXtXtXtXdXzXmXmXzXzXzXkX8X`.P.J.J.P.P.P.P.P.J.P.P.P.P.P.J.P.P.E.J.<.a & ; & . . . . . . . .   ",
"  . . . a B.zXNXNXNXNXNXNXNXNXmXmXmXNXNXNXtX[.P.J.P.E.E.E.P.E.E.E.P.E.E.E.P.E.E.).P.;.8 . . . . . . . . . . .   ",
"  . . . a a.8XdXtXtXtXtXtXdXkXkXkXdXkXzXkX8X`.P.J.J.C.C.B.B.B.C.B.B.B.C.B.B.B.C.C.v.o.8 . . . . . . . . . . .   ",
"    . . y | 0.u.t.t.t.t.u.J.OX-X-X-X-X-X&XOX!.P.P.B.<._ / _ _ _ _ _ _ _ _ _ _ _ _ / N , . . . . . . . . . . .   ",
"          8 8 8 8 8 6 6 a _ B.).!.!.!.!.!.E.E.P.P.u.D 6 ; , 6 , , , , 6 , , , 6 , , ; # . . . . . . . . . . .   ",
"          . . . . . . . # D h.P.J.P.P.P.P.P.J.P.J.0.l . . . . . . . . . . . . . . . . . . . . . . . . . . . .   ",
"          . . . . . . . & U c.!.E.P.D.C.D.J.J.E.E.a.D ; & & . . . . . . . . . . . . . . . . . . . . . . . . .   ",
"            . . . . . . ; _ E.-XOXD.7.| o.t.E.$X$X).u.$.@./ g # . . . . . . . . . . . . . . . . . . . . . . .   ",
"                  . . . ; @.&XzXuXD.D , 8 / ).dXkXuX2X>X2X)./ ; . . . . . . . . . . . . . . . . . . . . . . .   ",
"                  . . . ; ;.2XNXzXC.l . . D `.NXNXmXmXNXNX2X@.; . . . . . . . . . . . . . . . . . . . . . . .   ",
"                  . . . ; $.2XNXkXD.l . . D `.NXNXmXmXNXNX>X@.; . . . & & # & # & & # . . . . . . . . . . . .   ",
"                  . . . , ;.>XNXzXC.c . # K `.zXmXmXzXmXNX>X@.; . & l W _ / / / | Q M , . . . . . . . . . .     ",
"                  . . . ; ;.>XNXkXD.c . . K `.mXmXzXmXmXNX-Xo.; . 8 ;.).&X$XOX$X&XXX0.a . . . . . . . .         ",
"                  . . . ; $.>XNXkXC.l . # D ).mXNXmXzXmXNX&Xo.& . 6 t.qXNXNXNXNXNXzXC.l . . . . . . .           ",
"                  . . . ; ;.2XNXzXD.c . # K ).mXNXzXzXmXNX>X@.; . 8 t.tXNXNXmXNXNXdXC.l # . . . . . .           ",
"                  . . . ; ;.>XNXzX).$.D U 0.$XmXmXzXmXmXmX8Xh.Q D / J.uXNXmXmXzXNXkXC.l . . . . . .             ",
"                  . . . ; $.2XNXmXqXOX`.`.$XuXmXmXzXzXmXmXdX>X[.`.XX2XkXmXmXzXmXNXkXC.l . . . .                 ",
"                  . . . ; ;.2XNXmXmXmXmXmXmXmXzXzXmXzXmXzXmXmXNXNXmXmXmXNXmXmXmXNXkXD.l . . .                   ",
"                  . . . ; ;.2XNXmXmXmXNXNXmXmXzXmXzXmXmXmXzXmXNXNXNXmXmXmXmXzXmXNXdXC.l . . .                   ",
"                    . . ; | P.XXXX$X2XtXtXuXkXmXzXmXzXzXzXzXmXzXmXkX2XXX[.[.[.[.OX`.u.K g a a                   ",
"                          V D U W 2.J.XXXX&XdXzXmXzXmXzXmXmXzXmXmXqXC._ K K U W U U _ ;.7.2._ g . . .           ",
"                            # # & V a.E.P.XXtXNXNXmXNXmXmXNXmXNXNX8X7.w # # # # # & V a.E.J.2.g # . .           ",
"                            . . . N u.E.E.XXtXNXmXNXmXmXNXNXmXNXNXqX2.6 . . . . . # V a.!.E.7.g . . .           ",
"                            . . # M <.a.h.C.`.&X&X&X&X$X$X$X&X&X-X`.o., . . ; 8 w y Q h.!.P.2.g # . .           ",
"                              . . a M V V K / _ _ _ _ _ | _ _ _ | Q g & . & l | $.;.t.C.E.J.7.g . . .           ",
"                                    & & # & & & ; ; & ; & ; & ; & & # . . ; K h.P.J.J.P.P.J.7.a . . .           ",
"                                    . . . . . . . . . . . . . . . . . . . & U B.).!.E.P.E.P.2.g . . .           ",
"                                    . . . . . . . . . . . # 6 y y a a y w g / u.v.v.B.J.P.J.2.a # . .           ",
"                                        . . . . . . . . . 6 / u.v.h.c.h.c.a.<./ D K @.c.E.P.7.g . . .           ",
"                                            . . . . . . . a h.8XkXuXuXdXdX8Xa.a # ; K a.!.P.7.g # . .           ",
"                                            . . . . . . . g v.kXNXNXNXNXNXuXa.w . & V a.!.P.2.g . . .           ",
"                                            . . . . . . . a v.dXNXmXmXmXNXuXa.y . & V h.E.P.2.g . . .           ",
"                                            . . . . . . . a v.dXNXmXzXmXNXuXa.a . & V a.E.P.2.g # . .           ",
"                                            . . . . . . . a v.dXNXmXmXmXNXtXa.y . & V a.!.P.2.g . . .           ",
"                                            . . . . . . . a B.dXNXNXNXNXNXdXc.y . & D h.).E.7.g # . .           ",
"                                            ; & ; & ; ; & l c.8XdXuXuXuXdX2Xt.w . # N t.D.C.<.a . . .           ",
"                                      . # a D W W W U U K / ;.u.a.a.a.a.h.t.W , . # y U o.| U g                 ",
"                                    . . . g <.v.v.c.c.c.v.t.W y w w y w w w , # . . # , 8 6 ,                   ",
"                                    . . # l 0.!.E.E.E.E.!.c.V # . . . . . . . . . . . . . . .                   ",
"                                    . . . c 0.P.E.P.P.P.E.h.K , # & & & # # # . . . . . . . .                   ",
"                                    . . . c 0.P.P.P.J.P.P.B.$.K V V D D K V a & . . . . . .                     ",
"                                    . . # l 0.P.E.J.P.P.J.J.B.h.h.h.h.h.c.t.W , . . .                           ",
"                                    . . . c 0.E.E.E.P.P.E.P.E.E.!.!.E.E.).J.o.6 . .                             ",
"                                    . . # c 0.J.J.J.J.J.J.D.J.J.J.J.J.J.E.C.| 8 . .                             ",
"                                    . . . g _ <.<.<.;.<.<.<.<.<.<.;.<.<.<.$.K 6 . .                             ",
"                                          y y a a a a a a a a a a a a a a y w                                   ",
"                                            . . . . . . . . . . . . . . . . .                                   ",
"                                            . . . . . . . . . . . . . . . . .                                   ",
"                                          . . . . . . . . . . . . . . . . . .                                   "
};
