/* XPM */
static char *_1zon_p1left217233813741723381734[] = {
/* columns rows colors chars-per-pixel */
"55 64 242 2 ",
"   c None",
".  c black",
"X  c #010101",
"o  c #020202",
"O  c gray1",
"+  c #040404",
"@  c gray2",
"#  c #060606",
"$  c #070707",
"%  c gray3",
"&  c #090909",
"*  c gray4",
"=  c #0B0B0B",
"-  c #0C0C0C",
";  c gray5",
":  c #0E0E0E",
">  c gray6",
",  c #101010",
"<  c #111111",
"1  c gray7",
"2  c #131313",
"3  c gray8",
"4  c #151515",
"5  c #161616",
"6  c gray9",
"7  c #181818",
"8  c #191919",
"9  c gray10",
"0  c #1B1B1B",
"q  c gray11",
"w  c #1D1D1D",
"e  c #1E1E1E",
"r  c gray12",
"t  c #202020",
"y  c #222222",
"u  c #232323",
"i  c gray14",
"p  c #252525",
"a  c gray15",
"s  c #272727",
"d  c #282828",
"f  c gray16",
"g  c #2A2A2A",
"h  c gray17",
"j  c #2C2C2C",
"k  c #2D2D2D",
"l  c gray18",
"z  c #2F2F2F",
"x  c gray19",
"c  c #313131",
"v  c #323232",
"b  c gray20",
"n  c #343434",
"m  c #353535",
"M  c gray21",
"N  c #373737",
"B  c gray22",
"V  c #393939",
"C  c #3A3A3A",
"Z  c gray23",
"A  c #3C3C3C",
"S  c gray24",
"D  c #3E3E3E",
"F  c #3F3F3F",
"G  c gray25",
"H  c #414141",
"J  c gray26",
"K  c #434343",
"L  c #444444",
"P  c gray27",
"I  c #464646",
"U  c gray28",
"Y  c #484848",
"T  c #494949",
"R  c gray29",
"E  c #4B4B4B",
"W  c #4C4C4C",
"Q  c gray30",
"!  c #4E4E4E",
"~  c gray31",
"^  c #505050",
"/  c #515151",
"(  c gray32",
")  c #535353",
"_  c gray33",
"`  c #555555",
"'  c #565656",
"]  c #585858",
"[  c #5A5A5A",
"{  c #5B5B5B",
"}  c gray36",
"|  c #5D5D5D",
" . c gray37",
".. c #5F5F5F",
"X. c #606060",
"o. c gray38",
"O. c #626262",
"+. c #646464",
"@. c #656565",
"#. c gray40",
"$. c #676767",
"%. c #686868",
"&. c DimGray",
"*. c #6A6A6A",
"=. c gray42",
"-. c #6C6C6C",
";. c #6D6D6D",
":. c gray43",
">. c #6F6F6F",
",. c gray44",
"<. c #717171",
"1. c #727272",
"2. c gray45",
"3. c #747474",
"4. c gray46",
"5. c #767676",
"6. c #777777",
"7. c gray47",
"8. c #797979",
"9. c gray48",
"0. c #7B7B7B",
"q. c #7C7C7C",
"w. c gray49",
"e. c #7E7E7E",
"r. c gray50",
"t. c #808080",
"y. c #818181",
"u. c gray51",
"i. c #838383",
"p. c #848484",
"a. c #868686",
"s. c gray53",
"d. c #888888",
"f. c #898989",
"g. c gray54",
"h. c #8B8B8B",
"j. c gray55",
"k. c #8D8D8D",
"l. c #8E8E8E",
"z. c gray56",
"x. c #909090",
"c. c gray57",
"v. c #929292",
"b. c #939393",
"n. c gray58",
"m. c #959595",
"M. c gray59",
"N. c #979797",
"B. c #989898",
"V. c gray60",
"C. c #9A9A9A",
"Z. c #9B9B9B",
"A. c gray61",
"S. c #9D9D9D",
"D. c gray62",
"F. c #9F9F9F",
"G. c #A0A0A0",
"H. c gray63",
"J. c #A2A2A2",
"K. c gray64",
"L. c #A4A4A4",
"P. c #A5A5A5",
"I. c gray65",
"U. c #A7A7A7",
"Y. c gray66",
"T. c #A9A9A9",
"R. c #AAAAAA",
"E. c gray67",
"W. c #ACACAC",
"Q. c gray68",
"!. c #AEAEAE",
"~. c #AFAFAF",
"^. c gray69",
"/. c #B1B1B1",
"(. c #B2B2B2",
"). c gray70",
"_. c #B4B4B4",
"`. c gray71",
"'. c #B6B6B6",
"]. c #B7B7B7",
"[. c gray72",
"{. c #B9B9B9",
"}. c gray73",
"|. c #BBBBBB",
" X c #BCBCBC",
".X c gray74",
"XX c gray",
"oX c gray75",
"OX c #C0C0C0",
"+X c #C1C1C1",
"@X c gray76",
"#X c #C5C5C5",
"$X c #C6C6C6",
"%X c gray78",
"&X c #C8C8C8",
"*X c gray79",
"=X c #CACACA",
"-X c #CBCBCB",
";X c #CECECE",
":X c #D0D0D0",
">X c gray82",
",X c #D2D2D2",
"<X c gray83",
"1X c #D5D5D5",
"2X c #D7D7D7",
"3X c #D8D8D8",
"4X c #DADADA",
"5X c gray86",
"6X c gainsboro",
"7X c #DDDDDD",
"8X c gray87",
"9X c #DFDFDF",
"0X c gray88",
"qX c #E2E2E2",
"wX c gray89",
"eX c #E4E4E4",
"rX c gray90",
"tX c #E6E6E6",
"yX c gray91",
"uX c #E9E9E9",
"iX c #EAEAEA",
"pX c gray92",
"aX c #ECECEC",
"sX c gray93",
"dX c #EEEEEE",
"fX c #EFEFEF",
"gX c gray94",
"hX c #F1F1F1",
"jX c gray95",
"kX c #F3F3F3",
"lX c #F4F4F4",
"zX c gray96",
"xX c #F6F6F6",
"cX c gray97",
"vX c #F8F8F8",
"bX c #F9F9F9",
"nX c gray98",
"mX c #FBFBFB",
"MX c gray99",
"NX c #FDFDFD",
"BX c #FEFEFE",
"VX c white",
/* pixels */
"                                    . . . . . . . . . . . . . . . . . . . . . . .                             ",
"                                  . . . . . . . . . . . . . . . . . . . . . . . . .                           ",
"                                . . . . . . . . . . . . . . . . . . . . . . . . . .                           ",
"                                > > , > > > > > , , , , , , , > > > , , > > , , > >                           ",
"                          . . % h P ( ` ( ( ( ` ( ( ( ( ( ( ( ( ( ( ( ( ( ( ( ( ( P i . .                     ",
"                          . . % D e.D.B.M.M.M.M.B.M.M.M.B.M.B.M.M.B.M.M.M.M.B.B.M.6.j $ . .                   ",
"                          . . $ D l./.Q.E.E.Q.E.E.E.Q.E.E.E.Q.Q.Q.Q.E.Q.Q.Q.Q.Q.Q.t.c . . .                   ",
"                          % $ > P l.E.E.E.E.E.E.E.E.E.E.E.E.E.E.I.E.E.I.E.E.E.Q.E.t.n % % %                   ",
"                        j D G P %.B.Q.I.E.I.I.I.I.I.I.E.I.E.I.E.I.E.I.E.E.I.I.E.I.l.o.G G D h                 ",
"                  . . > R t.l.l.B.G.E.E.I.I.I.E.E.I.E.E.E.I.I.I.E.I.I.I.I.E.E.E.I.G.M.c.c.7.B % . .           ",
"                  . . > ( B./.Q.E.I.I.I.E.E.E.E.I.E.I.I.E.I.I.E.I.I.E.I.I.I.I.E.I.E.E.Q./.l.G % . . .         ",
"                  . . , ( B./.Q.E.E.I.E.I.I.I.I.E.I.I.E.I.I.I.E.E.I.I.E.I.E.E.I.E.I.E.Q./.l.G % . . .         ",
"                . . . ,  .Q.%X@X'.Q.I.E.I.I.E.I.E.I.I.E.I.I.E.I.I.E.E.E.I.I.I.E.E.I.E.E.E.g.G % . . .         ",
"        . . . . . . . 5 >.;XaXrX;X/.I.I.I.E.I.E.I.I.I.E.I.E.E.I.I.E.E.I.I.I.E.I.I.E.E.E.E.g.G % . . .         ",
"        . . . . . . . 5 6.8XNXcX3X/.G.I.I.E.E.I.E.I.I.E.I.E.E.I.I.I.I.I.I.I.E.I.I.I.E.Q.Q.l.G % . . .         ",
"        . . . . . . . 5 7.8XNXcX8X'.I.I.E.I.I.I.I.E.I.E.I.E.I.I.E.I.E.I.E.E.I.E.I.E.E.Q.Q.l.G % . . .         ",
"        n B B B B B n R B.rXNXcX0X%X'.|.'.Q.E.I.E.I.I.E.I.I.E.I.I.E.I.I.I.I.I.E.I.D.g.s.s.%.c $ . . .         ",
". . . c t.E.Q.Q.E.E.E./.,XhXnXcXhX0X8X8X;X'.E.I.I.I.E.I.I.E.E.I.I.E.I.E.I.I.E.E.E.g.` n c h 5 $ . . . . . .   ",
". . . B Q.hXnXcXcXcXhXcXcXnXnXcXnXnXnXnXrX XI.I.E.I.E.Q.E.I.E.E.E.E.E.E.E.E.E.Q.E.e.n % . . . . . . . . . . . ",
". . $ D /.nXNXnXnXNXNXNXnXnXnXcXNXnXnXnXrX|.I.I.E.E.E.Q.E.E.E.E.E.E.Q.E.E.E.Q.Q.Q.e.c . . . . . . . . . . . . ",
". . $ n M.;X<X,X,X,X,X,X8XrXaXiXiXiXiXiX3X|.I.E.G.B.l.l.l.c.l.c.l.l.l.l.l.l.l.c.l.%.h . . . . . . . . . . . . ",
"      c ~ o.o.o.o.o. .%.M. X;X*X*X*X*X%X X/.E.E.c.#.P D G G G G D G G P P G G G G c , . . . . . . . . . . . . ",
"        > % > % > % % 7 ` D.Q.E.Q.Q.E.Q.Q.E.I.E.s.D > $ % % $ $ $ $ $ $ $ $ $ $ $ $ $ . . . . . . . . . . . . ",
"        . . . . . . . % ~ c.E.I.I.E.E.E.E.I.I.I.t.c . . . . . . . . . . . . . . . . . . . . . . . . . . . . . ",
"        . . . . . . . , ` D.'./.I.B.M.B.D.E./.'.c.~ w 5 5 > . . . . . . . . . . . . . . . . . . . . . . . . . ",
"          . . . . . . 5 %. X3X,XG.#.R ~ 6./.<X<X@XD.t.t.>.n $ . . . . . . . . . . . . . . . . . . . . . . . . ",
"                . . . 5 7.3XnXiXB.n > , ( '.hXcXaXiXrXiX%X#., . . . . . . . . . . . . . . . . . . . . . . . . ",
"                  . . 5 7.8XNXaXB.i . $ G |.nXNXNXNXNXNX8X6.5 . . . . . . . . . . . . . . . . . . . . . . . . ",
"                  . . 5 7.8XNXaXB.j . $ P |.cXnXnXnXnXNX3X<., . . % > , , , , , , > . . . . . . . . . . . . . ",
"                  . . 5 7.8XNXaXB.h . $ P |.cXNXnXnXnXNX3X<., . $ j { >.>.%.%.>.%.~ w . . . . . . . . . . .   ",
"                  . . 5 7.8XNXaXB.j . $ P |.cXnXnXnXnXnX3X>.> . >  .|.3X<X3X<X3X<XD.D $ . . . . . . .         ",
"                  . . 5 7.0XNXaXB.i . $ G |.cXnXcXnXcXNX3X>.> . , <.0XNXNXNXNXNXNX XR . . . . . . . .         ",
"                  . . 5 6.8XNXiXB.h $ % R |.cXNXcXnXnXnX3X6., . 7 <.3XNXNXnXnXnXnX|.P . . . . . . . .         ",
"                  . . 5 7.8XNXhX|.>.~ ` t.;XnXnXnXnXnXnX0XD.o.R  .D.rXnXnXnXnXnXcX|.P $ . . . . . .           ",
"                  . . 5 7.0XNXnXrX,X%X%X<XiXcXnXnXcXnXnXcX3X*X%X*X3XcXnXnXnXnXnXnX|.R . . . .                 ",
"                  . . 5 e.0XNXNXNXnXnXnXnXnXnXcXcXcXnXnXnXnXnXnXnXnXnXNXnXNXNXnXNX XP . . .                   ",
"                  . . 7 7.8XnXnXnXnXnXnXnXnXnXcXcXcXcXnXcXnXnXnXnXnXcXcXcXcXcXcXcX|.P $ . .                   ",
"                  . . 5 o.E. X X*X8XrXrXaXhXcXnXnXnXcXcXnXnXnXnXhX8X@X|.|.'.|.|.|.c.( j h h t                 ",
"                        j P G R <.Q.@X X;XiXcXnXnXnXnXcXnXnXnXNXaXE. .G P P G P P ( %.7.e.%.B > . .           ",
"                          $ $ > G l.Q.Q.@XiXnXnXnXnXnXnXnXnXnXNXiXg.t . $ $ . $ $ j 7.E./.g.G % . . .         ",
"                          . . % D g.E.Q.@XiXnXnXnXnXnXnXnXnXnXNXiXg.w . . . . . . i 7.Q.'.l.G % . . .         ",
"                          . . % B 6.g.g.B. X;X*X*X*X*X*X*X;X*X,X X<.7 . . . . . . h 7.E.Q.g.G % . . .         ",
"                                i B D D P ( { {  .{ {  .{  . . .( c > . . . . . . j 7.E.Q.l.G % . . .         ",
"                                  % $ $ % > % % % > % % % % % % % $ . . . . . . . h 7.E.Q.c.G % . . .         ",
"                                  . . . . . . . . . . . . . . . . . . . . . . . . h e.Q./.l.G % . . .         ",
"                                . . . . . . . . . . . . . . . . $ > w t t t t w w D <.M.B.7.B $ . . .         ",
"                  . . . . . . . . . . . . . . . . . . . . . . . % D 6.g.g.g.s.g.g.7.o.R ~ D w $ . . .         ",
"                  . . . . . . . . . . . . . . . . . . . . . . . > #.*XaXaXrXrXiXiXQ.R > % > . . . . .         ",
"                  . . . . . . . . . . . . . . . . . . . . . . . , <.0XNXNXnXNXNXNX XR . . . . . . . .         ",
"                , > % > > > > > % $ . . $ % > % > > % > > % . . , >.8XNXnXnXnXnXnX|.P $ . $ % > , > >         ",
"          . . 7 n R ~ ~ ~ ~ ~ P j , . . 5 B ~ ~ ~ ~ ~ ( P i $ . 5 >.3XNXnXnXnXnXnX|.P . . % j ~ ( R c > . .   ",
"        . . . w  .l.B.c.M.M.B.l.{ 7 . $ h >.M.M.c.M.B.B.t.G % . , >.3XNXnXnXnXNXnX|.R . . w { c.D.s.~ , . . . ",
"        . . . 7 #.E.|.Q.Q.Q./.I.#.w . . c t./././././.'.B.~ % . , <.0XNXNXNXNXNXnX XP . . 7 %.I.'.B.( > . . . ",
"        . . . 7 o.B.I.I.I.E.Q.I.>.t $ % c e.I.I.G.I.I.E.c.P > . , >.,XcXhXhXhXhXaX'.R % $ t %.I./.B.( > . . . ",
"          . . 7 P %.>.<.g.G.Q.I.e.~ n D ~  .%.>.%.>.%.>. .j % . % P g.G.D.D.D.D.D.s. .D B ( e.I./.B.` > . . . ",
"                t w 7 h o.B.E.E.D.l.l.g.>.B w w t w t t 7 > $ . $ , h j j j j h h P >.g.g.c.B.E.Q.B.( > . . . ",
"                  . . > ( B./.Q.Q.Q.'.Q.7.h . . $ . . . . . . . . . . . . $ . . . h 7.Q./.Q.E.Q./.B.` , . . . ",
"                  . . > ~ M.Q.I.I.E.Q.E.7.h $ . . . . . . . . . . . . . . . . . . h 7.E.Q.E.E.E.E.M.( > . . . ",
"                  . . , G >.e.7.6.6.e.7.( w . . . . . . . . . . . . . . . . . . . i { 6.7.7.6.7.e.>.P > . .   ",
"                        h i h h h h h h w > . . . .                               w i h j h h h j i i         ",
"                          . . $ $ . $ . . . . . .                                   $ $ . . . . $ . $         ",
"                          . . . . . . . . . . . .                                   . . . . . . . . .         ",
"                          . . . . . . . . . . . .                                   . . . . . . . .           ",
"                                                                                                              "
};
