/* XPM */
static char *_1zon_p1right117233813741723381734[] = {
/* columns rows colors chars-per-pixel */
"52 64 248 2 ",
"   c None",
".  c black",
"X  c #010101",
"o  c #020202",
"O  c gray1",
"+  c #040404",
"@  c gray2",
"#  c #060606",
"$  c #070707",
"%  c gray3",
"&  c #090909",
"*  c gray4",
"=  c #0B0B0B",
"-  c #0C0C0C",
";  c gray5",
":  c #0E0E0E",
">  c gray6",
",  c #101010",
"<  c #111111",
"1  c gray7",
"2  c #131313",
"3  c gray8",
"4  c #151515",
"5  c #161616",
"6  c gray9",
"7  c #181818",
"8  c #191919",
"9  c gray10",
"0  c #1B1B1B",
"q  c gray11",
"w  c #1D1D1D",
"e  c #1E1E1E",
"r  c gray12",
"t  c #202020",
"y  c gray13",
"u  c #222222",
"i  c #232323",
"p  c gray14",
"a  c #252525",
"s  c gray15",
"d  c #272727",
"f  c #282828",
"g  c gray16",
"h  c #2A2A2A",
"j  c gray17",
"k  c #2C2C2C",
"l  c #2D2D2D",
"z  c gray18",
"x  c #2F2F2F",
"c  c gray19",
"v  c #313131",
"b  c #323232",
"n  c #343434",
"m  c #353535",
"M  c #393939",
"N  c gray23",
"B  c #3C3C3C",
"V  c gray24",
"C  c #3E3E3E",
"Z  c gray25",
"A  c #414141",
"S  c gray26",
"D  c #434343",
"F  c #444444",
"G  c gray27",
"H  c #464646",
"J  c gray28",
"K  c #484848",
"L  c #494949",
"P  c gray29",
"I  c #4B4B4B",
"U  c #4C4C4C",
"Y  c gray30",
"T  c #4E4E4E",
"R  c gray31",
"E  c #505050",
"W  c #515151",
"Q  c gray32",
"!  c #535353",
"~  c gray33",
"^  c #555555",
"/  c #565656",
"(  c gray34",
")  c #585858",
"_  c gray35",
"`  c #5A5A5A",
"'  c #5B5B5B",
"]  c #5D5D5D",
"[  c gray37",
"{  c #5F5F5F",
"}  c #606060",
"|  c gray38",
" . c #626262",
".. c gray39",
"X. c #646464",
"o. c #656565",
"O. c gray40",
"+. c #676767",
"@. c #686868",
"#. c DimGray",
"$. c #6A6A6A",
"%. c gray42",
"&. c #6C6C6C",
"*. c #6D6D6D",
"=. c gray43",
"-. c #6F6F6F",
";. c gray44",
":. c #717171",
">. c #727272",
",. c gray45",
"<. c #747474",
"1. c gray46",
"2. c #767676",
"3. c #777777",
"4. c #797979",
"5. c gray48",
"6. c #7B7B7B",
"7. c #7C7C7C",
"8. c gray49",
"9. c #7E7E7E",
"0. c gray50",
"q. c #808080",
"w. c #818181",
"e. c gray51",
"r. c #838383",
"t. c #848484",
"y. c gray52",
"u. c #868686",
"i. c gray53",
"p. c #888888",
"a. c #898989",
"s. c gray54",
"d. c #8B8B8B",
"f. c gray55",
"g. c #8D8D8D",
"h. c #8E8E8E",
"j. c gray56",
"k. c #909090",
"l. c gray57",
"z. c #929292",
"x. c #939393",
"c. c gray58",
"v. c #959595",
"b. c gray59",
"n. c #979797",
"m. c #989898",
"M. c gray60",
"N. c #9A9A9A",
"B. c #9B9B9B",
"V. c gray61",
"C. c #9D9D9D",
"Z. c gray62",
"A. c #9F9F9F",
"S. c #A0A0A0",
"D. c gray63",
"F. c #A2A2A2",
"G. c gray64",
"H. c #A4A4A4",
"J. c #A5A5A5",
"K. c gray65",
"L. c #A7A7A7",
"P. c gray66",
"I. c #A9A9A9",
"U. c #AAAAAA",
"Y. c gray67",
"T. c #ACACAC",
"R. c gray68",
"E. c #AEAEAE",
"W. c #AFAFAF",
"Q. c gray69",
"!. c #B1B1B1",
"~. c #B2B2B2",
"^. c gray70",
"/. c #B4B4B4",
"(. c gray71",
"). c #B6B6B6",
"_. c #B7B7B7",
"`. c gray72",
"'. c #B9B9B9",
"]. c gray73",
"[. c #BBBBBB",
"{. c #BCBCBC",
"}. c gray74",
"|. c gray",
" X c gray75",
".X c #C0C0C0",
"XX c #C1C1C1",
"oX c gray76",
"OX c #C3C3C3",
"+X c gray77",
"@X c #C5C5C5",
"#X c #C6C6C6",
"$X c gray78",
"%X c #C8C8C8",
"&X c gray79",
"*X c #CACACA",
"=X c #CBCBCB",
"-X c gray80",
";X c #CDCDCD",
":X c #CECECE",
">X c #D0D0D0",
",X c gray82",
"<X c #D2D2D2",
"1X c LightGray",
"2X c gray83",
"3X c #D5D5D5",
"4X c gray84",
"5X c #D7D7D7",
"6X c #D8D8D8",
"7X c gray85",
"8X c #DADADA",
"9X c gray86",
"0X c gainsboro",
"qX c #DDDDDD",
"wX c gray87",
"eX c #DFDFDF",
"rX c gray88",
"tX c #E1E1E1",
"yX c #E2E2E2",
"uX c gray89",
"iX c #E4E4E4",
"pX c gray90",
"aX c #E6E6E6",
"sX c #E7E7E7",
"dX c gray91",
"fX c #E9E9E9",
"gX c #EAEAEA",
"hX c gray92",
"jX c #ECECEC",
"kX c gray93",
"lX c #EEEEEE",
"zX c #EFEFEF",
"xX c gray94",
"cX c #F1F1F1",
"vX c gray95",
"bX c #F3F3F3",
"nX c #F4F4F4",
"mX c gray96",
"MX c #F6F6F6",
"NX c gray97",
"BX c #F8F8F8",
"VX c #F9F9F9",
"CX c gray98",
"ZX c #FBFBFB",
"AX c gray99",
"SX c #FDFDFD",
"DX c #FEFEFE",
"FX c white",
/* pixels */
"                        X X X X X X X X X X X X X X X X X X X X X X X X                                 ",
"                      X X X X X X X X X X X X X X X X X X X X X X X X                                   ",
"                      X X X X X X X X X X X X X X X X X X X X X X X X                                   ",
"                      a z z z z z z z z z z z z z z z z z z z z z z j u                                 ",
"                X X , U 3.w.9.9.9.9.9.9.9.9.9.9.9.9.9.9.4.9.w.9.9.w.:.V : X X                           ",
"              X X X , ( Z.E.I.I.I.I.I.I.L.I.I.I.I.I.I.I.L.I.I.I.E.E.b.J & X X                           ",
"              X X X 3 ` Z.E.I.I.I.E.I.I.I.I.I.I.I.I.I.I.E.I.I.I.E.E.b.L & X X                           ",
"              a z j V :.S.E.I.I.I.I.I.I.I.I.I.L.I.I.I.I.L.I.I.I.I.I.N.} m z z z                         ",
"        X X , L 4.w.u.b.L.I.L.L.I.I.I.I.I.L.I.I.L.I.I.I.L.I.L.I.I.I.S.l.w.w.:.V & X X                   ",
"      X X X , ` Z.E.I.I.I.L.I.I.L.L.L.L.L.I.I.L.L.I.L.L.L.I.I.L.I.I.I.I.L.E.b.J & X X                   ",
"      X X X , ` Z.E.I.I.L.L.I.L.L.I.L.I.L.I.L.I.I.L.L.I.I.L.I.L.I.I.I.I.E.E.b.L & X X                   ",
"      X X X , ` Z.E.I.L.I.L.L.L.I.I.L.I.L.I.L.L.I.L.L.I.L.L.L.I.L.I.I.~..X@XL.E & X X X                 ",
"      X X X , ( Z.E.I.I.L.L.I.L.I.L.I.L.I.I.L.I.L.I.I.L.L.I.I.I.L.L.~.&XsXjX&X} : X X X X X X           ",
"      X X X 3 ` Z.~.I.I.L.I.L.I.I.L.I.L.I.I.L.I.L.I.L.I.I.L.I.L.I.S.~.3XMXFX3XX.& X X X X X X           ",
"      X X X , ( N.I.I.I.L.L.I.I.I.L.I.L.L.L.L.I.L.I.I.L.I.L.I.I.L.L.~.3XZXFX3X$., # # # # # #           ",
"      X X X : V *.3.4.l.S.I.I.I.L.I.L.L.L.I.I.L.I.L.I.L.I.I.I.(.|.|.@XyXMXFXyXb.( J L L U U L D         ",
"X X X X X X X 3 u u b $.Z.E.I.L.L.L.I.L.L.I.I.L.I.L.L.I.I.L.~.&XyXsXfXjXMXZXjX8X@X.X.X.X@X@XI.` & X X   ",
"X X X X X X X X X X , ` S.~.E.I.I.E.E.I.E.I.I.E.E.I.I.I.L.L.~.3XMXFXFXFXZXZXZXFXFXFXFXFXFXFX8X$.: X X   ",
"X X X X X X X X X X : ` N.I.I.L.L.L.L.L.L.L.L.L.I.I.I.I.L.L.~.3XMXZXZXMXZXMXMXZXMXMXMXMXMXZX3XX.& X X   ",
"X X X X X X X X X X : V $.4.:.3.:.3.:.:.3.:.3.:.:.:.4.f.L.L.E.@X8XyXqXqXqXyX8X|.I.L.L.I.I.I.N.E & X X   ",
"X X X X X X X X X X X , u a u u u a u u r u u u u r b *.Z.E.I.~.].].].].].].L.$.N b m b m b b           ",
"X X X X X X X X X X X X X X X X X X X X X X X X X X & ` Z.I.L.I.I.I.I.L.L.I.l.D & X X X X X X           ",
"X X X X X X X X X X X X X X X X X X X X X X X # & # 3 ] S.E.I.L.L.L.L.L.I.E.l.J # X X X X X X           ",
"X X X X X X X X X X X X X X X X X X X X X X # z U E } l.].&X].l.3.*.4.Z..X&XI.( & X X X X               ",
"X X X X X X X X X X X X X X X X X X X X X X 3 *.|.:X&X8XsXjX,X4.a 3 N l.yXMX&X] : X X                   ",
"X X X X X X X X X X X X X X X X X X X X X X r p.jXFXZXFXZXFXqX$.: X u f.fXFX8X$.: X X                   ",
"X X X X X X X X X X X X & & # # & # # X X X r p.fXFXZXZXFXFXqX$., X r f.fXFX8XX.: X X                   ",
"X X X X X X X X X X & z U ( ( ( ( ` U a # X 8 p.fXFXZXMXMXFX8X*., X r f.jXFX8X$.: X X                   ",
"      X X X X X X X 3 *.|.,X&X&X&X:X(.] : X r p.fXFXZXMXZXFX8X$., X r l.fXFX8XX.: X X                   ",
"      X X X X X X X 8 p.jXFXFXZXFXFXyX*.: X 3 u.fXFXMXMXZXFX8XX.: X r p.jXFX8X$.: X X                   ",
"      X X X X X X X 8 w.fXFXZXZXZXFXqX3.3 X u f.fXFXZXZXZXFX8X*.3 # u l.jXFX8XX.: X X                   ",
"        X X X X X X 8 u.sXFXZXMXZXZXsXS.] E $.E.xXFXMXMXMXFXsXZ.] U $.(.xXFX3X$.: X X                   ",
"              X X X 8 w.sXFXZXZXMXZXxXqX:X&X:XyXxXZXMXZXMXZXxXqX:X&X,XsXMXFX3X$.: X X                   ",
"              X X X 3 u.fXFXFXFXFXFXFXFXZXFXFXFXZXMXZXMXMXMXZXZXFXFXFXFXFXFX8X$.: X X                   ",
"              # # X r w.yXMXxXxXxXMXMXMXZXZXZXZXZXMXZXMXZXMXZXZXMXZXMXMXMXMX,XX.: X X                   ",
"              b N N J :.N.S.Z.Z.Z.N.I.:XxXZXMXMXZXMXMXZXMXZXMXfXqX8X,X(.S.Z.f.( : X X                   ",
"        X X , U w.l.w.` b a j j a a D N.jXFXZXMXMXMXMXMXZXZXjX,X].(.L.} b a j                           ",
"      X X X , ` S.].N.U # X X X X X 3 u.jXFXFXZXFXFXFXFXFXFXMX:XE.E.l.J # X X                           ",
"      X X X , ( Z.(.N.E : X # X X X 8 w.sXMXxXxXxXjXjXxXxXxXfX@XI.L.f.J & X X                           ",
"      X X X 3 ` N.~.Z.*.J V N 8 X X , ( l.Z.Z.N.Z.N.N.Z.N.N.b.9.$.$.] N & X X                           ",
"      X X X , ` Z.E.L.N.l.f.w.D & X # 3 a j a j j a j j j a a u r 8 8 3                                 ",
"      X X X , ( N.E.L.I.~.].S.U & X X X X X X X X X X X X X X X X X X X                                 ",
"      X X X , ` Z.E.I.L.L.I.b.E , & & & & # # X X X X X X X X X X X X                                   ",
"      X X X , ` N.~.S.u.$.X.X.X.} } } } } X.( z # X X X X X X X X X X                                   ",
"      X X X , ( N.~.N.] u 3 z 9.@X3X,X:X3X8X].] : X X X X X X X                                         ",
"      X X X , ` Z.~.b.U & X 3 u.jXFXFXFXFXFXqX:., X X X X X X X                                         ",
"      X X X , ` Z.~.N.U & X 8 u.fXFXZXZXZXFXqX:., X X X X X X X                                         ",
"      X X X , ` N.~.b.E & X 8 u.fXFXZXMXZXFXqX:.: X X X X X X X                                         ",
"      X X X , ` Z.~.N.U : X 8 u.fXFXZXZXZXZXqX:., X X X X X X X                                         ",
"      X X X , ` S.(.Z.U : X 8 u.fXFXFXZXFXFXyX:., X X X X X X X                                         ",
"      X X X : ( N.I.b.U & X 8 w.qXMXjXjXjXxX,X*.3 X & # & & & #                                         ",
"        X X , D ] X.` z # X , U p.b.b.l.l.b.p.$.L D J J J J V b                                         ",
"              3 8 8 3 & X X X 3 u u u u u u z } f.b.l.l.l.b.w.D & X X                                   ",
"              X X X X X X X X X X X X X X X : ] S.~.E.E.E.~.b.L : X X X                                 ",
"              X X X X X X X X # & & & & & # 8 } S.E.I.I.I.E.b.J & X X X                                 ",
"                X X X X X X & a D L J L J D U 9.L.I.L.L.I.E.b.L & X X X                                 ",
"                      X X X : E p.N.l.l.b.l.b.Z.I.I.I.I.I.E.b.L & X X X                                 ",
"                      X X X 3 ] L.(.~.~.~.~.~.~.E.I.E.E.E.~.b.L & X X X                                 ",
"                      X X X , ` b.L.L.S.S.S.L.S.S.Z.S.S.S.S.f.L : X X                                   ",
"                        X X : V ` } ] ] ] ] ] ] ] ] ] ] } } ( m & X                                     ",
"                              3 , 3 3 3 3 3 3 , 3 , 3 3 3 3 3 ,                                         ",
"                              X X X X X X X X X X X X X X X X X                                         ",
"                              X X X X X X X X X X X X X X X X X                                         ",
"                              X X X X X X X X X X X X X X X X X     X X                                 "
};
