/* XPM */
static char *_1zon_p1right217233813741723381734[] = {
/* columns rows colors chars-per-pixel */
"56 64 243 2 ",
"   c None",
".  c black",
"X  c #010101",
"o  c #020202",
"O  c gray1",
"+  c #040404",
"@  c gray2",
"#  c #060606",
"$  c #070707",
"%  c gray3",
"&  c #090909",
"*  c gray4",
"=  c #0B0B0B",
"-  c #0C0C0C",
";  c gray5",
":  c #0E0E0E",
">  c gray6",
",  c #101010",
"<  c #111111",
"1  c gray7",
"2  c #131313",
"3  c gray8",
"4  c #151515",
"5  c gray9",
"6  c #181818",
"7  c #191919",
"8  c gray10",
"9  c #1B1B1B",
"0  c gray11",
"q  c #1D1D1D",
"w  c #1E1E1E",
"e  c gray12",
"r  c #202020",
"t  c gray13",
"y  c #222222",
"u  c #232323",
"i  c gray14",
"p  c #252525",
"a  c gray15",
"s  c #272727",
"d  c #282828",
"f  c gray16",
"g  c #2A2A2A",
"h  c gray17",
"j  c #2C2C2C",
"k  c #2D2D2D",
"l  c gray18",
"z  c #2F2F2F",
"x  c gray19",
"c  c #313131",
"v  c #323232",
"b  c gray20",
"n  c #343434",
"m  c #353535",
"M  c gray21",
"N  c #373737",
"B  c gray22",
"V  c #393939",
"C  c #3A3A3A",
"Z  c gray23",
"A  c #3C3C3C",
"S  c gray24",
"D  c #3E3E3E",
"F  c #3F3F3F",
"G  c gray25",
"H  c #414141",
"J  c gray26",
"K  c #434343",
"L  c #444444",
"P  c gray27",
"I  c #464646",
"U  c gray28",
"Y  c #484848",
"T  c #494949",
"R  c gray29",
"E  c #4B4B4B",
"W  c #4C4C4C",
"Q  c #4E4E4E",
"!  c gray31",
"~  c #515151",
"^  c gray32",
"/  c #535353",
"(  c gray33",
")  c #555555",
"_  c #565656",
"`  c gray34",
"'  c #585858",
"]  c gray35",
"[  c gray36",
"{  c #5D5D5D",
"}  c gray37",
"|  c #5F5F5F",
" . c #606060",
".. c gray38",
"X. c #626262",
"o. c gray39",
"O. c #646464",
"+. c #656565",
"@. c gray40",
"#. c #676767",
"$. c #686868",
"%. c DimGray",
"&. c #6A6A6A",
"*. c gray42",
"=. c #6C6C6C",
"-. c #6D6D6D",
";. c gray43",
":. c #6F6F6F",
">. c gray44",
",. c #717171",
"<. c gray45",
"1. c #747474",
"2. c gray46",
"3. c #767676",
"4. c #777777",
"5. c gray47",
"6. c #797979",
"7. c gray48",
"8. c #7B7B7B",
"9. c #7C7C7C",
"0. c gray49",
"q. c #7E7E7E",
"w. c gray50",
"e. c #808080",
"r. c #818181",
"t. c gray51",
"y. c #838383",
"u. c #848484",
"i. c gray52",
"p. c #868686",
"a. c #888888",
"s. c #898989",
"d. c #8B8B8B",
"f. c gray55",
"g. c #8D8D8D",
"h. c #8E8E8E",
"j. c gray56",
"k. c #909090",
"l. c gray57",
"z. c #929292",
"x. c #939393",
"c. c gray58",
"v. c #959595",
"b. c gray59",
"n. c #979797",
"m. c #989898",
"M. c gray60",
"N. c #9A9A9A",
"B. c #9B9B9B",
"V. c gray61",
"C. c #9D9D9D",
"Z. c gray62",
"A. c #9F9F9F",
"S. c #A0A0A0",
"D. c gray63",
"F. c #A2A2A2",
"G. c gray64",
"H. c #A4A4A4",
"J. c #A5A5A5",
"K. c gray65",
"L. c #A7A7A7",
"P. c gray66",
"I. c #A9A9A9",
"U. c #AAAAAA",
"Y. c gray67",
"T. c #ACACAC",
"R. c gray68",
"E. c #AEAEAE",
"W. c #AFAFAF",
"Q. c gray69",
"!. c #B1B1B1",
"~. c #B2B2B2",
"^. c gray70",
"/. c #B4B4B4",
"(. c gray71",
"). c #B6B6B6",
"_. c #B7B7B7",
"`. c gray72",
"'. c #B9B9B9",
"]. c gray73",
"[. c #BBBBBB",
"{. c #BCBCBC",
"}. c gray74",
"|. c gray",
" X c #C0C0C0",
".X c #C1C1C1",
"XX c gray76",
"oX c #C3C3C3",
"OX c gray77",
"+X c #C5C5C5",
"@X c #C6C6C6",
"#X c gray78",
"$X c #C8C8C8",
"%X c gray79",
"&X c #CACACA",
"*X c #CBCBCB",
"=X c gray80",
"-X c gray81",
";X c #D0D0D0",
":X c gray82",
">X c #D2D2D2",
",X c LightGray",
"<X c gray83",
"1X c #D5D5D5",
"2X c #D7D7D7",
"3X c #D8D8D8",
"4X c gray85",
"5X c #DADADA",
"6X c #DDDDDD",
"7X c gray87",
"8X c #DFDFDF",
"9X c gray88",
"0X c #E1E1E1",
"qX c #E2E2E2",
"wX c gray89",
"eX c #E4E4E4",
"rX c gray90",
"tX c #E6E6E6",
"yX c #E7E7E7",
"uX c gray91",
"iX c #E9E9E9",
"pX c #EAEAEA",
"aX c gray92",
"sX c #ECECEC",
"dX c gray93",
"fX c #EEEEEE",
"gX c #EFEFEF",
"hX c gray94",
"jX c #F1F1F1",
"kX c gray95",
"lX c #F3F3F3",
"zX c #F4F4F4",
"xX c gray96",
"cX c #F6F6F6",
"vX c gray97",
"bX c #F8F8F8",
"nX c #F9F9F9",
"mX c gray98",
"MX c #FBFBFB",
"NX c gray99",
"BX c #FDFDFD",
"VX c #FEFEFE",
"CX c white",
/* pixels */
"                        . . . . . . . . . . . . . . . . . . . . . . . . . .                                     ",
"                        . . . . . . . . . . . . . . . . . . . . . . . . + .                                     ",
"                        6 6 6 6 6 6 6 4 6 6 6 6 6 6 6 6 6 6 6 6 6 6 6 6 6 4                                     ",
"                      0 K | ....@.......@.........| @...@.................Q l                                   ",
"                . . . 6 ..n.G.C.C.C.C.C.G.C.C.C.C.C.G.C.C.C.C.C.C.C.C.C.G.8.l . . .                             ",
"                . . . 0 @.H.^.R.R.R.R.R.R.R.R.R.R.R.R.R.R.I.R.R.R.I.^.^.I.9.l + . .                             ",
"                ; & & i *.G.R.I.I.I.I.I.I.I.I.I.I.I.I.I.I.I.I.I.I.I.R.R.I.t.B ; & &                             ",
"              i A Y Y ] t.H.I.I.I.H.I.I.I.H.I.I.I.I.H.I.I.I.H.I.H.I.H.I.I.k.@.Y Y K c                           ",
"        . . + d ;.k.k.k.G.I.H.I.I.I.I.I.I.I.I.I.I.I.I.I.I.H.I.I.I.I.H.I.I.G.n.k.n.9.K & . .                     ",
"      . . . . c 8.R.^.R.H.I.I.I.H.I.I.H.H.I.H.I.I.H.I.I.I.I.I.H.I.I.I.I.I.I.H.R.I.k.I ; . .                     ",
"      . . . + c 9.I.R.I.I.I.I.H.I.I.I.I.I.I.H.I.I.H.I.H.I.I.I.I.H.I.I.H.I.H.I.R.R.k.Y ; . .                     ",
"      . . . . c 8.I.I.I.H.I.I.I.I.H.I.I.I.I.I.I.I.I.I.I.I.H.I.I.I.I.I.I.I.R.'..X#XG.~ & . . .                   ",
"      . . . . l 9.I.I.I.I.I.I.I.H.I.I.H.I.I.H.I.I.I.I.I.H.I.I.H.I.I.H.I.I.).,XrXiX.X| ; . . . . . . .           ",
"      . . . + c 9.I.^.I.I.I.H.I.I.I.I.I.H.I.I.I.I.H.H.I.I.I.I.I.H.I.I.H.H.|.wXMXCX<X*.; . . . . . . .           ",
"        . . . c 9.R.R.I.I.I.I.I.I.I.I.I.I.I.I.I.I.I.I.I.I.I.I.I.I.I.I.G.I.|.wXMXCX,X@.; . . . + . . .           ",
"      . . . + d @.d.h.k.C.H.I.I.H.I.I.H.I.I.H.I.I.H.I.I.H.I.I.H.I.R.^.^.).#XwXMXCX<Xt.n i l l d l l l           ",
"    . . . . . 1 l A K ) t.G.R.H.I.I.I.I.I.I.I.H.I.I.I.I.I.I.I.I.I.|.,X4X4XwXgXMXCXiX|.C.n.n.B.B.C.n.3.c +       ",
". . . . . . . + & + + i *.G.R.I.I.I.I.I.I.I.I.R.I.I.I.I.I.H.I.I.I.#XrXzXMXzXzXzXMXMXjXgXgXgXgXgXgXiXI.B + . .   ",
". . . . . . . . . . . 0 @.G.^.R.R.R.R.I.R.R.R.R.I.R.R.I.R.I.H.H.R.$XjXCXCXMXMXMXMXMXCXCXCXCXCXCXCXMX^.A + . .   ",
". . . . . . . . . . . 0 | k.B.B.B.B.B.B.B.n.B.B.B.n.B.B.B.G.I.I.I.#XrXjXjXjXjXjXjXiXiXwX6XwXrXrXrX6XG.A . . .   ",
". . . . . . . . . . . ; n ) ] ] ] ) ] ) ) ) ] ) ) ] ) ] ..t.G.I.I.).-X,X,X,X-X,X,X#XG.u.u.t.t.t.t.9.@.K         ",
". . . . . . . . . . . + ; 1 1 4 1 1 4 4 1 4 1 4 4 4 1 1 t ..B.I.I.R.^.^.^.^.R.).^.B.] i 6 0 6 0 0 0 t           ",
". . . . . . . . . . . . . . . . . . . . . . . . . . . . & ~ n.I.I.I.H.I.I.I.H.I.H.h.K + . . . . . . .           ",
". . . . . . . . . . . . . . . . . . . . . . . . . + & & 6 | B.R.I.H.G.G.H.H.I.R.R.k.Y & . . . . . . .           ",
". . . . . . . . . . . . . . . . . . . . . . . . 1 n ~ ~ ..h.'.#X.XH.9.;.;.u.I.#X$XH.~ & . . . . . .             ",
". . . . . . . . . . . . . . . . . . . . . . . + d t.|.$X$X,XwXgXwXC.I 0 t ) R.iXjX#X..1 . . .                   ",
". . . . . . . . . . . . . . . . . . . . . . . + B H.jXCXMXMXMXCXiXn.d . . K ^.zXCX,X*.; . .                     ",
". . . . . . . . . . . . . + . + + . + . . . . . n I.zXCXMXMXMXCXgXB.d . + A ^.zXCX,X@.1 . .                     ",
". . . . . . . . . . . & t n n n n n c n i ; . + n H.jXCXzXMXMXCXiXB.l . + K R.zXCX,X*.1 . .                     ",
"      . . . . . . . . 0 @.C.I.H.H.H.I.G.;.t . . n H.jXCXzXMXMXCXgXn.l . + K ^.zXCX,X@.; . .                     ",
"      . . . . . . . . d k.rXzXjXjXgXzXgXG.n . . n G.jXCXMXMXMXCXiXB.d + + A ^.zXCX,X*.; . .                     ",
"      . . . . . . . . d C.zXCXCXCXCXCXzXI.n . . l G.jXCXMXzXzXCXiXn.i . + B R.zXCX,X@.1 . .                     ",
"        . . . . . . . l n.gXCXMXzXMXCXzX^.Q 0 6 Q R.jXCXMXMXMXCXgXH.I 6 0 ~ '.zXCX,X@.1 . .                     ",
"              . . . . d k.iXCXMXMXMXMXzX,XC.9.9.C.-XzXCXMXzXzXCXjX$Xk.9.t.G.4XMXCX,X*.; . .                     ",
"                . . . d B.gXCXMXMXjXzXMXjXrXwXwXiXgXzXMXMXzXMXzXMXjXrXwXwXrXjXMXCX,X*.; . .                     ",
"                . . . d B.jXCXCXCXCXCXCXCXCXCXCXCXMXMXzXzXzXMXMXMXMXCXCXCXCXCXCXCX<X*.1 . .                     ",
"                + + + l k.rXjXiXgXgXgXiXjXMXMXzXMXzXMXzXMXMXzXzXMXzXMXzXzXjXgXjXjX$X*.1 . .                     ",
"                B K K ~ 3.n.C.B.B.B.B.C.'.rXMXzXzXMXMXMXMXzXMXzXzXiX6X4X4X$XR.C.B.d.Q ; . .                     ",
"        . . . d *.d.h.8.Q c l l l d i c ,.$XMXMXMXzXzXMXzXMXMXCXMX6X.X'.'.k.) l d l n                           ",
"      . . . + c 8.I.^.h.K & . . . . . + Q #XMXCXCXCXMXCXMXCXMXCXMX6X'.I.I.8.l . . .                             ",
"      . . . . c 9.R.^.d.K + . . . . . + ~ .XMXCXMXzXMXMXMXzXMXzXjX4X).I.I.8.l + . .                             ",
"      . . . . l 9.I.^.d.K + . . . . . & A k.'.|.'.'.).'.).|.'.|.).G.d.9.9.@.d + . .                             ",
"      . . . + c 8.I.R.d.K + . . . . . . 6 B Y Q Y Y Y Q Y Q Y Y Y K n c c l i                                   ",
"      . . . + c 8.R.^.h.K + . . . . . . . . + . + + . + + + . + + + + . . +                                     ",
"      . . . . c 9.R.).h.K + . . . . . . . . . . . . . . . . . . . . . . . .                                     ",
"      . . . . d *.n.n.9.Q i t t i i i t 6 & . . . . . . . . . . . . . . . .                                     ",
"      . . . . 4 c Y I ) 3.d.h.d.h.h.k.d.| t . . . . . . . . . . . . . . . . . . . . . . . .                     ",
"      . . . . + & ; & c k.4XgXiXiXiXgXwXB.n . . . . . . . . . . . . . . . . . . . . . . . .                     ",
"        . . . . . . . d B.jXCXCXCXCXCXzXI.B . . . . . . . . . . . . . . . . . . . . . . . .                     ",
"      & & ; & & + . . d B.gXCXMXMXMXCXjXI.B + . . & ; ; ; & ; ; & & . . . + & & & & ; & & ;                     ",
"      d K Y Y c 4 . . d n.iXCXMXMXzXCXjXH.B . . ; l I Y Y Y Y Y I d ; . . 4 c Y Q Y I Y Y I n                   ",
". . & K 8.B.k.*.i . . l B.gXCXzXzXMXMXzXH.n . . 0 | d.n.k.h.k.n.d.] 6 . + t @.k.k.k.h.k.n.u.) 6 . . .           ",
". . & I k.^.R.9.d . . d n.jXCXCXCXCXCXzXI.A . + i 3.R.).R.^.^.).I.*.6 . + d 8.I.^.R.R.^.).G.| 4 . . .           ",
". . & I h.^.I.8.c + . d n.iXMXzXzXzXMXgXH.B . . t ,.H.R.I.H.I.R.G.@.t . . l 9.I.R.I.I.I.R.C.| 4 . . .           ",
". . & I h.R.I.d.~ l l I 9.H.^.R.R.R.).I.3.i . . 6 Q 3.9.8.8.3.8.,.] A l c Q u.I.H.G.h.9.8.,.Q 4 . .             ",
". . & I k.R.I.C.d.9.9.3.] K A K K A K K d 1 . . & 0 d l d d d d c Q ,.9.9.d.C.I.R.n...c d d t                   ",
". . & I k.I.I.R.I.R.R.h.K & . + + + + + + . . . . + . + + . + + & I h.R.R.I.I.R.R.k.Y & . +                     ",
". . ; Y k.R.^.I.R.^.).h.K + . . . . . . . . . . . . . . . . . . & A k.).^.R.R.R.^.k.I & . .                     ",
". . & A 8.h.h.d.h.h.h.3.B & . . . . . . . . . . . . . . . . . . + n 3.h.h.h.h.k.h.8.A ; . .                     ",
". . ; d B I K K K K K B c & . . . . . . . . . . . . . . . . . . + 0 n I K K A K K B d & .                       ",
"        & ; & & & & & &                                   . . . . . & & & & & & & ;                             ",
"      . . . . . . . . .                                     . . . . . . . . . . . .                             ",
"        . . . . . . . .                                     . . . . . . . . . . . .                             ",
"          . . . . . .                                         . . . . . . . . . .                               "
};
