/* XPM */
static char *xpm_[] = {
/* columns rows colors chars-per-pixel */
"61 64 222 2 ",
"   c black",
".  c #010101",
"X  c #020202",
"o  c gray1",
"O  c #040404",
"+  c gray2",
"@  c #060606",
"#  c #070707",
"$  c gray3",
"%  c #090909",
"&  c gray4",
"*  c #0B0B0B",
"=  c #0C0C0C",
"-  c gray5",
";  c gray6",
":  c #101010",
">  c gray7",
",  c #131313",
"<  c gray8",
"1  c #151515",
"2  c #161616",
"3  c #181818",
"4  c #191919",
"5  c gray10",
"6  c #1B1B1B",
"7  c gray11",
"8  c #1D1D1D",
"9  c #1E1E1E",
"0  c gray12",
"q  c #202020",
"w  c gray13",
"e  c #222222",
"r  c #232323",
"t  c gray14",
"y  c #252525",
"u  c gray15",
"i  c #272727",
"p  c #282828",
"a  c gray16",
"s  c #2A2A2A",
"d  c gray17",
"f  c #2C2C2C",
"g  c #2D2D2D",
"h  c gray18",
"j  c #2F2F2F",
"k  c gray19",
"l  c #313131",
"z  c #323232",
"x  c gray20",
"c  c #343434",
"v  c #353535",
"b  c gray21",
"n  c #373737",
"m  c gray22",
"M  c #393939",
"N  c #3A3A3A",
"B  c gray23",
"V  c #3C3C3C",
"C  c gray24",
"Z  c #3E3E3E",
"A  c #3F3F3F",
"S  c gray25",
"D  c #414141",
"F  c gray26",
"G  c #434343",
"H  c #444444",
"J  c gray27",
"K  c gray28",
"L  c #484848",
"P  c #494949",
"I  c gray29",
"U  c #4B4B4B",
"Y  c #4C4C4C",
"T  c gray30",
"R  c #4E4E4E",
"E  c gray31",
"W  c #505050",
"Q  c #515151",
"!  c #535353",
"~  c gray33",
"^  c #555555",
"/  c #565656",
"(  c gray34",
")  c #585858",
"_  c gray35",
"`  c #5A5A5A",
"'  c #5B5B5B",
"]  c gray36",
"[  c #5D5D5D",
"{  c gray37",
"}  c #5F5F5F",
"|  c #606060",
" . c gray38",
".. c #626262",
"X. c gray39",
"o. c #646464",
"O. c #656565",
"+. c gray40",
"@. c #676767",
"#. c DimGray",
"$. c gray42",
"%. c #6C6C6C",
"&. c #6F6F6F",
"*. c gray44",
"=. c #717171",
"-. c #727272",
";. c gray45",
":. c #747474",
">. c gray46",
",. c #767676",
"<. c #777777",
"1. c gray47",
"2. c #797979",
"3. c gray48",
"4. c #7B7B7B",
"5. c #7C7C7C",
"6. c gray49",
"7. c #7E7E7E",
"8. c gray50",
"9. c #808080",
"0. c #818181",
"q. c gray51",
"w. c #838383",
"e. c #848484",
"r. c gray52",
"t. c #868686",
"y. c gray53",
"u. c #888888",
"i. c #898989",
"p. c gray54",
"a. c #8B8B8B",
"s. c gray55",
"d. c #8D8D8D",
"f. c #8E8E8E",
"g. c gray56",
"h. c #909090",
"j. c gray57",
"k. c #929292",
"l. c #939393",
"z. c gray59",
"x. c #979797",
"c. c #989898",
"v. c gray60",
"b. c #9A9A9A",
"n. c #9B9B9B",
"m. c gray61",
"M. c #9D9D9D",
"N. c gray62",
"B. c #9F9F9F",
"V. c #A0A0A0",
"C. c gray63",
"Z. c #A2A2A2",
"A. c gray64",
"S. c #A4A4A4",
"D. c #A5A5A5",
"F. c gray65",
"G. c #A7A7A7",
"H. c gray66",
"J. c #A9A9A9",
"K. c #AAAAAA",
"L. c gray67",
"P. c #ACACAC",
"I. c gray68",
"U. c #AEAEAE",
"Y. c #AFAFAF",
"T. c gray69",
"R. c #B1B1B1",
"E. c #B2B2B2",
"W. c gray70",
"Q. c #B4B4B4",
"!. c gray71",
"~. c #B6B6B6",
"^. c #B7B7B7",
"/. c gray72",
"(. c #B9B9B9",
"). c gray73",
"_. c #BBBBBB",
"`. c #BCBCBC",
"'. c gray74",
"]. c gray",
"[. c gray75",
"{. c #C0C0C0",
"}. c #C1C1C1",
"|. c gray76",
" X c #C3C3C3",
".X c gray77",
"XX c #C5C5C5",
"oX c #C6C6C6",
"OX c gray78",
"+X c #C8C8C8",
"@X c gray79",
"#X c #CACACA",
"$X c #CBCBCB",
"%X c gray80",
"&X c #CDCDCD",
"*X c #CECECE",
"=X c gray81",
"-X c #D0D0D0",
";X c LightGray",
":X c #D8D8D8",
">X c gray88",
",X c #E1E1E1",
"<X c gray90",
"1X c #E7E7E7",
"2X c gray91",
"3X c gray92",
"4X c #EEEEEE",
"5X c gray94",
"6X c #F1F1F1",
"7X c #F3F3F3",
"8X c #F4F4F4",
"9X c gray96",
"0X c #F6F6F6",
"qX c gray97",
"wX c #F8F8F8",
"eX c #F9F9F9",
"rX c gray98",
"tX c #FBFBFB",
"yX c gray99",
"uX c #FDFDFD",
"iX c #FEFEFE",
"pX c None",
/* pixels */
"pXpXpXpXpXpXpXpXpXpXpXpXpXpXpXpXpXpXpXpXpX                                    pXpX  pXpXpXpXpXpXpXpXpXpXpXpXpXpXpXpXpXpXpX",
"pXpXpXpXpXpXpXpXpXpXpXpXpXpXpXpXpXpXpXpX                                                pXpXpXpXpXpXpXpXpXpXpXpXpXpXpXpXpX",
"pXpXpXpXpXpXpXpXpXpXpXpXpXpXpXpXpXpXpXpX                                                pXpXpXpXpXpXpXpXpXpXpXpXpXpXpXpXpX",
"pXpXpXpXpXpXpXpXpXpXpXpXpXpXpXpXpXpXpXpX< < < < < < < < < < < < < < < < 3 < < 3 < < < , pXpXpXpXpXpXpXpXpXpXpXpXpXpXpXpXpX",
"pXpXpXpXpXpXpXpXpXpXpXpXpXpXpXpXpX  O y E { { '  .{ { ' { { { { { { { ' { { { { { { { L w     pXpXpXpXpXpXpXpXpXpXpXpXpXpX",
"pXpXpXpXpXpXpXpXpXpXpXpXpXpXpXpX    O h 2.Z.Z.B.Z.Z.B.B.B.Z.B.B.B.Z.B.B.Z.B.B.B.B.Z.B.&.w       pXpXpXpXpXpXpXpXpXpXpXpXpX",
"pXpXpXpXpXpXpXpXpXpXpXpXpXpXpXpX      h q.U.U.U.U.U.U.U.U.U.L.U.U.L.L.L.U.U.U.L.U.W.U.:.w       pXpXpXpXpXpXpXpXpXpXpXpXpX",
"pXpXpXpXpXpXpXpXpXpXpXpXpXpXpXpX< < 3 A e.L.L.L.F.L.F.L.F.L.L.F.F.L.L.L.F.F.L.F.L.L.F.2.N < < < pXpXpXpXpXpXpXpXpXpXpXpXpX",
"pXpXpXpXpXpXpXpXpXpXpXpXpX  O y E {  .:.n.L.F.F.F.F.L.F.F.L.F.F.L.F.F.L.L.F.F.F.F.L.F.h.&.{ { H 0     pXpXpXpXpXpXpXpXpXpX",
"pXpXpXpXpXpXpXpXpXpXpXpX      h 2.Z.F.Z.F.F.L.L.L.L.F.F.L.F.F.L.F.L.F.F.L.F.F.L.L.F.L.F.Z.Z.B.;.y       pXpXpXpXpXpXpXpXpX",
"pXpXpXpXpXpXpXpXpXpXpXpX    O k q.U.U.U.L.F.L.F.F.L.L.F.L.F.F.L.F.L.L.F.F.F.L.L.L.F.L.F.L.U.L.:.w       pXpXpXpXpXpXpXpXpX",
"pXpXpXpXpXpXpXpXpXpXpXpX    O k 5.L.U.F.L.F.F.F.F.F.F.F.L.F.L.F.L.F.L.F.L.F.F.F.F.F.F.L.L.L.L.;.y       pXpXpXpXpXpXpXpXpX",
"pXpXpXpXpXpXpXpXpXpXpXpX      k 5.L.L.F.F.L.L.L.F.L.F.F.F.L.F.L.F.F.F.L.F.F.L.F.F.L.L.F.F.U.F.;.y       pXpXpXpXpXpXpXpXpX",
"pXpXpXpXpXpXpXpXpXpXpXpX      h q.L.L.L.F.F.F.F.L.F.F.L.F.L.F.F.L.F.L.F.F.L.F.F.L.F.F.L.F.L.F.:.y       pXpXpXpXpXpXpXpXpX",
"pXpXpXpXpXpXpXpXpXpXpXpX    O k 5.L.U.F.L.F.L.F.L.L.F.L.L.F.L.F.F.L.F.F.F.L.L.L.L.L.F.F.L.L.F.;.w       pXpXpXpXpXpXpXpXpX",
"pXpXpXpXpXpXpXpXpXpXpXpX      k 5.L.L.F.F.L.F.F.F.F.F.L.F.F.L.F.L.F.L.F.L.F.F.F.F.F.L.F.L.L.F.;.y       pXpXpXpXpXpXpXpXpX",
"pXpXpXpXpXpXpXpX              k q.L.L.F.F.F.L.F.F.F.F.L.F.F.L.F.L.F.F.L.L.F.L.F.L.F.F.F.F.U.F.:.y             pXpXpXpXpXpX",
"pXpXpXpXpXpXpXpX            O k 5.L.L.L.F.L.F.L.L.F.L.F.F.L.F.L.F.L.F.F.F.L.F.L.F.L.F.L.L.U.L.:.w               pXpXpXpXpX",
"pXpXpXpXpXpXpXpX            O k e.U.U.U.L.L.F.F.F.L.F.L.L.F.F.F.L.F.F.L.F.F.F.F.F.L.F.L.L.W.U.:.y               pXpXpXpXpX",
"pXpXpXpXpXpXpXpX            O y &.f.h.x.B.L.L.F.L.F.F.F.F.L.L.F.F.L.F.F.L.L.L.F.F.F.L.Z.h.f.f. .0               pXpXpXpXpX",
"pXpXpXpXpXpXpXpX              < k G G  .f.L.L.F.F.L.F.L.F.F.F.F.F.L.F.F.F.L.F.F.F.L.F.a.' A A k =               pXpXpXpXpX",
"pXpXpXpXpXpXpXpX                O O O k q.L.L.L.F.L.L.L.L.L.L.L.L.L.L.F.F.L.L.L.L.U.L.:.h O   O                 pXpXpXpXpX",
"pXpXpXpXpXpXpXpX                      h q.U.U.L.U.L.U.L.L.U.L.U.U.L.L.L.L.U.L.U.U.W.L.:.w                       pXpXpXpXpX",
"pXpXpXpXpXpXpXpXy p p 0 =             y &.h.h.f.f.a.f.a.f.f.f.f.f.f.f.f.a.f.f.f.a.h.f. .0             = w p p y pXpXpXpXpX",
"pXpXpXpX      N 5.B.B.&.y             < k G G A A G A A G G A A A A G A A G G A A G A p =           O k 2.B.B.:.k     pXpX",
"pXpXpXpX    O H ^.9X6XU.A               O O O O O O O O O O O O O O O O O O O   * O   O             O L }.9X3XF.k O     pX",
"pXpXpXpX    O G [.rXrX^.N                                                                             E +XyX9XU.b       pX",
"pXpXpXpX    O G ).rXrX}.{ p y 0 =                                                             = y p h $.;XyX6XL.b       pX",
"pXpXpXpX    O G ).rXrX,X^.B.n.;.p                                                           O k 5.B.Z.).2XyX9XL.b       pX",
"pXpXpXpX    O G ).yXyXrX9X9X6XW.A                                                           O H .X9X9X9XyXyX9XU.k       pX",
"pXpXpXpX    O H [.rXyXyXyXyXyX).A                                                             E +XyXyXyXyXyXrXU.b       pX",
"pXpXpXpX    O A B.%X%X%X%X%X%XZ.~ p p h h h k w *                             = w h h h h p h { U.%X;X%X%X%X+Xh.k       pX",
"pXpXpXpXpXpXpXpXE ~ ~ ~ ' ~ ~ &.f.Z.Z.B.Z.F.Z.:.y                             b 5.F.F.Z.Z.Z.B.a.@.~ ' ~ ~ { ~ H pXpXpXpXpX",
"pXpXpXpXpXpXpXpX* * * * * O * L [.6X9X9X9X9X6XU.N                             L }.9X9X9X9X9X6XU.N O O * O * * * pXpXpXpXpX",
"pXpXpXpXpXpXpXpX            O H }.rXyXyXyXyXrX).N                           O E +XyXyXyXyXyXyXW.b               pXpXpXpXpX",
"pXpXpXpXpXpXpXpX              N n.%X;X%X+X%X+Xn.H w 0 w w w 0 0 w w w w 0 0 w ! F.+X%X%X+X%X+Xf.p               pXpXpXpXpX",
"pXpXpXpXpXpXpXpX              3 G ~ ~ ~ ~ ~ ~ { $.&.&.&.&.&.&.&.&.&.&.&.&.&.&.@.' ~ ~ ~ ~ ~ ! N ,               pXpXpXpXpX",
"pXpXpXpXpXpXpXpX              O O * O * O * * k q.L.L.F.F.L.L.F.L.F.L.F.F.L.L.:.p O * O * O * *                 pXpXpXpXpX",
"pXpXpXpXpXpXpXpX                              p e.U.W.U.W.U.U.U.U.U.W.U.U.W.U.:.w                             O pXpXpXpXpX",
"pXpXpXpXpXpXpXpXh b k y *             * 3 0 w A ;.a.a.e.e.e.a.e.a.e.e.e.a.a.a.$.N 0 0 3 O             , y b b p pXpXpXpXpX",
"pXpXpXpXpXpXpXG e.U.L.:.h             w ' ;.;.{ H N b N N b N N b N N b N b b L  .:.;.E 3           O k q.U.L.5.h     pXpX",
"pXpXpXpX      G ).9X6XW.A           O k 5.U.L.:.p O   O O O O O O O O O O O O b q.U.L.:.y           * E }.9X6XF.b       pX",
"pXpXpXpX    O G [.rXrX^.A           O k q.W.U.2.y           O                 k e.W.L.:.w           O ! %XyX9XU.k       pX",
"pXpXpXpX    O H ).yX9X^.A             k 5.L.U.q.G w w p k k b b b b b k p 0 y L a.U.L.:.y           O ! .XyX6XL.b       pX",
"pXpXpXpX    O G ).yX9X^.A O           k q.U.L.n.5.;.&.q.n.L.L.L.L.L.L.n.5.&.;.q.B.L.F.:.w           O ! +XyX9XF.b       pX",
"pXpXpXpX    O H ).rXrX).A           O k q.U.L.L.F.F.F.[.1X9X9X9X9X9X6X,X).F.Z.F.L.U.L.2.y           O E +XyX9XU.b       pX",
"pXpXpXpX    O G [.rXrX).A             k e.U.U.L.L.L.U..X2XyXyXyXyXyXyX2X[.U.L.L.L.U.L.:.y           O ! +XrX9XU.k       pX",
"pXpXpXpX      A n..X.Xf.k             y @.e.e.a.Z.F.F.).:X1X1X1X1X1X1X;X^.F.F.B.f.e.q.' 0           O A B..X}.f.k     pXpX",
"pXpXpXpXpXpXpXpXH ! E b ,             = p b b ~ f.L.L.U.).}.}.}.}.}.[.^.L.L.L.e.! k k y =             3 A E E A p pXpXpXpX",
"pXpXpXpXpXpXpXpXO O * O                 O   O k q.U.U.U.L.L.U.L.L.L.L.L.L.U.L.:.y O O O               O O O O O pXpXpXpXpX",
"pXpXpXpXpXpXpXpX                            O k q.U.L.L.L.L.L.L.L.L.L.L.L.U.L.:.y                               pXpXpXpXpX",
"pXpXpXpXpXpXpXpX              * 0 p y 0 *     y  .q.q.q.q.5.q.q.q.q.q.q.q.q.q.' 0     = w p y 3 *             pXpXpXpXpXpX",
"pXpXpXpXpXpXpXpXpXpXpXpX      y ' 2.2.~ 0     , y k b k k k b k h k b k k b k y O   O y { 2.:.! 3         pXpXpXpXpXpXpXpX",
"pXpXpXpXpXpXpXpXpXpXpXpX    O h 5.U.U.2.y       O O   O O O O O   O O O O O O       O k q.U.U.;.y       pXpXpXpXpXpXpXpXpX",
"pXpXpXpXpXpXpXpXpXpXpXpX      k q.U.W.2.p O                                           k e.W.U.;.y       pXpXpXpXpXpXpXpXpX",
"pXpXpXpXpXpXpXpXpXpXpXpX    O h q.U.L.e.L y y p p p p 0 =             = 0 p p h p y p E a.U.L.;.y       pXpXpXpXpXpXpXpXpX",
"pXpXpXpXpXpXpXpXpXpXpXpX      k 5.U.L.n.e.2.:.2.2.2.2.~ 0 O         O y { 2.2.2.2.:.2.e.B.U.F.;.y       pXpXpXpXpXpXpXpXpX",
"pXpXpXpXpXpXpXpXpXpXpXpX    O k 5.U.U.L.L.L.U.L.L.W.U.:.y             b q.U.U.L.L.L.U.L.L.U.L.:.y       pXpXpXpXpXpXpXpXpX",
"pXpXpXpXpXpXpXpXpXpXpXpX      h 5.U.U.U.L.U.U.U.U.U.W.2.y           O k e.W.U.U.W.U.U.U.F.U.L.:.y       pXpXpXpXpXpXpXpXpX",
"pXpXpXpXpXpXpXpXpXpXpXpX    O p @.q.5.5.5.5.5.5.q.5.5.{ y O         O h @.q.5.5.5.5.5.5.5.q.5.{ w     pXpXpXpXpXpXpXpXpXpX",
"pXpXpXpXpXpXpXpXpXpXpXpXpXpXpXpXh h h k h h h h h h h p pXpXpXpXpXpXpXpXp k h h h h h h h h h p pXpXpXpXpXpXpXpXpXpXpXpXpX",
"pXpXpXpXpXpXpXpXpXpXpXpXpXpXpXpX  O     O     O       O pXpXpXpXpXpXpXpXO       O       O O     pXpXpXpXpXpXpXpXpXpXpXpXpX",
"pXpXpXpXpXpXpXpXpXpXpXpXpXpXpXpX                        pXpXpXpXpXpXpXpX                        pXpXpXpXpXpXpXpXpXpXpXpXpX",
"pXpXpXpXpXpXpXpXpXpXpXpXpXpXpXpX                        pXpXpXpXpXpXpXpX                        pXpXpXpXpXpXpXpXpXpXpXpXpX"
};
