/* XPM */
static char *xpm_[] = {
/* columns rows colors chars-per-pixel */
"59 64 239 2 ",
"   c black",
".  c #010101",
"X  c #020202",
"o  c gray1",
"O  c #040404",
"+  c gray2",
"@  c #060606",
"#  c #070707",
"$  c gray3",
"%  c #090909",
"&  c gray4",
"*  c #0B0B0B",
"=  c #0C0C0C",
"-  c gray5",
";  c #0E0E0E",
":  c gray6",
">  c #101010",
",  c #111111",
"<  c gray7",
"1  c #131313",
"2  c gray8",
"3  c #151515",
"4  c #161616",
"5  c gray9",
"6  c #181818",
"7  c gray10",
"8  c #1B1B1B",
"9  c gray11",
"0  c #1D1D1D",
"q  c #1E1E1E",
"w  c gray12",
"e  c #202020",
"r  c gray13",
"t  c #222222",
"y  c #232323",
"u  c gray14",
"i  c #252525",
"p  c gray15",
"a  c #272727",
"s  c #282828",
"d  c gray16",
"f  c #2A2A2A",
"g  c #2C2C2C",
"h  c #2D2D2D",
"j  c gray18",
"k  c #2F2F2F",
"l  c gray19",
"z  c #313131",
"x  c #323232",
"c  c gray20",
"v  c #343434",
"b  c #353535",
"n  c gray21",
"m  c #373737",
"M  c gray22",
"N  c #393939",
"B  c #3A3A3A",
"V  c gray23",
"C  c #3C3C3C",
"Z  c gray24",
"A  c #3E3E3E",
"S  c #3F3F3F",
"D  c gray25",
"F  c #414141",
"G  c gray26",
"H  c #434343",
"J  c #444444",
"K  c gray27",
"L  c #464646",
"P  c gray28",
"I  c #484848",
"U  c #494949",
"Y  c gray29",
"T  c #4B4B4B",
"R  c #4C4C4C",
"E  c gray30",
"W  c #4E4E4E",
"Q  c gray31",
"!  c #505050",
"~  c #515151",
"^  c gray32",
"/  c #535353",
"(  c gray33",
")  c #555555",
"_  c #565656",
"`  c gray34",
"'  c #585858",
"]  c gray35",
"[  c #5A5A5A",
"{  c #5B5B5B",
"}  c gray36",
"|  c #5D5D5D",
" . c gray37",
".. c #5F5F5F",
"X. c #606060",
"o. c gray38",
"O. c #626262",
"+. c gray39",
"@. c #646464",
"#. c #656565",
"$. c gray40",
"%. c #676767",
"&. c #686868",
"*. c DimGray",
"=. c #6A6A6A",
"-. c gray42",
";. c #6C6C6C",
":. c #6D6D6D",
">. c gray43",
",. c #6F6F6F",
"<. c gray44",
"1. c #717171",
"2. c #727272",
"3. c gray45",
"4. c #747474",
"5. c gray46",
"6. c #767676",
"7. c #777777",
"8. c gray47",
"9. c #797979",
"0. c #7B7B7B",
"q. c #7C7C7C",
"w. c gray49",
"e. c #7E7E7E",
"r. c gray50",
"t. c #808080",
"y. c #818181",
"u. c gray51",
"i. c #838383",
"p. c #848484",
"a. c gray52",
"s. c #868686",
"d. c gray53",
"f. c #888888",
"g. c #898989",
"h. c gray54",
"j. c #8B8B8B",
"k. c gray55",
"l. c #8D8D8D",
"z. c #8E8E8E",
"x. c gray56",
"c. c #909090",
"v. c gray57",
"b. c #929292",
"n. c #939393",
"m. c gray58",
"M. c #959595",
"N. c gray59",
"B. c #979797",
"V. c #989898",
"C. c gray60",
"Z. c #9A9A9A",
"A. c #9B9B9B",
"S. c gray61",
"D. c #9D9D9D",
"F. c gray62",
"G. c #9F9F9F",
"H. c #A0A0A0",
"J. c gray63",
"K. c #A2A2A2",
"L. c gray64",
"P. c #A4A4A4",
"I. c #A5A5A5",
"U. c gray65",
"Y. c #A7A7A7",
"T. c gray66",
"R. c #A9A9A9",
"E. c #AAAAAA",
"W. c gray67",
"Q. c #ACACAC",
"!. c gray68",
"~. c #AEAEAE",
"^. c #AFAFAF",
"/. c gray69",
"(. c #B1B1B1",
"). c #B2B2B2",
"_. c gray70",
"`. c #B4B4B4",
"'. c gray71",
"]. c #B6B6B6",
"[. c #B7B7B7",
"{. c #B9B9B9",
"}. c gray73",
"|. c #BBBBBB",
" X c #BCBCBC",
".X c gray74",
"XX c gray75",
"oX c #C1C1C1",
"OX c #C3C3C3",
"+X c gray77",
"@X c #C6C6C6",
"#X c gray78",
"$X c #C8C8C8",
"%X c gray79",
"&X c #CACACA",
"*X c #CBCBCB",
"=X c gray80",
"-X c #CECECE",
";X c gray81",
":X c #D0D0D0",
">X c gray82",
",X c #D2D2D2",
"<X c LightGray",
"1X c gray83",
"2X c #D5D5D5",
"3X c gray84",
"4X c #D7D7D7",
"5X c gainsboro",
"6X c #DDDDDD",
"7X c gray87",
"8X c gray88",
"9X c #E1E1E1",
"0X c #E2E2E2",
"qX c gray89",
"wX c #E4E4E4",
"eX c gray90",
"rX c #E6E6E6",
"tX c #E7E7E7",
"yX c gray91",
"uX c #EAEAEA",
"iX c gray92",
"pX c #ECECEC",
"aX c gray93",
"sX c #EEEEEE",
"dX c #EFEFEF",
"fX c gray94",
"gX c #F1F1F1",
"hX c #F3F3F3",
"jX c gray96",
"kX c gray97",
"lX c #F8F8F8",
"zX c #F9F9F9",
"xX c gray98",
"cX c #FBFBFB",
"vX c gray99",
"bX c #FDFDFD",
"nX c #FEFEFE",
"mX c white",
"MX c None",
/* pixels */
"MXMXMXMXMXMXMXMXMXMXMXMXMXMXMXMX                                                MXMXMXMXMXMXMXMXMXMXMXMXMXMXMXMXMXMXMX",
"MXMXMXMXMXMXMXMXMXMXMXMXMXMXMXMX                                                  MXMXMXMXMXMXMXMXMXMXMXMXMXMXMXMXMXMX",
"MXMXMXMXMXMXMXMXMXMXMXMXMXMXMXMX                                                  MXMXMXMXMXMXMXMXMXMXMXMXMXMXMXMXMXMX",
"MXMXMXMXMXMXMXMXMXMXMXMXMXMXMXMX: : : : : : : % : % : : % : : : : : : : : % : : : MXMXMXMXMXMXMXMXMXMXMXMXMXMXMXMXMXMX",
"MXMXMXMXMXMXMXMXMXMXMXMX    % v K W W W W W Y Y W W Y Y W W W W W Y W W W Y W W K f +   MXMXMXMXMXMXMXMXMXMXMXMXMXMXMX",
"MXMXMXMXMXMXMXMXMXMXMX      % F r.m.m.m.n.n.m.n.n.n.n.n.n.n.n.n.n.n.n.n.n.n.m.m.8.M %     MXMXMXMXMXMXMXMXMXMXMXMXMXMX",
"MXMXMXMXMXMXMXMXMXMXMX      % K n.).^.^.^.W.W.^.W.W.^.W.^.^.W.W.W.^.W.W.W.^.).).g.M +     MXMXMXMXMXMXMXMXMXMXMXMXMXMX",
"MXMXMXMXMXMXMXMXMXMXMX+ + + : Y n.^.W.Y.W.W.W.W.W.W.W.W.W.Y.W.W.Y.W.W.W.W.W.W.^.d.C : + + MXMXMXMXMXMXMXMXMXMXMXMXMXMX",
"MXMXMXMXMXMXMXMXMXMXMXj v M F =.C.W.W.Y.Y.W.Y.Y.Y.W.Y.W.Y.W.W.Y.Y.Y.W.Y.W.Y.W.Y.n.@.C M v f MXMXMXMXMXMXMXMXMXMXMXMXMX",
"MXMXMXMXMXMXMX      4 W r.d.d.n.H.Y.Y.Y.Y.Y.W.Y.Y.Y.Y.Y.Y.Y.Y.Y.Y.Y.W.Y.Y.W.W.Y.G.k.d.g.8.F :     MXMXMXMXMXMXMXMXMXMX",
"MXMXMXMXMXMXMX      6 ..G.^.W.W.W.Y.Y.Y.Y.Y.Y.Y.Y.W.Y.Y.Y.Y.W.Y.Y.Y.Y.Y.Y.Y.Y.Y.Y.Y.^.^.C.W :     MXMXMXMXMXMXMXMXMXMX",
"MXMXMXMXMXMXMX      4 ..H.^.W.W.Y.Y.W.Y.W.Y.W.Y.Y.Y.Y.W.Y.W.Y.Y.W.Y.W.Y.Y.W.Y.Y.W.W.^.^.m.! :     MXMXMXMXMXMXMXMXMXMX",
"MXMXMXMXMXMXMX      4 ..G.^.Y.Y.Y.W.Y.Y.Y.W.Y.W.Y.Y.W.Y.W.Y.Y.Y.Y.Y.Y.W.Y.Y.Y.W.Y.Y.W.^.n.! :     MXMXMXMXMXMXMXMXMXMX",
"MXMXMXMXMXMXMX      4 { C.^.W.W.Y.Y.W.Y.W.Y.Y.Y.W.Y.Y.Y.Y.Y.Y.W.W.Y.Y.Y.W.Y.Y.Y.Y.Y.Y.W.m.W :     MXMXMXMXMXMXMXMXMXMX",
"MXMXMXMXMXMXMX      4 ..C.^.W.Y.Y.W.Y.Y.Y.Y.Y.Y.Y.W.W.Y.W.Y.W.Y.Y.W.Y.W.Y.W.Y.W.Y.Y.W.^.m.! :     MXMXMXMXMXMXMXMXMXMX",
"MXMXMXMXMXMXMX      4 ..C.^.Y.Y.Y.Y.W.Y.W.Y.W.Y.Y.Y.Y.Y.Y.Y.Y.Y.Y.Y.Y.Y.Y.Y.Y.Y.W.Y.W.W.m.( :     MXMXMXMXMXMXMXMXMXMX",
"MXMXMXMXMXMXMX      4 ..C.^.Y.W.Y.Y.Y.Y.W.W.Y.Y.Y.Y.Y.Y.Y.Y.W.Y.W.Y.W.Y.W.Y.W.Y.Y.Y.W.^.m.! :       MXMXMXMXMXMXMXMXMX",
"MXMXMXMX            6 ..C.^.Y.Y.Y.Y.Y.W.Y.Y.W.Y.W.Y.W.Y.Y.W.Y.Y.Y.Y.Y.Y.Y.Y.Y.Y.Y.W.Y.W.m.W :               MXMXMXMXMX",
"MXMXMX              4 ..C.).W.Y.W.W.Y.Y.Y.Y.Y.Y.Y.Y.Y.W.Y.Y.Y.Y.Y.Y.W.Y.Y.Y.Y.Y.W.Y.W.^.m.( :               MXMXMXMXMX",
"MXMXMX              6 +.H.`.^.W.Y.Y.Y.Y.W.Y.W.Y.W.Y.Y.Y.Y.W.Y.W.Y.W.Y.Y.Y.W.Y.W.Y.W.^.).C.( >               MXMXMXMXMX",
"MXMXMX              4 ( k.G.G.H.Y.Y.Y.Y.Y.Y.Y.W.Y.Y.Y.W.Y.Y.Y.Y.Y.Y.Y.Y.Y.Y.W.Y.Y.G.G.G.g.K :               MXMXMXMXMX",
"MXMXMX              : z ! { ..r.G.Y.W.Y.Y.Y.Y.Y.Y.Y.Y.Y.Y.W.Y.Y.Y.W.Y.W.W.Y.W.Y.C.5...( W j +               MXMXMXMXMX",
"MXMXMX                : > > 0 ( n.W.Y.W.Y.W.W.Y.Y.Y.Y.W.W.Y.Y.W.W.Y.Y.Y.W.Y.W.W.k.Y 6 > > %                 MXMXMXMXMX",
"MXMXMX                      + Y n.^.^.^.W.W.W.^.W.^.W.^.W.^.^.^.W.^.W.^.W.^.^.).g.M +                       MXMXMXMXMX",
"MXMXMX% + % +               % K k.Y.H.Y.H.Y.H.H.Y.Y.H.H.H.Y.H.H.H.H.H.Y.H.H.W.Y.u.M +     + % % % + + % % % MXMXMXMXMX",
"MXMXMXW { { K 0 +           + z ..>.>.=.>.=.=.>.=.=.>.>.=.>.>.=.=.>.=.>.>.>.>.=.{ i +   % z ! { { { { { ( W v MXMXMXMX",
"  % Y H.*X;XG.F +             : t t t t t t t t t t t t t t t t t t t t t t t t 6 : +   6 =.`.;X+X*X+X*X*Xn.C +     MX",
"  % ! +XcXvXOXW +                                                                       t d.wXvXvXcXcXvXcX).F       MX",
"  % ! +XvXvX+X( +                                                                       0 d.uXvXcXcXcXvXkX).F +     MX",
"  + ! +XcXvX;Xr.F C v 0 %                                                               0 d.wXvXcXcXcXvXkX).C       MX",
"  % W OXcXvXuX+X`.).C.W >                                                               t u.wXvXkXcXcXvXkX^.F       MX",
"  % ! +XcXvXcXcXcXcX4X>.:                                                               6 u.uXvXvXvXcXvXcX`.F       MX",
"  % ( +XcXvXvXvXvXvX6X2.:                                                     +         0 u.wXvXvXvXvXvXkX).F +     MX",
"  % K H.<X4X<X<X4X4X X2.z t i f f f i 6 %                               % 0 f i i f i i M u.OX4X4X<X<X4X<XG.M       MX",
"  + t Y @.@.+.@.+.+.=.r.n.m.m.m.n.C.n.@.i                             + j 2.m.C.m.n.m.m.k.r.=.+.@.+.@.@.@.( v     MXMX",
"    + : > > > > : % j g.6XsXsXfXsXsXsXH.M                             + Y `.uXsXuXsXfXfX<X5.0 : > : > > : > MXMXMXMXMX",
"                    0 n.fXvXvXvXvXvXvX).M                             % Y +XvXvXvXvXvXvXwX8.>               MXMXMXMXMX",
"    % > 6 6 > %     0 r.4XwXwXwXwXuX0XH.C : : > : : : : > > > : : : : > W ^.wXuX0X0XuXuX*X>.>               MXMXMXMXMX",
"  + f ..8.8...i +   > Y 8.d.u.u.u.u.u.5...! ! ! ! ! ! ! ! ! ! W ! ! ! ! +.5.u.u.u.u.u.d.2.C %               MXMXMXMXMX",
"  + Y ^.0X0X^.Y +   + : 6 0 0 0 0 6 0 F 8.C.C.m.C.C.m.m.m.C.m.m.m.m.C.m.2.M 0 6 0 0 6 0 6 :                 MXMXMXMXMX",
"  % ! ;XvXvX;X( %                     z d.^.`.).).).).).).).^.).).).`.^.5.t                                 MXMXMXMXMX",
"  % !  XkXfX XW %             + % + % v r.Y.W.H.H.Y.Y.H.Y.H.Y.Y.Y.Y.W.Y.2.f % + %         + : : : : : % : : MXMXMXMXMX",
"MX> F u.H.H.r.z +           + 0 v C C W ..=.>.=.=.>.=.>.=.>.=.=.=.=.=.=...Y C C z 4     % z ! ..{ { { { { W z     MXMX",
"MXMXi f z j i :             % M 5.n.g.=.M 0 0 0 0 t 0 t 0 0 0 t 0 0 0 0 C 2.k.g.>.z %   6 =.|.;X*X*X*X<X+Xm.M +     MX",
"MXMXMX    +                 % Y n.).W.2.i                               z d.^.).g.C %   t d.uXvXcXcXvXvXkX).F +     MX",
"MXMXMX                      % Y n.).W.5.i + + + + + + + + + + + + +   + z u.^.^.g.C +   0 u.uXvXcXcXvXvXcX).F       MX",
"MXMXMXMX                    % Y n.).Y.u.Y f f z M C C F F F C F M j i j ! g.W.^.g.M %   0 u.wXvXcXkXcXvXkX).F +     MX",
"MXMXMXMXMXMX                % K k.^.W.C.u.5.5.u.G.).`.).).`.).^.C.u.5.8.g.G.W.W.g.C %   t u.wXvXcXcXcXvXcX).C       MX",
"MXMXMXMXMXMXMX              : Y m.).^.W.W.Y.Y.|.6XkXcXkXcXcXkXkX4X).Y.Y.Y.Y.^.^.g.C %   0 u.wXvXcXvXvXvXkX).F       MX",
"MXMXMXMXMXMXMX              % Y m.).^.W.W.W.W. X0XvXvXvXvXvXvXcX5X`.W.W.W.W.^.).g.C +   t d.uXvXvXvXvXvXcX).F       MX",
"MXMXMXMXMXMXMX              + C 8.k.g.m.G.Y.Y.`.4XuXfXsXsXsXsXwX;X).Y.Y.H.m.k.k.2.z +   6 >.|.<X;X;X<X<X;XC.C       MX",
"MXMXMXMXMXMXMXMXMXMX        + 0 M F K @.k.W.W.^.|.+X*X+X+X*X+XOX`.^.W.W.g.{ F F v 6 +   % v { +.+.+...+.+.( C MXMXMXMX",
"MXMXMXMXMXMXMXMXMXMXMX        % + % : M u.W.W.W.W.^.^.W.^.W.^.^.W.W.^.Y.8.j % % + +       % : : % : : : % : MXMXMXMXMX",
"MXMXMXMXMXMXMXMXMXMXMX                j u.^.).^.W.W.W.^.W.W.W.^.W.^.).W.5.i                                 MXMXMXMXMX",
"MXMXMXMXMXMXMXMXMXMXMX        % : : 4 M 8.C.G.m.m.C.C.C.m.m.C.C.C.C.G.m.=.i +                               MXMXMXMXMX",
"MXMXMXMXMXMXMXMXMXMXMX      + t Y ( ( ( ( ( ( ( ( ( ( ( ( ( ( ( ( ( ( ( F f MXMXMXMXMXMXMXMXMXMXMXMXMXMXMXMXMXMXMXMXMX",
"MXMXMXMXMXMXMXMXMXMXMX      % F u.H.m.>.j > : > > 4 > > > > > 4 > > > > > MXMXMXMXMXMXMXMXMXMXMXMXMXMXMXMXMXMXMXMXMXMX",
"MXMXMXMXMXMXMXMXMXMXMX      % Y C. X).8.i                                 MXMXMXMXMXMXMXMXMXMXMXMXMXMXMXMXMXMXMXMXMXMX",
"MXMXMXMXMXMXMXMXMXMXMX      % Y g.W.Y.2.i                                 MXMXMXMXMXMXMXMXMXMXMXMXMXMXMXMXMXMXMXMXMXMX",
"MXMXMXMXMXMXMXMXMXMXMXMX    : M ..=.@.K 6                               MXMXMXMXMXMXMXMXMXMXMXMXMXMXMXMXMXMXMXMXMXMXMX",
"MXMXMXMXMXMXMXMXMXMXMXMXMXMXMX0 0 t 0 4 +                 MXMXMXMXMXMXMXMXMXMXMXMXMXMXMXMXMXMXMXMXMXMXMXMXMXMXMXMXMXMX",
"MXMXMXMXMXMXMXMXMXMXMXMXMXMXMXMX+                         MXMXMXMXMXMXMXMXMXMXMXMXMXMXMXMXMXMXMXMXMXMXMXMXMXMXMXMXMXMX",
"MXMXMXMXMXMXMXMXMXMXMXMXMXMXMXMX                          MXMXMXMXMXMXMXMXMXMXMXMXMXMXMXMXMXMXMXMXMXMXMXMXMXMXMXMXMXMX",
"MXMXMXMXMXMXMXMXMXMXMXMXMXMXMXMX                          MXMXMXMXMXMXMXMXMXMXMXMXMXMXMXMXMXMXMXMXMXMXMXMXMXMXMXMXMXMX"
};
