/* XPM */
static char *xpm_[] = {
/* columns rows colors chars-per-pixel */
"60 64 248 2 ",
"   c black",
".  c #010101",
"X  c #020202",
"o  c gray1",
"O  c #040404",
"+  c gray2",
"@  c #060606",
"#  c #070707",
"$  c gray3",
"%  c #090909",
"&  c gray4",
"*  c #0B0B0B",
"=  c #0C0C0C",
"-  c gray5",
";  c #0E0E0E",
":  c gray6",
">  c #101010",
",  c #111111",
"<  c gray7",
"1  c #131313",
"2  c gray8",
"3  c #151515",
"4  c #161616",
"5  c gray9",
"6  c #181818",
"7  c #191919",
"8  c gray10",
"9  c #1B1B1B",
"0  c gray11",
"q  c #1D1D1D",
"w  c #1E1E1E",
"e  c gray12",
"r  c #202020",
"t  c gray13",
"y  c #222222",
"u  c #232323",
"i  c gray14",
"p  c #252525",
"a  c gray15",
"s  c #272727",
"d  c #282828",
"f  c gray16",
"g  c #2A2A2A",
"h  c gray17",
"j  c #2C2C2C",
"k  c #2D2D2D",
"l  c gray18",
"z  c #2F2F2F",
"x  c gray19",
"c  c #313131",
"v  c #323232",
"b  c gray20",
"n  c #343434",
"m  c #353535",
"M  c gray21",
"N  c #373737",
"B  c gray22",
"V  c #393939",
"C  c #3A3A3A",
"Z  c gray23",
"A  c #3C3C3C",
"S  c gray24",
"D  c #3E3E3E",
"F  c #3F3F3F",
"G  c gray25",
"H  c #414141",
"J  c gray26",
"K  c #434343",
"L  c #444444",
"P  c gray27",
"I  c #464646",
"U  c gray28",
"Y  c #484848",
"T  c #494949",
"R  c gray29",
"E  c #4B4B4B",
"W  c #4C4C4C",
"Q  c gray30",
"!  c #4E4E4E",
"~  c gray31",
"^  c #505050",
"/  c #515151",
"(  c gray32",
")  c #535353",
"_  c gray33",
"`  c #555555",
"'  c #565656",
"]  c gray34",
"[  c #585858",
"{  c gray35",
"}  c #5A5A5A",
"|  c #5B5B5B",
" . c gray36",
".. c #5D5D5D",
"X. c gray37",
"o. c #5F5F5F",
"O. c #606060",
"+. c gray38",
"@. c #626262",
"#. c gray39",
"$. c #646464",
"%. c #656565",
"&. c gray40",
"*. c #676767",
"=. c #686868",
"-. c DimGray",
";. c #6A6A6A",
":. c gray42",
">. c #6C6C6C",
",. c #6D6D6D",
"<. c gray43",
"1. c #6F6F6F",
"2. c gray44",
"3. c #717171",
"4. c #727272",
"5. c gray45",
"6. c #747474",
"7. c gray46",
"8. c #767676",
"9. c #777777",
"0. c gray47",
"q. c #797979",
"w. c gray48",
"e. c #7B7B7B",
"r. c #7C7C7C",
"t. c gray49",
"y. c #7E7E7E",
"u. c gray50",
"i. c #808080",
"p. c gray51",
"a. c #838383",
"s. c #848484",
"d. c gray52",
"f. c #868686",
"g. c gray53",
"h. c #888888",
"j. c #898989",
"k. c gray54",
"l. c #8B8B8B",
"z. c gray55",
"x. c #8D8D8D",
"c. c #8E8E8E",
"v. c gray56",
"b. c #909090",
"n. c gray57",
"m. c #929292",
"M. c #939393",
"N. c gray58",
"B. c #959595",
"V. c gray59",
"C. c #979797",
"Z. c #989898",
"A. c gray60",
"S. c #9A9A9A",
"D. c #9B9B9B",
"F. c gray61",
"G. c #9D9D9D",
"H. c gray62",
"J. c #9F9F9F",
"K. c #A0A0A0",
"L. c gray63",
"P. c #A2A2A2",
"I. c gray64",
"U. c #A4A4A4",
"Y. c #A5A5A5",
"T. c gray65",
"R. c #A7A7A7",
"E. c gray66",
"W. c #A9A9A9",
"Q. c #AAAAAA",
"!. c gray67",
"~. c #ACACAC",
"^. c gray68",
"/. c #AEAEAE",
"(. c #AFAFAF",
"). c gray69",
"_. c #B1B1B1",
"`. c #B2B2B2",
"'. c gray70",
"]. c #B4B4B4",
"[. c gray71",
"{. c #B6B6B6",
"}. c #B7B7B7",
"|. c gray72",
" X c #B9B9B9",
".X c gray73",
"XX c #BBBBBB",
"oX c #BCBCBC",
"OX c gray74",
"+X c gray",
"@X c gray75",
"#X c #C0C0C0",
"$X c #C1C1C1",
"%X c gray76",
"&X c #C3C3C3",
"*X c gray77",
"=X c #C5C5C5",
"-X c gray78",
";X c #C8C8C8",
":X c gray79",
">X c #CACACA",
",X c #CBCBCB",
"<X c gray80",
"1X c #CECECE",
"2X c #D0D0D0",
"3X c gray82",
"4X c #D2D2D2",
"5X c LightGray",
"6X c gray83",
"7X c #D5D5D5",
"8X c #D7D7D7",
"9X c #D8D8D8",
"0X c gray86",
"qX c gainsboro",
"wX c gray87",
"eX c #DFDFDF",
"rX c #E1E1E1",
"tX c #E2E2E2",
"yX c gray89",
"uX c #E4E4E4",
"iX c gray90",
"pX c #E6E6E6",
"aX c #E7E7E7",
"sX c gray91",
"dX c #E9E9E9",
"fX c #EAEAEA",
"gX c gray92",
"hX c #ECECEC",
"jX c gray93",
"kX c #EEEEEE",
"lX c #EFEFEF",
"zX c gray94",
"xX c #F1F1F1",
"cX c gray95",
"vX c #F3F3F3",
"bX c #F4F4F4",
"nX c gray96",
"mX c #F6F6F6",
"MX c gray97",
"NX c #F8F8F8",
"BX c #F9F9F9",
"VX c gray98",
"CX c #FBFBFB",
"ZX c gray99",
"AX c #FDFDFD",
"SX c #FEFEFE",
"DX c white",
"FX c None",
/* pixels */
"FXFXFXFXFXFXFXFXFXFXFXFXFXFXFXFXFXFX                                                  FXFXFXFXFXFXFXFXFXFXFXFXFXFXFXFXFX",
"FXFXFXFXFXFXFXFXFXFXFXFXFXFXFXFXFXFX                                                  FXFXFXFXFXFXFXFXFXFXFXFXFXFXFXFXFX",
"FXFXFXFXFXFXFXFXFXFXFXFXFXFXFXFXFXFX& @ & @ @ @ & & & @ & @ & @ & & & & @ & & & @ & & , FXFXFXFXFXFXFXFXFXFXFXFXFXFXFXFX",
"FXFXFXFXFXFXFXFXFXFXFXFXFXFXFXFXFXz V F F F F F F V F F F V F F F V F V F F V F F J V z 5 FXFXFXFXFXFXFXFXFXFXFXFXFXFXFX",
"FXFXFXFXFXFXFXFXFXFXFXFXFXFX    & V 8.x.x.s.s.k.s.k.k.k.s.k.k.k.k.s.k.k.k.k.k.s.k.x.i.( 6     FXFXFXFXFXFXFXFXFXFXFXFXFX",
"FXFXFXFXFXFXFXFXFXFXFXFXFX      & U m.).~.~.~.!.~.~.!.!.~.~.~.~.!.!.!.!.!.!.~.~.).).I.X.6       FXFXFXFXFXFXFXFXFXFXFXFX",
"FXFXFXFXFXFXFXFXFXFXFXFXFX      & J m.~.~.~.!.!.!.!.!.!.!.!.!.~.!.!.!.!.!.!.!.!.!.~.I.O.5   @   FXFXFXFXFXFXFXFXFXFXFXFX",
"FXFXFXFXFXFXFXFXFXFXFXFXFXi d d z X.B.!.!.!.R.!.!.R.R.R.R.!.R.R.R.R.R.R.R.R.R.!.!.!.J.2.V d i i 0 FXFXFXFXFXFXFXFXFXFXFX",
"FXFXFXFXFXFXFXFXFXFX    6 W ,.8.8.s.I.R.!.R.R.R.!.R.!.R.!.R.!.R.R.R.R.!.R.R.R.R.R.!.R.x.0.8.2.{ d       FXFXFXFXFXFXFXFX",
"FXFXFXFXFXFXFXFXFX      6 O.S.~.!.R.R.!.R.R.R.!.R.R.R.R.R.R.R.R.!.R.R.R.!.R.!.R.!.R.R.R.!.!.R.8.z @     FXFXFXFXFXFXFXFX",
"FXFXFXFXFXFXFXFXFX      6 O.I.).!.!.!.R.!.R.!.R.R.R.!.R.R.R.!.R.R.!.R.!.R.R.R.!.R.!.!.!.!.~.~.0.d @     FXFXFXFXFXFXFXFX",
"FXFXFXFXFXFXFXFXFX      6 O.J.~.!.R.R.R.R.R.R.R.R.!.R.R.R.!.R.R.R.R.R.R.!.R.R.R.R.R.R.R.!.!.!.0.z       FXFXFXFXFXFXFXFX",
"FXFXFXFXFXFXFXFXFX      0 O.I.~.R.R.R.R.!.R.!.R.R.R.R.R.!.R.R.R.R.!.R.R.R.!.R.R.R.!.R.R.!.!.R.0.z       FXFXFXFXFXFXFXFX",
"FXFXFXFXFXFXFXFXFX      6 O.J.~.!.R.R.!.R.R.R.R.R.!.R.!.R.R.R.!.R.R.!.R.R.R.!.R.R.R.R.!.!.!.!.0.d @     FXFXFXFXFXFXFXFX",
"FXFXFXFXFXFXFXFXFX      6 O.J.!.!.R.R.!.R.!.!.R.!.R.R.R.R.R.R.!.R.R.R.R.R.R.R.R.R.R.!.R.R.!.R.0.z       FXFXFXFXFXFXFXFX",
"FXFXFXFXFXFXFXFXFX      6 X.J.~.!.R.R.R.R.R.R.R.R.R.R.!.!.R.R.R.!.R.!.R.!.R.!.R.!.R.R.R.!.!.R.0.d @     FXFXFXFXFXFXFXFX",
"FXFXFXFXFXFXFXFXFX      6 O.J.~.!.!.!.R.R.R.R.R.R.R.R.R.R.!.R.R.!.R.!.R.!.R.!.R.R.R.R.R.R.!.!.0.z         FXFXFXFXFXFXFX",
"FXFXFXFXFX              6 O.J.~.!.R.R.R.R.!.R.!.!.R.!.R.R.R.!.R.R.R.R.R.R.R.R.R.!.R.!.R.!.!.!.0.z               FXFXFXFX",
"FXFXFXFX                0 $.I.).!.!.R.!.!.R.R.R.R.R.R.!.R.R.R.R.R.R.!.R.R.R.!.R.R.R.!.R.!.~.!.0.x               FXFXFXFX",
"FXFXFXFX                6 O.J.!.R.R.R.R.R.R.R.!.!.R.R.R.!.R.!.R.R.!.R.R.R.!.R.R.R.!.!.R.R.~.!.0.z @             FXFXFXFX",
"FXFXFXFX                , U 8.t.t.x.I.!.R.R.R.!.R.R.R.R.!.R.R.R.R.R.R.R.R.R.R.R.R.!.R.m.t.t.8.` 0               FXFXFXFX",
"FXFXFXFX                @ 6 d d m O.m.~.!.R.R.R.R.R.!.R.R.R.!.R.R.!.!.R.R.!.R.!.!.!.I.2.J d d i :               FXFXFXFX",
"FXFXFXFX                        & U m.~.!.!.!.!.!.!.!.!.!.!.!.!.!.!.!.!.!.!.!.~.~.~.J.O.6 @                     FXFXFXFX",
"FXFXFXFX                        & U m.).~.!.!.!.!.!.!.!.!.!.!.!.!.!.!.!.~.~.~.~.~.~.I.O.6                       FXFXFXFX",
"FXFXFXFXy i d d d d d d y ,     @ F 8.m.x.k.k.k.x.x.x.k.k.k.x.k.k.k.k.x.k.k.x.k.k.x.s.( 5             & 6 i d d z FXFXFX",
"FX    , ` s.S.B.B.B.S.S.i.J &     0 V U U J J U J J U J U J J U J J U J J U U J J U J i &             6 { x.J.x.O.i     ",
"      , $.,XcXcXkXkXkXkX,X$.,       @ & & & & : & & & & & & & & & & & & & & & & & & & @               i x.rXMXwXk.y     ",
"      , =.9XZXZXZXZXZXZX7X,.:                                                                         i m.cXZXkXx.i     ",
"      , $.5XZXZXCXCXZXZX7X=.:                                                                 @ : , , m S.kXZXfXk.y     ",
"      , $.5XZXCXCXMXZXZX7X=.,                                                               @ 0 ( ,.2.k.#XcXZXfXx.i     ",
"      , =.5XZXZXMXCXCXZX7X=.,                                                               @ V I.9XwXwXkXCXZXiXx.y     ",
"      : $.9XZXZXZXZXZXZX9X=.:                                                               @ U @XZXZXZXZXZXZXkXm.y     ",
"      , $.<XMXMXcXcXcXCX<X=.5 @ & & @ & @ @                                   @ & & & & &   & E ].cXMXcXcXcXMXrXk.y     ",
"FX    , ( m.!.!.!.!.!.!.J.8.` W W W ( ( W F 6 @                             & z W ( W ( ( W ( =.m.R.!.R.!.!.~.J.X.6     ",
"FXFXFXFXz x V V m V m m W s..X#X#X#X#X=X#Xx.x                               0 2.].=X#X#X#X=X@XS.X.V m m V V V m y &     ",
"FXFXFXFX  @ @   @   @   d m.kXZXZXZXZXZXZX].U                               i m.kXZXZXZXZXZXMX].J @   @ @   @ @         ",
"FXFXFXFX                i B.kXZXZXZXCXZXZX@XJ @       @                     d B.kXZXCXZXZXZXMX].J                       ",
"FXFXFXFX                y 2.@X<X,X=X=X,X=XS.W i 0 y y y y y i y y y y y y 0 F i.@X<X,X=X,X<X=Xx.m @   & 0 x m z 6 &     ",
"FXFXFXFX                : x ` { { { X.{ { X.=.=.,.=.=.,.,.=.,.,.,.,.=.,.,.=.=.O.{ { ` { ` X.{ J 6     0 O.S.!.B.{ 5     ",
"FXFXFXFX                  @ & : & & : & : x 0.I.!.R.I.R.I.R.I.R.I.R.R.I.!.R.x.U , & : & & : & &       d m.iXMXwXk.y     ",
"FXFXFXFX                                  d t.).].).).).~.).).).~.).).].].].B.J @                     d S.MXZXkXB.i     ",
"FXFXFXFX6 6 0 0 0 0 0 0 6 &       & : , , V 2.S.S.S.S.S.S.S.B.S.S.B.B.S.S.S.s.E 6 , , &               y s.7XfX5Xi.y     ",
"FXFX  , E 2.t.i.t.t.t.s.,.x &   @ i U ` ` ` ( ` ` ( ( ( ( ` ( ` ` ` ` ( ( ` ` ` ` ` ( x &             5 E 8.i.0.{ 0 FXFX",
"FX    , X.#XrXiXwXrXrXiX@XO.,   @ F i.I.S.8.m , , , , , , , , , , , , , , , i X.m.I.x.` 5 @           @ : 5 6 0 FXFXFXFX",
"      , $.7XZXZXZXZXZXZX7X,.,   @ U B.].~.0.z                               5 O.I.].I.O.6                       FXFXFXFX",
"      , =.7XZXZXCXCXZXZX7X=.:   & E m.).!.0.x & @ & & : : & : & & : & & & @ 0 $.I.].I.X.6                       FXFXFXFX",
"      , $.5XZXZXCXMXZXZX7X=.:   & U x.~.!.k.X.F V J W { { { { { { { ( J V V E 0.I.).J.X.0                 FXFXFXFXFXFXFX",
"      , $.7XZXZXMXCXZXZX5X=.,   & J x.!.!.J.m.s.s.m.~.#X,X,X,X,X,X,X].J.k.s.x.S.R.!.J.X.6               FXFXFXFXFXFXFXFX",
"      , =.9XZXZXZXZXZXZX9X,.,   & U x.).~.~.!.R.!..X9XMXZXZXZXZXCXCXfX#X!.!.~.!.~.).I.O.6               FXFXFXFXFXFXFXFX",
"      : $.5XCXZXZXZXCXZX9X=.,   & U x.~.~.!.!.R.R..X9XMXZXZXZXZXZXCXiX#XR.!.!.!.~.~.J.O.6               FXFXFXFXFXFXFXFX",
"FX    , { R.#X@X#X@X#X#XI.( :   & m 2.s.s.x.I.!.R.).,XrXfXiXiXiXfXrX7X.X!.R.R.x.s.s.0.W 5               FXFXFXFXFXFXFXFX",
"FXFXFXFXx E ( W ( W ( ( U y       5 z m m ` s.R.!.!..X#X#X=X#X@X#X#X.X~.!.R.B.O.F m x 0 &       FXFXFXFXFXFXFXFXFXFXFXFX",
"FXFXFXFX& @ @ & @ @ @ & @       @   @   @ x 0.!.~.~.!.!.!.!.!.!.~.~.~.!.~.).m.E :     @         FXFXFXFXFXFXFXFXFXFXFXFX",
"FXFXFXFX                                  z 0.!.).~.!.!.R.!.!.!.!.!.!.~.~.).m.J @               FXFXFXFXFXFXFXFXFXFXFXFX",
"FXFXFXFXFX                                d ,.m.S.m.m.m.m.m.m.B.m.m.B.m.B.B.t.E 0 5 5 :         FXFXFXFXFXFXFXFXFXFXFXFX",
"FXFXFXFXFXFXFXFXFXFXFXFXFXFXFXFXFXFXFXFXFXi F E W W E E W E E E E W W W E W W ` X.X.` m :       FXFXFXFXFXFXFXFXFXFXFXFX",
"FXFXFXFXFXFXFXFXFXFXFXFXFXFXFXFXFXFXFXFXFXFX: & & : : : : : & : : & : : & & y X.B.I.B.{ 6       FXFXFXFXFXFXFXFXFXFXFXFX",
"FXFXFXFXFXFXFXFXFXFXFXFXFXFXFXFXFXFXFXFXFXFX                                5 $.!..XR.$.6       FXFXFXFXFXFXFXFXFXFXFXFX",
"FXFXFXFXFXFXFXFXFXFXFXFXFXFXFXFXFXFXFXFXFXFX                                6 X.S.!.B.X.6 @     FXFXFXFXFXFXFXFXFXFXFXFX",
"FXFXFXFXFXFXFXFXFXFXFXFXFXFXFXFXFXFXFXFXFXFX                                : V X.=.O.J 6     FXFXFXFXFXFXFXFXFXFXFXFXFX",
"FXFXFXFXFXFXFXFXFXFXFXFXFXFXFXFXFXFXFXFXFXFXFXFXFXFXFXFXFXFX                @ : 6 0 0 i FXFXFXFXFXFXFXFXFXFXFXFXFXFXFXFX",
"FXFXFXFXFXFXFXFXFXFXFXFXFXFXFXFXFXFXFXFXFXFXFXFXFXFXFXFXFXFXFX                        FXFXFXFXFXFXFXFXFXFXFXFXFXFXFXFXFX",
"FXFXFXFXFXFXFXFXFXFXFXFXFXFXFXFXFXFXFXFXFXFXFXFXFXFXFXFXFXFXFX                        FXFXFXFXFXFXFXFXFXFXFXFXFXFXFXFXFX",
"FXFXFXFXFXFXFXFXFXFXFXFXFXFXFXFXFXFXFXFXFXFXFXFXFXFXFXFXFXFXFX                        FXFXFXFXFXFXFXFXFXFXFXFXFXFXFXFXFX"
};
