/* XPM */
static char *xpm_[] = {
/* columns rows colors chars-per-pixel */
"64 64 178 2 ",
"   c #000000",
".  c #080101",
"X  c #00171E",
"o  c #161616",
"O  c #190304",
"+  c #380709",
"@  c #340A07",
"#  c #392409",
"$  c #001A23",
"%  c #002029",
"&  c #002E3B",
"*  c #002936",
"=  c #343030",
"-  c #4B090B",
";  c #67150C",
":  c #731B0D",
">  c #71170D",
",  c #6F0D11",
"<  c #700D11",
"1  c #770F10",
"2  c #412203",
"3  c #74220D",
"4  c #7D230F",
"5  c #6A3A09",
"6  c #773B00",
"7  c #793D02",
"8  c #773306",
"9  c #432D21",
"0  c #354819",
"q  c #384738",
"w  c #3B4838",
"e  c #56421F",
"r  c #7B4409",
"t  c #7A4707",
"y  c #77491A",
"u  c #664900",
"i  c #4B5038",
"p  c #505034",
"a  c #6E543C",
"s  c #785A3E",
"d  c #003748",
"f  c #164F5A",
"g  c #1B565F",
"h  c #004D65",
"j  c #00526A",
"k  c #005670",
"l  c #005A76",
"z  c #08627C",
"x  c #5D5E5F",
"c  c #5E494A",
"v  c #614D51",
"b  c #72595A",
"n  c #77685B",
"m  c #6C6C6C",
"M  c #777777",
"N  c #7A7A7A",
"B  c #766C61",
"V  c #871513",
"C  c #9B1716",
"Z  c #AC111B",
"A  c #A11319",
"S  c #B5141C",
"D  c #BB141C",
"F  c #B01117",
"G  c #BB0F19",
"H  c #88290D",
"J  c #98310D",
"K  c #CD181F",
"L  c #D5141C",
"P  c #D9141C",
"I  c #CE1520",
"U  c #D21920",
"Y  c #DB1822",
"T  c #D41621",
"R  c #E41A23",
"E  c #ED1C24",
"W  c #F11C25",
"Q  c #8C4807",
"!  c #88470A",
"~  c #974C01",
"^  c #9A4603",
"/  c #9F5002",
"(  c #844F1B",
")  c #865215",
"_  c #90590E",
"`  c #A34F00",
"'  c #A35101",
"]  c #A7580C",
"[  c #B35700",
"{  c #AD5E11",
"}  c #8E6E0E",
"|  c #976101",
" . c #8B7503",
".. c #907504",
"X. c #87582A",
"o. c #895E35",
"O. c #C35F00",
"+. c #C66201",
"@. c #CC6300",
"#. c #D56801",
"$. c #DD6C00",
"%. c #C07600",
"&. c #E16F00",
"*. c #E37100",
"=. c #ED7400",
"-. c #F47600",
";. c #F77A00",
":. c #FF7E00",
">. c #836C56",
",. c #8F7862",
"<. c #988E01",
"1. c #979101",
"2. c #999200",
"3. c #A69601",
"4. c #B4AB00",
"5. c #BCB600",
"6. c #FF8100",
"7. c #FF8D00",
"8. c #FF9400",
"9. c #FF9D00",
"0. c #DCB500",
"q. c #C1B700",
"w. c #FFA400",
"e. c #FFAF00",
"r. c #FFB300",
"t. c #FFBD00",
"y. c #D4CC00",
"u. c #DBD200",
"i. c #E1CC00",
"p. c #FFC200",
"a. c #FFCB00",
"s. c #F4C300",
"d. c #FFD000",
"f. c #FFDD00",
"g. c #E3DC00",
"h. c #FFE300",
"j. c #FFEB00",
"k. c #F3E800",
"l. c #FFF200",
"z. c #FFF800",
"x. c #90806F",
"c. c #91877D",
"v. c #00698A",
"b. c #00769B",
"n. c #017EA4",
"m. c #0084AF",
"M. c #0089B3",
"N. c #008FBC",
"B. c #0091BE",
"V. c #0094C4",
"C. c #009DCD",
"Z. c #00A5DA",
"A. c #00A5D9",
"S. c #00AEE4",
"D. c #00B6ED",
"F. c #00B7F0",
"G. c #00BAF3",
"H. c #989592",
"J. c #8F8C89",
"K. c #A49E98",
"L. c #ABABAA",
"P. c #ACA7A2",
"I. c #B5B2AF",
"U. c #B5B7B9",
"Y. c #B0ADAB",
"T. c #C7CACC",
"R. c #C7C8C9",
"E. c #DBDCDD",
"W. c #D3D4D4",
"Q. c #DADDE0",
"!. c #DFE2E4",
"~. c #E1E1E1",
"^. c #E9EBED",
"/. c #ECEFF1",
"(. c #EFF1F2",
"). c #FFFFFF",
"_. c #F4F5F5",
"`. c None",
/* pixels */
"`.`.`.`.`.`.`.`.`.`.`.`.`.`.`.`.`.`.`.`.`.`.`.`.`.`.`.`.`.`.`.`.`.`.`.`.`.`.`.`.`.`.`.`.`.`.`.`.`.`.`.`.`.`.`.`.`.`.`.`.`.`.`.`.",
"`.`.`.`.`.`.`.`.`.`.`.`.`.`.`.`.`.`.`.`.`.`.`.`.`.`.`.`.`.`.`.`.`.`.`.`.`.`.`.`.`.`.`.`.`.`.`.`.`.`.`.`.`.`.`.`.`.`.`.`.`.`.`.`.",
"`.`.`.`.`.`.`.`.`.`.`.`.`.`.`.`.`.`.`.`.`.`.`.`.`.`.`.`.`.`.`.`.`.`.`.`.`.`.`.`.`.`.`.`.`.`.`.`.`.`.`.`.`.`.`.`.`.`.`.`.`.`.`.`.",
"`.`.`.`.`.`.`.`.`.`.`.`.`.`.`.`.`.`.`.`.`.`.`.`.`.`.`.`.`.`.`.`.`.`.`.`.`.`.`.`.`.`.`.`.`.`.`.`.`.`.`.`.`.`.`.`.`.`.`.`.`.`.`.`.",
"`.`.`.`.`.`.`.`.`.`.`.`.`.`.`.`.`.`.`.`.`.`.`.`.`.`.`.`.`.`.`.`.`.`.`.`.`.`.`.`.`.`.`.`.`.`.`.`.`.`.`.`.`.`.`.`.`.`.`.`.`.`.`.`.",
"`.`.`.`.`.`.`.`.`.`.`.`.`.`.`.`.`.`.`.`.`.`.`.`.`.`.`.`.`.`.`.`.`.`.`.`.`.`.`.`.`.`.`.`.`.`.`.`.`.`.`.`.`.`.`.`.`.`.`.`.`.`.`.`.",
"`.`.`.`.`.`.`.`.`.`.`.`.`.`.`.`.`.`.`.`.`.`.`.X X X X X X X X X X X X X X X X X X `.`.`.`.`.`.`.`.`.`.`.`.`.`.`.`.`.`.`.`.`.`.`.",
"`.`.`.`.`.`.`.`.`.`.`.`.`.`.`.`.`.`.`.`.`.`.h V.C.C.C.C.C.C.C.C.C.C.C.C.C.C.C.A.V.h `.`.`.`.`.`.`.`.`.`.`.`.`.`.`.`.`.`.`.`.`.`.",
"`.`.`.`.`.`.`.`.`.`.`.`.`.`.`.`.`.$ % d b.B.D.F.F.F.F.G.F.F.F.F.F.F.F.F.G.G.F.F.F.F.M.b.d % $ `.`.`.`.`.`.`.`.`.`.`.`.`.`.`.`.`.",
"`.`.`.`.`.`.`.`.`.`.`.`.`.`.* j j B.A.Z.G.G.F.D.G.G.G.G.G.G.G.G.F.G.G.G.G.G.G.G.G.F.G.G.S.Z.N.j j * `.`.`.`.`.`.`.`.`.`.`.`.`.`.",
"`.`.`.`.`.`.`.`.`.`.& & b.m.V.F.G.D.F.F.G.G.A.V.V.V.V.V.V.V.V.V.V.V.V.V.V.V.V.V.V.Z.G.G.F.F.F.G.F.V.m.b.& & `.`.`.`.`.`.`.`.`.`.",
"`.`.`.`.`.`.X k l n.S.S.F.G.F.D.G.F.D.D.M.z i t r r r r r r r # 5 r r r r r r r r i z m.S.D.G.G.D.F.G.D.S.S.m.l k X `.`.`.`.`.`.",
"`.`.$ d v.B.V.D.G.G.F.G.D.F.G.F.V.n.q = ) @.=.6.6.:.6.6.6.6.6.6 *.6.6.6.6.:.6.6.:.=.@.) q q n.N.D.G.G.D.F.D.F.G.D.B.B.v.d X `.`.",
"`.`.j D.D.G.F.D.F.G.G.G.S.Z.z g ! / -.:.:.:.:.:.:.:.:.:.:.:.:.6 *.6.:.:.:.:.:.:.:.:.:.:.;.-./ ! g z Z.S.G.G.F.F.F.G.F.D.D.j `.`.",
"`.`.j F.F.F.F.D.G.A.n.n.w e +.&.:.6.:.:.:.:.:.:.:.:.:.:.:.:.6.6 &.:.:.:.:.:.:.:.:.:.:.:.:.:.:.:.$.+.e w n.n.A.G.F.F.D.D.F.k `.`.",
"`.`.k G.F.S.Z.m.f p ' ' =.:.6.6.:.:.:.:.:.:.:.:.:.:.:.:.:.:.:.6 &.6.:.:.:.:.:.:.:.:.:.:.:.:.:.:.6.6.6.-.' ' p f m.Z.D.F.G.k `.`.",
"`.`.k G.G.N.0 } &.-.:.6.6.:.:.:.:.:.:.:.:.:.:.:.:.:.:.:.:.:.6.6 &.:.:.:.:.:.:.:.:.:.:.:.:.:.:.:.:.:.:.:.6.6.-.*.} 0 N.G.G.k `.`.",
"`.`.k G.G.m.2.j.d.r.7.6.:.:.:.:.:.:.:.:.:.:.:.:.:.:.:.:.:.:.6.6 &.:.:.:.:.:.:.:.:.:.:.:.:.:.:.:.:.:.:.:.6.7.r.d.j.2.m.G.G.k `.`.",
"`.`.k G.G.m.2.z.l.l.j.a.e.e.6.6.:.:.:.:.:.:.:.:.:.:.:.:.:.:.:.6 $.6.:.:.:.:.:.:.:.:.:.:.:.:.:.:.6.6.e.e.d.j.l.l.z.1.M.G.G.k `.`.",
"`.`.k G.G.m.1.z.l.l.z.z.l.l.f.d.9.8.:.:.:.:.:.:.:.:.:.:.:.:.6.8 *.:.:.:.:.:.:.:.:.:.:.:.:.:.8.9.d.f.l.l.l.l.l.l.z.1.m.G.G.k `.`.",
"`.`.k G.G.m.1.z.l.l.l.j.l.j.z.l.l.h.t.e.6.6.:.:.:.:.:.:.:.:.6.8 $.:.:.:.:.:.:.:.:.:.:.6.r.t.k.j.l.l.l.l.l.l.l.l.z.1.m.G.G.k `.`.",
"`.`.k G.G.m.1.z.l.l.l.l.l.l.l.l.l.l.z.l.f.a.9.8.:.:.:.:.:.:.6.7 *.:.:.:.:.:.:.:.7.9.a.h.l.l.l.l.l.l.l.l.l.l.l.l.z.1.m.G.G.k `.`.",
"`.`.k G.G.m.1.z.l.l.l.l.l.l.l.l.l.l.j.l.l.l.l.h.p.p.8.6.:.:.:.7 &.:.:.:.6.9.p.p.h.l.l.l.l.l.l.l.l.l.l.l.l.l.l.l.z.1.m.G.G.k `.`.",
"`.`.k G.G.m.1.z.l.l.l.l.l.l.l.l.l.l.l.l.l.l.l.l.l.l.j.h.r.w.7.7 *.6.w.r.h.h.l.z.l.l.l.l.j.l.l.l.l.l.l.l.j.l.l.l.z.1.m.G.G.k `.`.",
"`.`.k G.G.m.| t.h.j.l.l.l.l.l.l.l.l.l.l.l.l.j.l.l.l.z.z.g.u.0.u %.0.u.l.z.z.l.l.l.l.l.l.l.l.l.l.l.l.l.l.l.z.j.h.t.| m.G.G.k `.`.",
"`.`.k G.G.m.~ 6.6.w.p.f.l.l.l.l.l.j.l.l.l.l.l.z.l.y.<.<.8 : 3 + ; : 3 ..<.4.j.l.l.l.l.l.l.l.l.l.l.l.l.l.d.p.w.6.6.~ M.G.G.k `.`.",
"`.`.k G.G.M.~ 6.:.:.:.7.9.t.f.j.z.l.l.l.l.l.l.y. .H Z Z R W W < U E E D Z C t 5.k.l.l.l.l.l.l.l.j.f.p.9.7.:.:.:.6.~ m.G.G.k `.`.",
"`.`.k G.G.m.~ 6.:.:.:.:.:.:.6.w.t.f.l.l.z.u. .4 D R W W E E E , U E E W W E U V _ 4.z.l.l.j.h.t.w.6.:.:.:.:.:.:.6.~ m.G.G.k `.`.",
"`.`.k G.G.m.~ 6.:.:.:.:.:.:.:.:.:.7.9.s.5.Q D E W E E E E E E , U E E E E E E W I C 3.i.a.8.7.:.:.:.:.:.:.:.:.:.6.~ M.G.G.k `.`.",
"`.`.k G.G.m.~ 6.:.:.:.:.:.:.:.:.:.:.;.^ V Y W E E E E E E E E , U E E E E E E E W E C H $.:.:.:.:.:.:.:.:.:.:.:.6.~ m.G.G.k `.`.",
"`.`.k G.G.m.~ 6.:.:.:.:.:.:.:.:.:.;.J S W W E E E E E E E E E , U E E E E E E E E E W Y H $.:.:.:.:.6.:.:.:.:.:.6.~ m.G.G.k `.`.",
"`.`.k G.G.M.~ 6.:.:.:.:.:.:.:.:.:.+.V E E E E E E E E E E E E , U E E E E E E E E E E W S Q 6.:.:.:.:.:.:.:.:.:.6.~ m.G.G.k `.`.",
"`.`.k G.G.m.~ 6.:.:.:.:.:.:.:.:.&.H Y E E E E E E E E E E E E , U E E E E E E E E E E E R C [ 6.:.:.:.:.:.:.:.:.6.~ m.G.G.k `.`.",
"`.`.k G.G.m.~ 6.:.:.:.:.:.:.:.6.~ Z W E E E E E E E E E E E E , U E E E E E E E E E E E E R 3 -.:.:.:.:.:.:.:.:.6.~ m.G.G.k `.`.",
"`.`.k G.G.M.~ 6.:.:.:.:.:.:.:.*.> E E E E E E E E E E E E E E , K W W E E E E E E E E E E W A ' 6.:.:.:.:.:.:.:.6.~ m.G.G.k `.`.",
"`.`.k G.G.m.~ 6.:.:.:.:.:.:.:.+.V E E E E E E E E E E W R S - O @ V Y E E E E E E E E E E W F ^ :.:.:.:.:.:.:.:.6.~ m.G.G.k `.`.",
"`.`.k G.G.m.~ 6.:.:.:.:.:.:.:.8 K E E E E E E E E E E E < .         + K E E E E E E E E E E E > *.:.:.:.:.:.:.:.6.~ M.G.G.k `.`.",
"`.`.k G.G.m.~ 6.:.:.:.:.:.:.:.8 I E E E E W E W E E R ,               + U E E E E E E E E W W > &.6.:.:.:.:.:.:.6.~ m.G.G.k `.`.",
"`.`.k G.G.m.~ 6.:.:.:.:.:.:.;.8 G P L L L K L L L P S .                 < P K L L L L L L L P ; &.6.:.:.:.:.:.:.6.~ m.G.G.k `.`.",
"`.`.k G.G.m.~ 6.:.:.:.:.:.:.:.5 v b b b b b b b b b c                 . = b b b b b b b b b b = *.6.:.:.:.:.:.:.6.~ m.G.G.k `.`.",
"`.`.k G.G.m.~ 6.:.:.:.:.:.:.:.y ^.).).).).).).).).).E.o                 H.).).).).).).).).).).B &.6.:.:.:.:.:.:.6.~ m.G.G.k `.`.",
"`.`.k G.G.m.~ 6.:.:.:.:.:.:.:.] I.).).).).).).).).).).L.o             m _.).).).).).).).).).!.o.=.:.:.:.:.:.:.:.6.~ m.G.G.l `.`.",
"`.`.k G.G.m.~ 6.:.:.:.:.:.:.6.&.n ).).).).).).).).).).).P.=       o m _.).).).).).).).).).).I./ :.:.:.:.:.:.:.:.6.~ m.G.G.k `.`.",
"`.`.k G.G.m.~ 6.:.:.:.:.:.:.:.-.o.E.).).).).).).).).).).).^.J.= m W.).).).).).).).).).).).).,.@.6.:.:.:.:.:.:.:.6.~ m.G.G.k `.`.",
"`.`.k G.G.m.~ 6.:.:.:.:.:.:.:.6.[ H.).).).).).).).).).).).).).N ~.).).).).).).).).).).).).W.( :.:.:.:.:.:.:.:.:.6.~ m.G.G.k `.`.",
"`.`.k G.G.M.~ 6.:.:.:.:.:.:.:.:.:.{ L.).).).).).).).).).).).).M ~.).).).).).).).).).).).!.o.=.:.:.:.:.:.:.:.:.:.6.~ m.G.G.k `.`.",
"`.`.k G.G.m.~ 6.:.:.:.:.:.:.:.:.6.&.>.(.).).).).).).).).).).).M ~.).).).).).).).).).).).K.[ 6.:.:.:.:.:.:.:.:.:.6.~ m.G.G.k `.`.",
"`.`.l G.G.m.~ 6.:.:.:.:.:.:.:.:.:.:.#.,.!.).).).).).).).).).).M ~.).).).).).).).).)./.P.{ :.:.:.:.:.:.:.:.:.:.6.6.~ m.G.G.k `.`.",
"`.`.k G.G.M.~ 6.:.:.:.:.:.:.:.:.:.:.6.#.y Y.).).).).).).).).).M Q.).).).).).).).).W.s ] :.:.:.:.:.:.:.:.:.:.:.:.6.~ m.G.G.k `.`.",
"`.`.k G.G.m.~ 6.:.:.:.:.:.:.:.:.:.:.:.:.:.{ n R._.).).).).).).M Q.).).).).).).E.c.X.-.:.:.:.:.:.:.:.:.:.:.:.:.:.6.~ M.G.G.k `.`.",
"`.`.k G.G.m.~ 6.:.:.:.:.:.:.6.:.:.:.:.:.:.:.&.Q ,.U.)._.).).).N ~.).).).).E.J.( +.;.6.:.:.:.:.:.:.:.:.:.:.:.:.:.6.~ m.G.G.k `.`.",
"`.`.k G.G.m.~ 6.:.:.:.:.:.:.:.:.:.:.:.:.:.:.:.:.#./ a b I.T.T.x I.T.T.>.a X.+.;.:.:.:.:.:.:.:.:.:.:.:.:.:.:.:.:.6.~ m.G.G.k `.`.",
"`.`.k G.G.m.~ 6.:.:.:.:.:.:.:.:.:.:.:.:.:.:.:.:.6.6.-.=.' ! Q 2 7 ! Q $.;.;.:.:.:.:.:.:.:.:.:.:.:.:.:.:.:.:.:.:.6.~ M.G.G.k `.`.",
"`.`.k G.G.m.~ 6.:.:.:.:.:.:.:.:.:.:.:.:.:.:.:.:.:.6.:.:.6.6.6.7 *.6.6.6.:.:.:.:.:.:.:.:.:.:.:.:.:.:.:.:.:.:.:.:.6.~ m.G.G.k `.`.",
"`.`.k G.G.m.~ 6.:.:.:.:.:.:.:.:.:.:.:.:.:.:.:.:.:.:.:.:.:.:.6.6 &.6.:.:.:.:.:.:.:.:.:.:.:.:.:.:.:.:.:.:.:.:.:.:.6.~ m.G.G.k `.`.",
"`.`.k G.G.m.~ 6.:.:.:.:.:.:.:.:.:.:.:.:.:.:.:.:.:.:.:.:.:.:.:.6 &.:.:.:.:.:.:.:.:.:.:.:.:.:.:.:.:.:.:.:.:.:.:.:.6.~ m.G.G.k `.`.",
"`.`.k G.G.m.~ 6.:.:.:.:.:.:.:.:.:.:.:.:.:.:.:.:.:.:.:.:.:.:.:.6 $.6.:.:.:.:.:.:.:.:.:.:.:.:.:.:.:.:.:.:.:.:.:.:.6.~ m.G.G.k `.`.",
"`.`.k G.G.m.~ 6.:.:.:.:.:.:.:.:.:.:.:.:.:.6.:.:.:.:.:.:.:.:.:.6 &.6.:.:.:.:.:.:.:.:.:.:.:.:.:.:.:.:.:.:.:.:.:.:.6.~ m.G.G.k `.`.",
"`.`.k G.G.m.~ 6.:.:.:.:.:.:.:.:.:.:.:.:.:.:.:.:.:.:.:.:.:.:.6.6 &.:.:.:.:.:.:.:.:.:.:.:.:.:.:.:.:.:.:.:.:.:.:.:.6.~ m.G.G.k `.`.",
"`.`.l G.G.m.~ 6.:.:.:.:.:.:.:.:.:.:.:.:.:.:.:.:.:.:.:.:.:.:.:.6 $.6.:.:.:.:.:.:.:.:.:.:.:.:.:.:.:.:.:.:.:.:.:.:.6.~ m.G.G.k `.`.",
"`.`.k G.G.M.~ 6.:.:.:.:.:.:.:.:.:.:.:.:.:.:.:.:.:.:.:.:.:.:.6.6 *.:.:.:.:.:.:.:.:.:.:.:.:.:.:.:.:.:.:.:.:.:.:.:.:.~ M.G.G.k `.`.",
"`.`.k G.G.m.~ 6.:.:.:.:.:.:.:.:.:.:.:.:.:.:.:.:.:.:.:.:.:.:.:.6 $.6.:.:.:.:.:.:.:.:.:.:.:.:.:.:.:.:.:.:.:.:.:.:.6.~ m.G.G.k `.`.",
"`.`.k G.G.m.~ 6.:.:.:.:.:.:.:.:.:.:.:.:.:.:.:.:.:.:.:.:.:.:.6.6 *.:.:.:.:.:.:.:.:.:.:.:.:.:.:.:.:.:.:.:.:.:.:.:.6.~ m.G.G.k `.`.",
"`.`.k G.G.m.~ 6.:.:.:.:.:.:.:.:.:.:.:.:.:.:.:.:.:.:.:.:.:.:.:.6 $.6.:.:.:.:.:.:.:.:.:.:.:.:.:.:.:.:.:.:.:.:.:.:.6.~ M.G.G.k `.`."
};
