/* XPM */
static char *xpm_[] = {
/* columns rows colors chars-per-pixel */
"64 64 166 2 ",
"   c #000000",
".  c #0A0400",
"X  c #0A0A00",
"o  c #000709",
"O  c gray4",
"+  c #050A09",
"@  c #00171E",
"#  c #001A23",
"$  c #002029",
"%  c #002936",
"&  c #002E3B",
"*  c #3A2D27",
"=  c #59080E",
"-  c #6F0A0E",
";  c #72180D",
":  c #7B0F13",
">  c #7F1312",
",  c #68140A",
"<  c #402709",
"1  c #79250C",
"2  c #673809",
"3  c #783503",
"4  c #432D21",
"5  c #354819",
"6  c #384738",
"7  c #3B4838",
"8  c #4D4900",
"9  c #56421F",
"0  c #7C4409",
"q  c #7A4707",
"w  c #77491A",
"e  c #7D7500",
"r  c #4B5038",
"t  c #505034",
"y  c #5B4632",
"u  c #7E5D3C",
"i  c #003748",
"p  c #164F5A",
"a  c #1B565F",
"s  c #004D65",
"d  c #00526A",
"f  c #005670",
"g  c #005A76",
"h  c #08627C",
"j  c #5E494A",
"k  c #614D51",
"l  c #72595A",
"z  c #77685B",
"x  c #766C61",
"c  c #871513",
"v  c #9E1916",
"b  c #8D0D16",
"n  c #A8131A",
"m  c #BB151C",
"M  c #B3131B",
"N  c #BB0F19",
"B  c #88290D",
"V  c #98310D",
"C  c #C4171E",
"Z  c #C8181E",
"A  c #D5141C",
"S  c #D9141C",
"D  c #CE1520",
"F  c #DB1822",
"G  c #D41621",
"H  c #ED1C24",
"J  c #F11C25",
"K  c #844100",
"L  c #88470B",
"P  c #974C01",
"I  c #9A4603",
"U  c #9F5002",
"Y  c #844F1B",
"T  c #865215",
"R  c #905A0E",
"E  c #A34F00",
"W  c #A45100",
"Q  c #A95A0C",
"!  c #A2560C",
"~  c #B35700",
"^  c #AD5E11",
"/  c #8E6E0E",
"(  c #976101",
")  c #897502",
"_  c #88592B",
"`  c #895E35",
"'  c #C35F00",
"]  c #C66201",
"[  c #CB6300",
"{  c #D36800",
"}  c #DD6C00",
"|  c #D26700",
" . c #D27F00",
".. c #E46D00",
"X. c #E27100",
"o. c #ED7400",
"O. c #F47600",
"+. c #F77A00",
"@. c #FF7E00",
"#. c #81674E",
"$. c #8F7862",
"%. c #878100",
"&. c #979101",
"*. c #999200",
"=. c #A69601",
"-. c #B6AD00",
";. c #BCB600",
":. c #FF8100",
">. c #FF8D00",
",. c #FF9300",
"<. c #FF9C00",
"1. c #C1B700",
"2. c #FFA600",
"3. c #FFAF00",
"4. c #FFB300",
"5. c #FFBD00",
"6. c #D6CD00",
"7. c #D2C100",
"8. c #DBD100",
"9. c #E1CC00",
"0. c #FFC300",
"q. c #FFCB00",
"w. c #F4C300",
"e. c #FFD000",
"r. c #FFDD00",
"t. c #FFE300",
"y. c #FFEC00",
"u. c #F3E800",
"i. c #FFF200",
"p. c #FFF800",
"a. c #90806F",
"s. c #91877D",
"d. c #00698A",
"f. c #00769B",
"g. c #017EA4",
"h. c #0084AF",
"j. c #0089B3",
"k. c #008FBC",
"l. c #0091BE",
"z. c #0095C4",
"x. c #009DCD",
"c. c #00A5DA",
"v. c #00AADE",
"b. c #00A1D4",
"n. c #00AEE4",
"m. c #00B6ED",
"M. c #00B7F0",
"N. c #00BAF3",
"B. c #848484",
"V. c #98918B",
"C. c #A49E98",
"Z. c #AEABA7",
"A. c #B3AFAC",
"S. c #BFBFC0",
"D. c #CECFD1",
"F. c #D2D2D2",
"G. c #D9DADB",
"H. c #C8C8C8",
"J. c #DADDE0",
"K. c #DFE2E4",
"L. c #E2E4E6",
"P. c #ECEFF1",
"I. c #EFF1F2",
"U. c #FFFFFF",
"Y. c #F5F6F8",
"T. c None",
/* pixels */
"T.T.T.T.T.T.T.T.T.T.T.T.T.T.T.T.T.T.T.T.T.T.T.T.T.T.T.T.T.T.T.T.T.T.T.T.T.T.T.T.T.T.T.T.T.T.T.T.T.T.T.T.T.T.T.T.T.T.T.T.T.T.T.T.",
"T.T.T.T.T.T.T.T.T.T.T.T.T.T.T.T.T.T.T.T.T.T.T.T.T.T.T.T.T.T.T.T.T.T.T.T.T.T.T.T.T.T.T.T.T.T.T.T.T.T.T.T.T.T.T.T.T.T.T.T.T.T.T.T.",
"T.T.T.T.T.T.T.T.T.T.T.T.T.T.T.T.T.T.T.T.T.T.T.T.T.T.T.T.T.T.T.T.T.T.T.T.T.T.T.T.T.T.T.T.T.T.T.T.T.T.T.T.T.T.T.T.T.T.T.T.T.T.T.T.",
"T.T.T.T.T.T.T.T.T.T.T.T.T.T.T.T.T.T.T.T.T.T.T.T.T.T.T.T.T.T.T.T.T.T.T.T.T.T.T.T.T.T.T.T.T.T.T.T.T.T.T.T.T.T.T.T.T.T.T.T.T.T.T.T.",
"T.T.T.T.T.T.T.T.T.T.T.T.T.T.T.T.T.T.T.T.T.T.T.T.T.T.T.T.T.T.T.T.T.T.T.T.T.T.T.T.T.T.T.T.T.T.T.T.T.T.T.T.T.T.T.T.T.T.T.T.T.T.T.T.",
"T.T.T.T.T.T.T.T.T.T.T.T.T.T.T.T.T.T.T.T.T.T.T.T.T.T.T.T.T.T.T.T.T.T.T.T.T.T.T.T.T.T.T.T.T.T.T.T.T.T.T.T.T.T.T.T.T.T.T.T.T.T.T.T.",
"T.T.T.T.T.T.T.T.T.T.T.T.T.T.T.T.T.T.T.T.T.T.T.@ @ @ @ @ @ @ @ @ @ @ @ @ @ @ @ @ @ T.T.T.T.T.T.T.T.T.T.T.T.T.T.T.T.T.T.T.T.T.T.T.",
"T.T.T.T.T.T.T.T.T.T.T.T.T.T.T.T.T.T.T.T.T.T.s z.x.x.x.x.x.x.x.x.x.x.x.x.x.x.x.b.z.s T.T.T.T.T.T.T.T.T.T.T.T.T.T.T.T.T.T.T.T.T.T.",
"T.T.T.T.T.T.T.T.T.T.T.T.T.T.T.T.T.# $ i f.j.M.M.M.M.M.M.M.M.M.M.M.M.M.M.M.N.M.M.M.M.j.f.i # # T.T.T.T.T.T.T.T.T.T.T.T.T.T.T.T.T.",
"T.T.T.T.T.T.T.T.T.T.T.T.T.T.% d s l.v.v.N.N.M.M.N.N.N.M.N.N.N.N.M.N.N.N.M.N.N.N.N.M.N.N.v.c.l.d d % T.T.T.T.T.T.T.T.T.T.T.T.T.T.",
"T.T.T.T.T.T.T.T.T.T.& & f.h.z.M.N.M.M.N.N.N.c.z.z.z.z.x.z.z.z.z.z.x.z.z.z.z.z.z.z.c.N.N.m.m.M.N.M.z.h.f.& & T.T.T.T.T.T.T.T.T.T.",
"T.T.T.T.T.T.@ f g g.n.n.M.N.M.m.N.M.m.M.j.h r q 0 0 2 + o o o o o o o o < 0 0 0 0 r h j.m.m.N.N.M.N.M.M.n.n.h.g f @ T.T.T.T.T.T.",
"T.T.# i d.k.z.m.N.N.M.N.M.m.N.m.z.g.6 * T [ o.:.:.:.{ X                 K :.:.:.@.o.[ T 6 6 g.k.m.N.M.M.M.m.M.N.M.l.l.d.i # T.T.",
"T.T.d m.m.N.M.m.M.N.N.N.n.v.h a L U O.@.@.:.@.@.@.:.| X                 K :.@.@.@.@.@.@.+.O.U L a h v.n.N.N.M.M.M.N.M.m.m.d T.T.",
"T.T.d M.M.m.M.M.N.b.g.g.7 9 ] ..@.@.@.@.@.@.@.@.@.@.| X                 K :.:.@.@.@.@.@.@.@.@.@.} ] 9 7 g.g.c.N.M.M.m.m.M.f T.T.",
"T.T.f N.m.m.c.h.p t W W o.@.:.@.@.@.@.@.@.@.@.@.@.@.| .                 K :.@.@.@.@.@.@.@.@.@.@.@.:.@.o.W W t p h.c.m.M.N.f T.T.",
"T.T.f N.N.k.5 / ..O.:.:.:.@.@.@.@.@.@.@.@.@.@.@.@.:.{ .                 K :.@.@.@.@.@.@.@.@.@.@.@.@.@.:.:.:.O.../ 5 k.M.N.f T.T.",
"T.T.f N.N.h.*.y.e.4.>.:.@.@.@.@.@.@.@.@.@.@.@.@.@.:.{ .                 K :.@.@.@.@.@.@.@.@.@.@.@.@.@.@.:.>.5.q.y.*.h.N.N.f T.T.",
"T.T.f N.N.h.*.p.i.i.y.q.3.3.:.:.@.@.@.@.@.@.@.@.@.:.{ .                 K :.@.@.@.@.@.@.@.@.@.@.@.:.3.3.e.y.y.p.p.&.h.N.M.f T.T.",
"T.T.f N.N.h.&.p.i.i.p.i.i.i.r.e.<.,.@.@.@.@.@.@.@.:.{ .                 K :.@.@.@.@.@.@.@.@.,.<.e.r.i.i.i.i.i.i.p.&.h.N.N.f T.T.",
"T.T.f N.N.h.&.p.i.i.i.i.i.i.i.i.i.t.5.4.:.:.@.@.@.@.| .                 K :.@.@.@.@.:.:.3.5.t.y.p.i.i.i.i.i.y.i.p.&.h.N.N.f T.T.",
"T.T.f N.N.h.&.p.i.i.i.i.i.i.i.i.i.y.p.y.r.q.<.,.@.@.| .                 K :.+.@.>.<.q.t.y.p.p.i.i.i.i.i.i.i.i.i.p.&.h.N.N.f T.T.",
"T.T.f N.N.h.&.p.i.i.y.i.i.i.i.i.i.i.i.i.i.i.i.t.0.0. ..                 K <.5.0.t.i.i.i.i.i.y.i.i.i.i.y.i.i.i.i.p.&.h.N.N.f T.T.",
"T.T.f N.N.h.&.p.i.i.i.i.i.i.i.i.i.i.i.i.i.i.i.i.p.p.7.X                 ) y.p.p.i.i.i.i.i.i.i.i.i.i.i.i.i.i.i.i.p.&.h.N.N.f T.T.",
"T.T.f N.N.j.( 5.t.y.i.i.i.i.i.i.i.i.i.i.i.i.i.i.i.p.6.O                 %.p.p.i.i.i.i.i.i.i.i.i.i.i.i.i.i.p.y.t.5.( h.N.N.f T.T.",
"T.T.f N.N.h.P :.:.2.0.r.i.i.i.i.i.i.i.i.i.i.i.i.i.6.e .                 8 -.y.i.i.i.i.i.i.i.i.i.i.i.i.y.r.0.2.:.:.P j.N.N.f T.T.",
"T.T.f N.N.h.P :.@.@.@.>.<.0.r.t.i.p.i.i.i.i.i.6.) B b .                 = v q ;.u.p.i.y.i.i.i.p.y.r.5.<.>.@.@.@.:.P h.N.N.f T.T.",
"T.T.f N.N.h.P :.@.@.@.@.@.:.:.2.5.r.y.i.p.8.) 1 m H C .                 > J G c T -.p.i.i.y.r.5.2.:.@.@.@.@.@.@.:.P h.N.N.f T.T.",
"T.T.f N.N.h.P :.@.@.@.@.@.@.@.@.@.>.<.w.;.L N H J H D .                 > J H J D v =.8.q.,.>.@.@.@.@.@.@.@.@.@.:.P j.N.N.f T.T.",
"T.T.f N.N.h.P :.@.@.@.@.@.@.@.@.@.@.+.P c F J H H J m .                 : J H H H H v B } @.@.@.@.@.@.@.@.@.@.@.:.P h.N.N.f T.T.",
"T.T.f N.N.h.P :.@.@.@.@.@.@.@.@.@.+.V m J J H H H H D .                 > J H H H H J F B } @.@.@.@.@.@.@.@.@.@.:.P h.N.N.f T.T.",
"T.T.f N.N.j.P :.@.@.@.@.@.@.@.@.@.[ > J H H H H H J C .                 : J H H H H H J m L :.@.@.@.@.@.@.@.@.@.:.P h.N.N.f T.T.",
"T.T.f N.N.h.P :.@.@.@.@.@.@.@.@.} B F H H H H H H J C .                 : J J H H H H H H v ~ @.@.@.@.@.@.@.@.@.:.P h.N.N.f T.T.",
"T.T.f N.N.h.P :.@.@.@.@.@.@.@.:.I M J H H H H H H H C .                 : J H H H H H H H F 1 o.@.@.@.@.@.@.@.@.:.P h.N.N.f T.T.",
"T.T.f N.N.j.P :.@.@.@.@.@.@.@.X.; H H H H H H H H H C .                 : J H H H H H H H J v E :.@.@.@.@.@.@.@.:.P h.N.N.f T.T.",
"T.T.f N.N.h.P :.@.@.@.@.@.@.@.[ c H H H H H H H H J C .                 : J H H H H H H H J M I @.@.@.@.@.@.@.@.:.P h.N.N.f T.T.",
"T.T.f N.N.h.P :.@.@.@.@.@.@.@.3 Z H H H H H H H H J C .                 : J J H H H H H H H H ; X.@.@.@.@.@.@.@.:.P h.N.N.f T.T.",
"T.T.f N.N.h.P @.@.@.@.@.@.@.@.3 D J H H H H H H H J C .                 : J J H H H H H H H H ; } @.@.@.@.@.@.@.:.P h.N.N.f T.T.",
"T.T.f N.N.j.P :.@.@.@.@.@.@.+.3 N S A A A A A A A A M .                 - S A A A A A A A A S , X.:.@.@.@.@.@.@.:.P h.N.N.f T.T.",
"T.T.f N.N.j.P :.@.@.@.@.@.@.@.2 k l l l l l l l l l j                 o * l l l l l l l l l l * X.:.@.@.@.@.@.@.:.P j.N.N.f T.T.",
"T.T.f N.N.h.P :.@.@.@.@.@.@.@.w L.U.U.U.U.U.U.U.U.U.F.O                 B.U.U.U.U.U.U.U.U.U.U.x ..@.@.@.@.@.@.@.:.P h.N.N.f T.T.",
"T.T.f N.N.h.P :.@.@.@.@.@.@.@.! A.U.U.U.U.U.U.U.U.U.F.O                 B.U.U.U.U.U.U.U.U.U.K.` o.@.@.@.@.@.@.@.:.P j.N.N.f T.T.",
"T.T.f N.N.h.P :.@.@.@.@.@.@.:...x U.U.U.U.U.U.U.U.U.F.O                 B.U.U.U.U.U.U.U.U.U.A.E :.@.:.@.@.@.@.@.:.P h.N.N.f T.T.",
"T.T.f N.N.h.P :.@.@.@.@.@.@.@.O.` G.U.U.U.U.U.U.U.U.F.O                 B.U.U.U.U.U.U.U.U.U.a.[ :.@.@.@.@.@.@.@.:.P h.N.N.f T.T.",
"T.T.f N.N.h.P :.@.@.@.@.@.@.@.:.~ V.U.U.U.U.U.U.U.U.F.O                 B.U.U.U.U.U.U.U.U.F.Y @.@.@.@.@.@.@.@.@.:.P j.N.N.f T.T.",
"T.T.f N.N.j.P :.:.@.@.@.@.@.@.@.:.Q A.U.U.U.U.U.U.U.F.O                 B.U.U.U.U.U.U.U.K.` o.@.@.@.@.@.@.@.@.@.:.P h.N.N.f T.T.",
"T.T.f N.N.h.P :.@.@.@.@.@.@.@.@.:...#.I.U.U.U.U.U.U.F.O                 B.U.U.U.U.U.U.U.C.~ :.@.@.@.@.@.@.@.@.@.:.P h.N.N.f T.T.",
"T.T.g N.N.h.P :.@.@.@.@.@.@.@.@.@.:.{ $.K.U.U.U.U.U.F.O                 B.U.U.U.U.U.P.Z.Q @.@.@.@.@.@.@.@.@.@.:.:.P h.N.N.f T.T.",
"T.T.f N.N.h.P :.:.@.@.@.@.@.@.@.@.@.:.{ w Z.U.U.U.U.F.O                 B.U.U.U.U.G.u Q @.@.@.@.@.@.@.@.@.@.@.@.:.P h.N.N.f T.T.",
"T.T.f N.N.h.P :.@.@.@.@.@.@.@.@.@.@.@.@.@.^ z H.Y.U.F.O                 B.U.U.G.s._ o.@.@.@.@.@.@.@.@.@.@.@.@.:.:.P h.N.N.g T.T.",
"T.T.f N.N.j.P :.@.@.@.@.@.@.@.@.@.@.@.@.@.@...L $.S.D.O                 B.L.V.w ] +.:.@.@.@.@.@.@.@.@.@.@.@.@.@.:.P h.N.N.f T.T.",
"T.T.f N.N.h.P :.@.@.@.@.@.@.@.@.@.@.@.@.@.@.@.:.[ ! y .                 * _ ' @.@.@.@.@.@.@.@.@.@.@.@.@.@.@.@.@.:.P h.N.N.f T.T.",
"T.T.f N.N.h.P :.@.@.@.@.@.@.@.@.@.@.@.@.@.@.@.:.:.:.] .                 3 :.:.@.@.@.@.@.@.@.@.@.@.@.@.@.@.@.@.@.:.P h.N.N.f T.T.",
"T.T.f N.N.h.P :.@.@.@.@.@.@.@.@.@.@.@.@.@.@.@.@.@.:.{ .                 K :.@.@.@.@.@.@.@.@.@.@.@.@.@.@.@.@.@.@.:.P h.N.N.f T.T.",
"T.T.f N.N.h.P :.@.@.@.@.@.:.@.@.@.@.@.@.@.@.@.@.@.@.{ .                 K :.@.@.@.@.@.@.@.@.@.@.@.@.@.@.@.@.@.@.:.P h.N.N.f T.T.",
"T.T.f N.N.h.P :.@.@.@.@.@.@.@.@.@.@.@.@.@.@.@.@.@.:.{ .                 K @.@.@.@.@.@.@.@.@.@.@.@.@.@.@.@.@.@.@.:.P h.N.N.f T.T.",
"T.T.f N.N.h.P :.@.@.@.@.@.@.@.@.@.@.@.@.@.@.@.@.:.:.{ .                 K :.@.@.@.@.@.@.@.@.@.@.@.@.@.@.@.@.@.@.:.P h.N.N.f T.T.",
"T.T.f N.N.h.P :.@.@.@.@.@.@.@.@.@.@.@.@.@.@.@.@.@.:.{ .                 K :.@.@.@.@.@.@.@.@.@.@.@.@.@.@.@.@.@.@.:.P j.N.N.f T.T.",
"T.T.f N.N.j.P :.@.@.@.@.@.@.@.@.@.@.@.@.@.@.@.@.@.:.{ .                 K :.@.@.@.@.@.@.@.:.@.@.@.@.@.@.@.@.@.@.:.P h.N.N.f T.T.",
"T.T.f N.N.h.P :.@.@.@.@.@.@.@.@.@.@.@.@.@.@.@.@.@.@.{ .                 K :.@.@.@.@.@.@.@.@.@.@.@.@.@.@.@.@.@.@.:.P h.N.N.f T.T.",
"T.T.f N.N.h.P :.@.@.@.@.@.@.@.@.@.@.@.@.@.@.@.@.@.:.{ .                 K :.@.@.@.@.@.@.@.@.@.@.@.@.@.@.@.@.@.@.:.P j.N.N.f T.T.",
"T.T.f N.N.h.P :.@.@.@.@.@.@.@.:.@.@.@.@.@.@.@.@.@.:.{ .                 K :.@.@.@.@.@.@.@.@.@.@.@.@.@.@.@.@.@.@.:.P h.N.N.f T.T.",
"T.T.f N.N.j.P :.@.@.@.@.@.@.@.@.@.@.@.@.:.@.@.@.@.:.{ .                 K :.@.@.@.@.@.@.@.@.@.@.:.@.@.@.@.@.@.@.:.P h.N.N.f T.T.",
"T.T.f N.N.h.P :.@.@.@.@.@.@.@.@.@.@.@.@.@.@.@.@.@.:.{ .                 K :.@.@.@.@.@.@.@.@.@.@.@.@.@.@.:.@.@.@.:.P h.N.N.f T.T."
};
